M48
;Layer_Color=9474304
;FILE_FORMAT=2:5
INCH,LZ
;TYPE=PLATED
T5F00S00C0.03937
;TYPE=NON_PLATED
%
G90
G05
T05
G00X0055118Y018435
M15
G01X0047244
M16
G00X003937Y0198917
M15
G01Y0206791
M16
G00X0062992Y0197933
M15
G01Y0207775
M16
G00X0731299Y0208858
M15
G01Y0199016
M16
G00X0754921Y0207874
M15
G01Y02
M16
G00X0739173Y0222441
M15
G01X0747047
M16
G00X0055118Y0539468
M15
G01X0047244
M16
G00X0731299Y0563976
M15
G01Y0554134
M16
G00X0754921Y0562992
M15
G01Y0555118
M16
G00X0739173Y0577559
M15
G01X0747047
M16
G00X0062992Y0553051
M15
G01Y0562894
M16
G00X003937Y0554035
M15
G01Y0561909
M16
M17
M30
