G04*
G04 #@! TF.GenerationSoftware,Altium Limited,Altium Designer,22.5.1 (42)*
G04*
G04 Layer_Color=16711935*
%FSLAX25Y25*%
%MOIN*%
G70*
G04*
G04 #@! TF.SameCoordinates,51788D37-BDA4-4E50-BAE2-16D2DB3F6F0A*
G04*
G04*
G04 #@! TF.FilePolarity,Negative*
G04*
G01*
G75*
%ADD73C,0.01968*%
%ADD130C,0.16548*%
%ADD131C,0.09776*%
%ADD132C,0.25800*%
%ADD133C,0.07887*%
%ADD134R,0.07887X0.07887*%
%ADD135O,0.22060X0.07887*%
%ADD136O,0.07887X0.22060*%
%ADD137O,0.07887X0.25603*%
%ADD138C,0.02756*%
D73*
X484252Y597244D02*
D03*
Y599606D02*
D03*
X484252Y428346D02*
D03*
Y425984D02*
D03*
X484252Y242126D02*
D03*
Y244488D02*
D03*
X484252Y73228D02*
D03*
Y70866D02*
D03*
X310039Y164665D02*
D03*
Y162303D02*
D03*
X310039Y333563D02*
D03*
Y335925D02*
D03*
X310039Y519783D02*
D03*
Y517421D02*
D03*
X310039Y688681D02*
D03*
Y691043D02*
D03*
D130*
X754921Y11811D02*
D03*
X39370D02*
D03*
D131*
X414213Y569055D02*
D03*
Y549055D02*
D03*
X434213D02*
D03*
Y569055D02*
D03*
X424213Y559055D02*
D03*
X414213Y213937D02*
D03*
Y193937D02*
D03*
X434213D02*
D03*
Y213937D02*
D03*
X424213Y203937D02*
D03*
X380079Y192854D02*
D03*
Y212854D02*
D03*
X360079D02*
D03*
Y192854D02*
D03*
X370079Y202854D02*
D03*
X380079Y547972D02*
D03*
Y567972D02*
D03*
X360079D02*
D03*
Y547972D02*
D03*
X370079Y557972D02*
D03*
D132*
X754606Y401221D02*
D03*
X417087Y701221D02*
D03*
Y411221D02*
D03*
X754606Y716221D02*
D03*
Y46102D02*
D03*
X417087Y346102D02*
D03*
Y56102D02*
D03*
X754606Y361102D02*
D03*
X39685Y360689D02*
D03*
X377205Y60689D02*
D03*
Y350689D02*
D03*
X39685Y45689D02*
D03*
Y715807D02*
D03*
X377205Y415807D02*
D03*
Y705807D02*
D03*
X39685Y400807D02*
D03*
D133*
X754421Y439815D02*
D03*
Y449815D02*
D03*
Y459815D02*
D03*
Y469815D02*
D03*
Y479815D02*
D03*
Y489815D02*
D03*
Y499815D02*
D03*
Y84697D02*
D03*
Y94697D02*
D03*
Y104697D02*
D03*
Y114697D02*
D03*
Y124697D02*
D03*
Y134697D02*
D03*
Y144697D02*
D03*
X39870Y322094D02*
D03*
Y312094D02*
D03*
Y302094D02*
D03*
Y292094D02*
D03*
Y282094D02*
D03*
Y272094D02*
D03*
Y262094D02*
D03*
Y677213D02*
D03*
Y667213D02*
D03*
Y657213D02*
D03*
Y647213D02*
D03*
Y637213D02*
D03*
Y627213D02*
D03*
Y617213D02*
D03*
D134*
X754421Y429815D02*
D03*
Y74697D02*
D03*
X39870Y332094D02*
D03*
Y687213D02*
D03*
D135*
X743110Y577559D02*
D03*
Y222441D02*
D03*
X51181Y184350D02*
D03*
Y539468D02*
D03*
D136*
X754921Y559055D02*
D03*
Y203937D02*
D03*
X39370Y202854D02*
D03*
Y557972D02*
D03*
D137*
X731299Y559055D02*
D03*
Y203937D02*
D03*
X62992Y202854D02*
D03*
Y557972D02*
D03*
D138*
X718504Y689961D02*
D03*
Y686024D02*
D03*
X718504Y514764D02*
D03*
Y518701D02*
D03*
X718504Y334842D02*
D03*
Y330906D02*
D03*
X718504Y159646D02*
D03*
Y163583D02*
D03*
X75787Y71949D02*
D03*
Y75886D02*
D03*
X75788Y247146D02*
D03*
Y243209D02*
D03*
X75787Y427067D02*
D03*
Y431004D02*
D03*
X75788Y602264D02*
D03*
Y598327D02*
D03*
M02*
