M48
;Layer_Color=9474304
;FILE_FORMAT=2:5
INCH,LZ
;TYPE=PLATED
T1F00S00C0.00787
T2F00S00C0.00984
T3F00S00C0.01181
T4F00S00C0.03937
T6F00S00C0.05984
T7F00S00C0.12500
;TYPE=NON_PLATED
T8F00S00C0.15748
%
T01
X0685606Y0066102
X0688386Y0064173
X0693504Y0061811
X0691535Y0070079
Y0072047
Y0074016
X0691354Y0076165
X0695457
X0712795Y0076378
X0718504Y0078937
X0731299Y0080315
X0713583Y0067126
X071063
X0707677
X0680106Y0068122
X0675Y0070079
Y0072047
Y0074016
X0677406Y0051378
X0677165Y0044488
X0654528Y0060236
X0649409Y0080709
X0634842Y0072102
X0619106Y0069602
X0616606Y0071602
X0612795Y0074803
X061437Y0076772
X0617507Y0078359
X0615158Y0064173
Y0057874
Y0055512
X0612795Y0056693
X0615565Y0043888
X0608827Y0043844
X0600639Y0050984
X0594322Y0053295
X0589606Y0053602
Y0055602
X0589567Y0058267
X0589606Y0051378
Y0044602
X0589567Y004252
X0593504
X0591106Y0040102
X0587606Y0039602
X0584646
X0581606Y0040102
X0579106
X0576106
X0573819Y004252
X0569882
X0565945
X0562008
X0558071
X0554134
X0550197
X054626
X0542323
X0538386
X0534449
X0530512
X0526575
X0524606Y0046457
X0528543
X053248
X0536417
X0540354
X0544291
X0548228
X0552165
X0556102
X0560039
X0563976
X0567913
X057185
X0573819Y0050393
X0569882
X0565945
X0562008
X0558071
X0554134
X0550197
X054626
X0542323
X0538386
X0534449
X0530512
X0526575
X0524606Y005433
X0528543
X053248
X0536417
X0540354
X0544291
X0548228
X0552165
X0556102
X0560039
X0563976
X0574606Y0055602
X0577106
X0577756Y0058267
X0581693
X0580606Y0055602
X0581693Y0066141
X0577756
X0578106Y0069602
X0575787Y0070079
X0575106Y0072102
X057185Y0070079
X0567913
X0563976
X0560039
X0556102
X0552165
X0548228
X0544291
X0540354
X054005Y0067965
X0542398Y0066908
X0544219Y0065088
X0546607Y0064126
X0549016Y0064173
X0550197Y0066141
X0554134
X0558071
X0562008
X0565945
X0569882
X0573819
X0580106Y0068602
X058563Y0066141
X0590644Y0069705
X0592323Y0070866
X0590606Y0073102
Y0075602
X0588606
X0587598Y0077953
X0586106Y0079602
X0590606Y0078602
X0595472Y0077953
X0594291Y007441
X0589106Y0071602
X0600591Y0078359
X0602288Y0076772
X0572584Y0075285
X0570668Y0077005
X0569047Y0079005
X0569882Y0074016
X0565945
X0562008
X0558071
X0554134
X0550197
X054626
X0542323
X0538386
X0534887Y0073484
X0532994Y007523
X0531174Y007705
X0529353Y0078871
X0527532Y0080692
X0526315Y0075634
X0524494Y0077454
X0528135Y0073813
X0529956Y0071992
X0528543Y0070079
X053173Y0070126
X0530512Y0066141
X0526575
X0524606Y0062204
X0528543
X053248
X0536244Y0063354
X0535178Y0065698
X0537822Y0061319
X0539726Y0059586
X0542287Y0059856
X0544685Y0058268
X0547441
X0550197Y0058267
X0530512
X0526575
X0524606Y0070079
X0536417Y0077953
X0540354
X0544291
X0548228
X0552165
X0556102
X0560039
X0563976
X0591535Y0046457
X0594106Y0048102
X0625Y0037598
X0522638Y004252
X0518701
X0514764
X0510827
X050689
X0502953
X0499016
X0495079
X0491142
X0487205
X0485236Y0046457
X0489173
X049311
X0497047
X0500984
X0504921
X0508858
X0512795
X0516732
X0520669
X0522638Y0050393
X0518701
X0514764
X0510827
X050689
X0502953
X0499016
X0495079
X0491142
X0487205
X0485236Y005433
X0489173
X049311
X0497047
X0500984
X0504921
X0508858
X0512795
X0516732
X0520669
X0522638Y0058267
X0518701
X0514764
X0510827
X050689
X0502953
X0499016
X0495079
X0491142
X0487205
X049311Y0062204
X0500984
Y0070079
X0504921
X0508858
X0512795
X0516732
X0520669
X0522638Y0066141
X0518701
X0514764
X0510827
X0508858Y0062204
X0512795
X0516732
X0520669
X0522638Y0074016
X0518701
X0514764
X0510827
X050689
X0502953
X0508858Y0077953
X0512795
X0516732
X0520669
X052287Y0079452
X049311Y0077953
X0485236
X0481299
X0477362
X0477756Y0075984
X0475393Y0074016
X0471456
X046752
X0463583
X0459645
X0455708
X0451771
X0447834
X0443897
X043996
X0436023
X0432086
X0428149
X0424212
X0422244Y0077953
X0418307
X041437
X0410433
X0426181
X0430118
X0434055
X0437992
X0441929
X0445866
X0449803
X045374
X0457677
X0461614
X0465551
X0469488
X0473425
Y0070079
X0469488
X0465551
X0461614
X0457677
X045374
X0449803
X0445866
X0441929
X0437992
X0434055
X0430118
X0436023Y0066141
X043996
X0443897
X0447834
X0451771
X0455708
X0459645
X0463583
X046752
X0471456
X0469488Y0062204
X0465551
X0461614
X0457677
X045374
X0449803
X0445866
X0441929
X0437992
X043996Y0058267
X0436023
X0437992Y005433
X0441929
X0445866
X0449803
X045374
X0457677
X0461614
X0465551
X0469488
X0473425
X0471456Y0050393
X046752
X0463583
X0459645
X0455708
X0451771
X0447834
X0443897
X043996
X0436023
X0434055Y0046457
X0437992
X0441929
X0445866
X0449803
X045374
X0457677
X0461614
X0465551
X0469488
X0473425
X0471456Y004252
X046752
X0463583
X0459645
X0455708
X0451771
X0447834
X0443897
X043996
X0436023
X0432086
X0443897Y0058267
X0447834
X0451771
X0455708
X0459645
X0463583
X046752
X0471456
X0473425Y0062204
X0476968Y0064961
Y0066929
Y0068898
X0479331
X0484252Y0070866
Y0073228
X038189Y0080807
X0377953
X0374016
X0370079
Y0041437
X0374016
X0377953
X038189
X0366142
X0362205
X0358268
X0354331
X0350394
X0346457
X034252
X0338583
X0334646
X0330709
X0326772
X0322835
X0318898
X0314961
X0311024
X0307087
X030315
X0299213
X0295276
X0291339
X0287402
X0283465
X0279528
X0275591
X0271654
X0267717
X026378
X0269685Y0045374
X0273622
X0277559
X0281496
X0285433
X028937
X0293307
X0297244
X0301181
X0305118
X0309055
X0312992
X0316929
X0320866
X0324803
X0328741
X0332678
X0336614
X0340551
X0344489
X0348426
X0352362
X0356299
X0360237
X0364174
X0358268Y0049311
X0354331
X0350394
X0346457
X034252
X0338583
X0334646
X0330709
X0326772
X0322835
X0318898
X0314961
X0311024
X0307087
X030315
X0299213
X0295276
X0291339
X0287402
X0283465
X0279528
X0275591
X0271654
X0267717
X0269685Y0053248
X0273622
X0277559
X0281496
X0285433
X028937
X0293307
X0297244
X0301181
X0305118
X0309055
X0312992
X0316929
X0320866
X0324803
X0328741
X0332678
X0336614
X0340551
X0344489
X0348426
X0352362
X0356299
X0354331Y0057185
X0358268
X0356299Y0061122
X0352362
X0348426
X0344489
X0340551
X0336614
X0332678
X0328741
X0324803
X0320866
X0316929
X0312992
X0309055
X0305118
X0301181
X0297244
X0293307
X028937
X0285433
X0281496
X0277559
X0273622
X0269685
X0267717Y0065059
X0271654
X0275591
X0279528
X0283465
X0287402
X0291339
X0295276
X0299213
X030315
X0307087
X0311024
X0314961
X0318898
X0322835
X0326772
X0330709
X0334646
X0338583
X034252
X0346457
X0350394
X0354331
X0358268
X0360237Y0068996
X0356299
X0352362
X0348426
X0344489
X0340551
X0336614
X0332678
X0328741
X0324803
X0320866
X0316929
X0312992
X0309055
X0305118
X0301181
X0297244
X0293307
X028937
X0285433
X0281496
X0277559
X0273622
X0269685
X0267717Y0072933
X0271654
X0275591
X0279528
X0283465
X0287402
X0291339
X0295276
X0299213
X030315
X0307087
X0311024
X0314961
X0318898
X0322835
X0326772
X0330709
X0334646
X0338583
X034252
X0346457
X0350394
X0354331
X0358268
X0362205
X0364174Y007687
X0360237
X0356299
X0352362
X0348426
X0344489
X0340551
X0336614
X0332678
X0328741
X0324803
X0320866
X0316929
X0312992
X0309055
X0305118
X0301181
X0297244
X0293307
X028937
X0285433
X0281496
X0277559
X0273622
X0269685
X0257874
X0253937
X025
X0246063
X0242126
X0238189
X0234252
X0230315
X0226378
X0221683Y0076912
X0223504Y0078732
X0225325Y0080553
X0219469Y0080973
X0217649Y0079153
X0215511Y0077717
X0213178Y0076627
X0212599Y0080807
X0219863Y0075091
X022441Y0072933
X0228347
X0232284
X0236221
X0240158
X0244095
X0248032
X0251969
X0255906
X0257874Y0068996
X0253937
X025
X0246063
X0242126
X0238189
X0234252
X0230315
X0226378
X022441Y0065059
X0228347
X0232284
X0236221
X0240158
X0244095
X0248032
X0251969
X0255906
X0257874Y0061122
X0253937
X025
X0246063
X0242126
X0238189
X0234252
X0230315
X0226378
X0222441
X0218504
X0216536Y0057185
X0220473
X022441
X0228347
X0232284
X0236221
X0240158
X0244095
X0248032
X0251969
X0255906
X0257874Y0053248
X0253937
X025
X0246063
X0242126
X0238189
X0234252
X0230315
X0226378
X0222441
X0218504
X0214567
X0212599Y0057185
Y0049311
X0216536
X0220473
X022441
X0228347
X0232284
X0236221
X0240158
X0244095
X0248032
X0251969
X0255906
X0253937Y0045374
X025
X0246063
X0242126
X0238189
X0234252
X0230315
X0226378
X0222441
X0218504
X0214567
X0212599Y0041437
X0216536
X0220473
X022441
X0228347
X0232284
X0236221
X0240158
X0244095
X0248032
X0251969
X0267717Y0057185
X0271654
X0275591
X0279528
X0283465
X0287402
X0291339
X0295276
X0299213
X030315
X0307087
X0311024
X0314961
X0318898
X0322835
X0326772
X0330709
X0334646
X0338583
X034252
X0346457
X0350394
Y0080807
X0354331
X0358268
X0362205
X0366142
X0346457
X034252
X0338583
X0334646
X0330709
X0326772
X0322835
X0318898
X0314961
X0311024
X0307087
X030315
X0299213
X0295276
X0291339
X0255906
X0251969
X0248032
X0244095
X0240158
X0236221
X0232284
X0208662
X0204725
X0206693Y007687
X021063
X0211358Y0074807
X0208662Y0072933
X0204725
X0202756Y007687
Y0068996
X0203685Y0064929
X0202185Y0063429
X0202685Y0060429
X0200685
Y0054929
X0203185
X0206693Y0053248
X021063
X0208662Y0049311
X0204725
X0206693Y0045374
X021063
X0208662Y0041437
X0204725
X0196851
X0198819Y0045374
X0196851Y0049311
X0191004Y004729
X0187992Y0046358
X0192966Y004414
X0192915Y0067573
X0196903Y0067369
X0198872
X0207185Y0065429
X0211185Y0061429
X0178937Y0061779
Y0063748
X0179187Y005418
X0159449Y0052854
X0154528Y0050295
X0165604Y0046306
X0140598Y0048313
X013588Y0042565
X0123675Y0032723
X0099462Y0034495
X0097441Y0036516
X010399Y0040709
X0069344Y0046306
X0070919Y0048274
X0073819Y0065059
X0075787
Y0067028
X0073819
X0077756
Y0065059
X0081693Y0073917
X0064173Y0071358
X0063779Y0077264
X0130761Y0067369
X0148622Y0071949
Y0073917
Y0075886
X0156496Y0077854
X0158465
X0160433
Y0079823
Y006998
X0158465
X0156496
X0177685Y0077429
X0183661Y0077437
X0186221Y007687
Y0074508
Y0072146
Y0069784
X0032677Y0135925
X0056352Y014099
X005832Y0130754
X0068163
X0062992Y0155217
X0075787Y0156595
X0081496Y0159153
X0080761Y0168353
X0083714
X0086667
X0102756Y0165453
Y0163484
Y0161516
X0102937Y0159366
X0098835
X0100685Y015335
X0105738Y0149376
X0104029Y0146607
X0101628Y0141384
X0101529Y0138935
X0098872Y0139197
X0096116Y0139022
X0101378Y013061
X0102015Y0127762
X0101378Y0122146
Y0119193
Y011624
X0106942Y0115203
X0110463Y0113153
X0112477
X0119095Y0115256
X0123669Y0112408
X0130942Y0112809
X0133442
X0138189Y0109153
X0140945
X0141532Y0111322
X0138189Y0102854
Y0100098
X0140945
X0143307
X0145669
X0148031
X0150394
X0148031Y0102854
X0159449Y0108311
X0159449Y0129035
Y0135925
X015084Y0132329
X0151575Y0140847
X0148872Y0148865
X0146903Y0152802
X0144935Y015477
X0155958Y0150833
X0159449Y0163429
X0175238Y0165876
X0177738Y0163876
X0181549Y0160676
X0179974Y0158707
X0176837Y015712
X0173281Y0144731
X0171313Y0146699
X0169291Y0142815
X0178727Y0136525
X0185464Y0136569
X0193705Y0129376
X0200788Y0128051
X0204725
X0208662
X0207185Y0123929
X0210185
X0204185
X0202685Y0121429
X0200185
X0198819Y0124114
X0202032Y0115809
X0203685Y0114429
X0205185Y0112929
X0208185
X0206693Y0108366
X021063
X0208662Y0104429
X0204725
X0206693Y0100492
X021063
X0208662Y0096555
X0204725
X0200788
X0196851
X0198819Y0092618
X0202756
X0206693
X021063
X0208662Y0088681
X0204725
X0200788
X0196851
X0198819Y0084744
X0202756
X0206693
X021063
X0197685Y0081429
X0202756Y0100492
Y0131988
X0202021Y0134691
X0204725Y0135925
X0208662
X021063Y0139862
X0206693
X0204725Y0143799
X0208662
X021063Y0147736
X0206693
X0204725Y0151673
X0208662
X0211185Y0152429
X0208185Y0155929
X0203685Y0156929
Y0159929
X0205685
X0203685Y0162429
X0205185Y0163929
X0203648Y0165826
X0202021Y0164613
X0200053Y0161069
X0198819Y015561
X0196851Y0151673
X0198819Y0147736
X0196851Y0143799
X0193754Y015712
X0192056Y0158707
X0179187Y0171306
X0179134Y0177657
Y018002
X0181496Y0178839
X0178727Y0191644
X0185464Y0191688
X0193705Y0184494
X0199969Y0182237
X0204685Y0181929
Y0179929
Y0184153
Y0190929
X0200788Y0191043
X0200185Y0187429
X0203185Y0195429
X0206685Y0195929
X0209646
X021063Y0210728
X0206693
X0202756
X0204725Y0214665
X0208662
X021063Y0218602
X0206693
X0204725Y0222539
X0208662
X021063Y0226477
X0206693
X0203185Y0226189
X0200685
Y0231689
X0202685
X0202185Y0234689
X0203685Y0236189
X0207185Y0236689
X0211185Y0232689
X0198819Y0218602
X0196851Y0214665
X0192913Y0215453
X0190951Y0218602
X0187992Y0217618
X0179134Y0225492
X0178937Y0233039
Y0235008
X0159449Y0224508
X0154528Y0221555
X0165551Y0217618
X0169291Y0197933
X0135827Y0213878
X0140545Y0219626
X0123622Y0204035
X0117126Y0191043
X0116885Y0184153
X0114238Y0167357
X0119291Y0165453
Y0163484
Y0161516
X0121685Y0151429
X0116885
X0114238Y0151376
X0108738
Y0169376
X0105958Y0171306
X0100787Y0173721
X009941Y0205807
X0097441Y0207775
X0103937Y0212022
X0075788Y0210335
X0073819Y0207775
X0069291Y0217618
X0070866Y0219587
X0073819Y0236319
X0075788
X0077756
X0139816Y0175242
Y0144731
X0141785Y0139809
X0140104Y0135931
Y0132756
Y0129756
X0138931Y0127802
X0142769Y0130756
Y0134443
X0130368Y0149258
X0126632Y0149652
X0126575Y0104921
X0133517Y0096109
X0116982Y0096502
X0112367Y0092675
X0110399Y0094424
X0107139Y0089809
X0083124Y009729
Y0099258
Y0101227
Y0103195
X0081155
X0079187
Y0101227
Y0099258
X0081155
Y009729
X0079187
X0081155Y0101227
X0088583Y0111319
X008563Y0115256
X009252
Y0122146
X0142717Y0087697
X0156496Y008376
X0158465
X0160433
Y0081791
X0163386Y0085728
Y0087697
Y0089665
X016926Y0083329
X0179187Y0116187
X0179134Y0122539
Y0124902
X0181496Y0123721
X0206693Y0131988
X021063
X0214567
X0218504
X0222441
X0226378
X0230065Y0132053
Y0129478
X0230122Y0126904
X0228347Y0128051
X022441
X0224551Y0124451
X0227124Y0124364
X0229699
X023027Y0119927
X0227695
X022512
X0222932Y0118571
X0220357Y0118552
X0219747Y012574
X0222322
X0220473Y0128051
X0216536
X0217185Y0125929
X0212599Y0128051
Y0135925
X0216536
X0220473
X022441
X0228347
X0230065Y0137203
Y0139778
X0229877Y0142346
X02289Y0144728
X0227236Y0146693
X0225415Y0148514
X0223595Y0150334
X0221497Y0151827
X0222441Y0147736
X0218504
X0214567
X0212599Y0143799
X0216536
X0220473
X022441
X0226378Y0139862
X0222441
X0218504
X0214567
X0230065Y0134628
X0234502Y0133848
Y0136423
Y0138997
X0234437Y0141571
X0233986Y0144106
X0236221Y0143799
X0240158
X0244095
X0248032
X0251969
X0255906
X0259843
X026378
X0265748Y0147736
X0269041Y0147691
Y0145116
Y0142541
Y0139966
X0269224Y0137398
X0267717Y0135925
X0269951Y0134928
X0271149Y0132649
X0272791Y0130666
X0273741Y0128273
X0271654Y0128051
X0267717
X026378
X0259843
X0255906
X0251969
X0248032
X0244095
X0245152Y0125686
X0242578Y012574
X0240057Y0125211
X0237501Y0124903
X0235309Y0126253
X0234502Y0128698
Y0131273
X0238189Y0131988
X0242126
X0246063
X025
X0253937
X0257874
X0261811
X0265748
X026378Y0135925
X0259843
X0255906
X0251969
X0248032
X0244095
X0240158
X0242126Y0139862
X0246063
X025
X0253937
X0257874
X0261811
X0265748
X0273479Y0141022
Y0143597
X0275591Y0143799
X0279528
X0283465
X0285433Y0147736
X0281496
X0277559
X0273479Y0148746
Y0146171
X0273305Y0151315
X0275591Y0151673
X0279528
X0283465
X0285433Y015561
X0281496
X0277559
X0273622
X0271422Y015608
X0272606Y0153793
X0268243Y0152735
X0268967Y0150265
X026378Y0151673
X0259843
X0255906
X0251969
X0248032
X0244095
X0240158
X0236221
X0232284
X0229746Y0150458
X0231521Y0148593
X0232998Y0146484
X0238189Y0147736
X0242126
X0246063
X025
X0253937
X0257874
X0261811
Y015561
X0257874
X0253937
X025
X0246063
X0242126
X0238189
X0234252
X0230315
X0226105Y01541
X0225244Y0156526
X0223623Y0158527
X0221707Y0160247
X0222441Y0163484
X0219185Y0163429
X0220473Y0167421
X022441
X0228347
X0232284
X0236221
X0240158
X0244095
X0248032
X0247684Y0171406
X0245276Y0171358
X0242126Y0171358
Y0179232
X0246063
X024685Y0177264
X0249606
X0252005Y0175676
X0254565Y0175945
X025647Y0174212
X0258048Y0172178
X0259114Y0169834
X0261811Y0171358
X0265748
X0269685
X0273622
X0277559
X0281496
X0285433
X0283465Y0175295
X0287402
X0291339
X0293307Y0172933
Y0170571
Y0168209
Y0165453
Y0163091
Y0160728
X028937Y0163484
X0285433
X0281496
X0277559
X0273622
X0269685
X0267977Y0159898
X0269797Y0158077
X0271654Y0159547
X0275591
X0279528
X0283465
Y0167421
X0279528
X0275591
X0271654
X0267717
X026378
X0262561Y0165405
X0264335Y0163539
X0266156Y0161719
X0263118Y0158481
X0261297Y0160302
X0259404Y0162047
X0255906Y0159547
X0251969
X0248032
X0244095
X0240158
X0236221
X0232284
X0228347
X0230315Y0163484
X0234252
X0238189
X0242126
X0246063
X025
X0253937
X0254241Y0167567
X0251893Y0168623
X0250073Y0170444
X0253937Y0179232
X0251969Y0183169
X0255906
X0259843
X026378
X0267717
X0271654
X0275591
X0279528
X0283465
X0287402
X0291339
X0295276
X0299213
X030315
X0307087
X0309055Y0187106
X0305118
X0301181
X0297244
X0293307
X028937
X0285433
X0281496
X0277559
X0273622
X0269685
X0265748
X0261811
X0257874
X0253937
X025
X0246063
X0242126
X0238189
X0234252
X0230315
X0226378
X0222441
X0220473Y0191043
X022441
X0228347
X0232284
X0236221
X0240158
X0244095
X0248032
X0251969
X0255906
X0259843
X026378
X0267717
X0271654
X0275591
X0279528
X0283465
X0287402
X0291339
X0295276
X0299213
X030315
X0307087
X0305118Y019498
X0301181
X0297244
X0293307
X028937
X0285433
X0281496
X0277559
X0273622
X0269685
X0265748
X0261811
X0257874
X0253937
X025
X0246063
X0242126
X0238189
X0234252
X0230315
X0226378
X0222441
X0218185Y0195429
X0215185
X0212685
X0213685Y0179929
X0217185
X0219685
X0218504Y0171358
X0214567
X0214185Y0166929
X0216185Y0165929
X0226378Y0163484
X0227926Y0152279
X0238189Y0139862
X0240158Y0128051
X0237995Y0119927
X0238189Y0117815
X0239516Y0115845
X023952Y011327
X0240891Y0111091
Y0108516
Y0105941
X0240545Y010339
X0239421Y0101074
X0237676Y009918
X0235855Y0097359
X0234035Y0095539
X0232214Y0093718
X0230393Y0091897
X0228573Y0090077
X0226752Y0088256
X022441Y0088681
X0224931Y0086435
X0223111Y0084615
X022129Y0082794
X0218504Y0084744
X0214567
X0212599Y0088681
X0216536
X0220473
X0222441Y0092618
X0226378
X022441Y0096555
X0228347
X0230315Y0100492
X0234252
X0232284Y0104429
X0236221
X0238189Y0108366
X0234252
X0230315
X0226378
X0222441
X0218504
X0214567
X0212599Y0104429
X0216536
X0220473
X022441
X0228347
X0226378Y0100492
X0222441
X0218504
X0214567
X0212599Y0096555
X0216536
X0220473
X0218504Y0092618
X0214567
X0234428Y0089656
X0236249Y0091477
X0238069Y0093297
X023989Y0095118
X0241711Y0096939
X0244095Y0096555
X0243319Y009895
X0244491Y0101242
X0245163Y0103728
X0245329Y0106297
Y0108872
Y0111447
X0246704Y0113624
Y0116198
X0247674Y0117935
X0247721Y0119927
X0249606Y0117028
X0251575Y0115847
X0254352Y0116417
X0256542Y0115062
X0258974Y0114217
X0259843Y0112303
X0261525Y0113866
X0264099Y011385
X0266674
X0269249
X0271824
X0274398
X0276664Y0112627
X0279237Y0112528
X028189Y0111909
X0284252
X0286614Y0112303
X0289184Y0112462
X0290972Y0114315
X0293159Y0115674
X0292279Y0123262
X0289704
X0287252Y0124046
X0285631Y0126046
X0287402Y0128051
X0284252Y0128445
X028189Y013002
X0280292Y0131386
X0278194Y0132879
X0275831Y0133901
X0274324Y0135989
X0273562Y0138449
X0277559Y0139862
X0281496
X0285433
X0283465Y0135925
X0279528
X0285433Y0131988
X028937
X0293307
X0291339Y0128051
X030315
X0310728Y0128248
X0309055Y0125098
X0309252Y0122146
X0309449Y011624
X0312598Y0115551
X0315945
X0319291Y011624
X0322835
X0325984
X032874Y011624
X0330709Y0115256
X0332677Y011624
X0334646Y0118209
X0336614Y0120177
X0338583Y0122146
X0339567Y0124114
X0339492Y012648
X0339066Y0129027
X033991Y0133068
X0340413Y0135593
X0341285Y0138015
Y014059
Y0143165
Y014574
Y0148314
Y0150889
Y0153464
Y0156039
Y0158614
Y0161188
Y0163763
Y0166338
Y0168913
Y0171488
Y0174063
Y0176637
Y0179212
Y0181787
Y0184362
Y0186936
Y0189511
Y0192086
X0341654Y0194634
X0342686Y0196993
X0344384Y0198929
X0346612Y020022
X0348947Y0201304
X0351474Y0201801
X0351533Y0204375
X0349Y0204837
X0346506Y0205478
X0343932
X0341358Y0205569
X0338838Y0206096
X0336489Y0207151
X033441Y0208669
X0332562Y0210462
X033081Y0212349
X0329408Y0214509
X0326772Y0214665
X0322835
X0318898
X0314961
X0311024
X0307087
X030315
X0299213
X0295276
X0291339
X0287402
X0283465
X0279528
X0275591
X0271654
X0267717
X0269685Y0218602
X0273622
X0277559
X0281496
X0285433
X028937
X0293307
X0297244
X0301181
X0305118
X0309055
X0312992
X0316929
X0320866
X0324803
X032813Y0219469
X0328096Y0222044
Y0224619
Y0227194
Y0229768
Y0232343
Y0234918
Y0237493
X0332534Y0237156
Y0234581
Y0232006
Y0229431
Y0226856
Y0224282
Y0221707
X03326Y0219133
X0333297Y0216654
X0334754Y0214531
X0336582Y0212718
X0338554Y0211063
X0340939Y0210092
X0343508Y0209916
X0346083
X0346457Y0214665
X034252
X0338583
X0340551Y0218602
X0344489
X0348426
X0352362
X0356299
X0354331Y0222539
X0358268
X0362205
X0366142
X0364174Y0226477
X0360237
X0356299
X0352362
X0348426
X0344489
X0340551
X0336614
X0334646Y0230414
X0338583
X034252
X0346457
X0350394
X0354331
X0358268
X0362205
X0366142
X0364174Y023435
X0360237
X0356299
X0352362
X0348426
X0344489
X0340551
X0336614
X0324803
X0320866
X0316929
X0312992
X0309055
X0305118
X0301181
X0297244
X0293307
X028937
X0285433
X0281496
X0277559
X0273622
X0269685
X0267717Y0230414
X0271654
X0275591
X0279528
X0283465
X0287402
X0291339
X0295276
X0299213
X030315
X0307087
X0311024
X0314961
X0318898
X0322835
X0324803Y0226477
X0320866
X0316929
X0312992
X0309055
X0305118
X0301181
X0297244
X0293307
X028937
X0285433
X0281496
X0277559
X0273622
X0269685
X0267717Y0222539
X0271654
X0275591
X0279528
X0283465
X0287402
X0291339
X0295276
X0299213
X030315
X0307087
X0311024
X0314961
X0318898
X0322835
X0328516Y0216924
X0328741Y0210728
X0324803
X0320866
X0316929
X0312992
X0309055
X0305118
X0301181
X0297244
X0293307
X028937
X0285433
X0281496
X0277559
X0273622
X0269685
X0265748
X0261811
X0259843Y0206791
X026378
X0267717
X0271654
X0275591
X0279528
X0283465
X0287402
X0291339
X0295276
X0299213
X030315
X0307087
X0311024
X0314961
X0318898
X0322835
X0326772
X0330709
X0332678Y0202854
X0336614
X0340551
X0344489
X0338583Y0198917
X0334646
X0330709
X0326772
X0322835
X0324803Y0202854
X0328741
Y019498
X0332678
X0336614
X0334646Y0191043
X0338583
X0336614Y0187106
X0332678
X0328741
X0324803
X0320866
X0322835Y0191043
X0326772
X0330709
Y0183169
X0334646
X0338583
X0336614Y0179232
X0332678
X0328741
X0324803
X0320866
X0322835Y0183169
X0326772
Y0175295
X0330709
X0334646
X0338583
X0336614Y0171358
X0332678
X0328741
X0324803
X0320866
X0317323Y0170571
Y0168602
Y0166634
X0314961
X0310039Y0164665
Y0162303
X0309055Y015561
X0312992
X0316929
X0320866
X0324803
X0328741
X0332678
X0336614
X0334646Y0159547
X0338583
X0336614Y0163484
X0332678
X0328741
X0324803
X0320866
X0318898Y0159547
X0316535Y0159547
X0322835Y0159547
X0326772
X0330709
Y0167421
X0334646
X0338583
X0345723Y0168453
Y0165878
Y0163303
Y0160728
Y0158154
Y0155579
Y0153004
Y0150429
Y0147854
Y014528
Y0142705
Y014013
Y0137555
X0346835Y0135233
X0347098Y0132672
X0347666Y0129029
X0347441Y0126083
Y012313
X0345472Y0121161
X0344488Y0119193
X0344489Y011624
X034252Y0117224
X0341535Y0115256
X0339567Y0113287
X0337598Y0111319
X0336614Y0108366
X0340551
X0344489
X0348426
X0352362
X0356299
X0360237
X0364174
X0362205Y0112303
X0366142
X0364174Y011624
X0360237
X0356299
X0352362
X0348426
X0346457Y0112303
X0350394
X0354331
X0358268
Y0120177
X0362205
X0366142
X0364174Y0124114
X0360237
X0356299
X0352362
X0350394Y0128051
X0354331
X0358268
X0362205
X0366142
X0364174Y0131988
X0360237
X0356299
X0352362
X0350394Y0135925
X0354331
X0358268
X0362205
X0366142
X0364174Y0139862
X0360237
X0356299
X0352362
X0348426
X0350394Y0143799
X0354331
X0358268
X0362205
X0366142
X0364174Y0147736
X0360237
X0356299
X0352362
X0348426
X0350394Y0151673
X0354331
X0358268
X0362205
X0366142
X0364174Y015561
X0360237
X0356299
X0352362
X0348426
X0350394Y0159547
X0354331
X0358268
X0362205
X0366142
X0364174Y0163484
X0360237
X0356299
X0352362
X0348426
X0350394Y0167421
X0354331
X0358268
X0362205
X0366142
X0364174Y0171358
X0360237
X0356299
X0352362
X0348426
X0345723Y0171028
Y0173602
Y0176177
Y0178752
Y0181327
Y0183902
Y0186476
Y0189051
Y0191626
X0346191Y0194158
X0347991Y0195999
X0350394Y0191043
X0352362Y0187106
X0356299
X0354331Y0183169
X0358268
X0362205
X0366142
X0364174Y0187106
X0366142Y0191043
X0365719Y0198264
X0364268Y0200391
X0361701Y0200583
X0359207Y0199943
X0357067Y019851
X0354985Y0196996
X0354048Y0201742
X0354063Y0204853
X0356107Y0203287
X0355726Y0208984
X035992Y0206026
X036233Y0205122
X0364683Y0206168
X0366459Y0208031
X0366142Y0214665
X0364174Y0218602
X0350394Y0222539
X0346457
X034252
X0338583
X0334646
X0336614Y0218602
X0320866Y0202854
Y019498
X0324803
X0322835Y0175295
Y0167421
X0326772
Y0151673
X0330709
X0334646
X0338583
X0336614Y0147736
X0332678
X0328741
X0324803
X0320866
X0318898Y0151673
X0322835
Y0143799
X0326772
X0330709
X0334646
X0338583
X0336614Y0139862
X0332678
X0328741
X0324803
X0320866
X0316929
X0315961Y0135122
X0318898Y0135138
X032126Y0135925
X0323622
X0326378
X0327559Y0133169
Y0130807
Y0128445
X0326378Y012687
Y0124902
Y0122933
Y0120866
Y0118996
X0330709Y0120177
X0332678Y0124114
X0336614
X0334646Y0128051
X0330709
X0328741Y0124114
X0320866Y0125098
Y0122146
X0317913
Y0125098
Y0128051
X0320866
X0312689Y0135122
X0309547Y0134252
X0311024Y0143799
X0314961
X0318898
X030315
X0301181Y015561
X030315Y0159547
X030326Y0170317
X0302362Y0172933
X030315Y0175295
X0307087
X0309055Y0179232
X0305118
X0301181
X0297244
X0293307
X028937
X0285433
X0281496
X0277559
X0273622
X0269685
X0265748
X0261811
X026378Y0175295
X0267717
X0271654
X0275591
X0279528
X0295276Y0174114
X0297638
X03
X0299213Y0167421
X0264938Y015666
X0266759Y015484
X0265748Y0124114
X0269685
X0273622
X0276772Y0124508
X0275293Y0126218
X0275645Y0118835
X0273129Y0118288
X0270554
X0267979
X0265404
X026283
X0260259Y0118432
X0257866Y0119382
X0256045Y0121202
X0254059Y0122841
X0252149Y0123621
X0249889Y0124855
X0247361Y0124364
X0257874Y0124114
X0261811
X026378Y0120177
X0271654
X0278064Y0119716
X0280639
X0279134Y0122146
X0271654Y0104429
X0267717
X026378
X0259843
X0255906
X0251969
X0248032
X025Y0108366
X0253937
X0257874
X0261811
X0265748
X0261811Y0100492
X0257874
X0253937
X025
X0248032Y0096555
X0251969
X0255906
X0257874Y0092618
X0260827Y0092618
X0253937Y0092618
X025
X0246063
X0242126
X0240158Y0088681
X0244095
X0248032
X0251969
X0255906
X0257874Y0084744
X0253937
X025
X0246063
X0242126
X0238189
X0234252
X0230787Y0086015
X0232607Y0087836
X0228966Y0084194
X0227145Y0082374
X0228347Y0112303
X0232284
X0236221
X0235039Y0117028
X023189
X0232845Y0119927
X023542
X0227559Y0117028
X0251969Y0112303
X0255906
X0267717Y0096555
Y0088681
X026378
X0269685Y0084744
X0281496
X0293307
X0301181
X0305118
X0309055
X0312992
X0316929
X0320866
X0324803
X0328741
X0332678
X0336614
X0340551
X0344489
X0348426
X0352362
X0356299
X0360237
X0364174
X0362205Y0088681
X0366142
X0364174Y0092618
X0360237
X0356299
X0352362
X0348426
X0344489
X0340551
X0336614
X0332678
X0328741
X0324803
X0320866
X0316929
X0312992
X0309449Y0093799
X030748Y0093012
X0305118
X0302756Y0093405
X0300787Y0094587
X0298819Y0095768
X0297244Y0097342
X0295276Y0096555
X0296457Y0099311
Y0101476
Y0104035
X0294291Y0102461
X0292323Y0100492
X0290354Y0098524
X028937Y0096555
Y0093602
X0291339Y0091634
X0293307Y0092618
X0297244
X030315Y0088681
X0307087
X0311024
X0314961
X0318898
X0322835
X0326772
X0330709
X0334646
X0338583
X034252
X0346457
X0350394
X0354331
X0358268
Y0096555
X0362205
X0366142
X0364174Y0100492
X0360237
X0356299
X0352362
X0348426
X0344489
X0340551
X0336614
X0332678
X0328741
X0324803
X0320866
X0316929
X0317913Y0104429
X0320866
X0322835Y0107382
X0326772Y0108366
X0330709Y010935
X0332678Y0108366
X0333661Y0110335
X0334646Y0104429
X0338583
X034252
X0346457
X0350394
X0354331
X0358268
X0362205
X0366142
X0354331Y0096555
X0350394
X0346457
X034252
X0338583
X0334646
X0330709
X0326772
X0322835
X0318898
X0314961
X0310236Y0095768
X031063Y009813
X0311811Y0100098
X0312205Y0102461
Y0104429
X0314961Y0104429
X0310378Y0106465
X0308953Y0107873
X030748Y0109547
X0306693Y0111516
X0310031Y0110105
X0305906Y0104429
X0304331Y0103248
X0302362Y0104035
X0301181Y0102067
X030315Y0101279
X0305512
X0307087Y0102461
X0303937Y0106004
X03Y0108366
X0297901Y0106529
X0330709Y0104429
X034252Y0112303
X0350394Y0120177
X0354331
X0336614Y0131988
X0334646Y0135925
X0330709
X0350394Y0175295
X0354331
X0358268
X0362205
X0366142
X0364174Y0179232
X0360237
X0356299
X0352362
X0348426
X0350394Y0183169
X0348426Y0187106
X0248032Y0183169
X0244095
X0240158
X0236221
X0232284
X0228347
X0230315Y0179232
X0234252
X0238189
Y0210728
X0242126
X0246063
X025
X0248032Y0214665
X0251969
X0253937Y0218602
X0257874
X0255906Y0222539
X0251969
X0248032
X0244095
X0240158
X0236221
X0232284
X0228347
X022441
X0220473
X0216536
X0212599
X0214567Y0226477
X0218504
X0222441
X0226378
X0230315
X0234252
X0238189
X0242126
X0246063
X025
X0253937
X0257874
X0255906Y0230414
X0251969
X0248032
X0244095
X0240158
X0236221
X0232284
X0228347
X022441
X0220473
X0216536
X0212599
X0218504Y023435
X0222441
X0226378
X0230315
X0234252
X0238189
X0242126
X0246063
X025
X0253937
X0257874
X025Y0218602
X0246063
X0242126
X0238189
X0234252
X0230315
X0226378
X0222441
X0218504
X0214567
X0212599Y0214665
X0216536
X0220473
X022441
X0228347
X0232284
X0236221
X0240158
X0244095
X0234252Y0210728
X0230315
X0226378
X0222441
X0218504
X0214567
X0368823Y0209054
X0371397Y0209046
X0373747Y0207994
X0375503Y020611
X0377953Y0206791
X038189
X0383859Y0202854
X0379922
X0376336Y0203674
X0376159Y0201105
X0374948Y0198833
X0377953Y0198917
X038189
X0372947Y0197212
X0372048Y019498
X0370462Y019654
X0367915Y019692
X0370079Y0191043
X0374016
X0375985Y0187106
X0372048
X0368111
X0370079Y0183169
X0374016
X0377953
X038189
X0383859Y0187106
Y0179232
X0379922
X0375985
X0372048
X0368111
X0370079Y0175295
X0374016
X0377953
X038189
X0383859Y0171358
X0379922
X0375985
X0372048
X0368111
X0370079Y0167421
X0374016
X0377953
X038189
X0383859Y0163484
X0379922
X0375985
X0372048
X0368111
X0370079Y0159547
X0374016
X0377953
X038189
X0383859Y015561
X0379922
X0375985
X0372048
X0368111
X0370079Y0151673
X0374016
X0377953
X038189
X0383859Y0147736
X0379922
X0375985
X0372048
X0368111
X0370079Y0143799
X0374016
X0377953
X038189
X0383859Y0139862
X0379922
X0375985
X0372048
X0368111
X0370079Y0135925
X0374016
X0377953
X038189
X0383859Y0131988
X0379922
X0375985
X0372048
X0368111
X0370079Y0128051
X0374016
X0377953
X038189
X0383859Y0124114
X0379922
X0375985
X0372048
X0368111
X0370079Y0120177
X0374016
X0377953
X038189
X0383859Y011624
X0379922
X0375985
X0372048
X0368111
X0370079Y0112303
X0374016
X0377953
X038189
X0383859Y0108366
X0379922
X0375985
X0372048
X0368111
X0370079Y0104429
X0374016
X0377953
X038189
X0383859Y0100492
X0379922
X0375985
X0372048
X0368111
X0370079Y0096555
X0374016
X0377953
X038189
X0383859Y0092618
X0379922
X0375985
X0372048
X0368111
X0370079Y0088681
X0374016
X0377953
X038189
X0383859Y0084744
X0379922
X0375985
X0372048
X0368111
X0410433Y0085827
X041437
X0418307
X0422244
X0426181
X0430118
X0434055
X0437992
X0441929
X0445866
X0449803
X045374
X0457677
X0461614
X0465551
X0469488
X0473425
X0477362
X047933Y008189
X0475393
X0471456
X046752
X0463583
X0459645
X0455708
X0451771
X0447834
X0443897
X043996
X0436023
X0432086
X0428149
X0424212
X0420275
X0416338
X0412401
Y0089764
X0416338
X0420275
X0424212
X0428149
X0432086
X0436023
X043996
X0443897
X0447834
X0451771
X0455708
X0459645
X0463583
X046752
X0471456
X0475393
X047933
X0483267
X0481299Y0093701
X0477362
X0473425
X0469488
X0465551
X0461614
X0457677
X045374
X0449803
X0445866
X0441929
X0437992
X0434055
X0430118
X0426181
X0422244
X0418307
X041437
X0410433
X0412401Y0097638
X0416338
X0420275
X0424212
X0428149
X0432086
X0436023
X043996
X0443897
X0447834
X0451771
X0455708
X0459645
X0463583
X0467913Y0099606
X0470669
X0473032
X0475394Y0100394
X0475393Y0097638
X0471456
X0466732Y0102362
Y0104724
Y0107087
X0468307Y0108661
Y011063
Y0112598
X0467913Y0114665
Y0116535
X0468307Y0119291
X046752Y012126
X0463583
X0459645
X0455708
X0451771
X0447834
X0443897
X043996
X0436023
X0432086
X0428149
X0424212
X0420275
X0416338
X0412401
X0410433Y0117323
X041437
X0418307
X0422244
X0426181
X0430118
X0434055
X0437992
X0441929
X0445866
X0449803
X045374
X0457677
X0461614
X0465551
X0463583Y0113386
X0459645
X0455708
X0451771
X0447834
X0443897
X043996
X0436023
X0432086
X0428149
X0424212
X0420275
X0416338
X0412401
X0410433Y0109449
X041437
X0418307
X0422244
X0426181
X0430118
X0434055
X0437992
X0441929
X0445866
X0449803
X045374
X0457677
X0461614
X0465551
X0473425Y0110433
Y0113386
X0476378
Y0110433
Y010748
X0473425
X0483563Y0107283
X0485236Y0110433
X0485039Y0113386
X0484842Y0119291
X0483606Y0121102
X0481693Y011998
X0481606Y0122602
X0478346Y011998
X0476606Y0121602
X0475106Y0123102
X0473606Y0124602
X0472106Y0126102
X0469488Y0125197
X0465551
X0461614
X0457677
X045374
X0449803
X0445866
X0441929
X0437992
X0434055
X0430118
X0426181
X0422244
X0418307
X041437
X0410433
X0412401Y0129134
X0416338
X0420275
X0424212
X0428149
X0432086
X0436023
X043996
X0443897
X0447834
X0451771
X0455708
X0459645
X0463583
X0461614Y0133071
X0457677
X045374
X0449803
X0445866
X0441929
X0437992
X0434055
X0430118
X0426181
X0422244
X0418307
X041437
X0410433
X0412401Y0137008
X0416338
X0420275
X0424212
X0428149
X0432086
X0436023
X043996
X0443897
X0447834
X0451771
X0455708
X0459645
X0463583
X0464302Y0139267
X0463168Y0141579
X046099Y0142953
X0460382Y0145455
X0460106Y0147835
X0457677Y0148819
X045374
X0449803
X0445866
X0441929
X0437992
X0434055
X0430118
X0426181
X0422244
X0418307
X041437
X0410433
X0412401Y0144882
X0416338
X0420275
X0424212
X0428149
X0432086
X0436023
X043996
X0443897
X0447834
X0451771
X0455708
X045374Y0140945
X0449803
X0445866
X0441929
X0437992
X0434055
X0430118
X0426181
X0422244
X0418307
X041437
X0410433
X0412401Y0152756
X0416338
X0420275
X0424212
X0428149
X0432086
X0436023
X043996
X0443897
X0447834
X0451771
X0455708
X0460382Y015201
Y0154585
X0461758Y0156762
Y0159337
Y0161911
Y0164486
Y0167061
Y0169636
Y0172211
Y0174785
Y017736
Y0179935
Y018251
Y0185085
X0461691Y0187659
X0460994Y0190137
X0459538Y0192261
X045771Y0194074
X0455737Y0195729
X0453352Y0196699
X0450783Y0196875
X0448209
X0447785Y0201313
X045036
X0452933Y0201222
X0455453Y0200696
X0457802Y0199641
X0459882Y0198123
X046173Y0196329
X0463481Y0194442
X0464884Y0192283
X046752Y0192126
X0471456
X0475393
X047933
X0483267
X0487205
X0491142
X0495079
X0499016
X0502953
X050689
X0510827
X0514764
X0518701
X0522638
X0520669Y0188189
X0516732
X0512795
X0508858
X0504921
X0500984
X0497047
X049311
X0489173
X0485236
X0481299
X0477362
X0473425
X0469488
X0466162Y0187322
X0466195Y0184747
Y0182172
Y0179598
Y0177023
Y0174448
Y0171873
Y0169298
Y0166724
Y0164149
Y0161574
Y0158999
X0466654Y0156466
X0469488Y0156693
X0473425
X0477362
X0481299
X0485236
X0489173
X049311
X0497047
X0500984
X0504921
X0508858
X0510827Y0152756
X0502953
X0499016
X0495079
X0491142
X0487205
X0483267
X047933
X0475393
X0471456
X046757Y0151485
Y0154059
X0469488Y0148819
X0473425
X0477362
X0481299
X0485236
X0489173
X049311
X0491142Y0144882
X0491535Y0142126
X0489173Y014252
X0486811
X0487205Y0144882
X0483267
X047933
X0475393
X0471456
X0468204Y0143581
X046757Y0146077
X0469967Y0141704
X0472106Y0140102
X0473606Y0139102
X0475606Y0137602
X0477106Y0136102
X0478606Y0134602
X0480106Y0133102
X0482087Y0133071
Y0131102
X0483913Y0129067
X0485338Y0127658
X0486811Y0125984
X0487598Y0124016
X0488386Y0131102
X0489961Y0132283
X0491929Y0131496
X049311Y0133465
X0491142Y0134252
X0488779
X0487205Y0133071
X0490354Y0129528
X0496391Y0129002
X0494597Y0127154
X0497835Y0131496
Y0134055
Y0136221
X0497047Y0138189
X0499606Y0138602
X0500984Y0140945
X0500984Y0144095
X0497441
X0497606Y0141602
X0495472Y0139764
X0493504Y0140945
X0494606Y0143602
X0504921Y0144095
X0504921Y0140945
X0504921Y0138189
X0502953Y0137008
X0500984Y0135602
X050689Y0129134
X0508858Y0125197
X0508339Y0123004
X0505769Y0122845
X0503981Y0120992
X0501794Y0119633
X0502012Y011227
X0504587
X0504921Y0109449
X0508661Y0109485
X0507039Y0111485
X050689Y0105512
X0502953
X0500984Y0101575
X0504921
X0508858
X0512795
X0514Y0104146
X0512402Y0105512
X0510039Y0107087
X0510827Y0097638
X0514764
X0518701
X0520729Y0097083
X0520813Y009451
Y0091935
Y008936
X0518701Y0089764
X0514764
X0510827
X0508858Y0085827
X0512795
X0516732
X0520813Y0086785
X0520986Y0084216
X0521685Y0081738
X0518701Y008189
X0514764
X0510827
X0500984Y0085827
X0491142Y0089764
X0485236Y0093701
X0484744Y0101279
X0481602Y0100409
X0478331
X0491142Y0105512
X0500984Y0109449
X0515158Y0113386
X0516185Y0115816
X051361
X0518619Y0116656
X0521138Y0117191
X0523712
X0522638Y0113386
X0518701
X051752Y0111024
X0518998Y0109313
X052055Y0107259
X05215Y0104866
X0523143Y0102883
X051846Y010163
X0516097Y0102653
X0519968Y0099543
X0516732Y0093701
X0512795
X0508858
X0487205Y008189
X0483267
X0457677Y0101575
X045374
X0449803
X0445866
X0441929
X0437992
X0434055
X0430118
X0426181
X0422244
X0418307
X041437
X0410433
X0412401Y0105512
X0416338
X0420275
X0424212
X0428149
X0432086
X0436023
X043996
X0443897
X0447834
X0451771
X0455708
X0459645
X0471457Y0119291
X0475
X0471606Y0130602
X0470208Y0132117
X0468606Y0134102
X046752Y0135602
X0466218Y0137547
X0465551Y0133071
X0457677Y0140945
Y0156693
X045374
X0449803
X0445866
X0441929
X0437992
X0434055
X0430118
X0426181
X0422244
X0418307
X041437
X0410433
X0412401Y016063
X0416338
X0420275
X0424212
X0428149
X0432086
X0436023
X043996
X0443897
X0447834
X0451771
X0455708
X0459645
X0457677Y0164567
X045374
X0449803
X0445866
X0441929
X0437992
X0434055
X0430118
X0426181
X0422244
X0418307
X041437
X0410433
X0412401Y0168504
X0416338
X0420275
X0424212
X0428149
X0432086
X0436023
X043996
X0443897
X0447834
X0451771
X0455708
X0459645
X0457677Y0172441
X045374
X0449803
X0445866
X0441929
X0437992
X0434055
X0430118
X0426181
X0422244
X0418307
X041437
X0410433
X0412401Y0176378
X0416338
X0420275
X0424212
X0428149
X0432086
X0436023
X043996
X0443897
X0447834
X0451771
X0455708
X0459645
X0457677Y0180315
X045374
X0449803
X0445866
X0441929
X0437992
X0434055
X0430118
X0426181
X0422244
X0418307
X041437
X0410433
X0412401Y0184252
X0416338
X0420275
X0424212
X0428149
X0432086
X0436023
X043996
X0443897
X0447834
X0451771
X0455708
X0459645
X0457677Y0188189
X045374
X0449803
X0445866
X0441929
X0437992
X0430118
X0426181
X0422244
X0418307
X0420275Y0192126
X0424212
X0428149
X0427832Y019876
X0425469Y0197737
X0422894Y0197746
X0420544Y0198798
X0418789Y0200681
X0416338Y02
X0412401
X0410433Y0203937
X041437
X0417955Y0203118
X0418132Y0205686
X0419344Y0207958
X0416338Y0207874
X0412401
X0421344Y0209579
X0422244Y0211811
X042383Y0210252
X0426376Y0209871
X0428573Y0208527
X0430023Y02064
X0432591Y0206208
X0435084Y0206848
X0437224Y0208281
X0439306Y0209795
X0440244Y020505
X0442818Y020499
X0442759Y0202416
X0445292Y0201955
X0445344Y0205487
X044768Y0206571
X0449907Y0207862
X0451605Y0209798
X0452637Y0212157
X0453006Y0214705
Y021728
Y0219855
Y022243
Y0225004
Y0227579
Y0230154
Y0232729
Y0235304
X0457677Y0235433
X0461614
X0465551
X0469488
X0473425
X0476969Y023622
X0471456Y0231496
X046752
X0463583
X0459645
X0455708
X0457677Y0227559
X0461614
X0465551
X0469488
X0473425
X0471456Y0223622
X046752
X0463583
X0459645
X0455708
X0457677Y0219685
X0461614
X0465551
X0469488
X0473425
X0471456Y0215748
X046752
X0463583
X0459645
X0455708
X0457677Y0211811
X0461614
X0465551
X0469488
X0473425
X0471456Y0207874
X046752
X0463583
X0459645
X0455708
X045374Y0203937
X0449803
X0457677
X0461614
X0465551
X0469488
X0473425
X0475393Y02
X0471456
X046752
X0463583
X0465551Y0196063
X0469488
X0473425
X0477362
X0481299
X0485236
X0489173
X049311
X0497047
X0500984
X0504921
X0508858
X0512795
X0516732
X0520669
X0522638Y02
X0518701
X0514764
X0510827
X050689
X0502953
X0499016
X0495079
X0491142
X0487205
X0483267
X047933
Y0184252
X0475393
X0471456
X0469488Y0180315
X0473425
X0477362
X0481299
X0485236
X0489173
X049311
X0497047
X0500984
X0504921
X0508858
X0512795
X0516732
X0520669
X0522638Y0176378
X0518701
X0514764
X0510827
X050689
X0502953
X0499016
X0495079
X0491142
X0487205
X0483267
X047933
X0475393
X0471456
X0469488Y0172441
X0473425
X0477362
X0481299
X0485236
X0489173
X049311
X0497047
X0500984
X0504921
X0508858
X0512795
X0516732
X0520669
X0522638Y0168504
X0518701
X0514764
X0510827
X050689
X0502953
X0499016
X0495079
X0491142
X0487205
X0483267
X047933
X0475393
X0471456
X0469488Y0164567
X0473425
X0477362
X0481299
X0485236
X0489173
X049311
X0497047
X0500984
X0504921
X0508858
X0512795
X0516732
X0520669
X0522638Y016063
X0518701
X0514764
X0510827
X050689
X0502953
X0499016
X0495079
X0491142
X0487205
X0483267
X047933
X0475393
X0471456
X0477362Y0140945
X0481299
X0484055Y0139764
X0484842Y0141732
X0483661Y0137402
X048248Y0135433
X047933Y0137008
X0522638
Y0144882
X0522483Y0121629
X0519909
X0517667Y0122896
X0515095Y0123004
X0514764Y0184252
X0510827
X050689
X0502953
X0499016
X0495079
X0491142
X0487205
X0483267
X0465776Y0189867
X0455708Y0192126
X0451771
X0447834
X0438565Y0197808
X0440228Y0201939
X0438184Y0203504
X0434372Y0200765
X0431961Y020167
X0429608Y0200624
X0428149Y0215748
X0424212
X0420275
X0418307Y0219685
X0422244
X0426181
X0430118
X0432086Y0223622
X0428149
X0424212
X0420275
X0416338
X0412401
X0410433Y0219685
Y0227559
X041437
X0418307
X0422244
X0426181
X0430118
X0434055
X0437992
X0441929
X0445866
X0448569Y0228039
Y0230614
Y0233189
Y0235764
X0445866Y0235433
X0441929
X0437992
X0434055
X0430118
X0426181
X0422244
X0418307
X041437
X0410433
X0412401Y0231496
X0416338
X0420275
X0424212
X0428149
X0432086
X0436023
X043996
X0443897
Y0223622
X043996
X0436023
X0437992Y0219685
X0441929
X0445866
X0448569Y0220315
Y022289
Y0225465
Y021774
Y0215165
X0448101Y0212633
X0446301Y0210792
X0443897Y0215748
X0487205
X0491142
X0495079
X0499016
X0502953
X050689
X0510827
X0514764
X0518701
X0522638
X0520669Y0211811
X0516732
X0512795
X0508858
X0504921
X0500984
X0497047
X049311
X0489173
Y0219685
X0485236
X0487205Y0223622
X0491142
X0495079
X0499016
X0502953
X050689
X0510827
X0514764
X0518701
X0522638
X0520669Y0219685
X0516732
X0512795
X0508858
X0504921
X0500984
X0497047
X049311
Y0227559
X0489173
X0485236
X0487205Y0231496
X0491142
X0491929Y0233858
X0491031Y0236474
X0494291Y0232677
X0496654
X0499016
X0500984Y0233858
Y023622
X0502953Y0231496
X050689
X0510827
X0514764
X0518701
X0522638
X0520669Y0227559
X0516732
X0512795
X0508858
X0504921
X0500984
X0497047
X0508858Y0235433
X0512795
X0516732
X0520669
X0522638Y0184252
X0518701
X0410433Y0188189
X0383859Y0218602
X038189Y0222539
X0377953
X0374016
X0370079
X0372048Y0226477
X0375985
X0379922
X0383859
X038189Y0230414
X0377953
X0374016
X0370079
X0372048Y023435
X0375985
X0379922
X0383859
X0368111
Y0226477
Y0218602
X0372048
X0375985
X0374016Y0214665
X0370079
X0524606Y0211811
X0528543
X053248
X0536417
X0540354
X0544291
X0548228
X0552165
X0556102
X0560039
X0563976
X0567913
X057185
X0576106Y0211362
X0579106
X0581606
X0584646Y0210862
X0587606
X0591106Y0211362
X0589606Y0215862
X0593504Y0215748
X0594106Y0219362
X0594323Y0224554
X0589606Y0224862
Y0226862
Y0222638
X0600586Y0222297
X0608827Y0215104
X0615565Y0215148
X0615158Y0226772
Y0229134
X0612795Y0227953
X0615105Y0235486
X0579724Y0235433
X0575787
X0574606Y0226862
X0577106
X0580606
X057185Y0219685
X0567913
X0563976
X0560039
X0556102
X0552165
X0548228
X0544291
X0540354
X0536417
X053248
X0528543
X0524606
X0526575Y0215748
X0530512
X0534449
X0538386
X0542323
X054626
X0550197
X0554134
X0558071
X0562008
X0565945
X0569882
X0573819
X0565945Y0223622
X0562008
X0558071
X0554134
X0550197
X054626
X0542323
X0538386
X0534449
X0530512
X0526575
X0524606Y0227559
X0528543
X053248
X0530512Y0231496
X0526575
X0524606Y0235433
X0528543
X053248
X0535178Y0236958
X0536244Y0234614
X0537822Y0232579
X0539726Y0230846
X0542287Y0231115
X0544685Y0229527
X0547441
X0548228Y0227559
X0552165
X0556102
X0560039
X0563976
X0552165Y0235433
X0549016Y0235433
X0546607Y0235385
X0544219Y0236348
X0540354Y0227559
X0534449Y02
X0530512
X0526575
X0524606Y0196063
X0528543
X053248
X0526575Y0192126
X0524606Y0188189
X0526575Y0184252
X0524606Y0180315
X0526575Y0176378
X0524606Y0172441
X0526575Y0168504
X0524606Y0164567
X0526575Y016063
X0524606Y0156693
X0526575Y0152756
X0528543Y0148819
X0530512Y0144882
X0526575
X0528543Y0140945
X0526575Y0137008
Y0129134
X0530512
X0534449
X0538386
X0542323
X054626
X0548962Y0129234
Y012666
Y0124085
X0547587Y0121908
Y0119333
X0546618Y0117596
X054657Y0115605
X0544685Y0118504
X0542717Y0119685
X0539964Y0119085
X0537768Y0120431
X0535334Y012127
X0532783Y0121616
X0530208Y0121629
X0527633
X0525058
X0526287Y0117191
X0528862
X0531437
X0534008Y0117063
X053641Y0116134
X0538247Y011433
X0540233Y0112691
X0542142Y011191
X0544402Y0110677
X054693Y0111167
X054914Y0109845
X0551714Y0109792
X0554234Y011032
X055679Y0110628
X0558983Y0109279
X0559789Y0106833
Y0104259
Y0101684
Y0099109
Y0096534
X0559855Y009396
X0560305Y0091425
X0561293Y0089047
X056277Y0086938
X0564545Y0085073
X0566366Y0083252
X0568186Y0081432
X0570696Y0085197
X0572795Y0083705
X0573819Y0089764
X0569882
X0568876Y0087018
X0567055Y0088839
X0565392Y0090804
X0564414Y0093186
X0564227Y0095754
Y0098329
Y0100903
Y0103478
Y0106053
X0564169Y0108627
X0564592Y0111167
X0567167
X056974Y011108
X057197Y0109792
X0574544
X0577106Y0109602
X0579724Y0109449
X0583661
X0584106Y0111602
X0587106
X0587598Y0109449
X0591535
X0590106Y0111602
X0591606Y0114102
X0594106
X0595472Y0109449
X0593504Y0105512
X0589567
X058563
X0581693
X0577756
X0573819
X0569882
X0567913Y0101575
X057185
X0575787
X0579724
X0583661
X0587598
X0592323Y0100787
X0589567Y0097638
X058563
X0581693
X0577756
X0573819
X0569882
X0567913Y0093701
X057185
X0575787
X0579724
X0583661
X0587598
X0589567Y0089764
X058563
X0581693
X0577756
X0579724Y0085827
X0583661
X0583106Y0083102
X058563Y008189
X0589567
X0587598Y0085827
X0595472
X0597441Y008189
Y0089764
X0595472Y0093701
X0600639Y0106102
X0608827Y0098962
X0615565Y0099006
X0615158Y011063
Y0112992
X0612795Y0111811
X0615158Y0119291
X0592259Y0119723
X0590606Y0121102
X0589106Y0122602
X0586106
X0587598Y0125197
X0583661
X0579724
X0575787
X057185
X0567913
X0563976
X0560039
X0556102
X05534Y0124441
Y0127015
Y012959
X0553747Y0132141
X0554871Y0134458
X0556615Y0136352
X0558436Y0138172
X0560257Y0139993
X0562077Y0141814
X0563976Y0140945
X0563898Y0143634
X0565719Y0145455
X0567539Y0147275
X056936Y0149096
X057185Y0148819
X0571181Y0150917
X0573001Y0152737
X0574822Y0154558
X0576643Y0156379
X057878Y0157815
X0581113Y0158904
X0582934Y0160725
X058563Y016063
X0589567
X0587598Y0156693
X0583661
X058563Y0152756
X0581693
X0577756
X0575787Y0148819
X0579724
X0583661
X0587598
X0591535
X0595472
X0597441Y0144882
X0593504
X0589567
X058563
X0581693
X0577756
X0573819
X0569882
X0567913Y0140945
X057185
X0575787
X0579724
X0583661
X0587598
X0591535
X0595472
X0597441Y0137008
X0593504
X0589567
X058563
X0581693
X0577756
X0573819
X0569882
X0565945
X0562008
X0560039Y0133071
X0563976
X0567913
X057185
X0575787
X0579724
X0583661
X0587598
X0591535
X0589567Y0129134
X058563
X0581693
X0577756
X0573819
X0569882
X0565945
X0562008
X0558071
Y012126
X0562008
X0562402Y0118504
X0559252
X0558872Y0115605
X0561447
X0564021
X0566596
X0569171
X057136Y0116961
X0573934Y011698
X0566732Y0118504
X0565945Y012126
X0554772Y0122262
X0554775Y0119687
X0556102Y0117717
X0556297Y0115605
X0558071Y0105512
X0554134
X0550197
X054626
X0542323
X0538386
X0534449
X0530512
X0526575
X0524606Y0109449
X0528543
X053248
X0536417
X0540354
Y0101575
X0536417
X053248
X0528543
X052434Y0100603
X0525067Y0098133
X052525Y0095565
Y009299
Y0090415
Y0087841
X0525324Y0085267
X0526049Y0082796
X0530512Y008189
X0534449
X0538386
X0542323
X054626
X0550197
X0554134
X0558071
X0562008
X0560039Y0085827
X0556102
X0552165
X0548228
X0544291
X0540354
X0536417
X053248
X0528543
X0530512Y0089764
X0534449
X0538386
X0542323
X054626
X0550197
X0554134
X0558071
X0556102Y0093701
X0552165
X0548228
X0544291
X0540354
X0536417
X053248
X0528543
X0530512Y0097638
X0534449
X0538386
X0542323
X054626
X0550197
X0554134
X0552165Y0101575
X0548228
X0544291
X0556102
X0534449Y0113386
X0530512
X0526575
X0528543Y0125197
X053248
X0536417
X0540354
X0544291
Y0133071
X0540354
X0536417
X053248
X0534449Y0137008
X0538386
X0542323
X054626
X0550973Y0136582
X0549801Y0134289
X0549128Y0131804
X0548228Y0140945
X0544291
X0540354
X0536417
X0533465Y0142913
X0538386Y0144882
X0542323
X054626
X0550197
X0554134
X0558043Y0144055
X0559863Y0145875
X0561684Y0147696
X0563505Y0149517
X0565325Y0151337
X0567146Y0153158
X0568967Y0154979
X0570787Y0156799
X0572608Y015862
X0574429Y0160441
X0569882Y016063
X0565945
X0562008
X0558071
X0554134
X0550197
X054626
X0542323
X0538386
X0536417Y0156693
X0540354
X0544291
X0548228
X0552165
X0556102
X0560039
X0563976
X0562008Y0152756
X0558071
X0554134
X0550197
X054626
X0542323
X0538386
X0536417Y0148819
X0540354
X0544291
X0548228
X0552165
X0556102
X0556222Y0142234
X0554401Y0140413
X0552165Y0140945
X0552581Y0138593
X0552165Y0164567
X0548228
X0544291
X0540354
X0536417
X0538386Y0168504
X0542323
X054626
X0550197
X0554134
X0558071
X0562008
X0565945
X0569882
X0567913Y0164567
X0563976
X0560039
X0556102
Y0172441
X0552165
X0548228
X0544291
X0540354
X0536417
X0538386Y0176378
X0542323
X054626
X0550197
X0554134
X0558071
X0562008
X0565945
X0569882
X0573819
X0577756
X0581693
X0583106Y0174102
X0583661Y0180315
X0579724
X0575787
X057185
X0567913
X0563976
X0560039
X0556102
X0552165
X0548228
X0544291
X0540354
X0536417
X0538386Y0184252
X0542323
X054626
X0550197
X0554134
X0558071
X0562008
X0565945
X0569882
X0573819
X0577756
X0581693
X058563
X0589567
X0591106Y0180602
X0593606
Y0175102
X0591606
X0592106Y0172102
X0590606Y0170602
X0589567Y0168504
X0587106Y0170102
X0587598Y0164567
X0591535
X0595472Y016811
X0597441
X0601376Y0167959
X0608071Y0165748
Y0163386
Y0161024
Y0158661
X061063Y0158095
X0616606Y0158102
X0625031Y0152202
X0630905Y0149803
Y0147835
Y0145866
X0633858Y0151772
X0635827
X0637795
Y0157677
X0635827
X0633858
Y0155709
Y015374
Y0165551
X0635827
X0637795
X0645669Y0163583
Y0161614
Y0159646
X0651575Y0147835
X0650984Y0135433
X0648622
X064626
X0643898
X064626Y0132677
X0656102
Y0135433
X0653346
Y0126378
X0656102
X0652812Y0124157
X0660902Y0122669
X0663402
X0670676Y0123071
X0675197Y0120276
X0667717Y013061
X0660827Y013937
X0677362Y0138878
X0663583Y016811
X0653747Y0187165
X0658465Y0192913
X0670669Y0202756
X0677166Y0215748
X0677406Y0222638
X0654475Y0231549
X0625Y0208858
X062874Y0189173
X0634842Y0182283
X0639764Y0185236
X0615158Y0181299
X0615354Y0173752
Y0171784
X0606299Y0189173
X060334Y0188189
X0601378Y0191339
X0597441Y0192126
X0595472Y0188189
X0587598
X0583661
X0579724
X0575787
X057185
X0567913
X0563976
X0560039
X0556102
X0552165
X0548228
X0544291
X0540354
X0536417
X0542323Y0192126
X054626
X0550197
X0554134
X0558071
X0562008
X0565945
X0569882
X0573819
X0577756
X0581693
X058563
X0589567
X0587598Y0196063
X0583661
X0579724
X0575787
X057185
X0567913
X0563976
X0560039
X0556102
X0552165
X0548228
X0544291
X0560039Y0172441
X0563976
X0567913
X057185
X0575787
X0587598Y0180315
X0591535Y0196063
Y0156693
X0593504Y0152756
X0589567
X0596606Y0154102
X0597441Y0129134
X0634842Y012722
X0634843Y0106496
Y0099606
X0643504Y010315
X0642717Y0094685
X0652559Y0095669
X065424Y0099548
Y0102723
Y0105723
X0655413Y0107677
X0651575Y0104723
Y0101035
X0654528Y0090748
X0645472Y0086614
X0647441Y0082677
X0638386Y0084646
X0623032Y0088779
X0621063Y0090748
X0625Y0092716
X0663976Y0086221
X0667712Y0085827
X0672606Y0084102
X0677406
X0680106
X0685606
X0688606Y0086102
X0690315Y0088872
X0692717Y0094095
X0692815Y0096544
X0695472Y0096282
X0698228Y0096457
X0692913Y0104921
X0692329Y0107717
X0692913Y0113386
Y0116339
Y0119291
X0687402Y0120276
X0683881Y0122326
X0681867
X0681977Y0142804
X0683945Y0141055
X0687205Y0145669
X0711221Y0138189
Y0136221
Y0134252
Y0132283
X0713189
X0715158
Y0134252
Y0136221
Y0138189
X0713189
Y0136221
Y0134252
X0705709Y0124213
X0708661Y0120276
X0701772
Y0113386
X0726962Y0114803
X0726181Y0104724
X0736024
X0740158Y0099606
X0737992Y0094488
X0727112Y0084646
X0693606Y0082181
X0724409Y0126181
X0730512Y0158268
X0730118Y0164173
X0720472Y0168504
X0718504
Y0170472
X0720472
X0716535
Y0168504
X0712598Y0161614
X0723425Y0187205
X0725Y0189173
X0718504Y0196457
X0720472Y0199016
X069685
X0694882Y0200984
X0690354Y0194769
X0693504Y0233071
X0688333Y0235486
X0685554Y0237415
X0691536Y0241338
Y0243307
Y0245276
X0691354Y0247425
X0695457
X0693606Y0253441
X0688554Y0257415
X0690262Y0260184
X0692664Y0265407
X0692762Y0267857
X069542Y0267595
X0698176Y0267769
X0692913Y0276181
X0692276Y0279029
X0692913Y0284646
Y0287598
Y0290551
X0687349Y0291588
X0683828Y0293639
X0681815
X0681924Y0314116
X0683892Y0312367
X0687152Y0316982
X0711168Y0309502
Y0307533
Y0305564
Y0303596
X0713136
X0715105
Y0305564
Y0307533
X0713136
Y0309502
X0715105
X0713136Y0305564
X0705709Y0295472
X0708662Y0291535
X0701772
Y0284646
X0726128Y0276037
X0735971
X073794Y0265801
X0731299Y0251575
X0718504Y0250197
X0712795Y0247638
X071353Y0238439
X0710577
X0707624
X0685554Y0255415
X0761614Y0270866
X0730512Y0329527
X0730118Y0335433
X0720472Y0339764
X0718504
Y0341732
X0720472
X0716536
Y0339764
X0712599Y0332874
X0723373Y0358517
X0724947Y0360486
X069685Y0370276
X0694829Y0372297
X0690302Y0366082
X0670617Y0374068
X0658412Y0364226
X0653694Y0358478
X0639764Y0356496
X0634843Y0353937
X0628687Y0360486
X0615105Y0352612
X0615354Y0345012
Y0343044
X0608071Y0337008
Y0334646
Y0332283
Y0329921
X061063Y0329355
X0616606Y0329362
X0625031Y0323462
X0630906Y0321063
Y0319094
Y0317126
X0633858Y0323031
X0635827
X0637795
Y0328937
X0635827
X0633858
Y0326969
Y0325
Y0336811
X0635827
X0637795
X0645669Y0334842
Y0332874
Y0330906
X0651575Y0319094
X0650984Y0306693
X0648622
X064626
X0643898
X064626Y0303937
X0656103
Y0306693
X0653347
Y0297638
X0652759Y0295469
X0656103Y0297638
X0660849Y0293982
X0663349
X0670623Y0294383
X0675197Y0291535
X0667717Y030187
X0660774Y0310683
X067731Y0310289
X066353Y0339423
X0601377Y0339219
X0597388Y0339423
X059542
X0591535Y0337795
X0590606Y0341862
X0592106Y0343362
X0591606Y0346362
X0593606
Y0351862
X0591106
X0587598Y0353543
X0583661
X0579724
X0575787
X057185
X0567913
X0563976
X0560039
X0556102
X0552165
X0548228
X0544291
X0540354
X0536417
X0538386Y0349606
X0542323
X054626
X0550197
X0554134
X0558071
X0562008
X0565945
X0569882
X0573819
X0577756
X0581693
X0583106Y0345362
X0575787Y0345669
X057185
X0567913
X0563976
X0560039
X0556102
X0552165
X0548228
X0544291
X0540354
X0536417
X0538386Y0341732
X0542323
X054626
X0550197
X0554134
X0558071
X0562008
X0565945
X0569882
X0567913Y0337795
X0563976
X0560039
X0556102
X0552165
X0548228
X0544291
X0540354
X0536417
X0538386Y0333858
X0542323
X054626
X0550197
X0554134
X0558071
X0562008
X0565945
X0569882
X0567913Y0329921
X0563976
X0560039
X0556102
X0552165
X0548228
X0544291
X0540354
X0536417
X0538386Y0325984
X0542323
X054626
X0550197
X0554134
X0558071
X0562008
X0560039Y0322047
X0556102
X0552165
X0548228
X0544291
X0540354
X0536417
X0538386Y031811
X0542323
X054626
X0550197
X0554134
X0552165Y0314173
X0548228
X0544291
X0540354
X0536417
X0533465Y0314173
X0530512Y031811
X0526575
X0524606Y0322047
Y0329921
X0526575Y0333858
X0524606Y0337795
X0526575Y0341732
X0524606Y0345669
X0526575Y0349606
X0524606Y0353543
X0526575Y035748
X0524606Y0361417
X0526575Y0365354
X0530512
X0542323
X054626
X0550197
X0554134
X0558071
X0562008
X0565945
X0569882
X0573819
X0577756
X0581693
X058563
X0589567
X0587598Y0361417
X0583661
X0579724
X0575787
X057185
X0567913
X0563976
X0560039
X0556102
X0552165
X0548228
X0544291
X0540354
X0542323Y035748
X0538386
X054626
X0550197
X0554134
X0558071
X0562008
X0565945
X0569882
X0573819
X0577756
X0581693
X058563
X0589567
X0597441
X0595472Y0361417
X0597441Y0365354
X0601325Y0362651
X0603288Y0359502
X0606299Y0360433
X0587106Y0341362
X058563Y0333858
X0589567
X0587598Y0329921
X0583661
X0581113Y0330164
X057878Y0329074
X0576643Y0327639
X0574822Y0325818
X0573001Y0323997
X0571181Y0322177
X056936Y0320356
X0569882Y031811
X0567539Y0318535
X0565719Y0316715
X0563898Y0314894
X0562077Y0313073
X0560257Y0311253
X0558436Y0309432
X0556615Y0307611
X0554871Y0305718
X0553747Y0303401
X05534Y030085
Y0298275
Y02957
X0554772Y0293521
X0554775Y0290947
X0556103Y0288976
X0556297Y0286864
X0558872
X0561447
X0564021
X0566596
X0569171
X057136Y028822
X0573935Y028824
X0574545Y0281051
X057197
X0569741Y028234
X0567167Y0282427
X0564593
X0564169Y0279887
X0564227Y0277313
Y0274738
Y0272163
Y0269588
Y0267014
X0564414Y0264446
X0565392Y0262064
X0567055Y0260098
X0568876Y0258278
X0570697Y0256457
X0572795Y0254965
X057185Y0259055
X0575787
X0579724
X0583661
X0587598
X0589567Y0255118
X058563
X0583106Y0254362
X0586106Y0250862
X0590606Y0249862
Y0246862
X0588606
X0590606Y0244362
X0589106Y0242862
X0590644Y0240965
X059227Y0242179
X0594239Y0245722
X0595472Y0251181
X0597441Y0255118
X0595472Y0259055
X0597441Y0262992
X0589567
X058563
X0581693
X0577756
X0573819
X0569882
X0567913Y0266929
X057185
X0575787
X0579724
X0583661
X0587598
X0589567Y0270866
X058563
X0581693
X0577756
X0573819
X0569882
X0565945
X0567913Y0274803
X057185
X0575787
X0579724
X0583661
X0587598
X0591535
X059227Y02721
X0593504Y027874
X0589567
X058563
X0581693
X0577756
X0577106Y0280862
X0573819Y027874
X0569882
X0565945
X0559789Y0278093
Y0275518
Y0272943
Y0270369
Y0267794
X0559855Y026522
X0560305Y0262685
X0558071Y0262992
X0554134
X0550197
X054626
X0542323
X0538386
X0534449
X0530512
X0528543Y0259055
X052525Y02591
Y0261675
Y026425
Y0266825
X0525068Y0269393
X0526575Y0270866
X052434Y0271863
X0528543Y0274803
X053248
X0536417
X0540354
X0544291
X0548228
X0552165
X0556102
X0554134Y0270866
X0550197
X054626
X0542323
X0538386
X0534449
X0530512
X0528543Y0266929
X053248
X0536417
X0540354
X0544291
X0548228
X0552165
X0556102
Y0259055
X0552165
X0548228
X0544291
X0540354
X0536417
X053248
X0534449Y0255118
X0530512
X0526049Y0254056
X0525324Y0256527
X0527532Y0251952
X0529353Y0250131
X0531174Y024831
X0532994Y024649
X0534887Y0244744
X0538386Y0247244
X0542323
X054626
X0550197
X0554134
X0558071
X0562008
X0565945
X0570669Y0248265
X0569047Y0250265
X0568186Y0252692
X0566366Y0254512
X0564545Y0256333
X056277Y0258198
X0561293Y0260307
X0562008Y0255118
X0558071
X0554134
X0550197
X054626
X0542323
X0538386
X0536417Y0251181
X053248
X0540354
X0544291
X0548228
X0552165
X0556102
X0560039
X0563976
Y0243307
X0560039
X0556102
X0552165
X0548228
X0544291
X0540354
X054005Y0239225
X0542398Y0238168
X054626Y023937
X0550197
X0554134
X0558071
X0562008
X0565945
X0569882
X0573819
X0575106Y0243362
X057185Y0243307
X0567913
X0572585Y0246545
X0578106Y0240862
X0580106Y0239862
X0600538Y0249672
X0602235Y0248084
X0614317
X0612743Y0246116
X0616554Y0242915
X0619054Y0240915
X0617454Y0249672
X062101Y0262061
X0622979Y0260092
X0625Y0263976
X0615565Y0270266
X0608827Y0270222
X0600586Y0277415
X0595472Y0282677
X0594106Y0285362
X0591606
X0590106Y0282862
X0587106
X0584106
X0586106Y0293862
X0589106
X0590606Y0292362
X0592259Y0290983
X0587598Y0298425
X0583661
X0579724
X0575787
X057185
X0567913
X0563976
X0560039
X0556102
X0558071Y0294488
X0562008
X0565945
X0566732Y0289764
X0562402
X0559252
X0558983Y0280538
X055679Y0281888
X0554234Y028158
X0554134Y027874
X0550197
X054914Y0281105
X0551714Y0281051
X054693Y0282427
X0544402Y0281936
X0542142Y028317
X0540233Y028395
X0538247Y0285589
X0536426Y0287409
X0534033Y0288359
X0531462Y0288504
X0528887
X0526312
X0525042Y0292941
X0527617
X0530192
X0532767Y0292926
X0535318Y0292574
X0534449Y0294488
X0538386
X053775Y0291729
X0539939Y0290374
X0542717Y0290945
X0544685Y0289764
X0546618Y0288856
X054657Y0286864
X0547587Y0290593
Y0293168
X0548962Y0295344
Y0297919
Y0300494
X0549128Y0303064
X0549801Y0305549
X0550973Y0307842
X0550197Y0310236
X0552581Y0309852
X0554402Y0311673
X0556222Y0313494
X0558043Y0315314
X0559864Y0317135
X0561684Y0318956
X0563505Y0320776
X0565325Y0322597
X0567146Y0324418
X0568967Y0326238
X0570787Y0328059
X0572608Y032988
X0574429Y03317
X0582934Y0331984
X0581693Y0325984
X058563
X0589567
X0587598Y0322047
X0583661
X0579724
X0575787
X0577756Y031811
X0573819
X057185Y0314173
X0567913
X0569882Y0310236
X0565945
X0563976Y0306299
X0560039
X0562008Y0302362
X0558071
X0565945
X0569882
X0573819
X0577756
X0581693
X058563
X0589567
X0587598Y0306299
X0583661
X0579724
X0575787
X057185
X0567913
X0573819Y0310236
X0577756
X0581693
X058563
X0589567
X0593504
X0597441
X0595472Y0314173
X0591535
X0587598
X0583661
X0579724
X0575787
X0581693Y031811
X058563
X0589567
X0593504
X0597441
X0595472Y0322047
X0591535
Y0329921
X0596606Y0325362
X0591535Y0306299
X0615105Y0290604
X0615158Y0284252
Y028189
X0612795Y0283071
X0634843Y0277756
Y0270866
X0643451Y0274462
X0642717Y0265945
X064542Y0257927
X0647388Y025399
X0649357Y0252021
X0638333Y0255958
X0634843Y0243362
X0654475Y0262061
X0652506Y0266982
X0654187Y0270861
Y0274035
Y0277035
X0655361Y027899
X0651522Y0276035
Y0272348
X0663924Y0257533
X066766Y0257139
X0672606Y0255362
X0677406
X0680054Y0255415
X0675Y0245276
Y0243307
Y0241338
X0680054Y0239435
X0634843Y029848
X0544291Y0298425
X0540354
X0536417
X053248
X0528543
X0530512Y0302362
X0526575
Y0310236
X053248Y0306299
X0536417
X0540354
X0544291
X054626Y0302362
X0542323
X0538386
X0534449
X0538386Y0310236
X0542323
X054626
X0542323Y0294488
Y027874
X0538386
X0534449
X0530512
X0526575
X0524606Y0282677
X0528543
X053248
X0536417
X0530512Y0286614
X054626Y027874
X0526315Y0246893
X0524494Y0248714
X0524606Y0243307
X0528135Y0245073
X0529956Y0243252
X053173Y0241386
X0530512Y023937
X0526575
X0625Y0392717
X0522638Y0365354
X0518701
X0514764
X0510827
X050689
X0502953
X0499016
X0495079
X0491142
X0487205
X0483267
X047933
X0475393
X0471456
X046752
X0463583
X0459645
X0455708
X0451771
X0447834
X0443897
X043996
X0436023
X0432086
X0428149
X0424212
X0420275
X0416338
X0412401
X0430118Y0361417
X0434055
X0437992
X0441929
X0445866
X0449803
X045374
X0457677
X0461614
X0465551
X0469488
X0473425
X0477362
X0481299
X0485236
X0489173
X049311
X0497047
X0500984
X0504921
X0508858
X0512795
X0516732
X0520669
X0522638Y035748
X0518701
X0514764
X0510827
X050689
X0502953
X0499016
X0495079
X0491142
X0487205
X0483267
X047933
X0475393
X0471456
X046752
X0463583
X0459645
X0455708
X0451771
X0447834
X0443897
X043996
X0436023
X0437992Y0353543
X0441929
X0445866
X0449803
X045374
X0457677
X0461614
X0465551
X0469488
X0473425
X0477362
X0481299
X0485236
X0489173
X049311
X0497047
X0500984
X0504921
X0508858
X0512795
X0516732
X0520669
X0522638Y0349606
X0518701
X0514764
X0510827
X050689
X0502953
X0499016
X0495079
X0491142
X0487205
X0483267
X047933
X0475393
X0471456
X046752
X0463583
X0459645
X0455708
X0451771
X0447834
X0443897
X043996
X0436023
X0437992Y0345669
X0441929
X0445866
X0449803
X045374
X0457677
X0461614
X0465551
X0469488
X0473425
X0477362
X0481299
X0485236
X0489173
X049311
X0497047
X0500984
X0504921
X0508858
X0512795
X0516732
X0520669
X0522638Y0341732
X0518701
X0514764
X0510827
X050689
X0502953
X0499016
X0495079
X0491142
X0487205
X0483267
X047933
X0475393
X0471456
X046752
X0463583
X0459645
X0455708
X0451771
X0447834
X0443897
X043996
X0436023
X0434055Y0337795
X0437992
X0441929
X0445866
X0449803
X045374
X0457677
X0461614
X0465551
X0469488
X0473425
X0477362
X0481299
X0485236
X0489173
X049311
X0497047
X0500984
X0504921
X0508858
X0512795
X0516732
X0520669
X0522638Y0333858
X0518701
X0514764
X0510827
X050689
X0502953
X0499016
X0495079
X0491142
X0487205
X0483267
X047933
X0475393
X0471456
X046752
X0463583
X0459645
X0455708
X0451771
X0447834
X0443897
X043996
X0436023
X0432086
X0430118Y0329921
X0434055
X0437992
X0441929
X0445866
X0449803
X045374
X0457677
X0461614
X0465551
X0469488
X0473425
X0477362
X0481299
X0485236
X0489173
X049311
X0497047
X0500984
X0504921
X0508858
X0512795
X0516732
X0520669
X0512795Y0322047
X0500984
X0502953Y0325984
X0499016
X0495079
X0491142
X0487205
X0483267
X047933
X0475393
X0471456
X046752
X0463583
X0459645
X0455708
X0451771
X0447834
X0443897
X043996
X0436023
X0432086
X0428149
X0424212
X0420275
X0416338
X0412401
X0410433Y0322047
X041437
X0418307
X0422244
X0426181
X0430118
X0434055
X0437992
X0441929
X0445866
X0449803
X045374
X0457677
X0461614
X0465551
X0469488
X0473425
X0477362
X0481299
X0485236
X0489173
X049311
X0491142Y031811
X0487205
X0483267
X047933
X0475393
X0471456
X046752
X0463583
X0459645
X0455708
X0451771
X0447834
X0443897
X043996
X0436023
X0432086
X0428149
X0424212
X0420275
X0416338
X0412401
X0410433Y0314173
X041437
X0418307
X0422244
X0426181
X0430118
X0434055
X0437992
X0441929
X0445866
X0449803
X045374
X0457677
X0461614
X0465551
X0469488
X0473425
X0477362
X0481299
X0484843Y0312992
X0486811Y0313779
X0489173
X0491536Y0313386
X0493504Y0312205
X0495472Y0311024
X0497047Y0309449
X0499016Y0310236
X0497835Y030748
Y0305315
Y0302756
X05Y0304331
X0501969Y0306299
X0503937Y0308268
X0504921Y0310236
Y0313189
X0502953Y0315157
X0500984Y0314173
X0497047
X049311Y0304724
X0491142Y0305512
X048878
X0487205Y0304331
X0488386Y0302362
X0489961Y0303543
X0491929Y0302756
X0490354Y0300787
X0494291Y0298425
X0496391Y0300262
X0485339Y0298918
X0483913Y0300327
X0482087Y0302362
Y0304331
X048248Y0306693
X0483662Y0308661
X0484055Y0311024
X047933Y0310236
X0475393
X0471456
X046752
X0463583
X0459645
X0455708
X0451771
X0447834
X0443897
X043996
X0436023
X0432086
X0428149
X0424212
X0420275
X0416338
X0412401
X0410433Y0306299
X041437
X0418307
X0422244
X0426181
X0430118
X0434055
X0437992
X0441929
X0445866
X0449803
X045374
X0457677
X0461614
X0465551
X0469488
X0473425
X0477362
X0476378Y0302362
X0473425
X0471457Y0299409
X046752Y0298425
X0463583Y0297441
X0461614Y0298425
X046063Y0296457
X0456693Y0295472
X0457677Y0298425
X045374
X0449803
X0445866
X0441929
X0437992
X0434055
X0430118
X0426181
X0422244
X0418307
X041437
X0410433
X0412401Y0294488
X0416338
X0420275
X0424212
X0428149
X0432086
X0436023
X043996
X0443897
X0447834
X0451771
X0452756Y0291535
X0451772Y0289567
X0449803Y0290551
X0449803Y0287598
X0448819Y028563
X044685Y0283661
Y0280709
X0446625Y0277762
X0443897Y027874
X043996
X0436023
X0432086
X0428149
X0424212
X0420275
X0416338
X0412401
X0410433Y0274803
X041437
X0418307
X0422244
X0426181
X0430118
X0434055
X0437992
X0441929
X0443897Y0270866
X043996
X0436023
X0432086
X0428149
X0424212
X0420275
X0416338
X0412401
X0410433Y0266929
X041437
X0418307
X0422244
X0426181
X0430118
X0434055
X0437992
X0441929
X0445866
X0448569Y0266661
Y0269236
X0447456Y0271558
X0447193Y0274119
X0454382Y0273724
X0453879Y0271199
X0453006Y0268776
Y0266201
Y0263626
Y0261052
Y0258477
Y0255902
Y0253327
Y0250752
Y0248178
Y0245603
Y0243028
Y0240453
Y0237878
X0455708Y023937
X0459645
X0463583
X046752
X0471456
X0469488Y0243307
X0465551
X0461614
X0457677
X0459645Y0247244
X0455708
X0457677Y0251181
X0461614
X0465551
X0469488
X0473425
X0477362
X0481299
X0485236
X0484252Y0244488
Y0242126
X0479331Y0240157
X0476969
Y0238189
X0473425Y0243307
X0475393Y0247244
X0477756Y0247244
X0471456Y0247244
X046752
X0463583
Y0255118
X0459645
X0455708
X0457677Y0259055
X0461614
X0465551
X0469488
X0473425
X0475393Y0255118
X0471456
X046752
Y0262992
X0463583
X0459645
X0455708
X0457677Y0266929
X0461614
X0465551
X0469488
X0473425
X0477362
X0478331Y0271669
X0475394Y0271654
X0473032Y0270866
X0470669
X0467913
X0466732Y0273622
Y0275984
Y0278346
X0467913Y0279921
Y028189
Y0283858
Y0285925
Y0287795
X0468307Y0290551
X0465551Y0290551
X0463583Y0291535
X0461614Y0290551
X0459646Y0288583
X0457677Y0286614
X0455709Y0284646
X0454725Y0282677
X0454799Y0280312
X0455225Y0277764
X0459645Y027874
X0463583
X0461614Y0282677
X0457677
Y0274803
X0459645Y0270866
X0463583
X0465551Y0282677
X0463583Y0286614
X0473425Y0284646
Y0281693
X0476378
Y0284646
Y027874
X0473425
X0483563Y0278543
X0485236Y0281693
X048504Y0284646
X0484843Y0290551
X0481693Y029124
X0478347
X0475Y0290551
X0471457
X048426Y0296686
X0486811Y0297244
X0487599Y0295276
X0479331Y0302362
X0463583
X0459645
X0455708
X0451771
X0447834
X0443897
X043996
X0436023
X0432086
X0428149
X0424212
X0420275
X0416338
X0412401
X0410433Y0290551
X041437
X0418307
X0422244
X0426181
X0430118
X0434055
X0437992
X0441929
X0445866
X0443897Y0286614
X043996
X0436023
X0432086
X0428149
X0424212
X0420275
X0416338
X0412401
X0410433Y0282677
X041437
X0418307
X0422244
X0426181
X0430118
X0434055
X0437992
X0441929
X0443897Y0262992
X043996
X0436023
X0432086
X0428149
X0424212
X0420275
X0416338
X0412401
X0410433Y0259055
X041437
X0418307
X0422244
X0426181
X0430118
X0434055
X0437992
X0441929
X0445866
X0448569Y0258937
Y0261512
Y0264087
Y0256362
Y0253787
Y0251213
Y0248638
Y0246063
Y0243488
Y0240913
Y0238338
X0443897Y023937
X043996
X0436023
X0432086
X0428149
X0424212
X0420275
X0416338
X0412401
X0410433Y0243307
X041437
X0418307
X0422244
X0426181
X0430118
X0434055
X0437992
X0441929
X0445866
X0443897Y0247244
X043996
X0436023
X0432086
X0428149
X0424212
X0420275
X0416338
X0412401
X0410433Y0251181
X041437
X0418307
X0422244
X0426181
X0430118
X0434055
X0437992
X0441929
X0445866
X0443897Y0255118
X043996
X0436023
X0432086
X0428149
X0424212
X0420275
X0416338
X0412401
X0383859Y0257973
X0379922
X0375985
X0372048
X0368111
X0370079Y026191
X0374016
X0377953
X038189
X0383859Y0265846
X0379922
X0375985
X0372048
X0368111
X0370079Y0269784
X0374016
X0377953
X038189
X0383859Y0273721
X0379922
X0375985
X0372048
X0368111
X0370079Y0277658
X0374016
X0377953
X038189
X0383859Y0281595
X0379922
X0375985
X0372048
X0368111
X0370079Y0285532
X0374016
X0377953
X038189
X0383859Y0289469
X0379922
X0375985
X0372048
X0368111
X0370079Y0293406
X0374016
X0377953
X038189
X0383859Y0297343
X0379922
X0375985
X0372048
X0368111
X0370079Y030128
X0374016
X0377953
X038189
X0383859Y0305217
X0379922
X0375985
X0372048
X0368111
X0370079Y0309154
X0374016
X0377953
X038189
X0383859Y0313091
X0379922
X0375985
X0372048
X0368111
X0370079Y0317028
X0374016
X0377953
X038189
X0383859Y0320965
X0379922
X0375985
X0372048
X0368111
X0370079Y0324902
X0374016
X0377953
X038189
X0383859Y0328839
X0379922
X0375985
X0372048
X0368111
X0370079Y0332776
Y0254035
X0374016
X0377953
X038189
X0383859Y0250098
X0379922
X0375985
X0372048
X0368111
X0370079Y0246162
X0374016
X0377953
X038189
X0383859Y0242225
X0379922
X0375985
X0372048
X0368111
X0370079Y0238287
X0374016
X0377953
X038189
X0471456Y0262992
X0475393
X047933
X0483267
X0491142
X049311Y0251181
X0491142Y0247244
X0500984Y0246063
Y0243701
Y0241338
Y0238583
X0495079Y023937
X0504921Y0243307
X0508858
X0512795
X0516732
X0520669
X0522638Y023937
X0518701
X0514764
X0510827
Y0247244
X0514764
X0518701
X0522638
X052287Y0250712
X0520669Y0251181
X0521686Y0252998
X0520987Y0255476
X0518701Y0255118
X0514764
X0510827
X0508858Y0251181
X0512795
X0516732
Y0259055
X0512795
X0508858
X0510827Y0262992
X0514764
X0518701
X0520813Y0263195
Y0265769
X0520729Y0268343
X0519968Y0270802
X0518461Y027289
X0516097Y0273913
X0514Y0275406
X0512402Y0276772
X051004Y0278346
X050689Y027874
X0508661Y0280745
X0507039Y0282745
X0504587Y028353
X0502012
X0502953Y027874
X0500984Y0274803
X0504921
X0508858
X0510827Y0270866
X0514764
X0512795Y0266929
X0508858
X0516732
X0520813Y026062
Y0258045
X0523143Y0274142
X0521501Y0276126
X052055Y0278519
X0522638Y027874
X0518998Y0280573
X051752Y0282283
X0520669Y0282677
X0522638Y0286614
X0523737Y0288504
X0521163
X0518647Y0287957
X0516227Y0287075
X0513653
X0515158Y0284646
X0515054Y0294264
X0517627Y0294164
X0519893Y0292941
X0522468
X0522638Y0302362
X0512402Y0294882
X051004
X0507677Y0294488
X0505107Y029433
X050332Y0292477
X0501133Y0291117
X0491142Y027874
X0484744Y0272539
X0481602Y0271669
X0454725Y0293504
X0366142Y0293406
X0362205
X0358268
X0354331
X0350394
X0346457
X034252
X0338583
X0334646
X0330709
X0325984Y0294193
Y0296161
Y029813
X0327559Y0299705
Y0302067
Y0304429
X0326378Y0307185
X0323622
X032126
X0318898Y0306398
X0318898Y0309154
X0322835
X0324803Y0313091
X0328741
X0332678
X0336614
X0340551
X0344489
X0348426
X0352362
X0356299
X0360237
X0364174
X0362205Y0317028
X0366142
X0364174Y0320965
X0360237
X0356299
X0352362
X0348426
X0344489
X0340551
X0336614
X0332678
X0328741
X0324803
X0320866
X0316929
X0314961Y0324902
X0318898
X0322835
X0326772
X0330709
X0334646
X0338583
X034252
X0346457
X0350394
X0354331
X0358268
X0362205
X0366142
X0364174Y0328839
X0360237
X0356299
X0352362
X0348426
X0344489
X0340551
X0336614
X0332678
X0328741
X0324803
X0320866
X0316929
X0316535Y0330807
X0318898Y0332776
X0322835
X0326772
X0330709
X0334646
X0338583
X034252
X0346457
X0350394
X0354331
X0358268
X0362205
X0366142
X0364174Y0336713
X0360237
X0356299
X0352362
X0348426
X0344489
X0340551
X0336614
X0332678
X0328741
X0324803
X0320866
X0317323Y0337894
Y0339862
Y0341831
X0314961Y0337894
X0310039Y0335925
Y0333563
X0309055Y0328839
X0312992
X0311024Y0324902
X0307087
X0301181Y0328839
X0291339Y0332776
X0287402
X0283465
X0279528
X0275591
X0271654
X0269797Y0329337
X0271422Y032734
X0272606Y0325053
X0275591Y0324902
X0279528
X0283465
X0285433Y0328839
X0281496
X0277559
X0273622
X0273305Y0322575
X0273479Y0320006
Y0317431
X0275591Y0317028
X0279528
X0283465
X0285433Y0320965
X0281496
X0277559
Y0313091
X0281496
X0285433
X0283465Y0309154
X0279528
X0275591
X0273562Y0309708
X0273479Y0312282
Y0314857
X0269041Y0313801
Y0316376
Y0318951
X0268967Y0321524
X0268243Y0323995
X0266759Y03261
X0264939Y032792
X0263118Y0329741
X0261297Y0331562
X0259404Y0333307
X0255906Y0332776
X0251969
X0248032
X0244095
X0240158
X0236221
X0232284
X0228347
X022441
X0223623Y0329786
X0225244Y0327786
X0226105Y032536
X0227926Y0323539
X0229747Y0321718
X0231521Y0319853
X0232998Y0317744
X0233987Y0315366
X0234437Y0312831
X0234502Y0310257
Y0307682
Y0305108
Y0302533
Y0299958
X0236221Y030128
X0240158
X0244095
X0248032
X0251969
X0255906
X0259843
X026378
X0267717
X0272791Y0301925
X0273741Y0299533
X0275293Y0297478
X0276772Y0295768
X0275591Y0293406
X0275672Y0290136
X0273154Y02896
X0270579
X0268004
X0265429
X0262855
X0260283Y0289729
X0257882Y0290658
X0256045Y0292462
X0254059Y0294101
X0252149Y0294881
X0249889Y0296115
X0247362Y0295624
X0245152Y0296946
X0242578Y0297
X0240058Y0296471
X0237501Y0296163
X0235309Y0297513
X0230122Y0298164
X0230065Y0300738
Y0303313
Y0305888
Y0308463
Y0311037
X0229877Y0313605
X02289Y0315987
X0227236Y0317953
X0225416Y0319773
X0223595Y0321594
X0221497Y0323086
X0220473Y0317028
X022441
X0226378Y0313091
X0222441
X0218504
X0214567
X0212599Y0317028
X0216536
X0214567Y0320965
X0212599Y0309154
X0216536
X0220473
X022441
X0226378Y0305217
X0222441
X0218504
X0214567
X0212599Y030128
X0216536
X0220473
X022441
X0224551Y0295711
X0227124Y0295624
X0229699
X023027Y0291187
X0227695
X0225121
X0222932Y0289831
X0220357Y0289811
X0219747Y0297
X0222322
X0217185Y0297189
X0214567Y0297343
Y0281595
X0218504
X0222441
X0226378
X0230315
X0234252
X0238189
X0240892Y0282351
Y0279776
Y0277201
X0240545Y027465
X0239421Y0272333
X0237676Y027044
X0235856Y0268619
X0234035Y0266798
X0232214Y0264978
X0230315Y0265846
X0230394Y0263157
X0228573Y0261336
X0226752Y0259516
X0224932Y0257695
X0222441Y0257973
X0223111Y0255874
X022129Y0254054
X0219469Y0252233
X0217649Y0250413
X0215512Y0248977
X0213179Y0247887
X0212599Y0254035
X0216536
X0218504Y0257973
X0214567
X0212599Y026191
X0216536
X0220473
X022441
X0226378Y0265846
X0222441
X0218504
X0214567
X0212599Y0269784
X0216536
X0220473
X022441
X0228347
X0232284
X0234252Y0273721
X0230315
X0226378
X0222441
X0218504
X0214567
X0212599Y0277658
X0216536
X0220473
X022441
X0228347
X0232284
X0236221
Y0285532
X0232284
X023189Y0288287
X0235039
X023542Y0291187
X0232845
X0237995
X0238189Y0289075
X0239516Y0287105
X023952Y028453
X0246704Y0284883
Y0287458
X0247674Y0289195
X0247721Y0291187
X0249606Y0288287
X0251575Y0287106
X0254328Y0287706
X0256523Y0286361
X0258957Y0285521
X0261509Y0285175
X0264084Y0285163
X0266658
X0269233
X0271808
X0274383
X0276624Y0283895
X0279197Y0283787
X0285953
X0285433Y0281595
X0288523Y0283946
X029031Y0285799
X0292497Y0287158
X0292279Y0294521
X0289704
X028937Y0297343
X0285631Y0297306
X0287252Y0295306
X0287402Y030128
X0291339
X0293307Y0305217
X028937
X0285433
X0281496
X0280292Y0302645
X028189Y0301279
X0284252Y0299705
X0278194Y0304138
X0275831Y0305161
X0274324Y0307249
X0269951Y0306188
X0269224Y0308658
X0269041Y0311226
X0265748Y0313091
X0261811
X0257874
X0253937
X025
X0246063
X0242126
X0238189
X0236221Y0317028
X0240158
X0244095
X0248032
X0251969
X0255906
X0259843
X026378
X0265748Y0320965
X0261811
X0257874
X0253937
X025
X0246063
X0242126
X0238189
X0234252
X0232284Y0324902
X0236221
X0240158
X0244095
X0248032
X0251969
X0255906
X0259843
X026378
X0257874Y0328839
X0253937
X025
X0246063
X0242126
X0238189
X0234252
X0230315
Y0336713
X0234252
X0238189
X0242126
X0246063
X025
X0253937
X0254241Y0338826
X0251893Y0339883
X0250073Y0341704
X0247685Y0342666
X0245276Y0342618
X0244095Y034065
X0240158
X0236221
X0232284
X0228347
X022441
X0220473
X0216536
X0216185Y0337189
X0218504Y0336713
X0219185Y0334689
X0222441Y0336713
X0226378
X0221707Y0331506
X0214185Y0338189
X0212599Y034065
Y0348524
X0213685Y0351189
X0217185
X0219685
X0216536Y0348524
X0220473Y0356398
X022441
X0228347
X0232284
X0236221
X0240158
X0244095
X0248032
X0251969
X0255906
X0259843
X026378
X0267717
X0271654
X0275591
X0279528
X0283465
X0287402
X0291339
X0295276
X0299213
X030315
X0307087
X0309055Y0360335
X0305118
X0301181
X0297244
X0293307
X028937
X0285433
X0281496
X0277559
X0273622
X0269685
X0265748
X0261811
X0257874
X0253937
X025
X0246063
X0242126
X0238189
X0234252
X0230315
X0226378
X0222441
X0220473Y0364272
X022441
X0228347
X0232284
X0236221
X0240158
X0244095
X0248032
X0251969
X0255906
X0259843
X026378
X0267717
X0271654
X0275591
X0279528
X0283465
X0287402
X0291339
X0295276
X0299213
X030315
X0307087
X0309055Y0352461
X0305118
X0301181
X0297244
X0293307
X028937
X0285433
X0281496
X0277559
X0273622
X0269685
X0265748
X0261811
X0257874
X0253937
X025
X0246063
X0242126
X0238189
X0234252
X0230315
X0244095Y0348524
X024685Y0348524
X0249606
X0252005Y0346936
X0254566Y0347205
X025647Y0345472
X0258048Y0343437
X0259114Y0341094
X026378Y034065
X0267717
X0271654
X0275591
X0279528
X0283465
X0285433Y0344587
X0281496
X0277559
X0273622
X0269685
X0265748
X0261811
X026378Y0348524
X0267717
X0271654
X0275591
X0279528
X0283465
X0287402
X0291339
X0295276
X0299213
X030315
X0307087
X0301181Y0344587
X0293307
Y0336713
X028937
X0285433
X0281496
X0277559
X0273622
X0269685
X0265748
X0262561Y0336665
X0264335Y0334799
X0266156Y0332979
X0267977Y0331158
X026378Y0309154
X0259843
X0255906
X0251969
X0248032
X0244095
X0240158
X0242126Y0305217
X0246063
X025
X0253937
X0257874
X0261811
X0265748
X0271149Y0303909
X0269685Y0297343
X0265748
X0261811
X0257874
X0253937
X0259843Y0293406
X026378
X0267717
X0271654
X0279134Y0293406
X0278106Y0290975
X0280681
X0293307Y0297343
X030315Y030128
X0310729Y0299508
X0309055Y0296358
X0309252Y0293406
X0309449Y02875
X0310685Y0285689
X0312598Y0286811
X0312685Y0284189
X0315945Y0286811
X0317685Y0285189
X0319185Y0283689
X0320685Y0282189
X0322185Y0280689
X0324803Y0281595
X0328741
X0332678
X0336614
X0340551
X0344489
X0348426
X0352362
X0356299
X0360237
X0364174
X0362205Y0285532
X0366142
X0364174Y0289469
X0360237
X0356299
X0352362
X0348426
X0344489
X0340551
X0336614
X0332678
X0328741
X0326378Y0290256
Y0292126
X0325984Y02875
X0326772Y0285532
X0330709
X0334646
X0338583
X034252
X0346457
X0350394
X0354331
X0358268
Y0277658
X0362205
X0366142
X0364174Y0273721
X0360237
X0356299
X0352362
X0348426
X0344489
X0340551
X0336614
X0332678
X0328741
X0325685Y0272689
X0326772Y0271189
X0328074Y0269244
X0330709Y0269784
X032999Y0267524
X0331124Y0265212
X0333301Y0263838
X0333909Y0261336
X0334185Y0258957
X0336614Y0257973
X0340551
X0344489
X0348426
X0352362
X0356299
X0360237
X0364174
X0362205Y026191
X0366142
X0364174Y0265846
X0360237
X0356299
X0352362
X0348426
X0344489
X0340551
X0336614
X0334646Y0269784
X0338583
X034252
X0346457
X0350394
X0354331
X0358268
X0362205
X0366142
Y0254035
X0362205
X0358268
X0354331
X0350394
X0346457
X034252
X0338583
X0333909Y0254781
Y0252206
X0332534Y0250029
Y0247455
Y024488
Y0242305
Y023973
X0334646Y0238287
X0338583
X034252
X0346457
X0350394
X0354331
X0358268
X0362205
X0366142
X0364174Y0242225
X0360237
X0356299
X0352362
X0348426
X0344489
X0340551
X0336614
X0334646Y0246162
X0338583
X034252
X0346457
X0350394
X0354331
X0358268
X0362205
X0366142
X0364174Y0250098
X0360237
X0356299
X0352362
X0348426
X0344489
X0340551
X0336614
X0327637Y0250326
X0328096Y0247792
Y0245217
Y0242642
Y0240068
X0324803Y0242225
X0320866
X0316929
X0312992
X0309055
X0305118
X0301181
X0297244
X0293307
X028937
X0285433
X0281496
X0277559
X0273622
X0269685
X0267717Y0246162
X0271654
X0275591
X0279528
X0283465
X0287402
X0291339
X0295276
X0299213
X030315
X0307087
X0311024
X0314961
X0318898
X0322835
X0324803Y0250098
X0320866
X0316929
X0312992
X0309055
X0305118
X0301181
X0297244
X0293307
X028937
X0285433
X0283465Y0254035
X0291339
X0295276
X0299213
X030315
X0307087
X0311024
X0314961
X0318898
X0322835
X0326721Y0255307
Y0252732
X0324803Y0257973
X0320866
X0316929
X0312992
X0309055
X0305118
X0301181
X030315Y026191
X0302756Y0264665
X0305118Y0264272
X030748
X0307087Y026191
X0311024
X0314961
X0318898
X0322835
X0326087Y026321
X0326721Y0260714
X0324325Y0265087
X0322185Y0266689
X0320685Y0267689
X0318685Y0269189
X0317185Y0270689
X0315685Y0272189
X0314185Y0273689
X0312205Y027372
Y0275689
X0310379Y0277725
X0308953Y0279133
X030748Y0280807
X0306693Y0282775
X0305906Y0275689
X0304331Y0274508
X0302362Y0275295
X0301181Y0273327
X030315Y0272539
X0305512
X0307087Y027372
X0303937Y0277264
X0297901Y0277789
X0299695Y0279637
X0296457Y0275295
Y0272736
Y0270571
X0297244Y0268602
X0294685Y0268189
X0293307Y0265846
X0293307Y0262697
X029685
X0296685Y0265189
X0298819Y0267027
X0300787Y0265846
X0299685Y0263189
X028937Y0262697
X028937Y0265846
X028937Y0268602
X0291339Y0269784
X0293307Y0271189
X0287402Y0277658
X0267717
X026378
X0259843
X0255906
X0251969
X0248032
X0245329Y0277557
Y0280132
Y0282707
X025Y0281595
X0253937
X0257874
X0261811
X0265748
X0261811Y0273721
X0257874
X0253937
X025
X0248032Y0269784
X0251969
X0255906
X0259843
X0257874Y0265846
X0253937
X025
X0246063
X0242126
X023989Y0266378
X0241711Y0268199
X0243319Y027021
X0244491Y0272502
X0245163Y0274988
X0244095Y026191
X0248032
X0251969
X0255906
X0257874Y0257973
X0253937
X025
X0246063
X0242126
X0238189
X0236221Y0254035
X0240158
X0244095
X0248032
X0251969
X0255906
X0257874Y0250098
X0253937
X025
X0246063
X0242126
X0238189
X0234252
X0230315
X0228347Y0246162
X0232284
X0236221
X0240158
X0244095
X0248032
X0251969
X0255906
X0257874Y0242225
X0253937
X025
X0246063
X0242126
X0238189
X0234252
X0230315
X0226378
X022441Y0246162
X0219863Y0246351
X0221683Y0248171
X0223504Y0249992
X0225325Y0251813
X0227145Y0253633
X0228966Y0255454
X0230787Y0257275
X0232607Y0259095
X0234428Y0260916
X0236249Y0262737
X0238069Y0264557
X0240158Y026191
X0232284Y0254035
Y0238287
X0236221
X0240158
X0244095
X0248032
X0251969
X0255906
X0267717
X0271654
X0275591
X0279528
X0283465
X0287402
X0291339
X0295276
X0299213
X030315
X0307087
X0311024
X0314961
X0318898
X0322835
X0316929Y0265846
X0312992
X0310236Y0267027
X0309449Y0265059
X031063Y026939
X0311811Y0271358
X0314961Y0269784
X0324083Y0274675
X0322685Y0276189
X0330709Y0277658
X0334646
X0338583
X034252
X0346457
X0350394
X0354331
Y026191
X0358268
X0350394
X0346457
X034252
X0338583
X0340551Y0297343
X0344489
X0348426
X0352362
X0356299
X0360237
X0364174
X0362205Y030128
X0366142
X0364174Y0305217
X0360237
X0356299
X0352362
X0348426
X0344489
X0340551
X0336614
X0334646Y0309154
X0338583
X034252
X0346457
X0350394
X0354331
X0358268
X0362205
X0366142
X0358268Y0317028
X0354331
X0350394
X0346457
X034252
X0338583
X0334646
X0330709
X0326772
X0322835
X0318898
X0314961
X0311024
X0312992Y0313091
X0316929
X0320866
X0315961Y0306382
X0312689
X0309547Y0305512
X0309055Y0313091
X030315Y0317028
X0293307Y0320965
X0317914Y0299311
X0320866
Y0296358
Y0293406
X0317914
Y0296358
X0319291Y02875
X0322835
X0328741Y0297343
X0332678
X0336614
X0334646Y030128
X0338583
X034252
X0346457
X0350394
X0354331
X0358268
X0330709Y0309154
Y034065
X0334646
X0338583
X034252
X0346457
X0350394
X0354331
X0358268
X0356299Y0344587
X0352362
X0348426
X0344489
X0340551
X0336614
X0332678
X0328741
X0324803
X0320866
X0322835Y0348524
X0326772
X0330709
X0334646
X0338583
X034252
X0346457
X0350394
X0354331
X0358268
X0356299Y0352461
X0352362
X0348426
X0344489
X0340551
X0336614
X0332678
X0328741
X0324803
X0320866
X0322835Y0356398
X0326772
X0330709
X0334646
X0338583
X034252
X0346457
X0350394
X0354331
X0358268
X0360237Y0360335
X0356299
X0352362
X0348426
X0344489
X0340551
X0336614
X0332678
X0328741
X0324803
X0320866
X0322835Y0364272
X0326772
X0330709
X0334646
X0338583
X034252
X0346457
X0350394
X0354331
X0358268
X0362205
X0326772Y034065
X0322835
X0238189Y0305217
X0227559Y0288287
X0228347Y0285532
Y0238287
X022441
X0269685Y0250098
X0267717Y0254035
X0265748Y0257973
X026378Y026191
X0267717
X0271654
Y0269784
X0267717
X0265748Y0265846
X0260827Y0263878
X0218185Y0366689
X0215185
X0212685
X0209646Y0367189
X0206685
X0203185Y0366689
X0204725Y0364272
X0204685Y0362189
X0202756Y0360335
X0200185Y0358689
X0199969Y0353497
X0204685Y0353189
Y0351189
X0204725Y0348524
X0204685Y0355413
X0193653Y0355807
X0185464Y0362947
X0178727Y0362903
X0179134Y0351279
Y0348917
X0181496Y0350098
X0179134Y0342618
X0177685Y0335189
X0175185Y0337189
X0176784Y0328432
X0179921Y033002
X0181496Y0331988
X0192003Y033002
X0193701Y0328432
X0198819Y0328839
X02Y0332382
X0203685Y0331189
X0205685
X0206693Y0328839
X0208185Y0327189
X0208662Y0324902
X0211185Y0323689
X021063Y0320965
X0206693
X0204725Y0324902
X0203685Y0328189
Y0333689
X0205185Y0335189
X0203648Y0337086
X0201969Y0335925
X0208662Y034065
Y0317028
X0204725
X0206693Y0313091
X021063
X0208662Y0309154
X0204725
X0206693Y0305217
X021063
X0208662Y030128
X0204725
X0200788
X0201969Y0306004
X0202756Y0297343
X0204185Y0295189
X0207185
X0206693Y0297343
X021063
X0210185Y0295189
X0202685Y0292689
X0200185
X0198819Y0297343
X0193653Y0300689
X0185464Y0307829
X0178727Y0307785
X0179134Y0296161
Y0293799
X0181496Y029498
X0179134Y02875
X0202032Y0287068
X0203685Y0285689
X0205185Y0284189
X0208185
X0206693Y0281595
X021063
X0208662Y0277658
X0204725
X0206693Y0273721
X021063
X0208662Y0269784
X0204725
X0200788
X0196851
X0198819Y0265846
X0202756
X0206693
X021063
X0208662Y026191
X0204725
X0200788
X0196851
X0198819Y0257973
X0202756
X0206693
X021063
X0208662Y0254035
X0204725
X0200788
X0197685Y0252689
X0202756Y0250098
X0206693
X021063
X0211358Y0246067
X0208662Y0246162
X0204725
X0206693Y0242225
X0202756
X0204725Y0238287
X0198819Y0238681
X0196851
X0192915Y0238832
X0186221Y0241043
Y0243406
Y0245768
Y024813
X0183661Y0248696
X0177685Y0248689
X0169261Y0254589
X0163386Y0256988
Y0258957
Y0260925
X0160433Y025502
X0158465
X0156496
Y0249114
X0158465
X0160433
Y0251083
Y0253051
Y024124
X0158465
X0156496
X0148622Y0243209
Y0245177
Y0247146
X0142717Y0258957
X0143307Y0271358
X0145669
X0148032
X0150394
X0148032Y0274114
X0138189
Y0271358
X0140945
Y0280413
X0138189
X014148Y0282635
X013339Y0284122
X013089
X0123616Y028372
X0119095Y0286516
X0112424Y0284465
X0110411
X010689Y0286516
X0101378Y02875
Y0290453
Y0293406
X0101962Y0299075
X0101378Y030187
X0101477Y0310247
X0101575Y0312697
X0098819Y0310509
X0096063Y0310335
X0103977Y031792
X0105685Y0320689
X0108685Y0322689
X0114185
X0116885
X0121685
X0126579Y0320965
X0130315Y0320571
X0139764Y0316043
X0141732Y0311122
X0140051Y0307243
Y0304068
Y0301068
X0138878Y0299114
X0142717Y0302068
Y0305756
X0150787Y0303642
X0151575Y0312106
X0148819Y0320177
X0146851Y0324114
X0144882Y0326083
X0155906Y0322146
X0159449Y0334689
X0159449Y0307185
Y0300295
X0159449Y0279571
X0126575Y0276181
X0133465Y0267421
X0116929Y0267914
X0112314Y0263987
X0110346Y0265736
X0107087Y0261122
X0083071Y0268602
Y0270571
Y0272539
Y0274508
X0081103
X0079134
Y0272539
Y0270571
Y0268602
X0081103
Y0270571
Y0272539
X0088583Y0282579
X008563Y0286516
X009252
Y0293406
X0067329Y0291988
X006811Y0302067
X0058268
X0056299Y0312303
X006718Y0322146
X0062992Y0326476
X0075788Y0327854
X0081496Y0330413
X0080709Y0339665
X0083662
X0086614
X0102756Y0336713
Y0334744
Y0332775
X0102937Y0330626
X0098835
X0100685Y032461
X0100787Y034498
X0105906Y0342618
X0108685Y0340689
X0114185Y0338669
X0119291Y0336713
Y0334744
Y0332775
X0116885Y0355413
X0117126Y0362303
X0123675Y0387841
X0099462Y0389613
X0097441Y0391634
X0139764Y0346555
X0169291Y0369193
X0200788Y0364272
X0196851Y0324902
X0198819Y0320965
X0196851Y0317028
X0198819Y0313091
X0173229Y0316043
X017126Y0318012
X0169291Y0314075
X0196851Y0277658
X0202756Y0273721
X0130709Y0238681
X0077756Y0238287
X0075788
X0073819
X0064173Y0242618
X006378Y0248524
X0081693Y0245177
X0069882Y028061
X0054134Y0307185
X0032677Y0491043
X0056352Y0496109
X005832Y0485872
X0068163
X0062992Y0510335
X0075787Y0511713
X0081496Y0514272
X0080761Y0523471
X0083714
X0086667
X0102756Y0520571
Y0518602
Y0516634
X0102937Y0514484
X0098835
X0100685Y0508468
X0105738Y0504494
X0104029Y0501725
X0101628Y0496502
X0101529Y0494053
X0098872Y0494315
X0096116Y049414
X0101378Y0485728
X0102015Y048288
X0101378Y0477264
Y0474311
Y0471358
X0106942Y0470321
X0110463Y0468271
X0112477
X0119095Y0470374
X0123669Y0467526
X0130942Y0467928
X0133442
X0138189Y0464272
X0140945
X0141532Y046644
X0138189Y0457972
Y0455217
X0140945
X0143307
X0145669
X0148031
X0150394
X0148031Y0457972
X0159449Y0463429
X0159449Y0484154
Y0491043
X015084Y0487447
X0151575Y0495965
X0148872Y0503983
X0146903Y050792
X0144935Y0509888
X0155958Y0505951
X0159449Y0518547
X0175238Y0520995
X0177738Y0518995
X0181549Y0515794
X0179974Y0513825
X0176837Y0512238
X0173281Y0499849
X0171313Y0501817
X0169291Y0497933
X0178727Y0491644
X0185464Y0491687
X0193705Y0484494
X0200788Y0483169
X0204725
X0208662
X0207185Y0479047
X0210185
X0204185
X0202685Y0476547
X0200185
X0198819Y0479232
X0202032Y0470927
X0203685Y0469547
X0205185Y0468047
X0208185
X0206693Y0463484
X021063
X0208662Y0459547
X0204725
X0206693Y045561
X021063
X0208662Y0451673
X0204725
X0200788
X0196851
X0198819Y0447736
X0202756
X0206693
X021063
X0208662Y0443799
X0204725
X0200788
X0196851
X0198819Y0439862
X0202756
X0206693
X021063
X0208662Y0435925
X0204725
X0206693Y0431988
X021063
X0211358Y0429925
X0208662Y0428051
X0204725
X0202756Y0431988
Y0424114
X0203685Y0420047
X0202185Y0418547
X0202685Y0415547
X0200685
Y0410047
X0203185
X0206693Y0408366
X021063
X0208662Y0404429
X0204725
X0206693Y0400492
X021063
X0208662Y0396555
X0204725
X0196851
X0198819Y0400492
X0196851Y0404429
X0191004Y0402408
X0187992Y0401476
X0192966Y0399258
X0192915Y0422691
X0196903Y0422487
X0198872
X0207185Y0420547
X0211185Y0416547
X0178937Y0416897
Y0418866
X0179187Y0409298
X0159449Y0407972
X0154528Y0405413
X0165604Y0401424
X0140598Y0403432
X013588Y0397684
X0130761Y0422487
X0148622Y0427067
Y0429035
Y0431004
X0156496Y0432972
X0158465
X0160433
Y0434941
Y0436909
Y0438878
X0158465
X0156496
X0163386Y0440846
Y0442815
Y0444783
X016926Y0438447
X0177685Y0432547
X0183661Y0432555
X0186221Y0431988
Y0429626
Y0427264
Y0424902
X0197685Y0436547
X0202756Y045561
Y0487106
X0202021Y0489809
X0204725Y0491043
X0208662
X021063Y049498
X0206693
X0204725Y0498917
X0208662
X021063Y0502854
X0206693
X0204725Y0506791
X0208662
X0211185Y0507547
X0208185Y0511047
X0203685Y0512047
Y0515047
X0205685
X0203685Y0517547
X0205185Y0519047
X0203648Y0520945
X0202021Y0519731
X0200053Y0516187
X0198819Y0510728
X0196851Y0506791
X0198819Y0502854
X0196851Y0498917
X0193754Y0512238
X0192056Y0513825
X0179187Y0526424
X0179134Y0532776
Y0535138
X0181496Y0533957
X0178727Y0546762
X0185464Y0546806
X0193705Y0539613
X0199969Y0537355
X0204685Y0537047
Y0535047
Y0539272
Y0546047
X0200788Y0546162
X0200185Y0542547
X0206693Y0487106
X021063
X0181496Y0478839
X0179134Y048002
Y0477658
X0179187Y0471306
X0142769Y0485874
X0140104Y0484874
Y0487874
Y0491049
X0142769Y0489561
X0141785Y0494928
X0139816Y0499849
X0130368Y0504376
X0126632Y050477
X0121685Y0506547
X0116885
X0114238Y0506495
X0108738
Y0524495
X0105958Y0526424
X0100787Y0528839
X0114238Y0522475
X0119291Y0520571
Y0518602
Y0516634
X0116885Y0539272
X0117126Y0546161
X0139816Y0530361
X0138931Y048292
X0126575Y0460039
X0133517Y0451227
X0116982Y045162
X0112367Y0447793
X0110399Y0449542
X0107139Y0444928
X0083124Y0452408
Y0454376
Y0456345
Y0458313
X0081155
X0079187
Y0456345
Y0454376
X0081155
Y0452408
X0079187
X0081155Y0456345
X0088583Y0466437
X008563Y0470374
X009252
Y0477264
X0081693Y0429035
X0077756Y0422146
X0075787
X0073819
Y0420177
X0075787
X0077756
X0064173Y0426476
X0063779Y0432382
X0070919Y0403392
X0069344Y0401424
X010399Y0395828
X0156496Y0425098
X0158465
X0160433
X0142717Y0442815
X0212599Y0443799
X0216536
X0220473
X022441
X0224931Y0441553
X0223111Y0439733
X022129Y0437912
X0219469Y0436092
X0217649Y0434271
X0215511Y0432835
X0213178Y0431746
X0212599Y0435925
X0214567Y0439862
X0218504
Y0447736
X0222441
X0226378
X0230393Y0447015
X0228573Y0445195
X0226752Y0443374
X0232607Y0442954
X0230787Y0441133
X0228966Y0439312
X0227145Y0437492
X0225325Y0435671
X0223504Y043385
X0221683Y043203
X0219863Y0430209
X022441Y0428051
X0228347
X0232284
X0236221
X0240158
X0244095
X0248032
X0251969
X0255906
X0257874Y0431988
X0253937
X025
X0246063
X0242126
X0238189
X0234252
X0230315
X0226378
Y0424114
X0230315
X0234252
X0238189
X0242126
X0246063
X025
X0253937
X0257874
X0255906Y0420177
X0251969
X0248032
X0244095
X0240158
X0236221
X0232284
X0228347
X022441
X0226378Y041624
X0230315
X0234252
X0238189
X0242126
X0246063
X025
X0253937
X0257874
X0255906Y0412303
X0251969
X0248032
X0244095
X0240158
X0236221
X0232284
X0228347
X022441
X0220473
X0216536
X0212599
X0214567Y0408366
X0218504
X0222441
X0226378
X0230315
X0234252
X0238189
X0242126
X0246063
X025
X0253937
X0257874
X0255906Y0404429
X0251969
X0248032
X0244095
X0240158
X0236221
X0232284
X0228347
X022441
X0220473
X0216536
X0212599
X0214567Y0400492
X0218504
X0222441
X0226378
X0230315
X0234252
X0238189
X0242126
X0246063
X025
X0253937
X0251969Y0396555
X0248032
X0244095
X0240158
X0236221
X0232284
X0228347
X022441
X0220473
X0216536
X0212599
X0218504Y041624
X0222441
X0232284Y0435925
X0236221
X0240158
X0244095
X0248032
X0251969
X0255906
X0257874Y0439862
X0253937
X025
X0246063
X0242126
X0238189
X0234252
X0234428Y0444774
X0236249Y0446595
X0238069Y0448416
X023989Y0450236
X0241711Y0452057
X0244095Y0451673
X0243319Y0454068
X0244491Y045636
X0245163Y0458846
X0245329Y0461415
Y046399
Y0466565
X0246704Y0468742
Y0471316
X0247674Y0473053
X0247721Y0475045
X0249606Y0472146
X0251575Y0470965
X0254352Y0471535
X0256542Y047018
X0258974Y0469335
X0259843Y0467421
X0261525Y0468984
X0264099Y0468968
X0266674
X0269249
X0271824
X0274398
X0276664Y0467745
X0279237Y0467646
X028189Y0467028
X0284252
X0286614Y0467421
X0289184Y046758
X0290972Y0469433
X0293159Y0470792
X0292279Y047838
X0289704
X0287252Y0479164
X0285631Y0481165
X0287402Y0483169
X0284252Y0483563
X028189Y0485138
X0280292Y0486504
X0278194Y0487997
X0275831Y0489019
X0274324Y0491107
X0273562Y0493567
X0273479Y049614
Y0498715
X0275591Y0498917
X0279528
X0283465
X0285433Y0502854
X0281496
X0277559
X0273479Y0503864
Y050129
X0273305Y0506433
X0275591Y0506791
X0279528
X0283465
X0285433Y0510728
X0281496
X0277559
X0273622
X0271422Y0511198
X0272606Y0508912
X0268243Y0507854
X0268967Y0505383
X0269041Y0502809
Y0500234
Y0497659
Y0495085
X0269224Y0492516
X0267717Y0491043
X0269951Y0490046
X0271149Y0487767
X0272791Y0485784
X0273741Y0483391
X0271654Y0483169
X0267717
X026378
X0259843
X0255906
X0251969
X0248032
X0244095
X0245152Y0480804
X0242578Y0480858
X0240057Y0480329
X0237501Y0480021
X0235309Y0481371
X0234502Y0483816
Y0486391
Y0488966
Y0491541
Y0494115
X0234437Y0496689
X0233986Y0499225
X0236221Y0498917
X0240158
X0244095
X0248032
X0251969
X0255906
X0259843
X026378
X0265748Y0502854
X0261811
X0257874
X0253937
X025
X0246063
X0242126
X0238189
X0236221Y0506791
X0240158
X0244095
X0248032
X0251969
X0255906
X0259843
X026378
X0261811Y0510728
X0257874
X0253937
X025
X0246063
X0242126
X0238189
X0234252
X0230315
X0226105Y0509218
X0225244Y0511645
X0223623Y0513645
X0221707Y0515365
X0222441Y0518602
X0219185Y0518547
X0220473Y0522539
X022441
X0228347
X0232284
X0236221
X0240158
X0244095
X0248032
X0247684Y0526524
X0245276Y0526476
X0242126Y0526476
Y053435
X0246063
X024685Y0532382
X0249606
X0252005Y0530794
X0254565Y0531063
X025647Y052933
X0258048Y0527296
X0259114Y0524952
X0261811Y0526476
X0265748
X0269685
X0273622
X0277559
X0281496
X0285433
X0283465Y0530413
X0287402
X0291339
X0293307Y0528051
Y0525689
Y0523327
Y0520571
Y0518209
Y0515846
X028937Y0518602
X0285433
X0281496
X0277559
X0273622
X0269685
X0267977Y0515016
X0269797Y0513196
X0271654Y0514665
X0275591
X0279528
X0283465
Y0522539
X0279528
X0275591
X0271654
X0267717
X026378
X0262561Y0520523
X0264335Y0518657
X0266156Y0516837
X0263118Y0513599
X0261297Y051542
X0259404Y0517165
X0255906Y0514665
X0251969
X0248032
X0244095
X0240158
X0236221
X0232284
X0228347
X0230315Y0518602
X0234252
X0238189
X0242126
X0246063
X025
X0253937
X0254241Y0522685
X0251893Y0523741
X0250073Y0525562
X0253937Y053435
X0251969Y0538287
X0255906
X0259843
X026378
X0267717
X0271654
X0275591
X0279528
X0283465
X0287402
X0291339
X0295276
X0299213
X030315
X0307087
X0309055Y0542225
X0305118
X0301181
X0297244
X0293307
X028937
X0285433
X0281496
X0277559
X0273622
X0269685
X0265748
X0261811
X0257874
X0253937
X025
X0246063
X0242126
X0238189
X0234252
X0230315
X0226378
X0222441
X0220473Y0546162
X022441
X0228347
X0232284
X0236221
X0240158
X0244095
X0248032
X0251969
X0255906
X0259843
X026378
X0267717
X0271654
X0275591
X0279528
X0283465
X0287402
X0291339
X0295276
X0299213
X030315
X0307087
X0305118Y0550099
X0301181
X0297244
X0293307
X028937
X0285433
X0281496
X0277559
X0273622
X0269685
X0265748
X0261811
X0257874
X0253937
X025
X0246063
X0242126
X0238189
X0234252
X0230315
X0226378
X0222441
X0228347Y0538287
X0232284
X0236221
X0240158
X0244095
X0248032
X0238189Y053435
X0234252
X0230315
X0219685Y0535047
X0217185
X0213685
X0214567Y0526476
X0218504
X0216185Y0521047
X0214185Y0522047
X0226378Y0518602
X0227926Y0507397
X0229746Y0505577
X0231521Y0503711
X0232998Y0501602
X02289Y0499846
X0229877Y0497464
X0230065Y0494896
Y0492321
Y0489746
Y0487171
Y0484596
X0230122Y0482022
X0228347Y0483169
X022441
X0224551Y0479569
X0227124Y0479483
X0229699
X023027Y0475045
X0227695
X022512
X0222932Y0473689
X0220357Y047367
X0219747Y0480858
X0222322
X0220473Y0483169
X0216536
X0217185Y0481047
X0212599Y0483169
X0214567Y0487106
X0218504
X0222441
X0226378
X022441Y0491043
X0228347
X0226378Y049498
X0222441
X0218504
X0214567
X0212599Y0498917
X0216536
X0220473
X022441
X0225415Y0503632
X0227236Y0501811
X0222441Y0502854
X0223595Y0505452
X0221497Y0506945
X0218504Y0502854
X0214567
X0212599Y0491043
X0216536
X0220473
X0240158
X0244095
X0248032
X0251969
X0255906
X0259843
X026378
X0265748Y049498
X0261811
X0257874
X0253937
X025
X0246063
X0242126
X0238189
Y0487106
X0242126
X0246063
X025
X0253937
X0257874
X0261811
X0265748
Y0479232
X0269685
X0273622
X0276772Y0479626
X0275293Y0481336
X0275645Y0473953
X0273129Y0473406
X0270554
X0267979
X0265404
X026283
X0260259Y047355
X0257866Y04745
X0256045Y047632
X0254059Y0477959
X0252149Y0478739
X0249889Y0479973
X0247361Y0479483
X0257874Y0479232
X0261811
X026378Y0475295
X0271654
X0278064Y0474834
X0280639
X0279134Y0477264
X0279528Y0491043
X0283465
X0285433Y049498
X0281496
X0277559
X0285433Y0487106
X028937
X0293307
X0291339Y0483169
X030315
X0310728Y0483366
X0309055Y0480217
X0309252Y0477264
X0309449Y0471358
X0312598Y0470669
X0315945
X0319291Y0471358
X0322835
X0325984
X032874Y0471358
X0330709Y0470374
X0332677Y0471358
X0334646Y0473327
X0336614Y0475295
X0338583Y0477264
X0339567Y0479232
X0339492Y0481598
X0339066Y0484145
X033991Y0488186
X0340413Y0490711
X0341285Y0493133
Y0495708
Y0498283
Y0500858
Y0503433
Y0506007
Y0508582
Y0511157
Y0513732
Y0516307
Y0518881
Y0521456
Y0524031
Y0526606
Y0529181
Y0531755
Y053433
Y0536905
Y053948
Y0542055
Y0544629
Y0547204
X0341654Y0549752
X0346191Y0549276
X0345723Y0546744
Y0544169
Y0541595
Y053902
Y0536445
Y053387
Y0531295
Y0528721
Y0526146
Y0523571
Y0520996
Y0518421
Y0515846
Y0513272
Y0510697
Y0508122
Y0505547
Y0502973
Y0500398
Y0497823
Y0495248
Y0492673
X0346835Y0490351
X0347098Y048779
X0347666Y0484147
X0347441Y0481201
Y0478248
X0345472Y0476279
X0344488Y0474311
X0344489Y0471358
X034252Y0472342
X0341535Y0470374
X0339567Y0468405
X0337598Y0466437
X0336614Y0463484
X0340551
X0344489
X0348426
X0352362
X0356299
X0360237
X0364174
X0362205Y0467421
X0366142
X0364174Y0471358
X0360237
X0356299
X0352362
X0348426
X0346457Y0467421
X0350394
X0354331
X0358268
Y0475295
X0362205
X0366142
X0364174Y0479232
X0360237
X0356299
X0352362
X0350394Y0483169
X0354331
X0358268
X0362205
X0366142
X0364174Y0487106
X0360237
X0356299
X0352362
X0350394Y0491043
X0354331
X0358268
X0362205
X0366142
X0364174Y049498
X0360237
X0356299
X0352362
X0348426
X0350394Y0498917
X0354331
X0358268
X0362205
X0366142
X0364174Y0502854
X0360237
X0356299
X0352362
X0348426
X0350394Y0506791
X0354331
X0358268
X0362205
X0366142
X0364174Y0510728
X0360237
X0356299
X0352362
X0348426
X0350394Y0514665
X0354331
X0358268
X0362205
X0366142
X0364174Y0518602
X0360237
X0356299
X0352362
X0348426
X0350394Y0522539
X0354331
X0358268
X0362205
X0366142
X0364174Y0526476
X0360237
X0356299
X0352362
X0348426
X0350394Y0530413
X0354331
X0358268
X0362205
X0366142
X0364174Y053435
X0360237
X0356299
X0352362
X0348426
X0350394Y0538287
X0354331
X0358268
X0362205
X0366142
X0364174Y0542225
X0366142Y0546162
X0356299Y0542225
X0352362
X0348426
X0350394Y0546162
X0338583
X0334646
X0330709
X0326772
X0322835
X0324803Y0550099
X0328741
X0332678
X0336614
Y0542225
X0332678
X0328741
X0324803
X0320866
X0322835Y0538287
X0326772
X0330709
X0334646
X0338583
X0336614Y053435
X0332678
X0328741
X0324803
X0320866
X0322835Y0530413
X0326772
X0330709
X0334646
X0338583
X0336614Y0526476
X0332678
X0328741
X0324803
X0320866
X0317323Y0525689
Y0523721
Y0521752
X0314961
X0310039Y0519783
Y0517421
X0309055Y0510728
X0312992
X0316929
X0320866
X0324803
X0328741
X0332678
X0336614
X0334646Y0514665
X0338583
X0336614Y0518602
X0332678
X0328741
X0324803
X0320866
X0318898Y0514665
X0316535Y0514665
X0322835Y0514665
X0326772
X0330709
Y0522539
X0334646
X0338583
X0326772
X0322835
Y0506791
X0326772
X0330709
X0334646
X0338583
X0336614Y0502854
X0332678
X0328741
X0324803
X0320866
X0318898Y0506791
Y0498917
X0322835
X0326772
X0330709
X0334646
X0338583
X0336614Y049498
X0332678
X0328741
X0324803
X0320866
X0316929
X0315961Y049024
X0318898Y0490256
X032126Y0491043
X0323622
X0326378
X0327559Y0488287
Y0485925
Y0483563
X0326378Y0481988
Y048002
Y0478051
Y0475984
Y0474114
X0330709Y0475295
X0332678Y0479232
X0336614
X0334646Y0483169
X0330709
X0328741Y0479232
X0320866Y0480217
Y0477264
X0317913
Y0480217
Y0483169
X0320866
X0312689Y049024
X0309547Y048937
X0311024Y0498917
X0314961
X030315
X0301181Y0510728
X030315Y0514665
X030326Y0525435
X0302362Y0528051
X030315Y0530413
X0307087
X0309055Y053435
X0305118
X0301181
X0297244
X0293307
X028937
X0285433
X0281496
X0277559
X0273622
X0269685
X0265748
X0261811
X026378Y0530413
X0267717
X0271654
X0275591
X0279528
X0295276Y0529232
X0297638
X03
X0299213Y0522539
X0264938Y0511779
X0266759Y0509958
X0232284Y0506791
X0240158Y0483169
X0237995Y0475045
X0238189Y0472933
X0239516Y0470963
X023952Y0468388
X0240891Y0466209
Y0463634
Y046106
X0240545Y0458508
X0239421Y0456192
X0237676Y0454298
X0235855Y0452478
X0234035Y0450657
X0232214Y0448836
X0228347Y0451673
X022441
X0220473
X0216536
X0212599
X0214567Y045561
X0218504
X0222441
X0226378
X0230315
X0234252
X0232284Y0459547
X0236221
X0238189Y0463484
X0234252
X0230315
X0226378
X0222441
X0218504
X0214567
X0212599Y0459547
X0216536
X0220473
X022441
X0228347
Y0467421
X0232284
X0236221
X0235039Y0472146
X023189
X0232845Y0475045
X023542
X0227559Y0472146
X0251969Y0467421
X0255906
X0257874Y0463484
X0261811
X0265748
X026378Y0459547
X0267717
X0271654
X0267717Y0451673
Y0443799
X026378
X0260827Y0447736
X0257874Y0447736
X0253937
X025
X0246063
X0242126
X0240158Y0443799
X0244095
X0248032
X0251969
X0255906
Y0451673
X0251969
X0248032
X025Y045561
X0253937
X0257874
X0261811
X0259843Y0459547
X0255906
X0251969
X0248032
X025Y0463484
X0253937
X0269685Y0439862
Y0431988
X0273622
X0277559
X0281496
X0285433
X028937
X0293307
X0297244
X0301181
X0305118
X0309055
X0312992
X0316929
X0320866
X0324803
X0328741
X0332678
X0336614
X0340551
X0344489
X0348426
X0352362
X0356299
X0360237
X0364174
X0362205Y0435925
X0366142
X0364174Y0439862
X0360237
X0356299
X0352362
X0348426
X0344489
X0340551
X0336614
X0332678
X0328741
X0324803
X0320866
X0316929
X0312992
X0309055
X0305118
X0301181
X0299213Y0435925
X030315
X0307087
X0311024
X0314961
X0318898
X0322835
X0326772
X0330709
X0334646
X0338583
X034252
X0346457
X0350394
X0354331
X0358268
Y0443799
X0362205
X0366142
X0364174Y0447736
X0360237
X0356299
X0352362
X0348426
X0344489
X0340551
X0336614
X0332678
X0328741
X0324803
X0320866
X0316929
X0312992
X0309449Y0448917
X030748Y044813
X0305118
X0302756Y0448524
X0300787Y0449705
X0298819Y0450886
X0297244Y0452461
X0295276Y0451673
X0296457Y0454429
Y0456595
Y0459154
X0294291Y0457579
X0292323Y045561
X0290354Y0453642
X028937Y0451673
Y0448721
X0291339Y0446752
X0293307Y0447736
X0297244
X030315Y0443799
X0307087
X0311024
X0314961
X0318898
X0322835
X0326772
X0330709
X0334646
X0338583
X034252
X0346457
X0350394
X0354331
Y0451673
X0358268
X0362205
X0366142
X0364174Y045561
X0360237
X0356299
X0352362
X0348426
X0344489
X0340551
X0336614
X0332678
X0328741
X0324803
X0320866
X0316929
X0317913Y0459547
X0320866
X0322835Y04625
X0326772Y0463484
X0330709Y0464468
X0332678Y0463484
X0333661Y0465453
X0334646Y0459547
X0338583
X034252
X0346457
X0350394
X0354331
X0358268
X0362205
X0366142
X0350394Y0451673
X0346457
X034252
X0338583
X0334646
X0330709
X0326772
X0322835
X0318898
X0314961
X0310236Y0450886
X031063Y0453248
X0311811Y0455217
X0312205Y0457579
Y0459547
X0314961Y0459547
X0310378Y0461583
X0308953Y0462992
X030748Y0464665
X0306693Y0466634
X0310031Y0465223
X0305906Y0459547
X0304331Y0458366
X0302362Y0459154
X0301181Y0457185
X030315Y0456398
X0305512
X0307087Y0457579
X0303937Y0461122
X03Y0463484
X0297901Y0461647
X0293307Y0439862
X0291339Y0435925
X0295276
Y0428051
X0299213
X030315
X0307087
X0311024
X0314961
X0318898
X0322835
X0326772
X0330709
X0334646
X0338583
X034252
X0346457
X0350394
X0354331
X0358268
X0362205
X0360237Y0424114
X0356299
X0352362
X0348426
X0344489
X0340551
X0336614
X0332678
X0328741
X0324803
X0320866
X0316929
X0312992
X0309055
X0305118
X0301181
X0297244
X0293307
X028937
X0285433
X0281496
X0277559
X0273622
X0269685
X0267717Y0428051
X0271654
X0275591
X0279528
X0283465
X0287402
X0291339
Y0420177
X0295276
X0299213
X030315
X0307087
X0311024
X0314961
X0318898
X0322835
X0326772
X0330709
X0334646
X0338583
X034252
X0346457
X0350394
X0354331
X0358268
X0356299Y041624
X0352362
X0348426
X0344489
X0340551
X0336614
X0332678
X0328741
X0324803
X0320866
X0316929
X0312992
X0309055
X0305118
X0301181
X0297244
X0293307
X028937
X0285433
X0281496
X0277559
X0273622
X0269685
X0267717Y0420177
X0271654
X0275591
X0279528
X0283465
X0287402
Y0412303
X0291339
X0295276
X0299213
X030315
X0307087
X0311024
X0314961
X0318898
X0322835
X0326772
X0330709
X0334646
X0338583
X034252
X0346457
X0350394
X0354331
X0358268
X0356299Y0408366
X0352362
X0348426
X0344489
X0340551
X0336614
X0332678
X0328741
X0324803
X0320866
X0316929
X0312992
X0309055
X0305118
X0301181
X0297244
X0293307
X028937
X0285433
X0281496
X0277559
X0273622
X0269685
X0267717Y0412303
X0271654
X0275591
X0279528
X0283465
Y0404429
X0287402
X0291339
X0295276
X0299213
X030315
X0307087
X0311024
X0314961
X0318898
X0322835
X0326772
X0330709
X0334646
X0338583
X034252
X0346457
X0350394
X0354331
X0358268
X0360237Y0400492
X0364174
X0362205Y0396555
X0366142
X0358268
X0354331
X0350394
X0346457
X034252
X0338583
X0334646
X0330709
X0326772
X0322835
X0318898
X0314961
X0311024
X0307087
X030315
X0299213
X0295276
X0291339
X0287402
X0283465
X0279528
X0275591
X0271654
X0267717
X026378
X0269685Y0400492
X0273622
X0277559
X0281496
X0285433
X028937
X0293307
X0297244
X0301181
X0305118
X0309055
X0312992
X0316929
X0320866
X0324803
X0328741
X0332678
X0336614
X0340551
X0344489
X0348426
X0352362
X0356299
X0354331Y0475295
X0350394
X034252Y0467421
X0330709Y0459547
Y0491043
X0334646
X0336614Y0487106
X0320866Y0550099
X0281496Y0439862
X0279528Y0404429
X0275591
X0271654
X0267717
X0214567Y0447736
X0368111
X0372048
X0375985
X0379922
X0383859
X038189Y0451673
X0377953
X0374016
X0370079
X0372048Y045561
X0375985
X0379922
X0383859
X038189Y0459547
X0377953
X0374016
X0370079
X0372048Y0463484
X0375985
X0379922
X0383859
X038189Y0467421
X0377953
X0374016
X0370079
X0372048Y0471358
X0375985
X0379922
X0383859
X038189Y0475295
X0377953
X0374016
X0370079
X0372048Y0479232
X0375985
X0379922
X0383859
X038189Y0483169
X0377953
X0374016
X0370079
X0372048Y0487106
X0375985
X0379922
X0383859
X038189Y0491043
X0377953
X0374016
X0370079
X0372048Y049498
X0375985
X0379922
X0383859
X038189Y0498917
X0377953
X0374016
X0370079
X0372048Y0502854
X0375985
X0379922
X0383859
X038189Y0506791
X0377953
X0374016
X0370079
X0372048Y0510728
X0375985
X0379922
X0383859
X038189Y0514665
X0377953
X0374016
X0370079
X0372048Y0518602
X0375985
X0379922
X0383859
X038189Y0522539
X0377953
X0374016
X0370079
X0372048Y0526476
X0375985
X0379922
X0383859
X038189Y0530413
X0377953
X0374016
X0370079
X0372048Y053435
X0375985
X0379922
X0383859
X038189Y0538287
X0377953
X0374016
X0370079
X0372048Y0542225
X0375985
X0374016Y0546162
X0370079
X0372048Y0550099
X0368111Y0542225
Y053435
Y0526476
Y0518602
Y0510728
Y0502854
Y049498
Y0487106
Y0479232
Y0471358
Y0463484
Y045561
X0370079Y0443799
X0374016
X0377953
X038189
X0383859Y0439862
X0379922
X0375985
X0372048
X0368111
X0370079Y0435925
X0374016
X0377953
X038189
X0410433Y0433071
X041437
X0418307
X0422244
X0426181
X0430118
X0434055
X0437992
X0441929
X0445866
X0449803
X045374
X0457677
X0461614
X0465551
X0469488
X0473425
X0477362
X0477756Y0431102
X0475393Y0429134
X0471456
X046752
X0463583
X0459645
X0455708
X0451771
X0447834
X0443897
X043996
X0436023
X0432086
X0428149
X0424212
Y0437008
X0420275
X0416338
X0412401
X0410433Y0440945
X041437
X0418307
X0422244
X0426181
X0430118
X0434055
X0437992
X0441929
X0445866
X0449803
X045374
X0457677
X0461614
X0465551
X0469488
X0473425
X0477362
X047933Y0437008
X0475393
X0471456
X046752
X0463583
X0459645
X0455708
X0451771
X0447834
X0443897
X043996
X0436023
X0432086
X0428149
Y0444882
X0424212
X0420275
X0416338
X0412401
X0410433Y0448819
X041437
X0418307
X0422244
X0426181
X0430118
X0434055
X0437992
X0441929
X0445866
X0449803
X045374
X0457677
X0461614
X0465551
X0469488
X0473425
X0477362
X0481299
X0485236
X0483267Y0444882
X047933
X0475393
X0471456
X046752
X0463583
X0459645
X0455708
X0451771
X0447834
X0443897
X043996
X0436023
X0432086
Y0452756
X0428149
X0424212
X0420275
X0416338
X0412401
X0410433Y0456693
X041437
X0418307
X0422244
X0426181
X0430118
X0434055
X0437992
X0441929
X0445866
X0449803
X045374
X0457677
X0459645Y0452756
X0455708
X0451771
X0447834
X0443897
X043996
X0436023
Y046063
X0432086
X0428149
X0424212
X0420275
X0416338
X0412401
X0410433Y0464567
X041437
X0418307
X0422244
X0426181
X0430118
X0434055
X0437992
X0441929
X0445866
X0449803
X045374
X0457677
X0461614
X0465551
X0466732Y0462205
Y0459842
Y045748
X0467913Y0454724
X0470669
X0473032
X0475394Y0455512
X0475393Y0452756
X0471456
X0463583
X0459645Y046063
X0455708
X0451771
X0447834
X0443897
X043996
Y0468504
X0436023
X0432086
X0428149
X0424212
X0420275
X0416338
X0412401
X0410433Y0472441
X041437
X0418307
X0422244
X0426181
X0430118
X0434055
X0437992
X0441929
X0445866
X0449803
X045374
X0457677
X0461614
X0465551
X0467913Y0471654
Y0469783
X0468307Y0467717
Y0465748
Y0463779
X0473425Y0462598
X0476378
Y0465551
X0473425
Y0468504
X0476378
X0475Y0474409
X0471457
X0468307
X046752Y0476378
X0463583
X0459645
X0455708
X0451771
X0447834
X0443897
X043996
X0436023
X0432086
X0428149
X0424212
X0420275
X0416338
X0412401
X0410433Y0480315
X041437
X0418307
X0422244
X0426181
X0430118
X0434055
X0437992
X0441929
X0445866
X0449803
X045374
X0457677
X0461614
X0465551
X0469488
X0472106Y048122
X0473606Y047972
X0475106Y0478221
X0476606Y0476721
X0478346Y0475098
X0481693
X0481606Y047772
X0483606Y0476221
X0484842Y0474409
X0485039Y0468504
X0485236Y0465551
X0483563Y0462402
X0484744Y0456398
X0481602Y0455527
X0478331
X0491142Y046063
X0502953
X050689
X0510039Y0462205
X0508661Y0464603
X0507039Y0466604
X0504587Y0467388
X0502012
X0500984Y0464567
X0504921
Y0456693
X0500984
X0508858
X0512795
X0514Y0459264
X0512402Y046063
X0516097Y0457771
X051846Y0456748
X0519968Y0454661
X0518701Y0452756
X0520729Y0452201
X0520813Y0449628
Y0447053
Y0444478
X0518701Y0444882
X0514764
X0510827
X0508858Y0440945
X0512795
X0516732
X0520813Y0441903
X0520986Y0439334
X0521685Y0436856
X0518701Y0437008
X0514764
X0510827
X0508858Y0433071
X0512795
X0516732
X0520669
X052287Y043457
X0522638Y0429134
X0518701
X0514764
X0510827
X050689
X0502953
X0500984Y0425197
X0504921
X0508858
X0512795
X0516732
X0520669
X0522638Y042126
X0518701
X0514764
X0510827
X0508858Y0417323
X0512795
X0516732
X0520669
X0522638Y0413386
X0518701
X0514764
X0510827
X050689
X0502953
X0499016
X0495079
X0491142
X0487205
X0485236Y0409449
X0489173
X049311
X0497047
X0500984
X0504921
X0508858
X0512795
X0516732
X0520669
X0522638Y0405512
X0518701
X0514764
X0510827
X050689
X0502953
X0499016
X0495079
X0491142
X0487205
X0485236Y0401575
X0489173
X049311
X0497047
X0500984
X0504921
X0508858
X0512795
X0516732
X0520669
X0522638Y0397638
X0518701
X0514764
X0510827
X050689
X0502953
X0499016
X0495079
X0491142
X0487205
X0471456
X046752
X0463583
X0459645
X0455708
X0451771
X0447834
X0443897
X043996
X0436023
X0432086
X0434055Y0401575
X0437992
X0441929
X0445866
X0449803
X045374
X0457677
X0461614
X0465551
X0469488
X0473425
X0471456Y0405512
X046752
X0463583
X0459645
X0455708
X0451771
X0447834
X0443897
X043996
X0436023
X0437992Y0409449
X0441929
X0445866
X0449803
X045374
X0457677
X0461614
X0465551
X0469488
X0473425
X0471456Y0413386
X046752
X0463583
X0459645
X0455708
X0451771
X0447834
X0443897
X043996
X0436023
X0437992Y0417323
X0441929
X0445866
X0449803
X045374
X0457677
X0461614
X0465551
X0469488
X0473425
X0471456Y042126
X046752
X0463583
X0459645
X0455708
X0451771
X0447834
X0443897
X043996
X0436023
X0434055Y0425197
X0430118
X0437992
X0441929
X0445866
X0449803
X045374
X0457677
X0461614
X0465551
X0469488
X0473425
X0476968Y0424016
Y0422047
Y0420079
X0479331Y0424016
X0484252Y0425984
Y0428346
X0485236Y0433071
X0481299
X0483267Y0437008
X0487205
X049311Y0433071
X0491142Y0444882
X0500984Y0440945
X0508858Y0448819
X0512795
X0516732
X0514764Y0452756
X0510827
X0523143Y0458001
X05215Y0459984
X052055Y0462377
X0518998Y0464431
X051752Y0466142
X0518701Y0468504
X0518619Y0471774
X0521138Y0472309
X0523712
X0522638Y0468504
X0515158Y0468504
X0516185Y0470934
X051361
X0515095Y0478122
X0517667Y0478014
X0519909Y0476747
X0522483
X0508339Y0478122
X0508858Y0480315
X0505769Y0477963
X0503981Y0476111
X0501794Y0474751
X050689Y0484252
X0496391Y0484121
X0494597Y0482272
X0490354Y0484646
X0489961Y0487402
X0491929Y0486614
X049311Y0488583
X0491142Y048937
X0488779
X0487205Y0488189
X0488386Y0486221
X0482087
Y0488189
X0480106Y0488221
X0478606Y048972
X0477106Y0491221
X0475606Y0492721
X0473606Y049422
X0472106Y0495221
X0469967Y0496822
X0468204Y0498699
X046757Y0501195
X0469488Y0503937
X0473425
X0477362
X0481299
X0485236
X0489173
X049311
X0495079Y0507874
X0491142
X0487205
X0483267
X047933
X0475393
X0471456
X046757Y0506603
Y0509177
X0466654Y0511584
X0466195Y0514117
Y0516692
Y0519267
Y0521842
Y0524416
Y0526991
Y0529566
Y0532141
Y0534716
Y053729
Y0539865
X0466162Y054244
X0465776Y0544985
X0464884Y0547401
X046752Y0547244
X0471456
X0475393
X047933
X0483267
X0487205
X0491142
X0495079
X0499016
X0502953
X050689
X0510827
X0514764
X0518701
X0522638
X0520669Y0543307
X0516732
X0512795
X0508858
X0504921
X0500984
X0497047
X049311
X0489173
X0485236
X0481299
X0477362
X0473425
X0469488
X0471456Y053937
X0475393
X047933
X0483267
X0487205
X0491142
X0495079
X0499016
X0502953
X050689
X0510827
X0514764
X0518701
X0522638
X0520669Y0535433
X0516732
X0512795
X0508858
X0504921
X0500984
X0497047
X049311
X0489173
X0485236
X0481299
X0477362
X0473425
X0469488
X0471456Y0531496
X0475393
X047933
X0483267
X0487205
X0491142
X0495079
X0499016
X0502953
X050689
X0510827
X0514764
X0518701
X0522638
X0520669Y0527559
X0516732
X0512795
X0508858
X0504921
X0500984
X0497047
X049311
X0489173
X0485236
X0481299
X0477362
X0473425
X0469488
X0471456Y0523622
X0475393
X047933
X0483267
X0487205
X0491142
X0495079
X0499016
X0502953
X050689
X0510827
X0514764
X0518701
X0522638
X0520669Y0519685
X0516732
X0512795
X0508858
X0504921
X0500984
X0497047
X049311
X0489173
X0485236
X0481299
X0477362
X0473425
X0469488
X0471456Y0515748
X0475393
X047933
X0483267
X0487205
X0491142
X0495079
X0499016
X0502953
X050689
X0510827
X0514764
X0518701
X0522638
Y05
Y0492126
X0504921Y0493307
X0504921Y0496063
X0504921Y0499213
X0500984
X0500984Y0496063
X0499606Y049372
X0497047Y0493307
X0497835Y0491339
Y0489173
Y0486614
X0500984Y0490721
X0502953Y0492126
X0497606Y0496721
X0497441Y0499213
X0494606Y0498721
X0493504Y0496063
X0495472Y0494882
X0491535Y0497244
X0489173Y0497638
X0486811
X0487205Y05
X0483267
X047933
X0475393
X0471456
X0477362Y0496063
X0481299
X0484055Y0494882
X0484842Y049685
X0483661Y049252
X048248Y0490551
X047933Y0492126
X0483913Y0484185
X0485338Y0482776
X0486811Y0481102
X0487598Y0479134
X0471606Y048572
X0470208Y0487235
X0468606Y0489221
X046752Y0490721
X0466218Y0492665
X0463583Y0492126
X0464302Y0494385
X0463168Y0496697
X046099Y0498071
X0460382Y0500573
X0460106Y0502953
X0457677Y0503937
X045374
X0449803
X0445866
X0441929
X0437992
X0434055
X0430118
X0426181
X0422244
X0418307
X041437
X0410433
X0412401Y05
X0416338
X0420275
X0424212
X0428149
X0432086
X0436023
X043996
X0443897
X0447834
X0451771
X0455708
X045374Y0496063
X0449803
X0445866
X0441929
X0437992
X0434055
X0430118
X0426181
X0422244
X0418307
X041437
X0410433
X0412401Y0492126
X0416338
X0420275
X0424212
X0428149
X0432086
X0436023
X043996
X0443897
X0447834
X0451771
X0455708
X0459645
X0457677Y0488189
X045374
X0449803
X0445866
X0441929
X0437992
X0434055
X0430118
X0426181
X0422244
X0418307
X041437
X0410433
X0412401Y0484252
X0416338
X0420275
X0424212
X0428149
X0432086
X0436023
X043996
X0443897
X0447834
X0451771
X0455708
X0459645
X0463583
X0461614Y0488189
X0465551
X0457677Y0496063
X0460382Y0507128
Y0509703
X0461758Y051188
Y0514455
Y0517029
Y0519604
Y0522179
Y0524754
Y0527329
Y0529904
Y0532478
Y0535053
Y0537628
Y0540203
X0461691Y0542777
X0460994Y0545256
X0459538Y0547379
X045771Y0549192
X0455708Y0547244
X0451771
X0447834
X0445866Y0543307
X0441929
X0437992
X043996Y053937
X0436023
X0432086
X0428149
X0424212
X0420275
X0416338
X0412401
X0410433Y0535433
X041437
X0418307
X0422244
X0426181
X0430118
X0434055
X0437992
X0441929
X0445866
X0449803
X045374
X0457677
X0459645Y0531496
X0455708
X0451771
X0447834
X0443897
X043996
X0436023
X0432086
X0428149
X0424212
X0420275
X0416338
X0412401
X0410433Y0527559
X041437
X0418307
X0422244
X0426181
X0430118
X0434055
X0437992
X0441929
X0445866
X0449803
X045374
X0457677
X0459645Y0523622
X0455708
X0451771
X0447834
X0443897
X043996
X0436023
X0432086
X0428149
X0424212
X0420275
X0416338
X0412401
X0410433Y0519685
X041437
X0418307
X0422244
X0426181
X0430118
X0434055
X0437992
X0441929
X0445866
X0449803
X045374
X0457677
X0459645Y0515748
X0455708
X0451771
X0447834
X0443897
X043996
X0436023
X0432086
X0428149
X0424212
X0420275
X0416338
X0412401
X0410433Y0511811
X041437
X0418307
X0422244
X0426181
X0430118
X0434055
X0437992
X0441929
X0445866
X0449803
X045374
X0457677
X0455708Y0507874
X0451771
X0447834
X0443897
X043996
X0436023
X0432086
X0428149
X0424212
X0420275
X0416338
X0412401
X0410433Y0543307
X0418307
X0422244
X0426181
X0430118
X0428149Y0547244
X0424212
X0420275
X0443897Y053937
X0447834
X0451771
X0455708
X0459645
X0457677Y0543307
X045374
X0449803
X0463481Y054956
X0469488Y0511811
X0473425
X0477362
X0481299
X0485236
X0489173
X049311
X0497047
X0500984
X0504921
X0508858
X0510827Y0507874
X0502953
X0499016
X0491142Y05
X0463583Y0468504
X0459645
X0455708
X0451771
X0447834
X0443897
X049311Y0417323
X0500984
X038189Y0396555
X0377953
X0374016
X0370079
X0383859Y0542225
X0524606Y0543307
X0526575Y053937
X0524606Y0535433
X0526575Y0531496
X0524606Y0527559
X0526575Y0523622
X0524606Y0519685
X0526575Y0515748
X0524606Y0511811
X0526575Y0507874
X0528543Y0503937
X0530512Y05
X0526575
X0528543Y0496063
X0526575Y0492126
Y0484252
X0530512
X0534449
X0538386
X0542323
X054626
X0548962Y0484352
Y0481778
Y0479203
X0547587Y0477026
Y0474451
X0546618Y0472714
X054657Y0470723
X0544685Y0473622
X0542717Y0474803
X0539964Y0474203
X0537768Y0475549
X0535334Y0476388
X0532783Y0476734
X0530208Y0476747
X0527633
X0525058
X0526287Y0472309
X0528862
X0531437
X0534008Y0472181
X053641Y0471252
X0538247Y0469448
X0540233Y0467809
X0542142Y0467028
X0544402Y0465795
X054693Y0466285
X054914Y0464963
X0551714Y046491
X0554234Y0465439
X055679Y0465747
X0558983Y0464397
X0559789Y0461951
Y0459377
Y0456802
Y0454227
Y0451652
X0559855Y0449078
X0560305Y0446543
X0561293Y0444166
X056277Y0442057
X0564545Y0440191
X0566366Y0438371
X0568186Y043655
X0569047Y0434123
X0570668Y0432123
X0572584Y0430403
X0569882Y0429134
X0565945
X0562008
X0558071
X0554134
X0550197
X054626
X0542323
X0538386
X0534887Y0428603
X0532994Y0430348
X0531174Y0432168
X0529353Y0433989
X0527532Y043581
X0526049Y0437914
X0525324Y0440385
X052525Y0442959
Y0445534
Y0448108
Y0450683
X0525067Y0453251
X052434Y0455721
X0528543Y0456693
X053248
X0536417
X0540354
X0544291
X0548228
X0552165
X0556102
X0558071Y046063
X0554134
X0550197
X054626
X0542323
X0538386
X0534449
X0530512
X0526575
X0524606Y0464567
X0528543
X053248
X0536417
X0540354
X0534449Y0468504
X0530512
X0526575
X0528543Y0480315
X053248
X0536417
X0540354
X0544291
Y0488189
X0540354
X0536417
X053248
X0534449Y0492126
X0538386
X0542323
X054626
X0550973Y04917
X0549801Y0489407
X0549128Y0486922
X0553747Y048726
X05534Y0484708
Y0482133
Y0479559
X0556102Y0480315
X0560039
X0563976
X0567913
X057185
X0575787
X0579724
X0583661
X0587598
X0586106Y047772
X0589106
X0590606Y0476221
X0592259Y0474841
X0591606Y046922
X0594106
X0595472Y0464567
X0591535
X0590106Y046672
X0587106
X0587598Y0464567
X0583661
X0584106Y046672
X0579724Y0464567
X0577106Y046472
X0574544Y046491
X057197
X056974Y0466198
X0567167Y0466285
X0564592
X0564169Y0463745
X0564227Y0461171
Y0458596
Y0456022
Y0453447
Y0450872
X0564414Y0448304
X0565392Y0445922
X0567055Y0443957
X0568876Y0442136
X0570696Y0440315
X0572795Y0438823
X0573819Y0444882
X0569882
X0567913Y0448819
X057185
X0575787
X0579724
X0583661
X0587598
X0589567Y0444882
X058563
X0581693
X0577756
X0579724Y0440945
X0583661
X0583106Y0438221
X058563Y0437008
X0586106Y0434721
X0587598Y0433071
X0588606Y0430721
X0590606
Y0428221
X0589106Y0426721
X0590644Y0424823
X0592323Y0425984
X0594291Y0429528
X0595472Y0433071
X0590606Y043372
X0589567Y0437008
X0587598Y0440945
X0595472
X0597441Y0437008
X0600591Y0433477
X0602288Y043189
X061437
X0612795Y0429921
X0616606Y0426721
X0619106Y042472
X0615158Y0419291
Y0412992
Y041063
X0612795Y0411811
X0615565Y0399006
X0608827Y0398962
X0600639Y0406102
X0594322Y0408413
X0589606Y040872
Y041072
X0589567Y0413386
X0589606Y0406496
Y0399721
X0589567Y0397638
X0593504
X0591106Y039522
X0587606Y0394721
X0584646
X0581606Y039522
X0579106
X0576106
X0573819Y0397638
X0569882
X0565945
X0562008
X0558071
X0554134
X0550197
X054626
X0542323
X0538386
X0534449
X0530512
X0526575
X0524606Y0401575
X0528543
X053248
X0536417
X0540354
X0544291
X0548228
X0552165
X0556102
X0560039
X0563976
X0567913
X057185
X0573819Y0405512
X0569882
X0565945
X0562008
X0558071
X0554134
X0550197
X054626
X0542323
X0538386
X0534449
X0530512
X0526575
X0524606Y0409449
X0528543
X053248
X0536417
X0540354
X0544291
X0548228
X0552165
X0556102
X0560039
X0563976
X0574606Y041072
X0577106
X0577756Y0413386
X0581693
X0580606Y041072
X0581693Y042126
X0577756
X0578106Y042472
X0575787Y0425197
X0575106Y042722
X057185Y0425197
X0567913
X0563976
X0560039
X0556102
X0552165
X0548228
X0544291
X0540354
X054005Y0423083
X0542398Y0422026
X0544219Y0420206
X0546607Y0419244
X0549016Y0419291
X0550197Y042126
X0554134
X0558071
X0562008
X0565945
X0569882
X0573819
X0580106Y0423721
X058563Y042126
X0591535Y0401575
X0594106Y0403221
X0597441Y0444882
X0595472Y0448819
X0589567Y0452756
X058563
X0581693
X0577756
X0573819
X0569882
X0567913Y0456693
X057185
X0575787
X0579724
X0583661
X0587598
X0592323Y0455905
X0593504Y046063
X0589567
X058563
X0581693
X0577756
X0573819
X0569882
X0569171Y0470723
X0566596
X0564021
X0561447
X0558872
X0556297
X0556102Y0472835
X0554775Y0474805
X0554772Y047738
X0558071Y0476378
X0562008
X0562402Y0473622
X0559252
X0566732
X0565945Y0476378
Y0484252
X0562008
X0558071
X0560039Y0488189
X0563976
X0567913
X057185
X0575787
X0579724
X0583661
X0587598
X0591535
X0593504Y0492126
X0589567
X058563
X0581693
X0577756
X0573819
X0569882
X0565945
X0562008
X0558436Y049329
X0556615Y049147
X0554871Y0489576
X0554401Y0495531
X0552165Y0496063
X0552581Y0493711
X0548228Y0496063
X0544291
X0540354
X0536417
X0533465Y0498032
X0538386Y05
X0542323
X054626
X0550197
X0554134
X0558043Y0499173
X0559863Y0500993
X0561684Y0502814
X0563505Y0504635
X0565325Y0506455
X0567146Y0508276
X0568967Y0510097
X0570787Y0511917
X0572608Y0513738
X0574429Y0515559
X0569882Y0515748
X0565945
X0562008
X0558071
X0554134
X0550197
X054626
X0542323
X0538386
X0536417Y0511811
X0540354
X0544291
X0548228
X0552165
X0556102
X0560039
X0563976
X0562008Y0507874
X0558071
X0554134
X0550197
X054626
X0542323
X0538386
X0536417Y0503937
X0540354
X0544291
X0548228
X0552165
X0556102
X0556222Y0497352
X0560257Y0495111
X0562077Y0496932
X0563976Y0496063
X0563898Y0498752
X0565719Y0500573
X0567539Y0502393
X056936Y0504214
X057185Y0503937
X0571181Y0506035
X0573001Y0507856
X0574822Y0509676
X0576643Y0511497
X057878Y0512933
X0581113Y0514022
X0582934Y0515843
X058563Y0515748
X0589567
X0587598Y0511811
X0583661
X058563Y0507874
X0581693
X0577756
X0575787Y0503937
X0579724
X0583661
X0587598
X0591535
X0595472
X0597441Y05
X0593504
X0589567
X058563
X0581693
X0577756
X0573819
X0569882
X0567913Y0496063
X057185
X0575787
X0579724
X0583661
X0587598
X0591535
X0595472
X0597441Y0492126
Y0484252
X0589567
X058563
X0581693
X0577756
X0573819
X0569882
X057136Y0472079
X0573934Y0472098
X0600639Y0461221
X0608827Y045408
X0615565Y0454124
X0615158Y0465748
Y046811
X0612795Y0466929
X0615158Y0474409
X0634842Y0482339
X064626Y0487795
Y0490551
X0643898
X0648622
X0650984
X0653346
X0656102
Y0487795
Y0481496
X0653346
X0652812Y0479275
X0660902Y0477787
X0663402
X0670676Y0478189
X0675197Y0475394
X0667717Y0485728
X0660827Y0494488
X0677362Y0493996
X0651575Y0502953
X0637795Y050689
X0635827
X0633858
Y0508858
Y0510827
Y0512795
X0635827
X0637795
Y0520669
X0635827
X0633858
X0645669Y0518701
Y0516732
Y0514764
X0630905Y0504921
Y0502953
Y0500984
X0625031Y050732
X0616606Y0513221
X061063Y0513213
X0608071Y0513779
Y0516142
Y0518504
Y0520866
X0601376Y0523077
X0597441Y0523228
X0595472
X0589567Y0523622
X0590606Y0525721
X0592106Y052722
X0591606Y0530221
X0593606
Y053572
X0591106
X0587598Y0535433
X0583661
X0579724
X0575787
X057185
X0567913
X0563976
X0560039
X0556102
X0552165
X0548228
X0544291
X0540354
X0536417
X0538386Y0531496
X0542323
X054626
X0550197
X0554134
X0558071
X0562008
X0565945
X0569882
X0573819
X0577756
X0581693
X0583106Y052922
X0587106Y052522
X0587598Y0519685
X0591535
Y0511811
X0593504Y0507874
X0589567
X0596606Y0509221
X0595472Y0543307
X0597441Y0547244
X0601378Y0546457
X060334Y0543307
X0606299Y0544291
X0615158Y0536417
X0615354Y052887
Y0526902
X0634842Y0537402
X0639764Y0540354
X062874Y0544291
X0653747Y0542283
X0658465Y0548032
X0663583Y0523228
X0655413Y0462795
X065424Y0460841
Y0457841
Y0454666
X0651575Y0456153
Y0459841
X0643504Y0458268
X0642717Y0449803
X0652559Y0450787
X0654528Y0445866
X0645472Y0441732
X0647441Y0437795
X0649409Y0435827
X0638386Y0439764
X0634842Y042722
X0617507Y0433477
X0621063Y0445866
X0623032Y0443898
X0625Y0447835
X0634843Y0454724
Y0461614
X0663976Y0441339
X0667712Y0440945
X0672606Y0439221
X0677406
X0680106
X0675Y0429134
Y0427165
Y0425197
X0680106Y042324
X0677406Y0406496
X0677165Y0399606
X0654528Y0415354
X0550197Y0413386
X0547441Y0413386
X0544685
X0542287Y0414974
X0539726Y0414705
X0537822Y0416437
X0536244Y0418472
X0535178Y0420816
X0530512Y042126
X0526575
X0524606Y0417323
X0528543
X053248
X0530512Y0413386
X0526575
X0524606Y0425197
X0528543
X053173Y0425244
X0529956Y042711
X0528135Y0428931
X0526315Y0430752
X0524494Y0432572
X0530512Y0437008
X0534449
X0538386
X0542323
X054626
X0550197
X0554134
X0558071
X0562008
X0560039Y0433071
X0556102
X0552165
X0548228
X0544291
X0540354
X0536417
Y0440945
X053248
X0528543
X0530512Y0444882
X0534449
X0538386
X0542323
X054626
X0550197
X0554134
X0558071
X0556102Y0440945
X0552165
X0548228
X0544291
X0540354
Y0448819
X0536417
X053248
X0528543
X0530512Y0452756
X0534449
X0538386
X0542323
X054626
X0550197
X0554134
X0552165Y0448819
X0548228
X0544291
X0556102
X0560039Y0440945
X0563976Y0433071
Y0519685
X0560039
X0556102
X0552165
X0548228
X0544291
X0540354
X0536417
X0538386Y0523622
X0542323
X054626
X0550197
X0554134
X0558071
X0562008
X0565945
X0569882
X0567913Y0519685
Y0527559
X0563976
X0560039
X0556102
X0552165
X0548228
X0544291
X0540354
X0536417
X0538386Y053937
X0542323
X054626
X0550197
X0554134
X0558071
X0562008
X0565945
X0569882
X0573819
X0577756
X0581693
X058563
X0589567
X0587598Y0543307
X0583661
X0579724
X0575787
X057185
X0567913
X0563976
X0560039
X0556102
X0552165
X0548228
X0544291
X0540354
X0536417
X0542323Y0547244
X054626
X0550197
X0554134
X0558071
X0562008
X0565945
X0569882
X0573819
X0577756
X0581693
X058563
X0589567
X0575787Y0527559
X057185
X0526575Y0547244
X0690354Y0549887
X0725Y0544291
X0723425Y0542323
X0720472Y0525591
X0718504
X0716535
Y0523622
X0718504
X0720472
X0730118Y0519291
X0730512Y0513386
X0712598Y0516732
X0713189Y0493307
X0715158
Y0491339
X0713189
Y048937
X0715158
Y0487402
X0713189
X0711221
Y048937
Y0491339
Y0493307
X0705709Y0479331
X0708661Y0475394
X0701772
Y0468504
X0692913
Y0471457
Y0474409
X0687402Y0475394
X0683881Y0477444
X0681867
X0681977Y0497922
X0683945Y0496173
X0687205Y0500787
X0692329Y0462835
X0692913Y0460039
X0692815Y0451662
X0692717Y0449213
X0695472Y04514
X0698228Y0451575
X0690315Y044399
X0688606Y0441221
X0685606Y0439221
X0693606Y0437299
X0695457Y0431284
X0691354
X0691535Y0429134
Y0427165
Y0425197
X0688386Y0419291
X0685606Y042122
X0693504Y0416929
X0707677Y0422244
X071063
X0713583
X0712795Y0431496
X0718504Y0434055
X0731299Y0435433
X0727112Y0439764
X0737992Y0449606
X0740158Y0454724
X0736024Y0459842
X0726181
X0726962Y0469921
X0724409Y0481299
X0718504Y0551575
X0720472Y0554134
X069685
X0694882Y0556102
X0693504Y0588189
X0688333Y0590604
X0685554Y0592533
X0691536Y0596457
Y0598425
Y0600394
X0691354Y0602543
X0695457
X0693606Y0608559
X0688554Y0612533
X0690262Y0615302
X0692664Y0620525
X0692762Y0622975
X069542Y0622713
X0698176Y0622887
X0692913Y0631299
X0692276Y0634147
X0692913Y0639764
Y0642717
Y0645669
X0687349Y0646706
X0683828Y0648757
X0681815
X0681924Y0669234
X0683892Y0667486
X0687152Y06721
X0711168Y066462
Y0662651
Y0660683
Y0658714
X0713136
X0715105
Y0660683
Y0662651
X0713136
Y066462
X0715105
X0713136Y0660683
X0705709Y0650591
X0708662Y0646654
X0701772
Y0639764
X0726128Y0631155
X0735971
X073794Y0620919
X0731299Y0606693
X0718504Y0605315
X0712795Y0602756
X071353Y0593557
X0710577
X0707624
X0685554Y0610533
X0761614Y0625984
X0730512Y0684646
X0730118Y0690551
X0720472Y0694882
X0718504
Y069685
X0720472
X0716536
Y0694882
X0712599Y0687992
X066353Y0694541
X0645669Y0689961
Y0687992
Y0686024
X0637795Y0684055
X0635827
X0633858
Y0682087
Y0680118
Y067815
X0635827
X0637795
X0630906Y0676181
Y0674213
Y0672244
X0625031Y067858
X0616606Y068448
X061063Y0684473
X0608071Y0685039
Y0687401
Y0689764
Y0692126
X0601377Y0694337
X0597388Y0694541
X059542
X0591535Y0692913
X0590606Y069698
X0592106Y069848
X0591606Y070148
X0593606
X0583106Y070048
X0581693Y0704724
X0577756
X0573819
X0569882
X0565945
X0562008
X0558071
X0554134
X0550197
X054626
X0542323
X0538386
X0536417Y0700787
X0540354
X0544291
X0548228
X0552165
X0556102
X0560039
X0563976
X0567913
X057185
X0575787
X0569882Y069685
X0565945
X0562008
X0558071
X0554134
X0550197
X054626
X0542323
X0538386
X0536417Y0692913
X0540354
X0544291
X0548228
X0552165
X0556102
X0560039
X0563976
X0567913
X0569882Y0688976
X0565945
X0562008
X0558071
X0554134
X0550197
X054626
X0542323
X0538386
X0536417Y0685039
X0540354
X0544291
X0548228
X0552165
X0556102
X0560039
X0563976
X0567913
X0572608Y0684998
X0570787Y0683177
X0568967Y0681356
X0567146Y0679536
X0565325Y0677715
X0563505Y0675894
X0561684Y0674074
X0559864Y0672253
X0558043Y0670433
X0556222Y0668612
X0554402Y0666791
X0552581Y0664971
X0550197Y0665354
X0550973Y066296
X0549801Y0660667
X0549128Y0658182
X0548962Y0655612
Y0653037
Y0650463
X0547587Y0648286
Y0645711
X0546618Y0643974
X054657Y0641983
X0544685Y0644882
X0542717Y0646063
X0539939Y0645492
X053775Y0646847
X0535318Y0647692
X0534449Y0649606
X0532767Y0648044
X0530192Y0648059
X0527617
X0525042
X0526312Y0643622
X0528887
X0531462
X0534033Y0643478
X0536426Y0642528
X0538247Y0640707
X0540233Y0639069
X0542142Y0638288
X0544402Y0637054
X054693Y0637545
X054914Y0636223
X0551714Y063617
X0554234Y0636698
X055679Y0637006
X0558983Y0635656
X0559789Y0633211
Y0630636
Y0628062
Y0625487
Y0622912
X0559855Y0620338
X0560305Y0617803
X0558071Y061811
X0554134
X0550197
X054626
X0542323
X0538386
X0534449
X0530512
X0528543Y0614173
X052525Y0614219
Y0616793
Y0619368
Y0621943
X0525068Y0624511
X0526575Y0625984
X052434Y0626981
X0528543Y0629921
X053248
X0536417
X0540354
X0544291
X0548228
X0552165
X0556102
X0554134Y0625984
X0550197
X054626
X0542323
X0538386
X0534449
X0530512
X0528543Y0622047
X053248
X0536417
X0540354
X0544291
X0548228
X0552165
X0556102
Y0614173
X0552165
X0548228
X0544291
X0540354
X0536417
X053248
X0534449Y0610236
X0530512
X0526049Y0609174
X0525324Y0611645
X0527532Y060707
X0529353Y0605249
X0531174Y0603428
X0532994Y0601608
X0534887Y0599862
X0538386Y0602362
X0542323
X054626
X0550197
X0554134
X0558071
X0562008
X0565945
X0570669Y0603383
X0569047Y0605383
X0568186Y060781
X0566366Y060963
X0564545Y0611451
X056277Y0613316
X0561293Y0615425
X0565392Y0617182
X0564414Y0619564
X0564227Y0622132
Y0624707
Y0627281
Y0629856
Y0632431
X0564169Y0635005
X0565945Y0633858
X0569882
X0569741Y0637458
X0567167Y0637545
X0564593
X0564021Y0641983
X0566596
X0569171
X057136Y0643338
X0573935Y0643358
X0574545Y063617
X057197
X0573819Y0633858
X0577756
X0577106Y063598
X0581693Y0633858
X058563
X0589567
X0593504
X0591535Y0629921
X059227Y0627218
X0589567Y0625984
X058563
X0581693
X0577756
X0573819
X0569882
X0565945
X0567913Y0622047
X057185
X0575787
X0579724
X0583661
X0587598
X0589567Y061811
X058563
X0581693
X0577756
X0573819
X0569882
X0568876Y0613396
X0567055Y0615216
X057185Y0614173
X0570697Y0611575
X0572795Y0610083
X0575787Y0614173
X0579724
X0583661
X0587598
X0589567Y0610236
X058563
X0583106Y060948
X0586106Y060598
X0590606Y060498
Y060198
X0588606
X0590606Y059948
X0589106Y059798
X0590644Y0596083
X059227Y0597297
X0594239Y060084
X0595472Y0606299
X0597441Y0610236
X0595472Y0614173
X0597441Y061811
X0600538Y060479
X0602235Y0603202
X0614317
X0612743Y0601234
X0616554Y0598033
X0619054Y0596033
X0615105Y0590604
X0615158Y0584252
Y058189
X0612795Y0583071
X0615565Y0570266
X0608827Y0570222
X0600586Y0577415
X0594323Y0579672
X0589606Y057998
Y058198
Y0577756
Y057098
X0593504Y0570866
X0594106Y057448
X0591106Y056648
X0587606Y056598
X0584646
X0581606Y056648
X0579106
X0576106
X057185Y0566929
X0567913
X0563976
X0560039
X0556102
X0552165
X0548228
X0544291
X0540354
X0536417
X053248
X0528543
X0524606
X0526575Y0570866
X0530512
X0534449
X0538386
X0542323
X054626
X0550197
X0554134
X0558071
X0562008
X0565945
X0569882
X0573819
X057185Y0574803
X0567913
X0563976
X0560039
X0556102
X0552165
X0548228
X0544291
X0540354
X0536417
X053248
X0528543
X0524606
X0526575Y057874
X0530512
X0534449
X0538386
X0542323
X054626
X0550197
X0554134
X0558071
X0562008
X0565945
X0563976Y0582677
X0560039
X0556102
X0552165
X0548228
X0547441Y0584646
X0544685
X0542287Y0586233
X0539726Y0585964
X0537822Y0587697
X0536244Y0589732
X0535178Y0592076
X053248Y0590551
X0528543
X0524606
X0526575Y0586614
X0530512
X0528543Y0582677
X0524606
X053248
X0540354
X054005Y0594343
X0542398Y0593286
X0544219Y0591466
X0546607Y0590504
X0549016Y0590551
X0552165Y0590551
X0554134Y0594488
X0550197
X054626
X0544291Y0598425
X0540354
Y0606299
X0536417
X053248
X0538386Y0610236
X0542323
X054626
X0550197
X0554134
X0558071
X0562008
X0560039Y0606299
X0556102
X0552165
X0548228
X0544291
X0548228Y0598425
X0552165
X0556102
X0560039
X0563976
X0567913
X057185
X0575106Y059848
X0573819Y0594488
X0569882
X0565945
X0562008
X0558071
X0563976Y0606299
X0572585Y0601663
X0578106Y059598
X0580106Y059498
X0579724Y0590551
X0575787
X0574606Y058198
X0577106
X0580606
X0579724Y0551181
X0575787
X057185
X0567913
X0563976
X0560039
X0556102
X0552165
X0548228
X0544291
X053248
X0528543
X0524606
X0526575Y0555118
X0530512
X0534449
X0530512Y0594488
X053173Y0596504
X0529956Y059837
X0528135Y0600191
X0526315Y0602011
X0524494Y0603832
X0524606Y0598425
X0526575Y0594488
Y0633858
X0530512
X0534449
X0538386
X0542323
X054626
X0550197
X0554134
X0556297Y0641983
X0556103Y0644094
X0554775Y0646065
X0554772Y0648639
X05534Y0650818
Y0653393
Y0655968
X0553747Y0658519
X0554871Y0660836
X0556615Y0662729
X0558436Y066455
X0560257Y0666371
X0562077Y0668191
X0563898Y0670012
X0565719Y0671833
X0567539Y0673653
X0569882Y0673228
X056936Y0675474
X0571181Y0677295
X0573001Y0679115
X0574822Y0680936
X0576643Y0682757
X057878Y0684193
X0581113Y0685282
X0583661Y0685039
X0582934Y0687103
X058563Y0688976
X0589567
X0587598Y0685039
X0591535
X0589567Y0681102
X058563
X0581693
X0579724Y0677165
X0575787
X0577756Y0673228
X0573819
X057185Y0669291
X0567913
X0569882Y0665354
X0565945
X0563976Y0661417
X0560039
X0562008Y065748
X0558071
X0556102Y0653543
X0560039
X0563976
X0567913
X057185
X0575787
X0579724
X0583661
X0587598
X0589567Y065748
X058563
X0581693
X0577756
X0573819
X0569882
X0565945
X0567913Y0661417
X057185
X0575787
X0579724
X0583661
X0587598
X0591535
X0593504Y0665354
X0589567
X058563
X0581693
X0577756
X0573819
X0575787Y0669291
X0579724
X0583661
X0587598
X0591535
X0595472
X0597441Y0665354
Y0673228
X0593504
X0589567
X058563
X0581693
X0583661Y0677165
X0587598
X0591535
X0595472
X0596606Y068048
X0587106Y069648
X0574429Y0686819
X0562008Y0681102
X0558071
X0554134
X0550197
X054626
X0542323
X0538386
X0536417Y0677165
X0540354
X0544291
X0548228
X0552165
X0556102
X0560039
X0554134Y0673228
X0550197
X054626
X0542323
X0538386
X0536417Y0669291
X0533465Y0669291
X0540354Y0669291
X0544291
X0548228
X0552165
X054626Y0665354
X0542323
X0538386
X0536417Y0661417
X053248
X0534449Y065748
X0530512
X0526575
X0528543Y0653543
X053248
X0536417
X0540354
X0544291
X054626Y065748
X0542323
X0538386
X0540354Y0661417
X0544291
X0542323Y0649606
X0538386
X0536417Y0637795
X053248
X0528543
X0524606
X0530512Y0641732
X0526575Y0665354
Y0673228
X0530512
X0524606Y0677165
Y0685039
X0526575Y0688976
X0524606Y0692913
X0526575Y069685
X0524606Y0700787
X0526575Y0704724
X0558071Y0649606
X0562008
X0565945
X0566732Y0644882
X0562402
X0559252
X0558872Y0641983
X0561447
X0567913Y0629921
X057185
X0575787
X0579724
X0583661
X0587598
X0587106Y063798
X0584106
X0590106
X0591606Y064048
X0594106
X0595472Y0637795
X0600586Y0632533
X0608827Y062534
X0615565Y0625384
X0615158Y0637008
Y063937
X0612795Y0638189
X0615105Y0645722
X0592259Y0646101
X0590606Y064748
X0589106Y064898
X0586106
X0634843Y0653598
X064626Y0659055
Y0661811
X0643898
X0648622
X0650984
X0653347
X0656103
Y0659055
Y0652756
X0653347
X0652759Y0650587
X0660849Y06491
X0663349
X0670623Y0649502
X0675197Y0646654
X0667717Y0656988
X0660774Y0665801
X067731Y0665407
X0651575Y0674213
X0637795Y0691929
X0635827
X0633858
X0615354Y0698162
Y070013
X0634843Y0632874
Y0625984
X0643451Y062958
X0642717Y0621063
X064542Y0613045
X0647388Y0609108
X0649357Y0607139
X0638333Y0611076
X0634843Y059848
X0617454Y060479
X062101Y0617179
X0622979Y061521
X0625Y0619094
X0652506Y06221
X0654187Y0625979
Y0629153
Y0632154
X0655361Y0634108
X0651522Y0631153
Y0627466
X0654475Y0617179
X0663924Y0612651
X066766Y0612257
X0672606Y061048
X0677406
X0680054Y0610533
X0675Y0600394
Y0598425
Y0596457
X0680054Y0594553
X0677406Y0577756
X0677166Y0570866
X0670669Y0557874
X0654475Y0586667
X0625Y0563976
X0591535Y0551181
X0587598
X0583661
X0520669
X0516732
X0512795
X0508858
X0504921
X0500984
X0497047
X049311
X0489173
X0485236
X0481299
X0477362
X0473425
X0469488
X0465551
X046173Y0551448
X0459882Y0553241
X0457802Y0554759
X0455453Y0555814
X0452933Y055634
X045036Y0556431
X0447785
X0445292Y0557073
X0442759Y0557535
X0442818Y0560109
X0440244Y0560168
X0440228Y0557057
X0438184Y0558622
X0437224Y0563399
X0435084Y0561967
X0432591Y0561326
X0430023Y0561518
X0428573Y0563646
X0426376Y056499
X042383Y056537
X0422244Y0566929
X0421344Y0564698
X0419344Y0563076
X0416338Y0562992
X0412401
X0410433Y0559055
X041437
X0417955Y0558236
X0418132Y0560804
X0418789Y0555799
X0416338Y0555118
X0412401
X0420544Y0553916
X0422894Y0552864
X0425469Y0552855
X0427832Y0553878
X0429608Y0555742
X0431961Y0556788
X0434372Y0555884
X0438565Y0552926
X0448209Y0551993
X0450783
X0453352Y0551817
X0455737Y0550847
X0457677Y0559055
X045374
X0449803
X0449907Y0562981
X044768Y0561689
X0445344Y0560606
X0446301Y056591
X0448101Y0567752
X0448569Y0570283
Y0572858
Y0575433
Y0578008
Y0580583
Y0583157
Y0585732
Y0588307
Y0590882
Y0593457
Y0596031
Y0598606
Y0601181
Y0603756
Y0606331
Y0608905
Y061148
Y0614055
Y061663
Y0619205
Y0621779
Y0624354
X0447456Y0626676
X0447193Y0629238
X0446625Y063288
X044685Y0635827
Y0638779
X0448819Y0640748
X0449803Y0642717
X0449803Y0645669
X0451772Y0644685
X0452756Y0646654
X0454725Y0648622
X0456693Y0650591
X0457677Y0653543
X045374
X0449803
X0445866
X0441929
X0437992
X0434055
X0430118
X0426181
X0422244
X0418307
X041437
X0410433
X0412401Y0649606
X0416338
X0420275
X0424212
X0428149
X0432086
X0436023
X043996
X0443897
X0447834
X0451771
Y065748
X0447834
X0443897
X043996
X0436023
X0432086
X0428149
X0424212
X0420275
X0416338
X0412401
X0410433Y0661417
X041437
X0418307
X0422244
X0426181
X0430118
X0434055
X0437992
X0441929
X0445866
X0449803
X045374
X0457677
X0461614
X0465551
X0469488
X0473425
X0477362
X0476378Y065748
X0473425
X0471457Y0654528
X046752Y0653543
X0463583Y0652559
X0461614Y0653543
X046063Y0651575
X0461614Y0645669
X0463583Y0646654
X0465551Y0645669
X0468307Y0645669
X0471457
X0475
X0478347Y0646358
X0481693
X0484843Y0645669
X048504Y0639764
X0485236Y0636811
X0483563Y0633661
X0484744Y0627657
X0481602Y0626787
X0478331
X0475394Y0626772
X0473032Y0625984
X0470669
X0467913
X0466732Y062874
Y0631102
Y0633464
X0467913Y0635039
Y0637008
Y0638976
Y0641043
Y0642913
X0463583Y0641732
X0457677Y0641732
X0459646Y0643701
X0461614Y0637795
X0457677
X0454725Y0637795
X0454799Y063543
X0455225Y0632882
X0454382Y0628842
X0453879Y0626317
X0453006Y0623894
Y0621319
Y0618745
Y061617
Y0613595
Y061102
Y0608445
Y060587
Y0603296
Y0600721
Y0598146
Y0595571
Y0592997
Y0590422
Y0587847
Y0585272
Y0582697
Y0580123
Y0577548
Y0574973
Y0572398
Y0569823
X0452637Y0567275
X0451605Y0564916
X0455708Y0562992
X0459645
X0463583
X046752
X0471456
X0469488Y0559055
X0465551
X0461614
X0463583Y0555118
X046752
X0471456
X0475393
X047933
X0483267
X0487205
X0491142
X0495079
X0499016
X0502953
X050689
X0510827
X0514764
X0518701
X0522638
X0520669Y0566929
X0516732
X0512795
X0508858
X0504921
X0500984
X0497047
X049311
X0489173
X0491142Y0570866
X0487205
X0485236Y0574803
X0489173
X049311
X0497047
X0500984
X0504921
X0508858
X0512795
X0516732
X0520669
X0522638Y0570866
X0518701
X0514764
X0510827
X050689
X0502953
X0499016
X0495079
Y057874
X0491142
X0487205
X0485236Y0582677
X0489173
X049311
X0497047
X0500984
X0504921
X0508858
X0512795
X0516732
X0520669
X0522638Y057874
X0518701
X0514764
X0510827
X050689
X0502953
X0499016
X0499016Y0587795
X0496654
X0494291
X0491929Y0588976
X0491142Y0586614
X0487205
X0491031Y0591593
X0495079Y0594488
X0500984Y0593701
Y0591338
Y0588976
X0502953Y0586614
X050689
X0510827
X0514764
X0518701
X0522638
X0520669Y0590551
X0516732
X0512795
X0508858
X0510827Y0594488
X0514764
X0518701
X0522638
X0520669Y0598425
X0516732
X0512795
X0508858
X0504921
X0500984Y0598819
Y0601181
Y0596457
X0510827Y0602362
X0514764
X0518701
X0522638
X052287Y060583
X0520669Y0606299
X0521686Y0608116
X0520987Y0610594
X0518701Y0610236
X0514764
X0510827
X0508858Y0606299
X0512795
X0516732
Y0614173
X0512795
X0508858
X0510827Y061811
X0514764
X0518701
X0520813Y0618313
Y0620888
X0520729Y0623461
X0519968Y0625921
X0518461Y0628008
X0516097Y0629031
X0514Y0630524
X0512402Y063189
X051004Y0633464
X050689Y0633858
X0508661Y0635863
X0507039Y0637863
X0504587Y0638648
X0502012
X0502953Y0633858
X0500984Y0629921
X0504921
X0508858
X0510827Y0625984
X0514764
X0512795Y0622047
X0508858
X0516732
X0520813Y0615738
Y0613163
X0523143Y062926
X0521501Y0631244
X052055Y0633637
X0522638Y0633858
X0518998Y0635691
X051752Y0637401
X0520669Y0637795
X0522638Y0641732
X0523737Y0643622
X0521163
X0518647Y0643075
X0516227Y0642194
X0513653
X0515158Y0639764
X0515054Y0649382
X0517627Y0649282
X0519893Y0648059
X0522468
X0522638Y065748
X0512402Y065
X051004
X0507677Y0649606
X0505107Y0649448
X050332Y0647595
X0501133Y0646236
X0496391Y065538
X0494291Y0653543
X0490354Y0655905
X0489961Y0658661
X0488386Y065748
X0487205Y0659449
X048878Y066063
X0491142
X049311Y0659842
X0491929Y0657874
X0497835
Y0660433
Y0662598
X0497047Y0664567
X0499016Y0665354
X0495472Y0666142
X0493504Y0667323
X0491536Y0668504
X0489173Y0668898
X0486811
X0484843Y066811
X0484055Y0666142
X0483662Y0663779
X048248Y0661811
X0482087Y0659449
Y065748
X0479331Y065748
X0483913Y0655445
X0485339Y0654036
X0486811Y0652362
X0487599Y0650394
X048426Y0651804
X047933Y0665354
X0475393
X0471456
X046752
X0463583
X0459645
X0455708
X0451771
X0447834
X0443897
X043996
X0436023
X0432086
X0428149
X0424212
X0420275
X0416338
X0412401
X0410433Y0669291
X041437
X0418307
X0422244
X0426181
X0430118
X0434055
X0437992
X0441929
X0445866
X0449803
X045374
X0457677
X0461614
X0465551
X0469488
X0473425
X0477362
X0481299
X0483267Y0673228
X047933
X0475393
X0471456
X046752
X0463583
X0459645
X0455708
X0451771
X0447834
X0443897
X043996
X0436023
X0432086
X0428149
X0424212
X0420275
X0416338
X0412401
X0410433Y0677165
X041437
X0418307
X0422244
X0426181
X0430118
X0434055
X0437992
X0441929
X0445866
X0449803
X045374
X0457677
X0461614
X0465551
X0469488
X0473425
X0477362
X0481299
X0485236
X0489173
X049311
X0495079Y0681102
X0491142
X0487205
X0483267
X047933
X0475393
X0471456
X046752
X0463583
X0459645
X0455708
X0451771
X0447834
X0443897
X043996
X0436023
X0432086
X0428149
X0424212
X0420275
X0416338
X0412401
X0430118Y0685039
X0434055
X0437992
X0441929
X0445866
X0449803
X045374
X0457677
X0461614
X0465551
X0469488
X0473425
X0477362
X0481299
X0485236
X0489173
X049311
X0497047
X0500984
X0504921
X0508858
X0512795
X0516732
X0520669
X0522638Y0688976
X0518701
X0514764
X0510827
X050689
X0502953
X0499016
X0495079
X0491142
X0487205
X0483267
X047933
X0475393
X0471456
X046752
X0463583
X0459645
X0455708
X0451771
X0447834
X0443897
X043996
X0436023
X0432086
X0434055Y0692913
X0437992
X0441929
X0445866
X0449803
X045374
X0457677
X0461614
X0465551
X0469488
X0473425
X0477362
X0481299
X0485236
X0489173
X049311
X0497047
X0500984
X0504921
X0508858
X0512795
X0516732
X0520669
X0522638Y069685
X0518701
X0514764
X0510827
X050689
X0502953
X0499016
X0495079
X0491142
X0487205
X0483267
X047933
X0475393
X0471456
X046752
X0463583
X0459645
X0455708
X0451771
X0447834
X0443897
X043996
X0436023
X0437992Y0700787
X0441929
X0445866
X0449803
X045374
X0457677
X0461614
X0465551
X0469488
X0473425
X0477362
X0481299
X0485236
X0489173
X049311
X0497047
X0500984
X0504921
X0508858
X0512795
X0516732
X0520669
X0522638Y0704724
X0518701
X0514764
X0510827
X050689
X0502953
X0499016
X0495079
X0491142
X0487205
X0483267
X047933
X0475393
X0471456
X046752
X0463583
X0459645
X0455708
X0451771
X0447834
X0443897
X043996
X0436023
X0434055Y0645669
X0430118
X0426181
X0422244
X0418307
X041437
X0410433
X0412401Y0641732
X0416338
X0420275
X0424212
X0428149
X0432086
X0436023
X043996
X0443897
X0441929Y0637795
X0437992
X0434055
X0430118
X0426181
X0422244
X0418307
X041437
X0410433
X0412401Y0633858
X0416338
X0420275
X0424212
X0428149
X0432086
X0436023
X043996
X0443897
X0441929Y0629921
X0437992
X0434055
X0430118
X0426181
X0422244
X0418307
X041437
X0410433
X0412401Y0625984
X0416338
X0420275
X0424212
X0428149
X0432086
X0436023
X043996
X0443897
X0441929Y0622047
X0437992
X0434055
X0430118
X0426181
X0422244
X0418307
X041437
X0410433
X0412401Y061811
X0416338
X0420275
X0424212
X0428149
X0432086
X0436023
X043996
X0443897
X0441929Y0614173
X0437992
X0434055
X0430118
X0426181
X0422244
X0418307
X041437
X0410433
X0412401Y0610236
X0416338
X0420275
X0424212
X0428149
X0432086
X0436023
X043996
X0443897
X0441929Y0606299
X0437992
X0434055
X0430118
X0426181
X0422244
X0418307
X041437
X0410433
X0412401Y0602362
X0416338
X0420275
X0424212
X0428149
X0432086
X0436023
X043996
X0443897
X0441929Y0598425
X0437992
X0434055
X0430118
X0426181
X0422244
X0418307
X041437
X0410433
X0412401Y0594488
X0416338
X0420275
X0424212
X0428149
X0432086
X0436023
X043996
X0443897
X0441929Y0590551
X0437992
X0434055
X0430118
X0426181
X0422244
X0418307
X041437
X0410433
X0412401Y0586614
X0416338
X0420275
X0424212
X0428149
X0432086
X0436023
X043996
X0443897
X0441929Y0582677
X0437992
X0434055
X0430118
X0426181
X0422244
X0418307
X041437
X0410433
X0412401Y057874
X0416338
X0420275
X0424212
X0428149
X0432086
X0436023
X043996
X0443897
X0441929Y0574803
X0437992
X0430118
X0426181
X0422244
X0418307
X0420275Y0570866
X0424212
X0428149
X0443897
X0445866Y0574803
Y0582677
Y0590551
Y0598425
Y0606299
Y0614173
Y0622047
X0457677
X0461614
X0465551
X0469488
X0473425
X0477362
X047933Y061811
X0475393
X0471456
X046752
X0463583
X0459645
X0455708
X0457677Y0614173
X0461614
X0465551
X0469488
X0473425
X0475393Y0610236
X0471456
X046752
X0463583
X0459645
X0455708
X0457677Y0606299
X0461614
X0465551
X0469488
X0473425
X0477362
X0481299
X0485236
X0484252Y0599606
Y0597244
X0479331Y0595276
X0476969
Y0593307
Y0591338
X0473425Y0590551
X0469488
X0465551
X0461614
X0457677
X0459645Y0586614
X0455708
X0457677Y0582677
X0461614
X0465551
X0469488
X0473425
X0471456Y057874
X046752
X0463583
X0459645
X0455708
X0457677Y0574803
X0461614
X0465551
X0469488
X0473425
X0471456Y0570866
X046752
X0463583
X0459645
X0455708
X0457677Y0566929
X0461614
X0465551
X0469488
X0473425
Y0559055
X0471456Y0586614
X046752
X0463583
Y0594488
X0459645
X0455708
X0457677Y0598425
X0461614
X0465551
X0469488
X0473425
X0475393Y0602362
X0477756Y0602362
X0471456Y0602362
X046752
X0463583
X0459645
X0455708
X046752Y0594488
X0471456
X0491142Y0602362
X049311Y0606299
X0491142Y061811
X0483267
X0476378Y0633858
X0473425
Y0636811
Y0639764
X0476378
Y0636811
X0465551Y0637795
X0463583Y0633858
X0459645
X0457677Y0629921
X0459645Y0625984
X0463583
X0455709Y0639764
X0445866Y0645669
X0441929
X0437992
X0455708Y065748
X0459645
X0463583
X05Y0659449
X0501969Y0661417
X0503937Y0663386
X0504921Y0665354
Y0668307
X0502953Y0670275
X0500984Y0669291
X0497047
X0491142Y0673228
X0487205
X0500984Y0677165
X0502953Y0681102
X0499016
X0512795Y0677165
X0491142Y0633858
X0383859Y0636713
X0379922
X0375985
X0372048
X0368111
X0370079Y064065
X0374016
X0377953
X038189
X0383859Y0644587
X0379922
X0375985
X0372048
X0368111
X0370079Y0648524
X0374016
X0377953
X038189
X0383859Y0652461
X0379922
X0375985
X0372048
X0368111
X0370079Y0656398
X0374016
X0377953
X038189
X0383859Y0660335
X0379922
X0375985
X0372048
X0368111
X0370079Y0664272
X0374016
X0377953
X038189
X0383859Y0668209
X0379922
X0375985
X0372048
X0368111
X0370079Y0672146
X0374016
X0377953
X038189
X0383859Y0676083
X0379922
X0375985
X0372048
X0368111
X0370079Y068002
X0374016
X0377953
X038189
X0383859Y0683957
X0379922
X0375985
X0372048
X0368111
X0370079Y0687894
Y0632776
X0374016
X0377953
X038189
X0383859Y0628839
X0379922
X0375985
X0372048
X0368111
X0370079Y0624902
X0374016
X0377953
X038189
X0383859Y0620965
X0379922
X0375985
X0372048
X0368111
X0370079Y0617028
X0374016
X0377953
X038189
X0383859Y0613091
X0379922
X0375985
X0372048
X0368111
X0370079Y0609154
X0374016
X0377953
X038189
X0383859Y0605217
X0379922
X0375985
X0372048
X0368111
X0370079Y060128
X0374016
X0377953
X038189
X0383859Y0597343
X0379922
X0375985
X0372048
X0368111
X0370079Y0593406
X0374016
X0377953
X038189
X0383859Y0589469
X0379922
X0375985
X0372048
X0368111
X0370079Y0585532
X0374016
X0377953
X038189
X0383859Y0581595
X0379922
X0375985
X0372048
X0368111
X0370079Y0577658
X0374016
X0377953
X038189
X0383859Y0573721
X0375985
X0372048
X0368111
X0370079Y0569783
X0374016
X0373747Y0563112
X0371397Y0564164
X0368823Y0564172
X0375503Y0561228
X0377953Y0561909
X038189
X0383859Y0557972
X0379922
X0376336Y0558792
X0376159Y0556223
X0374948Y0553951
X0377953Y0554036
X038189
X0372947Y055233
X0370462Y0551658
X0367915Y0552038
X0410433Y0574803
X0439306Y0564914
X0366459Y0563149
X0364683Y0561286
X036233Y056024
X035992Y0561144
X0356107Y0558405
X0354048Y055686
X0351474Y0556919
X0351533Y0559493
X0349Y0559955
X0346506Y0560597
X0343932
X0341358Y0560687
X0338838Y0561214
X0336489Y0562269
X033441Y0563787
X0332562Y056558
X033081Y0567467
X0329408Y0569627
X0326772Y0569783
X0322835
X0318898
X0314961
X0311024
X0307087
X030315
X0299213
X0295276
X0291339
X0287402
X0283465
X0279528
X0275591
X0271654
X0267717
X0269685Y0573721
X0273622
X0277559
X0281496
X0285433
X028937
X0293307
X0297244
X0301181
X0305118
X0309055
X0312992
X0316929
X0320866
X0324803
X032813Y0574588
X0328096Y0577162
Y0579737
Y0582312
Y0584887
Y0587461
Y0590036
Y0592611
Y0595186
Y0597761
Y0600335
Y060291
X0327637Y0605444
X0324803Y0605217
X0320866
X0316929
X0312992
X0309055
X0305118
X0301181
X0297244
X0293307
X028937
X0285433
X0283465Y0609154
X0291339
X0295276
X0299213
X030315
X0307087
X0311024
X0314961
X0318898
X0322835
X0326721Y0610425
Y060785
X0324803Y0613091
X0320866
X0316929
X0312992
X0309055
X0305118
X0301181
X030315Y0617028
X0302756Y0619783
X0305118Y061939
X030748
X0307087Y0617028
X0311024
X0314961
X0318898
X0322835
X0326087Y0618328
X0326721Y0615833
X0324325Y0620205
X0322185Y0621807
X0320685Y0622807
X0318685Y0624307
X0317185Y0625807
X0315685Y0627307
X0314185Y0628807
X0312205Y0628838
Y0630807
X0310379Y0632843
X0308953Y0634251
X030748Y0635925
X0306693Y0637894
X0310685Y0640807
X0312598Y0641929
X0312685Y0639307
X0315945Y0641929
X0317685Y0640307
X0319185Y0638807
X0320685Y0637307
X0322185Y0635807
X0324803Y0636713
X0328741
X0332678
X0336614
X0340551
X0344489
X0348426
X0352362
X0356299
X0360237
X0364174
X0362205Y064065
X0366142
X0364174Y0644587
X0360237
X0356299
X0352362
X0348426
X0344489
X0340551
X0336614
X0332678
X0328741
X0326378Y0645374
Y0647244
X0325984Y0649311
Y0651279
Y0653248
X0327559Y0654823
Y0657185
Y0659547
X0326378Y0662303
X0323622
X032126
X0318898Y0661516
X0318898Y0664272
X0322835
X0324803Y0668209
X0328741
X0332678
X0336614
X0340551
X0344489
X0348426
X0352362
X0356299
X0360237
X0364174
X0362205Y0672146
X0366142
X0364174Y0676083
X0360237
X0356299
X0352362
X0348426
X0344489
X0340551
X0336614
X0332678
X0328741
X0324803
X0320866
X0316929
X0314961Y068002
X0318898
X0322835
X0326772
X0330709
X0334646
X0338583
X034252
X0346457
X0350394
X0354331
X0358268
X0362205
X0366142
X0364174Y0683957
X0360237
X0356299
X0352362
X0348426
X0344489
X0340551
X0336614
X0332678
X0328741
X0324803
X0320866
X0316929
X0316535Y0685925
X0318898Y0687894
X0322835
X0326772
X0330709
X0334646
X0338583
X034252
X0346457
X0350394
X0354331
X0358268
X0362205
X0366142
X0364174Y0691831
X0360237
X0356299
X0352362
X0348426
X0344489
X0340551
X0336614
X0332678
X0328741
X0324803
X0320866
X0317323Y0693012
Y069498
Y0696949
X0314961Y0693012
X0310039Y0691043
Y0688681
X0309055Y0683957
X0312992
X0311024Y068002
X0307087
X0301181Y0683957
X0291339Y0687894
X0287402
X0283465
X0279528
X0275591
X0271654
X0269797Y0684455
X0271422Y0682458
X0272606Y0680171
X0275591Y068002
X0279528
X0283465
X0285433Y0683957
X0281496
X0277559
X0273622
X0273305Y0677693
X0273479Y0675124
Y0672549
X0275591Y0672146
X0279528
X0283465
X0285433Y0676083
X0281496
X0277559
Y0668209
X0281496
X0285433
X0283465Y0664272
X0279528
X0275591
X0273562Y0664826
X0273479Y06674
Y0669975
X0269041Y0668919
Y0671494
Y0674069
X0268967Y0676643
X0268243Y0679113
X0266759Y0681218
X0264939Y0683038
X0263118Y0684859
X0261297Y068668
X0259404Y0688425
X0255906Y0687894
X0251969
X0248032
X0244095
X0240158
X0236221
X0232284
X0228347
X022441
X0223623Y0684905
X0225244Y0682904
X0226105Y0680478
X0227926Y0678657
X0229747Y0676836
X0231521Y0674971
X0232998Y0672862
X0233987Y0670484
X0234437Y0667949
X0234502Y0665375
Y0662801
Y0660226
Y0657651
Y0655076
X0236221Y0656398
X0240158
X0244095
X0248032
X0251969
X0255906
X0259843
X026378
X0267717
X0272791Y0657044
X0273741Y0654651
X0275293Y0652596
X0276772Y0650886
X0275591Y0648524
X0275672Y0645254
X0273154Y0644718
X0270579
X0268004
X0265429
X0262855
X0260283Y0644847
X0257882Y0645776
X0256045Y064758
X0254059Y0649219
X0252149Y0649999
X0249889Y0651233
X0247362Y0650742
X0245152Y0652064
X0242578Y0652118
X0240058Y0651589
X0237501Y0651281
X0235309Y0652631
X0230122Y0653282
X0230065Y0655856
Y0658431
Y0661006
Y0663581
Y0666155
X0229877Y0668723
X02289Y0671106
X0227236Y0673071
X0225416Y0674892
X0223595Y0676712
X0221497Y0678204
X0220473Y0672146
X022441
X0226378Y0668209
X0222441
X0218504
X0214567
X0212599Y0672146
X0216536
X0214567Y0676083
X0212599Y0664272
X0216536
X0220473
X022441
X0226378Y0660335
X0222441
X0218504
X0214567
X0212599Y0656398
X0216536
X0220473
X022441
X0224551Y0650829
X0227124Y0650742
X0229699
X023027Y0646305
X0227695
X0225121
X0222932Y0644949
X0220357Y064493
X0219747Y0652118
X0222322
X0217185Y0652307
X0214567Y0652461
Y0636713
X0218504
X0222441
X0226378
X0230315
X0234252
X0238189
X0240892Y0637469
Y0634894
Y0632319
X0240545Y0629768
X0239421Y0627452
X0237676Y0625558
X0235856Y0623737
X0234035Y0621917
X0232214Y0620096
X0230315Y0620965
X0230394Y0618275
X0228573Y0616455
X0226752Y0614634
X0224932Y0612813
X0222441Y0613091
X0223111Y0610993
X022129Y0609172
X0219469Y0607351
X0217649Y0605531
X0215512Y0604095
X0213179Y0603005
X0212599Y0609154
X0216536
X0218504Y0613091
X0214567
X0212599Y0617028
X0216536
X0220473
X022441
X0226378Y0620965
X0222441
X0218504
X0214567
X0212599Y0624902
X0216536
X0220473
X022441
X0228347
X0232284
X0234252Y0628839
X0230315
X0226378
X0222441
X0218504
X0214567
X0212599Y0632776
X0216536
X0220473
X022441
X0228347
X0232284
X0236221
Y064065
X0232284
X023189Y0643405
X0235039
X023542Y0646305
X0232845
X0237995
X0238189Y0644193
X0239516Y0642223
X023952Y0639648
X0246704Y0640001
Y0642576
X0247674Y0644313
X0247721Y0646305
X0249606Y0643405
X0251575Y0642224
X0254328Y0642824
X0256523Y0641479
X0258957Y0640639
X0261509Y0640294
X0264084Y0640281
X0266658
X0269233
X0271808
X0274383
X0276624Y0639013
X0279197Y0638905
X0285953
X0285433Y0636713
X0288523Y0639064
X029031Y0640917
X0292497Y0642276
X0292279Y064964
X0289704
X028937Y0652461
X0285631Y0652424
X0287252Y0650424
X0287402Y0656398
X0291339
X0293307Y0660335
X028937
X0285433
X0281496
X0280292Y0657763
X028189Y0656398
X0284252Y0654823
X0278194Y0659257
X0275831Y0660279
X0274324Y0662367
X0269951Y0661306
X0269224Y0663776
X0269041Y0666344
X0265748Y0668209
X0261811
X0257874
X0253937
X025
X0246063
X0242126
X0238189
X0236221Y0672146
X0240158
X0244095
X0248032
X0251969
X0255906
X0259843
X026378
X0265748Y0676083
X0261811
X0257874
X0253937
X025
X0246063
X0242126
X0238189
X0234252
X0232284Y068002
X0236221
X0240158
X0244095
X0248032
X0251969
X0255906
X0259843
X026378
X0257874Y0683957
X0253937
X025
X0246063
X0242126
X0238189
X0234252
X0230315
Y0691831
X0234252
X0238189
X0242126
X0246063
X025
X0253937
X0254241Y0693945
X0251893Y0695001
X0250073Y0696822
X0247685Y0697784
X0245276Y0697736
X0244095Y0695768
X0240158
X0236221
X0232284
X0228347
X022441
X0220473
X0216536
X0216185Y0692307
X0218504Y0691831
X0219185Y0689807
X0222441Y0691831
X0226378
X0221707Y0686625
X0214185Y0693307
X0212599Y0695768
Y0703642
X0213685Y0706307
X0217185
X0219685
X0216536Y0703642
X0244095
X024685Y0703642
X0249606
X0252005Y0702054
X0254566Y0702323
X025647Y070059
X0258048Y0698555
X0259114Y0696212
X026378Y0695768
X0267717
X0271654
X0275591
X0279528
X0283465
X0285433Y0699705
X0281496
X0277559
X0273622
X0269685
X0265748
X0261811
X026378Y0703642
X0267717
X0271654
X0275591
X0279528
X0283465
X0287402
X0291339
X0295276
X0299213
X030315
X0307087
X0301181Y0699705
X0293307
Y0691831
X028937
X0285433
X0281496
X0277559
X0273622
X0269685
X0265748
X0262561Y0691783
X0264335Y0689917
X0266156Y0688097
X0267977Y0686276
X026378Y0664272
X0259843
X0255906
X0251969
X0248032
X0244095
X0240158
X0242126Y0660335
X0246063
X025
X0253937
X0257874
X0261811
X0265748
X0271149Y0659027
X0269685Y0652461
X0265748
X0261811
X0257874
X0253937
X0259843Y0648524
X026378
X0267717
X0271654
X0279134Y0648524
X0278106Y0646094
X0280681
X0293307Y0652461
X030315Y0656398
X0310729Y0654626
X0309055Y0651476
X0309252Y0648524
X0309449Y0642618
X0319291
X0322835
X0325984
X0326772Y064065
X0330709
X0334646
X0338583
X034252
X0346457
X0350394
X0354331
X0358268
Y0648524
X0362205
X0366142
X0364174Y0652461
X0360237
X0356299
X0352362
X0348426
X0344489
X0340551
X0336614
X0332678
X0328741
X0330709Y0648524
X0334646
X0338583
X034252
X0346457
X0350394
X0354331
Y0656398
X0358268
X0362205
X0366142
X0364174Y0660335
X0360237
X0356299
X0352362
X0348426
X0344489
X0340551
X0336614
X0334646Y0664272
X0338583
X034252
X0346457
X0350394
X0354331
X0358268
X0362205
X0366142
X0358268Y0672146
X0354331
X0350394
X0346457
X034252
X0338583
X0334646
X0330709
X0326772
X0322835
X0318898
X0314961
X0311024
X0312992Y0668209
X0316929
X0320866
X0315961Y06615
X0312689
X0309547Y066063
X0309055Y0668209
X030315Y0672146
X0293307Y0676083
X0317914Y0654429
X0320866
Y0651476
Y0648524
X0317914
Y0651476
X0334646Y0656398
X0338583
X034252
X0346457
X0350394
Y0632776
X0354331
X0358268
X0362205
X0366142
X0364174Y0628839
X0360237
X0356299
X0352362
X0348426
X0344489
X0340551
X0336614
X0332678
X0328741
X0325685Y0627807
X0326772Y0626307
X0328074Y0624362
X0330709Y0624902
X032999Y0622642
X0331124Y0620331
X0333301Y0618956
X0333909Y0616454
X0334185Y0614075
X0336614Y0613091
X0340551
X0344489
X0348426
X0352362
X0356299
X0360237
X0364174
X0362205Y0617028
X0366142
X0364174Y0620965
X0360237
X0356299
X0352362
X0348426
X0344489
X0340551
X0336614
X0334646Y0624902
X0338583
X034252
X0346457
X0350394
X0354331
X0358268
X0362205
X0366142
Y0609154
X0362205
X0358268
X0354331
X0350394
X0346457
X034252
X0338583
X0333909Y0609899
Y0607324
X0332534Y0605148
Y0602573
Y0599998
Y0597423
Y0594848
Y0592274
Y0589699
Y0587124
Y0584549
Y0581974
Y05794
Y0576825
X03326Y0574251
X0333297Y0571772
X0334754Y0569649
X0336582Y0567836
X0338554Y0566181
X0340939Y056521
X0343508Y0565034
X0346083
X0346457Y0569783
X034252
X0338583
X0340551Y0573721
X0344489
X0348426
X0352362
X0356299
X0354331Y0577658
X0358268
X0362205
X0366142
X0364174Y0581595
X0360237
X0356299
X0352362
X0348426
X0344489
X0340551
X0336614
X0334646Y0585532
X0338583
X034252
X0346457
X0350394
X0354331
X0358268
X0362205
X0366142
X0364174Y0589469
X0360237
X0356299
X0352362
X0348426
X0344489
X0340551
X0336614
X0334646Y0593406
X0338583
X034252
X0346457
X0350394
X0354331
X0358268
X0362205
X0366142
X0364174Y0597343
X0360237
X0356299
X0352362
X0348426
X0344489
X0340551
X0336614
X0334646Y060128
X0338583
X034252
X0346457
X0350394
X0354331
X0358268
X0362205
X0366142
X0364174Y0605217
X0360237
X0356299
X0352362
X0348426
X0344489
X0340551
X0336614
X0338583Y0617028
X034252
X0346457
X0350394
X0354331
X0358268
X0346457Y0632776
X034252
X0338583
X0334646
X0330709
X0322685Y0631307
X0324083Y0629793
X0314961Y0624902
X0311811Y0626476
X031063Y0624508
X0310236Y0622146
X0309449Y0620177
X0312992Y0620965
X0316929
X0300787Y0620964
X0298819Y0622146
X0297244Y062372
X0296457Y0625689
Y0627854
Y0630413
X0297901Y0632907
X0299695Y0634756
X0303937Y0632382
X0304331Y0629626
X0302362Y0630413
X0301181Y0628445
X030315Y0627657
X0305512
X0307087Y0628838
X0305906Y0630807
X0293307Y0626307
X0291339Y0624902
X028937Y062372
X028937Y0620965
X028937Y0617815
X0293307
X0293307Y0620965
X0294685Y0623307
X0296685Y0620307
X029685Y0617815
X0299685Y0618307
X0299213Y060128
X030315
X0307087
X0311024
X0314961
X0318898
X0322835
X0324803Y0597343
X0320866
X0316929
X0312992
X0309055
X0305118
X0301181
X0297244
X0293307
X028937
X0285433
X0281496
X0277559
X0273622
X0269685
X0267717Y060128
X0271654
X0275591
X0279528
X0283465
X0287402
X0291339
X0295276
Y0593406
X0299213
X030315
X0307087
X0311024
X0314961
X0318898
X0322835
X0324803Y0589469
X0320866
X0316929
X0312992
X0309055
X0305118
X0301181
X0297244
X0293307
X028937
X0285433
X0281496
X0277559
X0273622
X0269685
X0267717Y0593406
X0271654
X0275591
X0279528
X0283465
X0287402
X0291339
Y0585532
X0295276
X0299213
X030315
X0307087
X0311024
X0314961
X0318898
X0322835
X0324803Y0581595
X0320866
X0316929
X0312992
X0309055
X0305118
X0301181
X0297244
X0293307
X028937
X0285433
X0281496
X0277559
X0273622
X0269685
X0267717Y0585532
X0271654
X0275591
X0279528
X0283465
X0287402
Y0577658
X0291339
X0295276
X0299213
X030315
X0307087
X0311024
X0314961
X0318898
X0322835
X0328516Y0572042
X0328741Y0565846
X0324803
X0320866
X0316929
X0312992
X0309055
X0305118
X0301181
X0297244
X0293307
X028937
X0285433
X0281496
X0277559
X0273622
X0269685
X0265748
X0261811
X0259843Y0561909
X026378
X0267717
X0271654
X0275591
X0279528
X0283465
X0287402
X0291339
X0295276
X0299213
X030315
X0307087
X0311024
X0314961
X0318898
X0322835
X0326772
X0330709
X0332678Y0557972
X0336614
X0340551
X0344489
X0344384Y0554047
X0346612Y0555338
X0348947Y0556422
X0347991Y0551117
X0342686Y0552111
X0338583Y0554036
X0334646
X0330709
X0326772
X0322835
X0324803Y0557972
X0328741
X0320866
X0336614Y0573721
X0334646Y0577658
X0338583
X034252
X0346457
X0350394
X0364174Y0573721
X0366142Y0569783
X0355726Y0564102
X0354063Y0559971
X0354985Y0552114
X0357067Y0553628
X0359207Y0555061
X0361701Y0555701
X0364268Y0555509
X0365719Y0553382
X0283465Y0577658
X0279528
X0275591
X0271654
X0267717
X0255906
X0251969
X0248032
X0244095
X0240158
X0236221
X0232284
X0228347
X022441
X0220473
X0216536
X0212599
X0214567Y0581595
X0218504
X0222441
X0226378
X0230315
X0234252
X0238189
X0242126
X0246063
X025
X0253937
X0257874
X0255906Y0585532
X0251969
X0248032
X0244095
X0240158
X0236221
X0232284
X0228347
X022441
X0220473
X0216536
X0212599
X0218504Y0589469
X0222441
X0226378
X0230315
X0234252
X0238189
X0242126
X0246063
X025
X0253937
X0257874
X0255906Y0593406
X0251969
X0248032
X0244095
X0240158
X0236221
X0232284
X0228347
X022441
X0226378Y0597343
X0230315
X0234252
X0238189
X0242126
X0246063
X025
X0253937
X0257874
X0255906Y060128
X0251969
X0248032
X0244095
X0240158
X0236221
X0232284
X0228347
X022441
X0219863Y0601469
X0221683Y060329
X0223504Y060511
X0225325Y0606931
X0227145Y0608751
X0228966Y0610572
X0230787Y0612393
X0232607Y0614214
X0234428Y0616034
X0236249Y0617855
X0238069Y0619675
X023989Y0621496
X0242126Y0620965
X0241711Y0623317
X0243319Y0625328
X0244491Y062762
X0245163Y0630106
X0245329Y0632675
Y063525
Y0637825
X025Y0636713
X0253937
X0257874
X0261811
X0265748
X026378Y0632776
X0267717
Y0624902
X0271654
Y0617028
X0267717
X026378
X0260827Y0618996
X0257874Y0620965
X0253937
X025
X0246063
X0244095Y0617028
X0248032
X0251969
X0255906
X0257874Y0613091
X0253937
X025
X0246063
X0242126
X0238189
X0236221Y0609154
X0240158
X0244095
X0248032
X0251969
X0255906
X0257874Y0605217
X0253937
X025
X0246063
X0242126
X0238189
X0234252
X0230315
X0232284Y0609154
X0240158Y0617028
X0248032Y0624902
X0251969
X0255906
X0259843
X0261811Y0628839
X0257874
X0253937
X025
X0248032Y0632776
X0251969
X0255906
X0259843
X0265748Y0620965
Y0613091
X0267717Y0609154
X0269685Y0605217
X0257874Y0573721
X0253937
X025
X0246063
X0242126
X0238189
X0234252
X0230315
X0226378
X0222441
X0218504
X0214567
X0212599Y0569783
X0216536
X0220473
X022441
X0228347
X0232284
X0236221
X0240158
X0244095
X0248032
X0251969
X025Y0565846
X0246063
X0242126
X0238189
X0234252
X0230315
X0226378
X0222441
X0218504
X0214567
X0215185Y0550547
X0212685
X0218185
X0228347Y064065
X0227559Y0643405
X0238189Y0660335
X0287402Y0632776
X0330709Y0664272
Y0695768
X0334646
X0338583
X034252
X0346457
X0350394
X0354331
X0358268
X0356299Y0699705
X0352362
X0348426
X0344489
X0340551
X0336614
X0332678
X0328741
X0324803
X0320866
X0322835Y0703642
X0326772
X0330709
X0334646
X0338583
X034252
X0346457
X0350394
X0354331
X0358268
X0326772Y0695768
X0322835
X0208662
X0203648Y0692204
X0201969Y0691043
X0203685Y0688807
Y0686307
X0205685
X0206693Y0683957
X0208185Y0682307
X0208662Y068002
X0211185Y0678807
X021063Y0676083
X0206693
X0204725Y068002
X0203685Y0683307
X0198819Y0683957
X02Y06875
X0205185Y0690307
X0204725Y0703642
X0204685Y0706307
X0181496Y0705217
X0179134Y0704035
Y0697736
X0177685Y0690307
X0175185Y0692307
X0176784Y068355
X0179921Y0685138
X0181496Y0687106
X0192003Y0685138
X0193701Y068355
X0196851Y068002
X0198819Y0676083
X0196851Y0672146
X0198819Y0668209
X0206693
X021063
X0208662Y0672146
X0204725
Y0664272
X0208662
X021063Y0660335
X0206693
X0201969Y0661122
X0200788Y0656398
X0204725
X0208662
X021063Y0652461
X0210185Y0650307
X0207185
X0206693Y0652461
X0202756
X0204185Y0650307
X0202685Y0647807
X0200185
X0198819Y0652461
X0193653Y0655807
X0185464Y0662947
X0178727Y0662903
X0179134Y0651279
Y0648917
X0181496Y0650098
X0179134Y0642618
X0202032Y0642186
X0203685Y0640807
X0205185Y0639307
X0208185
X0206693Y0636713
X021063
X0208662Y0632776
X0204725
X0206693Y0628839
X021063
X0208662Y0624902
X0204725
X0200788
X0196851
X0198819Y0620965
X0202756
X0206693
X021063
X0208662Y0617028
X0204725
X0200788
X0196851
X0198819Y0613091
X0202756
X0206693
X021063
X0208662Y0609154
X0204725
X0200788
X0197685Y0607807
X0202756Y0605217
X0206693
X021063
X0211358Y0601185
X0208662Y060128
X0204725
X0206693Y0597343
X0202756
X0204725Y0593406
X0203685Y0591307
X0202185Y0589807
X0202685Y0586807
X0200685
Y0581307
X0203185
X0206693Y0581595
X021063
X0208662Y0577658
X0204725
X0206693Y0573721
X021063
X0208662Y0569783
X0204725
X0206693Y0565846
X021063
X0202756
X0196851Y0569783
X0192913Y0570571
X0190951Y057372
X0187992Y0572736
X0198819Y0573721
X0198819Y0593799
X0196851
X0192915Y0593951
X0186221Y0596161
Y0598524
Y0600886
Y0603248
X0183661Y0603815
X0177685Y0603807
X0169261Y0609707
X0163386Y0612106
Y0614075
Y0616043
X0160433Y0610138
X0158465
X0156496
Y0604232
X0158465
X0160433
Y0606201
Y0608169
Y0596358
X0158465
X0156496
X0148622Y0598327
Y0600295
Y0602264
X0142717Y0614075
X0143307Y0626476
X0145669
X0148032
X0150394
X0148032Y0629232
X0138189
Y0626476
X0140945
Y0635532
X0138189
X014148Y0637753
X013339Y063924
X013089
X0123616Y0638839
X0119095Y0641634
X0112424Y0639583
X0110411
X010689Y0641634
X0101378Y0642618
Y0645571
Y0648524
X0101962Y0654193
X0101378Y0656988
X0101477Y0665365
X0101575Y0667815
X0098819Y0665627
X0096063Y0665453
X0103977Y0673038
X0105685Y0675807
X0108685Y0677807
X0114185
X0116885
X0121685
X0126579Y0676083
X0130315Y0675689
X0139764Y0671161
X0141732Y066624
X0140051Y0662361
Y0659187
Y0656187
X0138878Y0654232
X0142717Y0657187
Y0660874
X0150787Y065876
X0151575Y0667224
X0148819Y0675295
X0146851Y0679232
X0144882Y0681201
X0155906Y0677264
X0159449Y0689807
X0159449Y0662303
Y0655413
X0159449Y0634689
X0126575Y0631299
X0133465Y0622539
X0116929Y0623032
X0112314Y0619106
X0110346Y0620855
X0107087Y061624
X0083071Y062372
Y0625689
Y0627657
Y0629626
X0081103
X0079134
Y0627657
Y0625689
Y062372
X0081103
Y0625689
Y0627657
X0088583Y0637697
X008563Y0641634
X009252
Y0648524
X0067329Y0647106
X006811Y0657185
X0058268
X0056299Y0667421
X006718Y0677264
X0062992Y0681594
X0075788Y0682972
X0081496Y0685532
X0080709Y0694783
X0083662
X0086614
X0102756Y0691831
Y0689862
Y0687894
X0102937Y0685744
X0098835
X0100685Y0679728
X0100787Y0700098
X0105906Y0697736
X0108685Y0695807
X0114185Y0693787
X0119291Y0691831
Y0689862
Y0687894
X0139764Y0701673
X017126Y067313
X0173229Y0671161
X0169291Y0669193
X0196851Y0632776
X0202756Y0628839
X0207185Y0591807
X0211185Y0587807
X0178937Y0588157
Y0590126
X0179134Y058061
X0159449Y0579626
X0154528Y0576673
X0165551Y0572736
X0169291Y0553051
X0203185Y0550547
X0206685Y0551047
X0209646
X0135827Y0568996
X0140545Y0574744
X0130709Y0593799
X0123622Y0559154
X009941Y0560925
X0097441Y0562894
X0103937Y056714
X0075788Y0565453
X0073819Y0562894
X0069291Y0572736
X0070866Y0574705
X0073819Y0591437
X0075788
X0077756
Y0593405
X0075788
X0073819
X0064173Y0597736
X006378Y0603642
X0081693Y0600295
X0069882Y0635728
X0054134Y0662303
X0116885Y0710532
X0117126Y0717421
X0169291Y0724311
X0178727Y0718021
X0185464Y0718065
X0193653Y0710925
X0199969Y0708615
X0204685Y0708307
Y0710532
Y0717307
X0204725Y071939
X0200788
X0203185Y0721807
X0206685Y0722307
X0209646
X0202756Y0715453
X0200185Y0713807
X0179134Y0706398
X0220473Y0711516
X022441
X0228347
X0232284
X0236221
X0240158
X0244095
X0248032
X0251969
X0255906
X0259843
X026378
X0267717
X0271654
X0275591
X0279528
X0283465
X0287402
X0291339
X0295276
X0299213
X030315
X0307087
X0309055Y0715453
X0305118
X0301181
X0297244
X0293307
X028937
X0285433
X0281496
X0277559
X0273622
X0269685
X0265748
X0261811
X0257874
X0253937
X025
X0246063
X0242126
X0238189
X0234252
X0230315
X0226378
X0222441
X0220473Y071939
X022441
X0228347
X0232284
X0236221
X0240158
X0244095
X0248032
X0251969
X0255906
X0259843
X026378
X0267717
X0271654
X0275591
X0279528
X0283465
X0287402
X0291339
X0295276
X0299213
X030315
X0307087
X0309055Y0707579
X0305118
X0301181
X0297244
X0293307
X028937
X0285433
X0281496
X0277559
X0273622
X0269685
X0265748
X0261811
X0257874
X0253937
X025
X0246063
X0242126
X0238189
X0234252
X0230315
X0218185Y0721807
X0215185
X0212685
X0322835Y071939
X0326772
X0330709
X0334646
X0338583
X034252
X0346457
X0350394
X0354331
X0358268
X0362205
X0360237Y0715453
X0356299
X0352362
X0348426
X0344489
X0340551
X0336614
X0332678
X0328741
X0324803
X0320866
X0322835Y0711516
X0326772
X0330709
X0334646
X0338583
X034252
X0346457
X0350394
X0354331
X0358268
X0356299Y0707579
X0352362
X0348426
X0344489
X0340551
X0336614
X0332678
X0328741
X0324803
X0320866
X0412401Y0720472
X0416338
X0420275
X0424212
X0428149
X0432086
X0436023
X043996
X0443897
X0447834
X0451771
X0455708
X0459645
X0463583
X046752
X0471456
X0475393
X047933
X0483267
X0487205
X0491142
X0495079
X0499016
X0502953
X050689
X0510827
X0514764
X0518701
X0522638
X0520669Y0716535
X0516732
X0512795
X0508858
X0504921
X0500984
X0497047
X049311
X0489173
X0485236
X0481299
X0477362
X0473425
X0469488
X0465551
X0461614
X0457677
X045374
X0449803
X0445866
X0441929
X0437992
X0434055
X0430118
X0436023Y0712598
X043996
X0443897
X0447834
X0451771
X0455708
X0459645
X0463583
X046752
X0471456
X0475393
X047933
X0483267
X0487205
X0491142
X0495079
X0499016
X0502953
X050689
X0510827
X0514764
X0518701
X0522638
X0520669Y0708661
X0516732
X0512795
X0508858
X0504921
X0500984
X0497047
X049311
X0489173
X0485236
X0481299
X0477362
X0473425
X0469488
X0465551
X0461614
X0457677
X045374
X0449803
X0445866
X0441929
X0437992
X0524606
X0526575Y0712598
X0524606Y0716535
X0526575Y0720472
X0530512
X0542323
X054626
X0550197
X0554134
X0558071
X0562008
X0565945
X0569882
X0573819
X0577756
X0581693
X058563
X0589567
X0587598Y0716535
X0583661
X0579724
X0575787
X057185
X0567913
X0563976
X0560039
X0556102
X0552165
X0548228
X0544291
X0540354
X0542323Y0712598
X0538386
X0536417Y0708661
X0540354
X0544291
X0548228
X0552165
X0556102
X0560039
X0563976
X0567913
X057185
X0575787
X0579724
X0583661
X0587598
X0591106Y070698
X0593606
X0597441Y0712598
X0595472Y0716535
X0597441Y0720472
X0601325Y0717769
X0603288Y071462
X0606299Y0715551
X0615105Y070773
X0634843Y0709055
X0639764Y0711614
X0628687Y0715604
X0653694Y0713596
X0658412Y0719344
X0670617Y0729187
X0589567Y0712598
X058563
X0581693
X0577756
X0573819
X0569882
X0565945
X0562008
X0558071
X0554134
X0550197
X054626
X0690302Y07212
X0694829Y0727415
X069685Y0725394
X0724947Y0715604
X0723373Y0713635
T02
X0601772Y0060433
X0604134
X0606496
X0608858
Y0062795
Y0065158
Y006752
X0606496
X0604134
X0601772
Y0065158
Y0062795
X0604134
X0606496
Y0065158
X0604134
X0193504Y0060795
X0191142
X0188779
X0186417
Y0058433
Y0056071
Y0053708
X0188779
X0191142
X0193504
Y0056071
Y0058433
X0191142
X0188779
Y0056071
X0191142
X0190157Y0112894
X0187795
X0185433
Y0115256
Y0117618
Y011998
X0187795
X0190157
X019252
Y0117618
Y0115256
Y0112894
X0190157Y0115256
Y0117618
X0187795
Y0115256
Y0168012
X0190157
X019252
Y0170374
Y0172736
Y0175098
X0190157
X0187795
X0185433
Y0172736
Y0170374
Y0168012
X0187795Y0170374
Y0172736
X0190157
Y0170374
X0191142Y0225362
X018878
X0186417
Y0227724
Y0230086
Y0232448
X018878
X0191142
X0193504
Y0230086
Y0227724
Y0225362
X0191142Y0227724
Y0230086
X018878
Y0227724
X0298819Y0120452
Y011809
Y0115728
X0301181
X0303543
Y011809
Y0120452
X0301181
X0301181Y011809
X0490748Y0117441
Y0115079
X049311
X0495472
Y0117441
Y0119804
X049311
X0490748
X049311Y0117441
X0601772Y0117913
Y0120276
Y0122638
X0604134
X0606496
X0608858
Y0120276
Y0117913
Y0115551
X0606496
X0604134
X0601772
X0604134Y0117913
X0606496
Y0120276
X0604134
X060315Y0174343
X0605512
X0607874
Y0176705
Y0179067
Y018143
X0605512
X060315
X0600787
Y0179067
Y0176705
Y0174343
X060315Y0176705
X0605512
Y0179067
X060315
X0604134Y0231693
X0606496
X0608858
Y0234055
Y0236417
X0606496
Y0234055
X0604134
Y0236417
X0601772
Y0234055
Y0231693
Y0238779
X0604134
X0606496
X0608858
Y0286811
Y0289173
Y0291535
Y0293898
X0606496
X0604134
X0601772
Y0291535
Y0289173
Y0286811
X0604134
X0606496
Y0289173
X0604134
Y0291535
X0606496
X0605512Y0345996
X060315
X0600787
Y0348359
Y0350721
Y0353083
X060315
X0605512
X0607874
Y0350721
Y0348359
Y0345996
X0605512Y0348359
X060315
Y0350721
X0605512
X0495472Y0291063
Y0288701
Y0286339
X049311
X0490748
Y0288701
Y0291063
X049311
X049311Y0288701
X0303543Y028935
Y0291712
X0301181
X0298819
Y028935
Y0286988
X0301181
X0303543
X0301181Y028935
X019252Y0288878
Y0286516
Y0284154
X0190158
X0187795
X0185433
Y0286516
Y0288878
Y029124
X0187795
X0190158
X019252
X0190158Y0288878
X0187795
Y0286516
X0190158
Y0339272
X0187795
X0185433
Y0341634
Y0343996
Y0346358
X0187795
X0190158
X019252
Y0343996
Y0341634
Y0339272
X0190158Y0341634
Y0343996
X0187795
Y0341634
X0188779Y0408826
X0191142
X0193504
Y0411189
Y0413551
Y0415913
X0191142
X0188779
X0186417
Y0413551
Y0411189
Y0408826
X0188779Y0411189
Y0413551
X0191142
Y0411189
X0190157Y0468012
X0187795
X0185433
Y0470374
Y0472736
Y0475098
X0187795
X0190157
X019252
Y0472736
Y0470374
Y0468012
X0190157Y0470374
Y0472736
X0187795
Y0470374
Y052313
X0190157
X019252
Y0525492
Y0527854
Y0530217
X0190157
X0187795
X0185433
Y0527854
Y0525492
Y052313
X0187795Y0525492
Y0527854
X0190157
Y0525492
X0298819Y047557
Y0473208
Y0470846
X0301181
X0303543
Y0473208
Y047557
X0301181
X0301181Y0473208
X0490748Y0472559
Y0470197
X049311
X0495472
Y0472559
Y0474922
X049311
X0490748
X049311Y0472559
X0601772Y0473032
Y0475394
Y0477756
X0604134
X0606496
X0608858
Y0475394
Y0473032
Y0470669
X0606496
X0604134
X0601772
X0604134Y0473032
X0606496
Y0475394
X0604134
Y0422638
X0606496
X0608858
Y0420276
Y0417913
Y0415551
X0606496
X0604134
X0601772
Y0417913
Y0420276
Y0422638
X0604134Y0420276
Y0417913
X0606496
Y0420276
X0605512Y0529461
X060315
X0600787
Y0531823
Y0534185
Y0536548
X060315
X0605512
X0607874
Y0534185
Y0531823
Y0529461
X0605512Y0531823
X060315
Y0534185
X0605512
X0606496Y0586811
X0604134
X0601772
Y0589173
Y0591535
Y0593898
X0604134
X0606496
X0608858
Y0591535
Y0589173
Y0586811
X0606496Y0589173
X0604134
Y0591535
X0606496
Y0641929
X0604134
X0601772
Y0644291
Y0646654
Y0649016
X0604134
X0606496
X0608858
Y0646654
Y0644291
Y0641929
X0606496Y0644291
X0604134
Y0646654
X0606496
X0605512Y0701115
X060315
X0600787
Y0703477
Y0705839
X060315
Y0703477
X0605512
Y0705839
X0607874
Y0703477
Y0701115
X0495472Y0646181
Y0643819
Y0641457
X049311
X0490748
Y0643819
Y0646181
X049311
X049311Y0643819
X0303543Y0644468
Y064683
X0301181
X0298819
Y0644468
Y0642106
X0301181
X0303543
X0301181Y0644468
X019252Y0643996
Y0641634
Y0639272
X0190158
X0187795
X0185433
Y0641634
Y0643996
Y0646358
X0187795
X0190158
X019252
X0190158Y0643996
X0187795
Y0641634
X0190158
Y069439
X0187795
X0185433
Y0696752
Y0699114
Y0701476
X0187795
X0190158
X019252
Y0699114
Y0696752
Y069439
X0190158Y0696752
Y0699114
X0187795
Y0696752
X018878Y0587567
X0191142
X0193504
Y0585204
Y0582842
Y058048
X0191142
X018878
X0186417
Y0582842
Y0585204
Y0587567
X018878Y0585204
X0191142
Y0582842
X018878
X0600787Y0708201
X060315
X0605512
X0607874
T03
X0075787Y0071949
Y0075886
X0111614Y0122539
X0114764
X0117913
X0121063
X0124213
X0127362
X0130512
X0130512Y0125689
Y0128839
X0127362
Y0125689
X0124213
Y0128839
X0121063
Y0125689
X0117913
X0114764
Y0128839
X0117913
Y0131988
X0114764
Y0135138
X0117913
X0117913Y0138287
X0114764
X0111614
X0111614Y0135138
Y0131988
Y0128839
Y0125689
X0121063Y0131988
Y0135138
X0121063Y0138287
X0124213
X0127362
X0130512
X0130512Y0135138
X0127362
X0124213
Y0131988
X0127362
X0130512
X0130512Y0141437
X0127362
X0124213
X0121063
X0117913
X0114764
X0111614
X0663779Y0112992
X0666929
X0670079
X0673228
X0676378
X0679528
X0679528Y0109843
X0676378
Y0106693
X0679528
Y0103543
X0676378
Y0100394
X0679528
X0679528Y0097244
X0676378
X0673228
X0670079
X0666929
X0663779
X0663779Y0100394
X0666929
X0670079
X0673228
Y0103543
Y0106693
Y0109843
X0670079
X0666929
Y0106693
X0670079
Y0103543
X0666929
X0663779
Y0106693
Y0109843
X0663779Y0094095
X0666929
X0670079
X0673228
X0676378
X0679528
X0682677
Y0097244
X0682677Y0100394
Y0103543
Y0106693
Y0109843
X0682677Y0112992
X0718504Y0159646
Y0163583
X0682677Y0265354
Y0268504
X0682677Y0271654
Y0274803
Y0277953
Y0281102
X0682677Y0284252
X0718504Y0330906
Y0334842
X0679528Y0284252
X0676378
X0673229
X0670079
X0666929
X066378
X066378Y0281102
Y0277953
X0666929
Y0281102
X0670079
Y0277953
X0673228
Y0281102
X0676378
X0679528
Y0277953
X0676378
Y0274803
X0679528
Y0271654
X0676378
X0676378Y0268504
X0679528
Y0265354
X0676378
X0673229
X0670079
X0666929
X066378
Y0268504
X0666929
X0670079
X0673229
X0673228Y0271654
X0670079
X0666929
X066378
Y0274803
X0666929
X0670079
X0673228
X0130512Y0293799
X0127362
X0124213
X0121063
X0117913
X0114764
X0111614
X0111614Y0296949
Y0300098
X0114764
Y0296949
X0117913
Y0300098
X0121063
Y0296949
X0124213
X0127362
Y0300098
X0124213
Y0303248
X0127362
Y0306398
X0124213
X0124213Y0309547
X0127362
X0130512
X0130512Y0306398
Y0303248
Y0300098
Y0296949
X0121063Y0303248
Y0306398
X0121063Y0309547
X0117913
X0114764
X0111614
X0111614Y0306398
X0114764
X0117913
Y0303248
X0114764
X0111614
X0111614Y0312697
X0114764
X0117913
X0121063
X0124213
X0127362
X0130512
X0075788Y0247146
Y0243209
X0075787Y0427067
Y0431004
X0111614Y0477658
X0114764
X0117913
X0121063
X0124213
X0127362
X0130512
X0130512Y0480807
Y0483957
X0127362
Y0480807
X0124213
Y0483957
X0121063
Y0480807
X0117913
X0114764
Y0483957
X0117913
Y0487106
X0114764
Y0490256
X0117913
X0117913Y0493405
X0114764
X0111614
X0111614Y0490256
Y0487106
Y0483957
Y0480807
X0121063Y0487106
Y0490256
X0121063Y0493405
X0124213
X0127362
X0130512
X0130512Y0490256
X0127362
X0124213
Y0487106
X0127362
X0130512
X0130512Y0496555
X0127362
X0124213
X0121063
X0117913
X0114764
X0111614
X0663779Y046811
X0666929
X0670079
X0673228
X0676378
X0679528
X0679528Y0464961
X0676378
Y0461811
X0679528
Y0458661
X0676378
Y0455512
X0679528
X0679528Y0452362
X0676378
X0673228
X0670079
X0666929
X0663779
X0663779Y0455512
X0666929
X0670079
X0673228
Y0458661
Y0461811
Y0464961
X0670079
X0666929
Y0461811
X0670079
Y0458661
X0666929
X0663779
Y0461811
Y0464961
X0663779Y0449213
X0666929
X0670079
X0673228
X0676378
X0679528
X0682677
Y0452362
X0682677Y0455512
Y0458661
Y0461811
Y0464961
X0682677Y046811
X0718504Y0514764
Y0518701
X0682677Y0620472
Y0623622
X0682677Y0626772
Y0629921
Y0633071
Y063622
X0682677Y063937
X0718504Y0686024
Y0689961
X0679528Y063937
X0676378
X0673229
X0670079
X0666929
X066378
X066378Y063622
Y0633071
X0666929
Y063622
X0670079
Y0633071
X0673228
Y063622
X0676378
X0679528
Y0633071
X0676378
Y0629921
X0679528
Y0626772
X0676378
X0676378Y0623622
X0679528
Y0620472
X0676378
X0673229
X0670079
X0666929
X066378
Y0623622
X0666929
X0670079
X0673229
X0673228Y0626772
X0670079
X0666929
X066378
Y0629921
X0666929
X0670079
X0673228
X0130512Y0648917
X0127362
X0124213
X0121063
X0117913
X0114764
X0111614
X0111614Y0652067
Y0655217
X0114764
Y0652067
X0117913
Y0655217
X0121063
Y0652067
X0124213
X0127362
Y0655217
X0124213
Y0658366
X0127362
Y0661516
X0124213
X0124213Y0664665
X0127362
X0130512
X0130512Y0661516
Y0658366
Y0655217
Y0652067
X0121063Y0658366
Y0661516
X0121063Y0664665
X0117913
X0114764
X0111614
X0111614Y0661516
X0114764
X0117913
Y0658366
X0114764
X0111614
X0111614Y0667815
X0114764
X0117913
X0121063
X0124213
X0127362
X0130512
X0075788Y0602264
Y0598327
T04
X0754421Y0074697
Y0084697
Y0094697
Y0104697
Y0114697
Y0124697
Y0134697
Y0144697
X003987Y0262094
Y0272094
Y0282094
Y0292094
Y0302094
Y0312094
Y0322094
Y0332094
X0754421Y0429815
Y0439815
Y0449815
Y0459815
Y0469815
Y0479815
Y0489815
Y0499815
X003987Y0617213
Y0627213
Y0637213
Y0647213
Y0657213
Y0667213
Y0677213
Y0687213
T06
X0360079Y0192854
Y0212854
X0380079
Y0192854
X0370079Y0202854
X0414213Y0193937
Y0213937
X0434213
Y0193937
X0424213Y0203937
X0360079Y0547972
X0380079
X0414213Y0549055
X0434213
Y0569055
X0414213
X0424213Y0559055
X0380079Y0567972
X0370079Y0557972
X0360079Y0567972
T07
X0754606Y0046102
X0417087Y0056102
X0377205Y0060689
X0039685Y0045689
X0754606Y0361102
X0417087Y0346102
X0377205Y0350689
X0039685Y0360689
Y0400807
X0377205Y0415807
X0417087Y0411221
X0754606Y0401221
X0417087Y0701221
X0377205Y0705807
X0039685Y0715807
X0754606Y0716221
T08
X0754921Y0011811
X003937
M30
