G04*
G04 #@! TF.GenerationSoftware,Altium Limited,Altium Designer,22.5.1 (42)*
G04*
G04 Layer_Physical_Order=2*
G04 Layer_Color=16440176*
%FSLAX25Y25*%
%MOIN*%
G70*
G04*
G04 #@! TF.SameCoordinates,832724F5-B549-4049-99F2-7D55CE51EEB7*
G04*
G04*
G04 #@! TF.FilePolarity,Positive*
G04*
G01*
G75*
%ADD119C,0.08976*%
%ADD120C,0.25000*%
%ADD122R,0.07087X0.07087*%
%ADD123O,0.21260X0.07087*%
%ADD124O,0.07087X0.21260*%
%ADD126C,0.01575*%
%ADD127C,0.01968*%
%ADD128C,0.02362*%
G36*
X374016Y3937D02*
X3937D01*
Y350394D01*
X374016D01*
Y3937D01*
D02*
G37*
%LPC*%
G36*
X149843Y344691D02*
X149370D01*
X148934Y344511D01*
X148600Y344177D01*
X148419Y343740D01*
Y343268D01*
X148600Y342831D01*
X148934Y342497D01*
X149370Y342317D01*
X149843D01*
X150279Y342497D01*
X150613Y342831D01*
X150794Y343268D01*
Y343740D01*
X150613Y344177D01*
X150279Y344511D01*
X149843Y344691D01*
D02*
G37*
G36*
X21063Y348500D02*
X20500D01*
Y335500D01*
X33500D01*
Y336062D01*
X33168Y338161D01*
X32511Y340182D01*
X31546Y342075D01*
X30297Y343795D01*
X28795Y345297D01*
X27076Y346546D01*
X25182Y347511D01*
X23161Y348167D01*
X21063Y348500D01*
D02*
G37*
G36*
X19500D02*
X18938D01*
X16839Y348167D01*
X14818Y347511D01*
X12925Y346546D01*
X11206Y345297D01*
X9703Y343795D01*
X8454Y342075D01*
X7489Y340182D01*
X6832Y338161D01*
X6500Y336062D01*
Y335500D01*
X19500D01*
Y348500D01*
D02*
G37*
G36*
X97677Y337802D02*
X97205D01*
X96768Y337621D01*
X96434Y337287D01*
X96254Y336850D01*
Y336378D01*
X96434Y335942D01*
X96768Y335608D01*
X97205Y335427D01*
X97677D01*
X98114Y335608D01*
X98448Y335942D01*
X98628Y336378D01*
Y336850D01*
X98448Y337287D01*
X98114Y337621D01*
X97677Y337802D01*
D02*
G37*
G36*
X174204Y331306D02*
X173732D01*
X173295Y331125D01*
X172961Y330791D01*
X172780Y330354D01*
Y329882D01*
X172961Y329446D01*
X173295Y329111D01*
X173732Y328931D01*
X174204D01*
X174641Y329111D01*
X174975Y329446D01*
X175155Y329882D01*
Y330354D01*
X174975Y330791D01*
X174641Y331125D01*
X174204Y331306D01*
D02*
G37*
G36*
X97436Y330912D02*
X96964D01*
X96527Y330731D01*
X96193Y330397D01*
X96013Y329961D01*
Y329488D01*
X96193Y329052D01*
X96527Y328718D01*
X96964Y328537D01*
X97436D01*
X97873Y328718D01*
X98207Y329052D01*
X98387Y329488D01*
Y329961D01*
X98207Y330397D01*
X97873Y330731D01*
X97436Y330912D01*
D02*
G37*
G36*
X358582Y338500D02*
X358020D01*
Y325500D01*
X371020D01*
Y326062D01*
X370687Y328161D01*
X370031Y330182D01*
X369066Y332076D01*
X367817Y333795D01*
X366315Y335297D01*
X364595Y336546D01*
X362702Y337511D01*
X360681Y338168D01*
X358582Y338500D01*
D02*
G37*
G36*
X357020D02*
X356457D01*
X354359Y338168D01*
X352338Y337511D01*
X350444Y336546D01*
X348725Y335297D01*
X347223Y333795D01*
X345974Y332076D01*
X345009Y330182D01*
X344352Y328161D01*
X344020Y326062D01*
Y325500D01*
X357020D01*
Y338500D01*
D02*
G37*
G36*
X33500Y334500D02*
X20500D01*
Y321500D01*
X21063D01*
X23161Y321832D01*
X25182Y322489D01*
X27076Y323454D01*
X28795Y324703D01*
X30297Y326205D01*
X31546Y327924D01*
X32511Y329818D01*
X33168Y331839D01*
X33500Y333938D01*
Y334500D01*
D02*
G37*
G36*
X19500D02*
X6500D01*
Y333938D01*
X6832Y331839D01*
X7489Y329818D01*
X8454Y327924D01*
X9703Y326205D01*
X11206Y324703D01*
X12925Y323454D01*
X14818Y322489D01*
X16839Y321832D01*
X18938Y321500D01*
X19500D01*
Y334500D01*
D02*
G37*
G36*
X120315Y322054D02*
X119843D01*
X119406Y321873D01*
X119072Y321539D01*
X118892Y321102D01*
Y320630D01*
X119072Y320194D01*
X119406Y319860D01*
X119843Y319679D01*
X120315D01*
X120752Y319860D01*
X121086Y320194D01*
X121266Y320630D01*
Y321102D01*
X121086Y321539D01*
X120752Y321873D01*
X120315Y322054D01*
D02*
G37*
G36*
X81339Y320479D02*
X80866D01*
X80430Y320298D01*
X80096Y319964D01*
X79915Y319528D01*
Y319055D01*
X80096Y318619D01*
X80430Y318285D01*
X80866Y318104D01*
X81339D01*
X81775Y318285D01*
X82109Y318619D01*
X82290Y319055D01*
Y319528D01*
X82109Y319964D01*
X81775Y320298D01*
X81339Y320479D01*
D02*
G37*
G36*
X159685Y318116D02*
X159213D01*
X158776Y317936D01*
X158442Y317602D01*
X158262Y317165D01*
Y316693D01*
X158442Y316256D01*
X158776Y315922D01*
X159213Y315742D01*
X159685D01*
X160122Y315922D01*
X160456Y316256D01*
X160636Y316693D01*
Y317165D01*
X160456Y317602D01*
X160122Y317936D01*
X159685Y318116D01*
D02*
G37*
G36*
X86457D02*
X85984D01*
X85548Y317936D01*
X85214Y317602D01*
X85033Y317165D01*
Y316693D01*
X85214Y316256D01*
X85548Y315922D01*
X85984Y315742D01*
X86457D01*
X86893Y315922D01*
X87227Y316256D01*
X87408Y316693D01*
Y317165D01*
X87227Y317602D01*
X86893Y317936D01*
X86457Y318116D01*
D02*
G37*
G36*
X89236Y316187D02*
X88764D01*
X88327Y316007D01*
X87994Y315673D01*
X87813Y315236D01*
Y314764D01*
X87994Y314327D01*
X88327Y313993D01*
X88764Y313813D01*
X89236D01*
X89673Y313993D01*
X90007Y314327D01*
X90188Y314764D01*
Y315236D01*
X90007Y315673D01*
X89673Y316007D01*
X89236Y316187D01*
D02*
G37*
G36*
X297874Y317329D02*
X297402D01*
X296965Y317148D01*
X296631Y316814D01*
X296450Y316378D01*
Y315905D01*
X296631Y315469D01*
X296943Y315157D01*
X296631Y314846D01*
X296450Y314409D01*
Y313937D01*
X296631Y313501D01*
X296638Y313494D01*
X296611Y313393D01*
X296354Y313183D01*
X296025Y313135D01*
X295948Y313211D01*
X295512Y313392D01*
X295040D01*
X294603Y313211D01*
X294269Y312877D01*
X294088Y312441D01*
Y311968D01*
X294269Y311532D01*
X294603Y311198D01*
X295040Y311017D01*
X295512D01*
X295948Y311198D01*
X296146Y311396D01*
X296457Y311483D01*
X296767Y311396D01*
X296965Y311198D01*
X297402Y311017D01*
X297874D01*
X298310Y311198D01*
X298644Y311532D01*
X298825Y311968D01*
Y312441D01*
X298644Y312877D01*
X298333Y313189D01*
X298644Y313501D01*
X298825Y313937D01*
Y314409D01*
X298644Y314846D01*
X298333Y315157D01*
X298644Y315469D01*
X298825Y315905D01*
Y316378D01*
X298644Y316814D01*
X298310Y317148D01*
X297874Y317329D01*
D02*
G37*
G36*
X67165Y315164D02*
X66693D01*
X66257Y314983D01*
X65923Y314649D01*
X65742Y314212D01*
Y313740D01*
X65923Y313304D01*
X66257Y312970D01*
X66693Y312789D01*
X67165D01*
X67602Y312970D01*
X67936Y313304D01*
X68117Y313740D01*
Y314212D01*
X67936Y314649D01*
X67602Y314983D01*
X67165Y315164D01*
D02*
G37*
G36*
X64213D02*
X63740D01*
X63304Y314983D01*
X62970Y314649D01*
X62789Y314212D01*
Y313740D01*
X62970Y313304D01*
X63304Y312970D01*
X63740Y312789D01*
X64213D01*
X64649Y312970D01*
X64983Y313304D01*
X65164Y313740D01*
Y314212D01*
X64983Y314649D01*
X64649Y314983D01*
X64213Y315164D01*
D02*
G37*
G36*
X61260D02*
X60787D01*
X60351Y314983D01*
X60017Y314649D01*
X59836Y314212D01*
Y313740D01*
X60017Y313304D01*
X60351Y312970D01*
X60787Y312789D01*
X61260D01*
X61696Y312970D01*
X62030Y313304D01*
X62211Y313740D01*
Y314212D01*
X62030Y314649D01*
X61696Y314983D01*
X61260Y315164D01*
D02*
G37*
G36*
X94736Y314168D02*
X94264D01*
X93827Y313987D01*
X93493Y313653D01*
X93313Y313216D01*
Y312744D01*
X93493Y312308D01*
X93827Y311974D01*
X94264Y311793D01*
X94736D01*
X95173Y311974D01*
X95507Y312308D01*
X95688Y312744D01*
Y313216D01*
X95507Y313653D01*
X95173Y313987D01*
X94736Y314168D01*
D02*
G37*
G36*
X371020Y324500D02*
X358020D01*
Y311500D01*
X358582D01*
X360681Y311832D01*
X362702Y312489D01*
X364595Y313454D01*
X366315Y314703D01*
X367817Y316205D01*
X369066Y317924D01*
X370031Y319818D01*
X370687Y321839D01*
X371020Y323938D01*
Y324500D01*
D02*
G37*
G36*
X357020D02*
X344020D01*
Y323938D01*
X344352Y321839D01*
X345009Y319818D01*
X345974Y317924D01*
X347223Y316205D01*
X348725Y314703D01*
X350444Y313454D01*
X352338Y312489D01*
X354359Y311832D01*
X356457Y311500D01*
X357020D01*
Y324500D01*
D02*
G37*
G36*
X155736Y312687D02*
X155264D01*
X154827Y312507D01*
X154493Y312173D01*
X154313Y311736D01*
Y311264D01*
X154493Y310827D01*
X154827Y310493D01*
X155264Y310313D01*
X155736D01*
X156173Y310493D01*
X156507Y310827D01*
X156687Y311264D01*
Y311736D01*
X156507Y312173D01*
X156173Y312507D01*
X155736Y312687D01*
D02*
G37*
G36*
X182520Y311424D02*
X182047D01*
X181611Y311243D01*
X181277Y310909D01*
X181096Y310472D01*
Y310000D01*
X181277Y309564D01*
X181611Y309229D01*
X182047Y309049D01*
X182520D01*
X182956Y309229D01*
X183290Y309564D01*
X183471Y310000D01*
Y310472D01*
X183290Y310909D01*
X182956Y311243D01*
X182520Y311424D01*
D02*
G37*
G36*
X158236Y310687D02*
X157764D01*
X157327Y310507D01*
X156993Y310173D01*
X156813Y309736D01*
Y309264D01*
X156993Y308827D01*
X157327Y308493D01*
X157764Y308313D01*
X158236D01*
X158673Y308493D01*
X159007Y308827D01*
X159187Y309264D01*
Y309736D01*
X159007Y310173D01*
X158673Y310507D01*
X158236Y310687D01*
D02*
G37*
G36*
X140000Y310187D02*
X139528D01*
X139091Y310007D01*
X138757Y309673D01*
X138576Y309236D01*
Y308764D01*
X138757Y308327D01*
X139091Y307993D01*
X139528Y307813D01*
X140000D01*
X140436Y307993D01*
X140770Y308327D01*
X140951Y308764D01*
Y309236D01*
X140770Y309673D01*
X140436Y310007D01*
X140000Y310187D01*
D02*
G37*
G36*
X24728Y310949D02*
X20685D01*
Y306906D01*
X24728D01*
Y310949D01*
D02*
G37*
G36*
X19685D02*
X15642D01*
Y306906D01*
X19685D01*
Y310949D01*
D02*
G37*
G36*
X83307Y312211D02*
X82835D01*
X82398Y312030D01*
X82064Y311696D01*
X81884Y311260D01*
Y310787D01*
X82064Y310351D01*
X82376Y310039D01*
X82064Y309728D01*
X81884Y309291D01*
Y308819D01*
X82064Y308383D01*
X82376Y308071D01*
X82064Y307759D01*
X81884Y307323D01*
Y306850D01*
X82064Y306414D01*
X82398Y306080D01*
X82835Y305899D01*
X83307D01*
X83744Y306080D01*
X84078Y306414D01*
X84258Y306850D01*
Y307323D01*
X84078Y307759D01*
X83766Y308071D01*
X84078Y308383D01*
X84258Y308819D01*
Y309291D01*
X84078Y309728D01*
X83766Y310039D01*
X84078Y310351D01*
X84258Y310787D01*
Y311260D01*
X84078Y311696D01*
X83744Y312030D01*
X83307Y312211D01*
D02*
G37*
G36*
X180551Y307880D02*
X180079D01*
X179642Y307699D01*
X179308Y307365D01*
X179128Y306929D01*
Y306457D01*
X179308Y306020D01*
X179642Y305686D01*
X180079Y305505D01*
X180551D01*
X180988Y305686D01*
X181322Y306020D01*
X181502Y306457D01*
Y306929D01*
X181322Y307365D01*
X180988Y307699D01*
X180551Y307880D01*
D02*
G37*
G36*
X297087Y306306D02*
X296614D01*
X296178Y306125D01*
X295844Y305791D01*
X295663Y305354D01*
Y304882D01*
X295844Y304445D01*
X296178Y304111D01*
X296614Y303931D01*
X297087D01*
X297523Y304111D01*
X297857Y304445D01*
X298038Y304882D01*
Y305354D01*
X297857Y305791D01*
X297523Y306125D01*
X297087Y306306D01*
D02*
G37*
G36*
X162047Y307487D02*
X161575D01*
X161138Y307306D01*
X160804Y306972D01*
X160624Y306535D01*
Y306063D01*
X160658Y305980D01*
X160608Y305855D01*
X160308Y305518D01*
X160000D01*
X159564Y305337D01*
X159230Y305003D01*
X159049Y304567D01*
Y304095D01*
X159230Y303658D01*
X159564Y303324D01*
X160000Y303143D01*
X160473D01*
X160909Y303324D01*
X161243Y303658D01*
X161424Y304095D01*
Y304567D01*
X161389Y304650D01*
X161440Y304775D01*
X161739Y305112D01*
X162047D01*
X162484Y305293D01*
X162818Y305627D01*
X162998Y306063D01*
Y306535D01*
X162818Y306972D01*
X162484Y307306D01*
X162047Y307487D01*
D02*
G37*
G36*
X24728Y305906D02*
X20685D01*
Y301862D01*
X24728D01*
Y305906D01*
D02*
G37*
G36*
X19685D02*
X15642D01*
Y301862D01*
X19685D01*
Y305906D01*
D02*
G37*
G36*
X172555Y305518D02*
X172082D01*
X171646Y305337D01*
X171312Y305003D01*
X171131Y304567D01*
Y304095D01*
X171312Y303658D01*
X171646Y303324D01*
X172082Y303143D01*
X172366D01*
X172610Y303057D01*
X172828Y302715D01*
Y302507D01*
X173009Y302071D01*
X173343Y301737D01*
X173780Y301556D01*
X174252D01*
X174688Y301737D01*
X175022Y302071D01*
X175203Y302507D01*
Y302979D01*
X175022Y303416D01*
X174688Y303750D01*
X174252Y303931D01*
X173968D01*
X173724Y304017D01*
X173506Y304358D01*
Y304567D01*
X173325Y305003D01*
X172991Y305337D01*
X172555Y305518D01*
D02*
G37*
G36*
X157335Y303931D02*
X156863D01*
X156427Y303750D01*
X156093Y303416D01*
X155912Y302979D01*
Y302507D01*
X156093Y302071D01*
X156427Y301737D01*
X156863Y301556D01*
X157335D01*
X157772Y301737D01*
X158106Y302071D01*
X158287Y302507D01*
Y302979D01*
X158106Y303416D01*
X157772Y303750D01*
X157335Y303931D01*
D02*
G37*
G36*
X43543Y301975D02*
X43071D01*
X42635Y301794D01*
X42301Y301460D01*
X42120Y301024D01*
Y300551D01*
X42301Y300115D01*
X42635Y299781D01*
X43071Y299600D01*
X43543D01*
X43980Y299781D01*
X44314Y300115D01*
X44495Y300551D01*
Y301024D01*
X44314Y301460D01*
X43980Y301794D01*
X43543Y301975D01*
D02*
G37*
G36*
X81236Y300109D02*
X80764D01*
X80327Y299928D01*
X79993Y299594D01*
X79813Y299157D01*
Y298685D01*
X79993Y298249D01*
X80327Y297915D01*
X80764Y297734D01*
X81236D01*
X81673Y297915D01*
X82007Y298249D01*
X82187Y298685D01*
Y299157D01*
X82007Y299594D01*
X81673Y299928D01*
X81236Y300109D01*
D02*
G37*
G36*
X97436Y298187D02*
X96964D01*
X96527Y298007D01*
X96193Y297673D01*
X96121Y297497D01*
X95579D01*
X95507Y297673D01*
X95173Y298007D01*
X94736Y298187D01*
X94264D01*
X93827Y298007D01*
X93493Y297673D01*
X93313Y297236D01*
Y296764D01*
X93493Y296327D01*
X93827Y295993D01*
X94264Y295813D01*
X94736D01*
X95173Y295993D01*
X95507Y296327D01*
X95579Y296503D01*
X96121D01*
X96193Y296327D01*
X96527Y295993D01*
X96964Y295813D01*
X97436D01*
X97873Y295993D01*
X98207Y296327D01*
X98387Y296764D01*
Y297236D01*
X98207Y297673D01*
X97873Y298007D01*
X97436Y298187D01*
D02*
G37*
G36*
X125433Y301581D02*
X124961D01*
X124524Y301400D01*
X124190Y301066D01*
X124010Y300630D01*
Y300157D01*
X124190Y299721D01*
X124524Y299387D01*
X124961Y299206D01*
X125433D01*
X125742Y299334D01*
X126106Y298970D01*
X125978Y298661D01*
Y298189D01*
X126159Y297752D01*
X126493Y297418D01*
X126929Y297238D01*
X127402D01*
X127838Y297418D01*
X128172Y297752D01*
X128353Y298189D01*
Y298661D01*
X128172Y299098D01*
X127838Y299432D01*
X127402Y299613D01*
X126929D01*
X126620Y299485D01*
X126257Y299849D01*
X126384Y300157D01*
Y300630D01*
X126204Y301066D01*
X125870Y301400D01*
X125433Y301581D01*
D02*
G37*
G36*
X102236Y298187D02*
X101764D01*
X101328Y298007D01*
X100994Y297673D01*
X100813Y297236D01*
Y296764D01*
X100994Y296327D01*
X101328Y295993D01*
X101764Y295813D01*
X102236D01*
X102673Y295993D01*
X103007Y296327D01*
X103188Y296764D01*
Y297236D01*
X103007Y297673D01*
X102673Y298007D01*
X102236Y298187D01*
D02*
G37*
G36*
X89236D02*
X88764D01*
X88327Y298007D01*
X87994Y297673D01*
X87813Y297236D01*
Y296764D01*
X87994Y296327D01*
X88327Y295993D01*
X88764Y295813D01*
X89236D01*
X89673Y295993D01*
X90007Y296327D01*
X90188Y296764D01*
Y297236D01*
X90007Y297673D01*
X89673Y298007D01*
X89236Y298187D01*
D02*
G37*
G36*
X136457Y297644D02*
X135984D01*
X135548Y297463D01*
X135214Y297129D01*
X135033Y296693D01*
Y296220D01*
X135214Y295784D01*
X135548Y295450D01*
X135984Y295269D01*
X136457D01*
X136893Y295450D01*
X137227Y295784D01*
X137408Y296220D01*
Y296693D01*
X137227Y297129D01*
X136893Y297463D01*
X136457Y297644D01*
D02*
G37*
G36*
X47731D02*
X47258D01*
X46822Y297463D01*
X46488Y297129D01*
X46307Y296693D01*
Y296220D01*
X46488Y295784D01*
X46822Y295450D01*
X47258Y295269D01*
X47731D01*
X48167Y295450D01*
X48501Y295784D01*
X48682Y296220D01*
Y296693D01*
X48501Y297129D01*
X48167Y297463D01*
X47731Y297644D01*
D02*
G37*
G36*
X107130Y296463D02*
X106658D01*
X106221Y296282D01*
X105887Y295948D01*
X105707Y295512D01*
Y295039D01*
X105887Y294603D01*
X106221Y294269D01*
X106658Y294088D01*
X107130D01*
X107567Y294269D01*
X107901Y294603D01*
X108081Y295039D01*
Y295512D01*
X107901Y295948D01*
X107567Y296282D01*
X107130Y296463D01*
D02*
G37*
G36*
X86236Y296187D02*
X85764D01*
X85328Y296007D01*
X84993Y295673D01*
X84813Y295236D01*
Y294764D01*
X84993Y294327D01*
X85328Y293993D01*
X85764Y293813D01*
X86236D01*
X86673Y293993D01*
X87007Y294327D01*
X87187Y294764D01*
Y295236D01*
X87007Y295673D01*
X86673Y296007D01*
X86236Y296187D01*
D02*
G37*
G36*
X110866Y296069D02*
X110394D01*
X109957Y295888D01*
X109623Y295554D01*
X109443Y295118D01*
Y294646D01*
X109623Y294209D01*
X109957Y293875D01*
X110394Y293694D01*
X110866D01*
X111303Y293875D01*
X111637Y294209D01*
X111817Y294646D01*
Y295118D01*
X111637Y295554D01*
X111303Y295888D01*
X110866Y296069D01*
D02*
G37*
G36*
X129370Y295675D02*
X128898D01*
X128461Y295495D01*
X128127Y295161D01*
X127947Y294724D01*
Y294252D01*
X128127Y293815D01*
X128461Y293481D01*
X128898Y293301D01*
X129370D01*
X129807Y293481D01*
X130141Y293815D01*
X130321Y294252D01*
Y294724D01*
X130141Y295161D01*
X129807Y295495D01*
X129370Y295675D01*
D02*
G37*
G36*
X20704Y300349D02*
X19666D01*
X18663Y300080D01*
X17764Y299561D01*
X17030Y298827D01*
X16511Y297927D01*
X16242Y296925D01*
Y295886D01*
X16511Y294883D01*
X17030Y293984D01*
X17764Y293250D01*
X18663Y292731D01*
X19666Y292462D01*
X20704D01*
X21707Y292731D01*
X22606Y293250D01*
X23341Y293984D01*
X23860Y294883D01*
X24128Y295886D01*
Y296925D01*
X23860Y297927D01*
X23341Y298827D01*
X22606Y299561D01*
X21707Y300080D01*
X20704Y300349D01*
D02*
G37*
G36*
X84528Y293418D02*
X84055D01*
X83619Y293237D01*
X83285Y292903D01*
X83104Y292467D01*
Y291995D01*
X83285Y291558D01*
X83619Y291224D01*
X84055Y291043D01*
X84528D01*
X84964Y291224D01*
X85298Y291558D01*
X85479Y291995D01*
Y292467D01*
X85298Y292903D01*
X84964Y293237D01*
X84528Y293418D01*
D02*
G37*
G36*
X151811Y293510D02*
X151339D01*
X150902Y293329D01*
X150568Y292995D01*
X150388Y292559D01*
Y292087D01*
X150568Y291650D01*
X150902Y291316D01*
X151339Y291135D01*
X151811D01*
X152120Y291263D01*
X152484Y290899D01*
X152356Y290591D01*
Y290118D01*
X152537Y289682D01*
X152871Y289348D01*
X153307Y289167D01*
X153780D01*
X154216Y289348D01*
X154550Y289682D01*
X154731Y290118D01*
Y290591D01*
X154550Y291027D01*
X154216Y291361D01*
X153780Y291542D01*
X153307D01*
X152998Y291414D01*
X152634Y291778D01*
X152762Y292087D01*
Y292559D01*
X152582Y292995D01*
X152248Y293329D01*
X151811Y293510D01*
D02*
G37*
G36*
X120315Y291542D02*
X119843D01*
X119406Y291361D01*
X119072Y291027D01*
X118892Y290591D01*
Y290118D01*
X119072Y289682D01*
X119406Y289348D01*
X119843Y289167D01*
X120315D01*
X120752Y289348D01*
X121086Y289682D01*
X121266Y290118D01*
Y290591D01*
X121086Y291027D01*
X120752Y291361D01*
X120315Y291542D01*
D02*
G37*
G36*
X149843Y289573D02*
X149370D01*
X148934Y289392D01*
X148600Y289058D01*
X148419Y288622D01*
Y288150D01*
X148600Y287713D01*
X148934Y287379D01*
X149370Y287198D01*
X149843D01*
X150279Y287379D01*
X150613Y287713D01*
X150794Y288150D01*
Y288622D01*
X150613Y289058D01*
X150279Y289392D01*
X149843Y289573D01*
D02*
G37*
G36*
X36851Y287802D02*
X36378D01*
X35942Y287621D01*
X35608Y287287D01*
X35427Y286850D01*
Y286378D01*
X35608Y285942D01*
X35942Y285608D01*
X36378Y285427D01*
X36851D01*
X37287Y285608D01*
X37621Y285942D01*
X37802Y286378D01*
Y286850D01*
X37621Y287287D01*
X37287Y287621D01*
X36851Y287802D01*
D02*
G37*
G36*
X132126Y287605D02*
X131654D01*
X131217Y287424D01*
X130883Y287090D01*
X130702Y286653D01*
Y286181D01*
X130883Y285745D01*
X131217Y285411D01*
X131654Y285230D01*
X132126D01*
X132562Y285411D01*
X132896Y285745D01*
X133077Y286181D01*
Y286653D01*
X132896Y287090D01*
X132562Y287424D01*
X132126Y287605D01*
D02*
G37*
G36*
X82126Y288195D02*
X81654D01*
X81217Y288014D01*
X80883Y287680D01*
X80703Y287244D01*
Y286772D01*
X80883Y286335D01*
X81114Y286104D01*
X81118Y285668D01*
X81073Y285520D01*
X80785Y285231D01*
X80783Y285227D01*
X80246Y285238D01*
X80141Y285493D01*
X79807Y285827D01*
X79370Y286008D01*
X78898D01*
X78461Y285827D01*
X78127Y285493D01*
X77990Y285162D01*
X77603Y285097D01*
X77470Y285113D01*
X77385Y285318D01*
X77051Y285652D01*
X76614Y285833D01*
X76142D01*
X75705Y285652D01*
X75371Y285318D01*
X75191Y284882D01*
Y284409D01*
X75371Y283973D01*
X75705Y283639D01*
X76142Y283458D01*
X76614D01*
X77051Y283639D01*
X77385Y283973D01*
X77522Y284304D01*
X77909Y284369D01*
X78042Y284353D01*
X78127Y284148D01*
X78461Y283814D01*
X78898Y283633D01*
X79370D01*
X79807Y283814D01*
X80141Y284148D01*
X80142Y284152D01*
X80679Y284141D01*
X80785Y283886D01*
X81119Y283552D01*
X81555Y283371D01*
X82028D01*
X82464Y283552D01*
X82798Y283886D01*
X82979Y284322D01*
Y284794D01*
X82798Y285231D01*
X82567Y285462D01*
X82563Y285898D01*
X82608Y286047D01*
X82897Y286335D01*
X83077Y286772D01*
Y287244D01*
X82897Y287680D01*
X82563Y288014D01*
X82126Y288195D01*
D02*
G37*
G36*
X122283Y286620D02*
X121811D01*
X121375Y286440D01*
X121041Y286106D01*
X120860Y285669D01*
Y285197D01*
X121041Y284760D01*
X121375Y284426D01*
X121811Y284246D01*
X122283D01*
X122720Y284426D01*
X123054Y284760D01*
X123235Y285197D01*
Y285669D01*
X123054Y286106D01*
X122720Y286440D01*
X122283Y286620D01*
D02*
G37*
G36*
X20704Y290349D02*
X19666D01*
X18663Y290080D01*
X17764Y289561D01*
X17030Y288827D01*
X16511Y287928D01*
X16242Y286925D01*
Y285886D01*
X16511Y284883D01*
X17030Y283984D01*
X17764Y283250D01*
X18663Y282731D01*
X19666Y282462D01*
X20704D01*
X21707Y282731D01*
X22606Y283250D01*
X23341Y283984D01*
X23860Y284883D01*
X24128Y285886D01*
Y286925D01*
X23860Y287928D01*
X23341Y288827D01*
X22606Y289561D01*
X21707Y290080D01*
X20704Y290349D01*
D02*
G37*
G36*
X120602Y282742D02*
X120130D01*
X119694Y282561D01*
X119360Y282227D01*
X119179Y281790D01*
Y281318D01*
X119360Y280882D01*
X119694Y280548D01*
X120130Y280367D01*
X120602D01*
X121039Y280548D01*
X121373Y280882D01*
X121554Y281318D01*
Y281790D01*
X121373Y282227D01*
X121039Y282561D01*
X120602Y282742D01*
D02*
G37*
G36*
X34685Y282683D02*
X34213D01*
X33776Y282503D01*
X33442Y282169D01*
X33261Y281732D01*
Y281260D01*
X33442Y280823D01*
X33776Y280489D01*
X34213Y280309D01*
X34685D01*
X35122Y280489D01*
X35456Y280823D01*
X35636Y281260D01*
Y281732D01*
X35456Y282169D01*
X35122Y282503D01*
X34685Y282683D01*
D02*
G37*
G36*
X182520Y281502D02*
X182047D01*
X181611Y281322D01*
X181277Y280988D01*
X181096Y280551D01*
Y280079D01*
X181277Y279642D01*
X181611Y279308D01*
X182047Y279128D01*
X182520D01*
X182956Y279308D01*
X183290Y279642D01*
X183471Y280079D01*
Y280551D01*
X183290Y280988D01*
X182956Y281322D01*
X182520Y281502D01*
D02*
G37*
G36*
X123268Y281254D02*
X122795D01*
X122359Y281073D01*
X122025Y280739D01*
X121844Y280303D01*
Y279831D01*
X122025Y279394D01*
X122359Y279060D01*
X122795Y278879D01*
X123268D01*
X123704Y279060D01*
X124038Y279394D01*
X124219Y279831D01*
Y280303D01*
X124038Y280739D01*
X123704Y281073D01*
X123268Y281254D01*
D02*
G37*
G36*
X120602Y279567D02*
X120130D01*
X119694Y279386D01*
X119360Y279052D01*
X119179Y278616D01*
Y278143D01*
X119360Y277707D01*
X119694Y277373D01*
X120130Y277192D01*
X120602D01*
X121039Y277373D01*
X121373Y277707D01*
X121554Y278143D01*
Y278616D01*
X121373Y279052D01*
X121039Y279386D01*
X120602Y279567D01*
D02*
G37*
G36*
X131339Y279140D02*
X130866D01*
X130430Y278959D01*
X130096Y278625D01*
X129915Y278189D01*
Y277716D01*
X130096Y277280D01*
X130430Y276946D01*
X130866Y276765D01*
X131339D01*
X131775Y276946D01*
X132109Y277280D01*
X132290Y277716D01*
Y278189D01*
X132109Y278625D01*
X131775Y278959D01*
X131339Y279140D01*
D02*
G37*
G36*
X123268Y277567D02*
X122795D01*
X122359Y277386D01*
X122025Y277052D01*
X121844Y276616D01*
Y276202D01*
X121844Y276143D01*
X121382Y276029D01*
X121373Y276052D01*
X121039Y276386D01*
X120602Y276567D01*
X120130D01*
X119694Y276386D01*
X119360Y276052D01*
X119179Y275616D01*
Y275143D01*
X119192Y275113D01*
X118957Y274613D01*
X118520Y274432D01*
X118186Y274098D01*
X118006Y273661D01*
Y273189D01*
X118186Y272752D01*
X118520Y272418D01*
X118957Y272238D01*
X119429D01*
X119866Y272418D01*
X120200Y272752D01*
X120380Y273189D01*
Y273661D01*
X120368Y273692D01*
X120602Y274192D01*
X121039Y274373D01*
X121373Y274707D01*
X121554Y275143D01*
Y275557D01*
X121554Y275616D01*
X122016Y275729D01*
X122025Y275707D01*
X122359Y275373D01*
X122795Y275192D01*
X123268D01*
X123704Y275373D01*
X124038Y275707D01*
X124219Y276143D01*
Y276616D01*
X124038Y277052D01*
X123704Y277386D01*
X123268Y277567D01*
D02*
G37*
G36*
X48662Y277565D02*
X48189D01*
X47753Y277384D01*
X47419Y277050D01*
X47238Y276614D01*
Y276142D01*
X47419Y275705D01*
X47753Y275371D01*
X48189Y275190D01*
X48662D01*
X49098Y275371D01*
X49432Y275705D01*
X49613Y276142D01*
Y276614D01*
X49432Y277050D01*
X49098Y277384D01*
X48662Y277565D01*
D02*
G37*
G36*
X38819D02*
X38347D01*
X37910Y277384D01*
X37576Y277050D01*
X37395Y276614D01*
Y276142D01*
X37576Y275705D01*
X37910Y275371D01*
X38347Y275190D01*
X38819D01*
X39255Y275371D01*
X39589Y275705D01*
X39770Y276142D01*
Y276614D01*
X39589Y277050D01*
X39255Y277384D01*
X38819Y277565D01*
D02*
G37*
G36*
X174204Y276187D02*
X173732D01*
X173295Y276007D01*
X172961Y275673D01*
X172780Y275236D01*
Y274764D01*
X172961Y274327D01*
X173295Y273993D01*
X173732Y273813D01*
X174204D01*
X174641Y273993D01*
X174975Y274327D01*
X175155Y274764D01*
Y275236D01*
X174975Y275673D01*
X174641Y276007D01*
X174204Y276187D01*
D02*
G37*
G36*
X20704Y280349D02*
X19666D01*
X18663Y280080D01*
X17764Y279561D01*
X17030Y278827D01*
X16511Y277927D01*
X16242Y276925D01*
Y275886D01*
X16511Y274883D01*
X17030Y273984D01*
X17764Y273250D01*
X18663Y272731D01*
X19666Y272462D01*
X20704D01*
X21707Y272731D01*
X22606Y273250D01*
X23341Y273984D01*
X23860Y274883D01*
X24128Y275886D01*
Y276925D01*
X23860Y277927D01*
X23341Y278827D01*
X22606Y279561D01*
X21707Y280080D01*
X20704Y280349D01*
D02*
G37*
G36*
X81929Y277368D02*
X81457D01*
X81020Y277188D01*
X80686Y276854D01*
X80506Y276417D01*
Y275945D01*
X80686Y275508D01*
X81020Y275174D01*
X81457Y274994D01*
X81634D01*
X81749Y274994D01*
X81849Y274494D01*
X81747Y274451D01*
X81605Y274392D01*
X81271Y274058D01*
X81090Y273622D01*
Y273150D01*
X81271Y272713D01*
X81605Y272379D01*
X82041Y272198D01*
X82513D01*
X82950Y272379D01*
X83284Y272713D01*
X83465Y273150D01*
Y273622D01*
X83284Y274058D01*
X82950Y274392D01*
X82513Y274573D01*
X82336D01*
X82221Y274573D01*
X82121Y275073D01*
X82224Y275116D01*
X82366Y275174D01*
X82700Y275508D01*
X82880Y275945D01*
Y276417D01*
X82700Y276854D01*
X82366Y277188D01*
X81929Y277368D01*
D02*
G37*
G36*
Y268904D02*
X81457D01*
X81020Y268723D01*
X80686Y268389D01*
X80506Y267953D01*
Y267480D01*
X80686Y267044D01*
X81020Y266710D01*
X81457Y266529D01*
X81929D01*
X82366Y266710D01*
X82700Y267044D01*
X82880Y267480D01*
Y267953D01*
X82700Y268389D01*
X82366Y268723D01*
X81929Y268904D01*
D02*
G37*
G36*
X47880Y267487D02*
X47408D01*
X46972Y267306D01*
X46638Y266972D01*
X46457Y266535D01*
Y266063D01*
X46638Y265627D01*
X46972Y265293D01*
X47408Y265112D01*
X47880D01*
X48317Y265293D01*
X48651Y265627D01*
X48832Y266063D01*
Y266535D01*
X48651Y266972D01*
X48317Y267306D01*
X47880Y267487D01*
D02*
G37*
G36*
X81929Y265951D02*
X81457D01*
X81020Y265770D01*
X80686Y265436D01*
X80506Y265000D01*
Y264528D01*
X80686Y264091D01*
X81020Y263757D01*
X81457Y263576D01*
X81929D01*
X82366Y263757D01*
X82700Y264091D01*
X82880Y264528D01*
Y265000D01*
X82700Y265436D01*
X82366Y265770D01*
X81929Y265951D01*
D02*
G37*
G36*
X20704Y270349D02*
X19666D01*
X18663Y270080D01*
X17764Y269561D01*
X17030Y268827D01*
X16511Y267928D01*
X16242Y266925D01*
Y265886D01*
X16511Y264883D01*
X17030Y263984D01*
X17764Y263250D01*
X18663Y262731D01*
X19666Y262462D01*
X20704D01*
X21707Y262731D01*
X22606Y263250D01*
X23341Y263984D01*
X23860Y264883D01*
X24128Y265886D01*
Y266925D01*
X23860Y267928D01*
X23341Y268827D01*
X22606Y269561D01*
X21707Y270080D01*
X20704Y270349D01*
D02*
G37*
G36*
X159685Y262998D02*
X159213D01*
X158776Y262818D01*
X158442Y262484D01*
X158262Y262047D01*
Y261575D01*
X158442Y261138D01*
X158776Y260804D01*
X159213Y260624D01*
X159685D01*
X160122Y260804D01*
X160456Y261138D01*
X160636Y261575D01*
Y262047D01*
X160456Y262484D01*
X160122Y262818D01*
X159685Y262998D01*
D02*
G37*
G36*
X81929D02*
X81457D01*
X81020Y262818D01*
X80686Y262484D01*
X80506Y262047D01*
Y261575D01*
X80686Y261138D01*
X81020Y260804D01*
X81457Y260624D01*
X81929D01*
X82366Y260804D01*
X82700Y261138D01*
X82880Y261575D01*
Y262047D01*
X82700Y262484D01*
X82366Y262818D01*
X81929Y262998D01*
D02*
G37*
G36*
X87441Y262014D02*
X86969D01*
X86532Y261833D01*
X86198Y261499D01*
X86017Y261063D01*
Y260591D01*
X86198Y260154D01*
X86532Y259820D01*
X86969Y259639D01*
X87441D01*
X87877Y259820D01*
X88212Y260154D01*
X88392Y260591D01*
Y261063D01*
X88212Y261499D01*
X87877Y261833D01*
X87441Y262014D01*
D02*
G37*
G36*
X92975Y259964D02*
X92503D01*
X92066Y259783D01*
X91732Y259449D01*
X91398Y259783D01*
X90962Y259964D01*
X90490D01*
X90053Y259783D01*
X89719Y259449D01*
X89538Y259012D01*
Y258540D01*
X89719Y258103D01*
X90053Y257769D01*
X90490Y257589D01*
X90962D01*
X91398Y257769D01*
X91732Y258103D01*
X92066Y257769D01*
X92503Y257589D01*
X92975D01*
X93412Y257769D01*
X93746Y258103D01*
X93926Y258540D01*
Y259012D01*
X93746Y259449D01*
X93412Y259783D01*
X92975Y259964D01*
D02*
G37*
G36*
X113941Y259620D02*
X113469D01*
X113032Y259440D01*
X112737Y259144D01*
X112455Y259123D01*
X112173Y259144D01*
X111877Y259440D01*
X111441Y259620D01*
X110969D01*
X110532Y259440D01*
X110198Y259106D01*
X110017Y258669D01*
Y258197D01*
X110198Y257760D01*
X110532Y257426D01*
X110969Y257246D01*
X111441D01*
X111877Y257426D01*
X112173Y257722D01*
X112455Y257743D01*
X112737Y257722D01*
X113032Y257426D01*
X113469Y257246D01*
X113941D01*
X114377Y257426D01*
X114711Y257760D01*
X114892Y258197D01*
Y258669D01*
X114711Y259106D01*
X114377Y259440D01*
X113941Y259620D01*
D02*
G37*
G36*
X104167Y259219D02*
X103695D01*
X103258Y259038D01*
X102924Y258704D01*
X102743Y258268D01*
Y257795D01*
X102924Y257359D01*
X103258Y257025D01*
X103695Y256844D01*
X104167D01*
X104603Y257025D01*
X104937Y257359D01*
X105118Y257795D01*
Y258268D01*
X104937Y258704D01*
X104603Y259038D01*
X104167Y259219D01*
D02*
G37*
G36*
X122031Y258133D02*
X121558D01*
X121122Y257952D01*
X120788Y257618D01*
X120607Y257182D01*
Y256709D01*
X120788Y256273D01*
X121122Y255939D01*
X121558Y255758D01*
X122031D01*
X122467Y255939D01*
X122801Y256273D01*
X122982Y256709D01*
Y257182D01*
X122801Y257618D01*
X122467Y257952D01*
X122031Y258133D01*
D02*
G37*
G36*
X50433Y256109D02*
X49961D01*
X49524Y255928D01*
X49190Y255594D01*
X49010Y255157D01*
Y254685D01*
X49190Y254249D01*
X49524Y253915D01*
X49961Y253734D01*
X50433D01*
X50870Y253915D01*
X51204Y254249D01*
X51384Y254685D01*
Y255157D01*
X51204Y255594D01*
X50870Y255928D01*
X50433Y256109D01*
D02*
G37*
G36*
X140000Y255069D02*
X139528D01*
X139091Y254889D01*
X138757Y254554D01*
X138576Y254118D01*
Y253646D01*
X138757Y253209D01*
X139091Y252875D01*
X139528Y252694D01*
X140000D01*
X140436Y252875D01*
X140770Y253209D01*
X140951Y253646D01*
Y254118D01*
X140770Y254554D01*
X140436Y254889D01*
X140000Y255069D01*
D02*
G37*
G36*
X20704Y260349D02*
X19666D01*
X18663Y260080D01*
X17764Y259561D01*
X17030Y258827D01*
X16511Y257927D01*
X16242Y256925D01*
Y255886D01*
X16511Y254883D01*
X17030Y253984D01*
X17764Y253250D01*
X18663Y252731D01*
X19666Y252462D01*
X20704D01*
X21707Y252731D01*
X22606Y253250D01*
X23341Y253984D01*
X23860Y254883D01*
X24128Y255886D01*
Y256925D01*
X23860Y257927D01*
X23341Y258827D01*
X22606Y259561D01*
X21707Y260080D01*
X20704Y260349D01*
D02*
G37*
G36*
X63622Y250006D02*
X63150D01*
X62713Y249826D01*
X62402Y249514D01*
X62090Y249826D01*
X61654Y250006D01*
X61181D01*
X60745Y249826D01*
X60433Y249514D01*
X60122Y249826D01*
X59685Y250006D01*
X59213D01*
X58776Y249826D01*
X58442Y249492D01*
X58262Y249055D01*
Y248583D01*
X58442Y248146D01*
X58754Y247835D01*
X58442Y247523D01*
X58262Y247087D01*
Y246614D01*
X58442Y246178D01*
X58754Y245866D01*
X58442Y245554D01*
X58262Y245118D01*
Y244646D01*
X58442Y244209D01*
X58754Y243898D01*
X58442Y243586D01*
X58262Y243149D01*
Y242677D01*
X58442Y242241D01*
X58776Y241907D01*
X59213Y241726D01*
X59685D01*
X60122Y241907D01*
X60433Y242218D01*
X60745Y241907D01*
X61181Y241726D01*
X61654D01*
X62090Y241907D01*
X62402Y242218D01*
X62713Y241907D01*
X63150Y241726D01*
X63622D01*
X64059Y241907D01*
X64393Y242241D01*
X64573Y242677D01*
Y243149D01*
X64393Y243586D01*
X64081Y243898D01*
X64393Y244209D01*
X64573Y244646D01*
Y245118D01*
X64393Y245554D01*
X64081Y245866D01*
X64393Y246178D01*
X64573Y246614D01*
Y247087D01*
X64393Y247523D01*
X64081Y247835D01*
X64393Y248146D01*
X64573Y248583D01*
Y249055D01*
X64393Y249492D01*
X64059Y249826D01*
X63622Y250006D01*
D02*
G37*
G36*
X107126Y251679D02*
X106654D01*
X106217Y251499D01*
X105883Y251165D01*
X105702Y250728D01*
Y250256D01*
X105883Y249819D01*
X106217Y249485D01*
X106654Y249305D01*
X107126D01*
X107562Y249485D01*
X107896Y249819D01*
X108077Y250256D01*
Y250728D01*
X107896Y251165D01*
X107562Y251499D01*
X107126Y251679D01*
D02*
G37*
G36*
X20704Y250349D02*
X19666D01*
X18663Y250080D01*
X17764Y249561D01*
X17030Y248827D01*
X16511Y247927D01*
X16242Y246925D01*
Y245886D01*
X16511Y244883D01*
X17030Y243984D01*
X17764Y243250D01*
X18663Y242731D01*
X19666Y242462D01*
X20704D01*
X21707Y242731D01*
X22606Y243250D01*
X23341Y243984D01*
X23860Y244883D01*
X24128Y245886D01*
Y246925D01*
X23860Y247927D01*
X23341Y248827D01*
X22606Y249561D01*
X21707Y250080D01*
X20704Y250349D01*
D02*
G37*
G36*
X97480Y243412D02*
X97008D01*
X96572Y243231D01*
X96238Y242897D01*
X96057Y242461D01*
Y241988D01*
X96238Y241552D01*
X96572Y241218D01*
X97008Y241037D01*
X97480D01*
X97917Y241218D01*
X98251Y241552D01*
X98432Y241988D01*
Y242461D01*
X98251Y242897D01*
X97917Y243231D01*
X97480Y243412D01*
D02*
G37*
G36*
X114016Y242920D02*
X113543D01*
X113107Y242739D01*
X112773Y242405D01*
X112592Y241968D01*
Y241496D01*
X112773Y241060D01*
X113107Y240726D01*
X113543Y240545D01*
X114016D01*
X114452Y240726D01*
X114786Y241060D01*
X114967Y241496D01*
Y241968D01*
X114786Y242405D01*
X114452Y242739D01*
X114016Y242920D01*
D02*
G37*
G36*
X90898Y241235D02*
X90425D01*
X89989Y241054D01*
X89655Y240720D01*
X89474Y240284D01*
Y239811D01*
X89655Y239375D01*
X89989Y239041D01*
X90425Y238860D01*
X90898D01*
X91064Y238929D01*
X91447Y238546D01*
X91442Y238535D01*
Y238062D01*
X91623Y237626D01*
X91957Y237292D01*
X92393Y237111D01*
X92866D01*
X93302Y237292D01*
X93636Y237626D01*
X93817Y238062D01*
Y238535D01*
X93636Y238971D01*
X93302Y239305D01*
X92866Y239486D01*
X92393D01*
X92226Y239417D01*
X91844Y239800D01*
X91849Y239811D01*
Y240284D01*
X91668Y240720D01*
X91334Y241054D01*
X90898Y241235D01*
D02*
G37*
G36*
X241378Y239376D02*
X240906D01*
X240469Y239196D01*
X240135Y238861D01*
X239954Y238425D01*
Y237953D01*
X240135Y237516D01*
X240469Y237182D01*
X240906Y237001D01*
X241378D01*
X241814Y237182D01*
X242148Y237516D01*
X242329Y237953D01*
Y238425D01*
X242148Y238861D01*
X241814Y239196D01*
X241378Y239376D01*
D02*
G37*
G36*
X87638Y236620D02*
X87165D01*
X86729Y236440D01*
X86395Y236106D01*
X86214Y235669D01*
Y235197D01*
X86395Y234760D01*
X86729Y234426D01*
X87165Y234246D01*
X87638D01*
X88074Y234426D01*
X88408Y234760D01*
X88589Y235197D01*
Y235669D01*
X88408Y236106D01*
X88074Y236440D01*
X87638Y236620D01*
D02*
G37*
G36*
X20704Y240349D02*
X19666D01*
X18663Y240080D01*
X17764Y239561D01*
X17030Y238827D01*
X16511Y237928D01*
X16242Y236925D01*
Y235886D01*
X16511Y234883D01*
X17030Y233984D01*
X17764Y233250D01*
X18663Y232731D01*
X19666Y232462D01*
X20704D01*
X21707Y232731D01*
X22606Y233250D01*
X23341Y233984D01*
X23860Y234883D01*
X24128Y235886D01*
Y236925D01*
X23860Y237928D01*
X23341Y238827D01*
X22606Y239561D01*
X21707Y240080D01*
X20704Y240349D01*
D02*
G37*
G36*
X140984Y230518D02*
X140512D01*
X140076Y230337D01*
X139764Y230026D01*
X139452Y230337D01*
X139016Y230518D01*
X138543D01*
X138107Y230337D01*
X137795Y230026D01*
X137484Y230337D01*
X137047Y230518D01*
X136575D01*
X136138Y230337D01*
X135804Y230003D01*
X135624Y229567D01*
Y229095D01*
X135804Y228658D01*
X136138Y228324D01*
X136575Y228143D01*
X137047D01*
X137484Y228324D01*
X137795Y228636D01*
X138107Y228324D01*
X138543Y228143D01*
X139016D01*
X139325Y228271D01*
X139689Y227907D01*
X139561Y227598D01*
Y227126D01*
X139742Y226690D01*
X140053Y226378D01*
X139742Y226066D01*
X139561Y225630D01*
Y225157D01*
X139689Y224849D01*
X139325Y224485D01*
X139016Y224613D01*
X138543D01*
X138107Y224432D01*
X137795Y224120D01*
X137484Y224432D01*
X137047Y224613D01*
X136575D01*
X136138Y224432D01*
X135804Y224098D01*
X135624Y223661D01*
Y223189D01*
X135804Y222752D01*
X136138Y222418D01*
X136575Y222238D01*
X137047D01*
X137484Y222418D01*
X137795Y222730D01*
X138107Y222418D01*
X138543Y222238D01*
X139016D01*
X139452Y222418D01*
X139764Y222730D01*
X140076Y222418D01*
X140512Y222238D01*
X140984D01*
X141421Y222418D01*
X141755Y222752D01*
X141936Y223189D01*
Y223661D01*
X141755Y224098D01*
X141443Y224409D01*
X141755Y224721D01*
X141936Y225157D01*
Y225630D01*
X141755Y226066D01*
X141443Y226378D01*
X141755Y226690D01*
X141936Y227126D01*
Y227598D01*
X141755Y228035D01*
X141443Y228346D01*
X141755Y228658D01*
X141936Y229095D01*
Y229567D01*
X141755Y230003D01*
X141421Y230337D01*
X140984Y230518D01*
D02*
G37*
G36*
X149812Y230087D02*
X149339D01*
X148903Y229907D01*
X148569Y229573D01*
X148388Y229136D01*
Y228664D01*
X148569Y228227D01*
X148903Y227893D01*
X149339Y227712D01*
X149812D01*
X150248Y227893D01*
X150582Y228227D01*
X150763Y228664D01*
Y229136D01*
X150582Y229573D01*
X150248Y229907D01*
X149812Y230087D01*
D02*
G37*
G36*
X44331Y224022D02*
X43858D01*
X43422Y223841D01*
X43088Y223507D01*
X42907Y223071D01*
Y222598D01*
X43088Y222162D01*
X43422Y221828D01*
X43858Y221647D01*
X44331D01*
X44767Y221828D01*
X45101Y222162D01*
X45282Y222598D01*
Y223071D01*
X45101Y223507D01*
X44767Y223841D01*
X44331Y224022D01*
D02*
G37*
G36*
X140984Y216739D02*
X140512D01*
X140076Y216558D01*
X139764Y216246D01*
X139452Y216558D01*
X139016Y216739D01*
X138543D01*
X138107Y216558D01*
X137795Y216246D01*
X137484Y216558D01*
X137047Y216739D01*
X136575D01*
X136138Y216558D01*
X135804Y216224D01*
X135624Y215787D01*
Y215315D01*
X135804Y214879D01*
X136138Y214545D01*
X136575Y214364D01*
X137047D01*
X137484Y214545D01*
X137795Y214856D01*
X138107Y214545D01*
X138543Y214364D01*
X139016D01*
X139452Y214545D01*
X139764Y214856D01*
X140076Y214545D01*
X140512Y214364D01*
X140984D01*
X141421Y214545D01*
X141755Y214879D01*
X141936Y215315D01*
Y215787D01*
X141755Y216224D01*
X141421Y216558D01*
X140984Y216739D01*
D02*
G37*
G36*
X44725Y218116D02*
X44252D01*
X43816Y217936D01*
X43482Y217602D01*
X43301Y217165D01*
Y216693D01*
X43482Y216256D01*
X43816Y215922D01*
X44252Y215742D01*
X44725D01*
X45161Y215922D01*
X45495Y216256D01*
X45676Y216693D01*
Y217165D01*
X45495Y217602D01*
X45161Y217936D01*
X44725Y218116D01*
D02*
G37*
G36*
X179370Y214179D02*
X178898D01*
X178461Y213999D01*
X178150Y213687D01*
X177838Y213999D01*
X177402Y214179D01*
X176929D01*
X176493Y213999D01*
X176159Y213665D01*
X175978Y213228D01*
Y212756D01*
X176159Y212319D01*
X176493Y211985D01*
X176929Y211805D01*
X177402D01*
X177838Y211985D01*
X178150Y212297D01*
X178461Y211985D01*
X178898Y211805D01*
X179370D01*
X179807Y211985D01*
X180141Y212319D01*
X180321Y212756D01*
Y213228D01*
X180141Y213665D01*
X179807Y213999D01*
X179370Y214179D01*
D02*
G37*
G36*
X111260D02*
X110787D01*
X110351Y213999D01*
X110017Y213665D01*
X109836Y213228D01*
Y212756D01*
X110017Y212319D01*
X110351Y211985D01*
X110787Y211805D01*
X111260D01*
X111696Y211985D01*
X112030Y212319D01*
X112211Y212756D01*
Y213228D01*
X112030Y213665D01*
X111696Y213999D01*
X111260Y214179D01*
D02*
G37*
G36*
X159685Y200991D02*
X159213D01*
X158776Y200810D01*
X158442Y200476D01*
X158262Y200039D01*
Y199567D01*
X158442Y199130D01*
X158776Y198796D01*
X159213Y198616D01*
X159685D01*
X160122Y198796D01*
X160456Y199130D01*
X160636Y199567D01*
Y200039D01*
X160456Y200476D01*
X160122Y200810D01*
X159685Y200991D01*
D02*
G37*
G36*
X140000Y200006D02*
X139528D01*
X139091Y199826D01*
X138757Y199492D01*
X138576Y199055D01*
Y198583D01*
X138757Y198146D01*
X139091Y197812D01*
X139528Y197631D01*
X140000D01*
X140436Y197812D01*
X140770Y198146D01*
X140951Y198583D01*
Y199055D01*
X140770Y199492D01*
X140436Y199826D01*
X140000Y200006D01*
D02*
G37*
G36*
X135079Y197054D02*
X134606D01*
X134170Y196873D01*
X133836Y196539D01*
X133655Y196102D01*
Y195630D01*
X133836Y195194D01*
X134170Y194860D01*
X134606Y194679D01*
X135079D01*
X135515Y194860D01*
X135849Y195194D01*
X136030Y195630D01*
Y196102D01*
X135849Y196539D01*
X135515Y196873D01*
X135079Y197054D01*
D02*
G37*
G36*
X121096Y195124D02*
X120624D01*
X120187Y194944D01*
X119853Y194609D01*
X119673Y194173D01*
Y193701D01*
X119853Y193264D01*
X120187Y192930D01*
X120624Y192750D01*
X121096D01*
X121533Y192930D01*
X121867Y193264D01*
X122047Y193701D01*
Y194173D01*
X121867Y194609D01*
X121533Y194944D01*
X121096Y195124D01*
D02*
G37*
G36*
X171502Y194101D02*
X171030D01*
X170594Y193920D01*
X170260Y193586D01*
X170079Y193149D01*
Y192677D01*
X170260Y192241D01*
X170594Y191907D01*
X171030Y191726D01*
X171502D01*
X171939Y191907D01*
X172273Y192241D01*
X172454Y192677D01*
Y193149D01*
X172273Y193586D01*
X171939Y193920D01*
X171502Y194101D01*
D02*
G37*
G36*
X168543Y193116D02*
X168071D01*
X167635Y192936D01*
X167301Y192602D01*
X167120Y192165D01*
Y191693D01*
X167301Y191256D01*
X167635Y190922D01*
X168071Y190742D01*
X168543D01*
X168980Y190922D01*
X169314Y191256D01*
X169495Y191693D01*
Y192165D01*
X169314Y192602D01*
X168980Y192936D01*
X168543Y193116D01*
D02*
G37*
G36*
X146102D02*
X145630D01*
X145194Y192936D01*
X144860Y192602D01*
X144679Y192165D01*
Y191693D01*
X144860Y191256D01*
X145194Y190922D01*
X145630Y190742D01*
X146102D01*
X146539Y190922D01*
X146873Y191256D01*
X147054Y191693D01*
Y192165D01*
X146873Y192602D01*
X146539Y192936D01*
X146102Y193116D01*
D02*
G37*
G36*
X51417Y195085D02*
X50945D01*
X50509Y194904D01*
X50175Y194570D01*
X49994Y194134D01*
Y193661D01*
X50028Y193578D01*
X49978Y193453D01*
X49678Y193116D01*
X49370D01*
X48934Y192936D01*
X48600Y192602D01*
X48419Y192165D01*
Y191693D01*
X48600Y191256D01*
X48934Y190922D01*
X49370Y190742D01*
X49843D01*
X50279Y190922D01*
X50613Y191256D01*
X50794Y191693D01*
Y192165D01*
X50759Y192248D01*
X50810Y192374D01*
X51109Y192710D01*
X51417D01*
X51854Y192891D01*
X52188Y193225D01*
X52369Y193661D01*
Y194134D01*
X52188Y194570D01*
X51854Y194904D01*
X51417Y195085D01*
D02*
G37*
G36*
X173465Y190951D02*
X172992D01*
X172556Y190770D01*
X172222Y190436D01*
X172041Y190000D01*
Y189527D01*
X172222Y189091D01*
X172556Y188757D01*
X172992Y188576D01*
X173465D01*
X173901Y188757D01*
X174235Y189091D01*
X174416Y189527D01*
Y190000D01*
X174235Y190436D01*
X173901Y190770D01*
X173465Y190951D01*
D02*
G37*
G36*
X361116Y192654D02*
X360894D01*
Y187665D01*
X365882D01*
Y187888D01*
X365508Y189284D01*
X364786Y190535D01*
X363764Y191557D01*
X362512Y192280D01*
X361116Y192654D01*
D02*
G37*
G36*
X359894D02*
X359671D01*
X358276Y192280D01*
X357024Y191557D01*
X356002Y190535D01*
X355280Y189284D01*
X354906Y187888D01*
Y187665D01*
X359894D01*
Y192654D01*
D02*
G37*
G36*
X341116D02*
X340894D01*
Y187665D01*
X345882D01*
Y187888D01*
X345508Y189284D01*
X344785Y190535D01*
X343764Y191557D01*
X342512Y192280D01*
X341116Y192654D01*
D02*
G37*
G36*
X339894D02*
X339671D01*
X338276Y192280D01*
X337024Y191557D01*
X336002Y190535D01*
X335280Y189284D01*
X334906Y187888D01*
Y187665D01*
X339894D01*
Y192654D01*
D02*
G37*
G36*
X116378Y189376D02*
X115906D01*
X115469Y189196D01*
X115135Y188862D01*
X114954Y188425D01*
Y187953D01*
X115135Y187516D01*
X115469Y187182D01*
X115906Y187002D01*
X116378D01*
X116814Y187182D01*
X117148Y187516D01*
X117329Y187953D01*
Y188425D01*
X117148Y188862D01*
X116814Y189196D01*
X116378Y189376D01*
D02*
G37*
G36*
X84488Y187520D02*
X84016D01*
X83579Y187340D01*
X83245Y187006D01*
X83065Y186569D01*
Y186097D01*
X83245Y185660D01*
X83579Y185326D01*
X84016Y185146D01*
X84488D01*
X84925Y185326D01*
X85259Y185660D01*
X85439Y186097D01*
Y186569D01*
X85259Y187006D01*
X84925Y187340D01*
X84488Y187520D01*
D02*
G37*
G36*
X56339Y185833D02*
X55866D01*
X55430Y185652D01*
X55096Y185318D01*
X54915Y184882D01*
Y184409D01*
X55096Y183973D01*
X55430Y183639D01*
X55866Y183458D01*
X56339D01*
X56775Y183639D01*
X57109Y183973D01*
X57290Y184409D01*
Y184882D01*
X57109Y185318D01*
X56775Y185652D01*
X56339Y185833D01*
D02*
G37*
G36*
X365882Y186665D02*
X360894D01*
Y181677D01*
X361116D01*
X362512Y182051D01*
X363764Y182774D01*
X364786Y183795D01*
X365508Y185047D01*
X365882Y186443D01*
Y186665D01*
D02*
G37*
G36*
X359894D02*
X354906D01*
Y186443D01*
X355280Y185047D01*
X356002Y183795D01*
X357024Y182774D01*
X358276Y182051D01*
X359671Y181677D01*
X359894D01*
Y186665D01*
D02*
G37*
G36*
X345882D02*
X340894D01*
Y181677D01*
X341116D01*
X342512Y182051D01*
X343764Y182774D01*
X344785Y183795D01*
X345508Y185047D01*
X345882Y186443D01*
Y186665D01*
D02*
G37*
G36*
X339894D02*
X334906D01*
Y186443D01*
X335280Y185047D01*
X336002Y183795D01*
X337024Y182774D01*
X338276Y182051D01*
X339671Y181677D01*
X339894D01*
Y186665D01*
D02*
G37*
G36*
X54370Y183274D02*
X53898D01*
X53461Y183093D01*
X53127Y182759D01*
X52947Y182323D01*
Y181850D01*
X53127Y181414D01*
X53461Y181080D01*
X53898Y180899D01*
X54370D01*
X54807Y181080D01*
X55141Y181414D01*
X55321Y181850D01*
Y182323D01*
X55141Y182759D01*
X54807Y183093D01*
X54370Y183274D01*
D02*
G37*
G36*
X77992D02*
X77520D01*
X77083Y183093D01*
X76749Y182759D01*
X76569Y182323D01*
Y181850D01*
X76749Y181414D01*
X77083Y181080D01*
X77520Y180899D01*
X77992D01*
X78301Y181027D01*
X78665Y180663D01*
X78537Y180354D01*
Y179882D01*
X78718Y179446D01*
X79052Y179111D01*
X79488Y178931D01*
X79961D01*
X80397Y179111D01*
X80731Y179446D01*
X80912Y179882D01*
Y180354D01*
X80731Y180791D01*
X80397Y181125D01*
X79961Y181306D01*
X79488D01*
X79180Y181178D01*
X78816Y181542D01*
X78943Y181850D01*
Y182323D01*
X78763Y182759D01*
X78429Y183093D01*
X77992Y183274D01*
D02*
G37*
G36*
X20185Y188769D02*
Y177665D01*
X24268D01*
Y184252D01*
X24112Y185438D01*
X23654Y186543D01*
X22926Y187492D01*
X21976Y188221D01*
X20871Y188678D01*
X20185Y188769D01*
D02*
G37*
G36*
X19185D02*
X18499Y188678D01*
X17394Y188221D01*
X16445Y187492D01*
X15717Y186543D01*
X15259Y185438D01*
X15103Y184252D01*
Y177665D01*
X19185D01*
Y188769D01*
D02*
G37*
G36*
X104173Y179534D02*
X103701D01*
X103264Y179353D01*
X102930Y179019D01*
X102750Y178583D01*
Y178110D01*
X102930Y177674D01*
X103264Y177340D01*
X103701Y177159D01*
X104173D01*
X104610Y177340D01*
X104944Y177674D01*
X105124Y178110D01*
Y178583D01*
X104944Y179019D01*
X104610Y179353D01*
X104173Y179534D01*
D02*
G37*
G36*
X351116Y182653D02*
X349671D01*
X348275Y182280D01*
X347024Y181557D01*
X346002Y180535D01*
X345280Y179284D01*
X344906Y177888D01*
Y176443D01*
X345280Y175047D01*
X346002Y173795D01*
X347024Y172774D01*
X348275Y172051D01*
X349671Y171677D01*
X351116D01*
X352512Y172051D01*
X353764Y172774D01*
X354785Y173795D01*
X355508Y175047D01*
X355882Y176443D01*
Y177888D01*
X355508Y179284D01*
X354785Y180535D01*
X353764Y181557D01*
X352512Y182280D01*
X351116Y182653D01*
D02*
G37*
G36*
X149843Y173432D02*
X149370D01*
X148934Y173251D01*
X148600Y172917D01*
X148419Y172480D01*
Y172008D01*
X148600Y171572D01*
X148934Y171238D01*
X149370Y171057D01*
X149843D01*
X150279Y171238D01*
X150613Y171572D01*
X150794Y172008D01*
Y172480D01*
X150613Y172917D01*
X150279Y173251D01*
X149843Y173432D01*
D02*
G37*
G36*
X361116Y172653D02*
X360894D01*
Y167665D01*
X365882D01*
Y167888D01*
X365508Y169284D01*
X364786Y170535D01*
X363764Y171557D01*
X362512Y172280D01*
X361116Y172653D01*
D02*
G37*
G36*
X359894D02*
X359671D01*
X358276Y172280D01*
X357024Y171557D01*
X356002Y170535D01*
X355280Y169284D01*
X354906Y167888D01*
Y167665D01*
X359894D01*
Y172653D01*
D02*
G37*
G36*
X341116D02*
X340894D01*
Y167665D01*
X345882D01*
Y167888D01*
X345508Y169284D01*
X344785Y170535D01*
X343764Y171557D01*
X342512Y172280D01*
X341116Y172653D01*
D02*
G37*
G36*
X339894D02*
X339671D01*
X338276Y172280D01*
X337024Y171557D01*
X336002Y170535D01*
X335280Y169284D01*
X334906Y167888D01*
Y167665D01*
X339894D01*
Y172653D01*
D02*
G37*
G36*
X24268Y176665D02*
X20185D01*
Y165562D01*
X20871Y165652D01*
X21976Y166110D01*
X22926Y166838D01*
X23654Y167787D01*
X24112Y168893D01*
X24268Y170079D01*
Y176665D01*
D02*
G37*
G36*
X19185D02*
X15103D01*
Y170079D01*
X15259Y168893D01*
X15717Y167787D01*
X16445Y166838D01*
X17394Y166110D01*
X18499Y165652D01*
X19185Y165562D01*
Y176665D01*
D02*
G37*
G36*
X43307Y190001D02*
X42278Y189865D01*
X41319Y189468D01*
X40495Y188836D01*
X39863Y188012D01*
X39465Y187053D01*
X39330Y186024D01*
Y168307D01*
X39465Y167278D01*
X39863Y166318D01*
X40495Y165495D01*
X41319Y164863D01*
X42278Y164465D01*
X43307Y164330D01*
X44337Y164465D01*
X45296Y164863D01*
X46120Y165495D01*
X46752Y166318D01*
X47149Y167278D01*
X47284Y168307D01*
Y186024D01*
X47149Y187053D01*
X46752Y188012D01*
X46120Y188836D01*
X45296Y189468D01*
X44337Y189865D01*
X43307Y190001D01*
D02*
G37*
G36*
X97677Y166542D02*
X97205D01*
X96768Y166361D01*
X96434Y166027D01*
X96254Y165591D01*
Y165118D01*
X96434Y164682D01*
X96768Y164348D01*
X97205Y164167D01*
X97677D01*
X98114Y164348D01*
X98448Y164682D01*
X98628Y165118D01*
Y165591D01*
X98448Y166027D01*
X98114Y166361D01*
X97677Y166542D01*
D02*
G37*
G36*
X365882Y166665D02*
X360894D01*
Y161677D01*
X361116D01*
X362512Y162051D01*
X363764Y162774D01*
X364786Y163795D01*
X365508Y165047D01*
X365882Y166443D01*
Y166665D01*
D02*
G37*
G36*
X359894D02*
X354906D01*
Y166443D01*
X355280Y165047D01*
X356002Y163795D01*
X357024Y162774D01*
X358276Y162051D01*
X359671Y161677D01*
X359894D01*
Y166665D01*
D02*
G37*
G36*
X345882D02*
X340894D01*
Y161677D01*
X341116D01*
X342512Y162051D01*
X343764Y162774D01*
X344785Y163795D01*
X345508Y165047D01*
X345882Y166443D01*
Y166665D01*
D02*
G37*
G36*
X339894D02*
X334906D01*
Y166443D01*
X335280Y165047D01*
X336002Y163795D01*
X337024Y162774D01*
X338276Y162051D01*
X339671Y161677D01*
X339894D01*
Y166665D01*
D02*
G37*
G36*
X38583Y163244D02*
X31996D01*
Y159161D01*
X43099D01*
X43009Y159847D01*
X42551Y160953D01*
X41823Y161902D01*
X40874Y162630D01*
X39769Y163088D01*
X38583Y163244D01*
D02*
G37*
G36*
X30996D02*
X24410D01*
X23223Y163088D01*
X22118Y162630D01*
X21169Y161902D01*
X20441Y160953D01*
X19983Y159847D01*
X19893Y159161D01*
X30996D01*
Y163244D01*
D02*
G37*
G36*
X174257Y159993D02*
X173784D01*
X173348Y159812D01*
X173014Y159478D01*
X172833Y159042D01*
Y158569D01*
X173014Y158133D01*
X173348Y157799D01*
X173784Y157618D01*
X174257D01*
X174693Y157799D01*
X175027Y158133D01*
X175208Y158569D01*
Y159042D01*
X175027Y159478D01*
X174693Y159812D01*
X174257Y159993D01*
D02*
G37*
G36*
X97436Y159652D02*
X96964D01*
X96527Y159471D01*
X96193Y159137D01*
X96013Y158701D01*
Y158228D01*
X96193Y157792D01*
X96527Y157458D01*
X96964Y157277D01*
X97436D01*
X97873Y157458D01*
X98207Y157792D01*
X98387Y158228D01*
Y158701D01*
X98207Y159137D01*
X97873Y159471D01*
X97436Y159652D01*
D02*
G37*
G36*
X43099Y158161D02*
X31996D01*
Y154079D01*
X38583D01*
X39769Y154235D01*
X40874Y154693D01*
X41823Y155421D01*
X42551Y156370D01*
X43009Y157475D01*
X43099Y158161D01*
D02*
G37*
G36*
X30996D02*
X19893D01*
X19983Y157475D01*
X20441Y156370D01*
X21169Y155421D01*
X22118Y154693D01*
X23223Y154235D01*
X24410Y154079D01*
X30996D01*
Y158161D01*
D02*
G37*
G36*
X120368Y150741D02*
X119895D01*
X119459Y150560D01*
X119125Y150226D01*
X118944Y149790D01*
Y149317D01*
X119125Y148881D01*
X119459Y148547D01*
X119895Y148366D01*
X120368D01*
X120804Y148547D01*
X121138Y148881D01*
X121319Y149317D01*
Y149790D01*
X121138Y150226D01*
X120804Y150560D01*
X120368Y150741D01*
D02*
G37*
G36*
X81339Y149219D02*
X80866D01*
X80430Y149038D01*
X80096Y148704D01*
X79915Y148268D01*
Y147795D01*
X80096Y147359D01*
X80430Y147025D01*
X80866Y146844D01*
X81339D01*
X81775Y147025D01*
X82109Y147359D01*
X82290Y147795D01*
Y148268D01*
X82109Y148704D01*
X81775Y149038D01*
X81339Y149219D01*
D02*
G37*
G36*
X159738Y146804D02*
X159265D01*
X158829Y146623D01*
X158495Y146289D01*
X158314Y145853D01*
Y145380D01*
X158495Y144944D01*
X158829Y144610D01*
X159265Y144429D01*
X159738D01*
X160174Y144610D01*
X160508Y144944D01*
X160689Y145380D01*
Y145853D01*
X160508Y146289D01*
X160174Y146623D01*
X159738Y146804D01*
D02*
G37*
G36*
X86509D02*
X86037D01*
X85601Y146623D01*
X85267Y146289D01*
X85086Y145853D01*
Y145380D01*
X85267Y144944D01*
X85601Y144610D01*
X86037Y144429D01*
X86509D01*
X86946Y144610D01*
X87280Y144944D01*
X87461Y145380D01*
Y145853D01*
X87280Y146289D01*
X86946Y146623D01*
X86509Y146804D01*
D02*
G37*
G36*
X89289Y144875D02*
X88817D01*
X88380Y144694D01*
X88046Y144360D01*
X87865Y143924D01*
Y143451D01*
X88046Y143015D01*
X88380Y142681D01*
X88817Y142500D01*
X89289D01*
X89725Y142681D01*
X90059Y143015D01*
X90240Y143451D01*
Y143924D01*
X90059Y144360D01*
X89725Y144694D01*
X89289Y144875D01*
D02*
G37*
G36*
X297874Y146069D02*
X297402D01*
X296965Y145888D01*
X296631Y145554D01*
X296450Y145118D01*
Y144646D01*
X296631Y144209D01*
X296943Y143898D01*
X296631Y143586D01*
X296450Y143150D01*
Y142677D01*
X296631Y142241D01*
X296638Y142234D01*
X296611Y142133D01*
X296354Y141923D01*
X296025Y141875D01*
X295948Y141952D01*
X295512Y142132D01*
X295039D01*
X294603Y141952D01*
X294269Y141618D01*
X294088Y141181D01*
Y140709D01*
X294269Y140272D01*
X294603Y139938D01*
X295039Y139758D01*
X295512D01*
X295948Y139938D01*
X296146Y140136D01*
X296457Y140223D01*
X296767Y140136D01*
X296965Y139938D01*
X297402Y139758D01*
X297874D01*
X298310Y139938D01*
X298644Y140272D01*
X298825Y140709D01*
Y141181D01*
X298644Y141618D01*
X298333Y141929D01*
X298644Y142241D01*
X298825Y142677D01*
Y143150D01*
X298644Y143586D01*
X298333Y143898D01*
X298644Y144209D01*
X298825Y144646D01*
Y145118D01*
X298644Y145554D01*
X298310Y145888D01*
X297874Y146069D01*
D02*
G37*
G36*
X67218Y143851D02*
X66746D01*
X66309Y143670D01*
X65975Y143336D01*
X65794Y142900D01*
Y142428D01*
X65975Y141991D01*
X66309Y141657D01*
X66746Y141476D01*
X67218D01*
X67655Y141657D01*
X67989Y141991D01*
X68169Y142428D01*
Y142900D01*
X67989Y143336D01*
X67655Y143670D01*
X67218Y143851D01*
D02*
G37*
G36*
X64265D02*
X63793D01*
X63357Y143670D01*
X63023Y143336D01*
X62842Y142900D01*
Y142428D01*
X63023Y141991D01*
X63357Y141657D01*
X63793Y141476D01*
X64265D01*
X64702Y141657D01*
X65036Y141991D01*
X65216Y142428D01*
Y142900D01*
X65036Y143336D01*
X64702Y143670D01*
X64265Y143851D01*
D02*
G37*
G36*
X61313D02*
X60840D01*
X60404Y143670D01*
X60070Y143336D01*
X59889Y142900D01*
Y142428D01*
X60070Y141991D01*
X60404Y141657D01*
X60840Y141476D01*
X61313D01*
X61749Y141657D01*
X62083Y141991D01*
X62264Y142428D01*
Y142900D01*
X62083Y143336D01*
X61749Y143670D01*
X61313Y143851D01*
D02*
G37*
G36*
X94789Y142855D02*
X94317D01*
X93880Y142674D01*
X93546Y142340D01*
X93365Y141904D01*
Y141431D01*
X93546Y140995D01*
X93880Y140661D01*
X94317Y140480D01*
X94789D01*
X95225Y140661D01*
X95559Y140995D01*
X95740Y141431D01*
Y141904D01*
X95559Y142340D01*
X95225Y142674D01*
X94789Y142855D01*
D02*
G37*
G36*
X155789Y141375D02*
X155317D01*
X154880Y141194D01*
X154546Y140860D01*
X154365Y140424D01*
Y139951D01*
X154546Y139515D01*
X154880Y139181D01*
X155317Y139000D01*
X155789D01*
X156225Y139181D01*
X156559Y139515D01*
X156740Y139951D01*
Y140424D01*
X156559Y140860D01*
X156225Y141194D01*
X155789Y141375D01*
D02*
G37*
G36*
X182572Y140111D02*
X182100D01*
X181664Y139930D01*
X181330Y139596D01*
X181149Y139160D01*
Y138687D01*
X181330Y138251D01*
X181664Y137917D01*
X182100Y137736D01*
X182572D01*
X183009Y137917D01*
X183343Y138251D01*
X183524Y138687D01*
Y139160D01*
X183343Y139596D01*
X183009Y139930D01*
X182572Y140111D01*
D02*
G37*
G36*
X158289Y139375D02*
X157817D01*
X157380Y139194D01*
X157046Y138860D01*
X156865Y138424D01*
Y137951D01*
X157046Y137515D01*
X157380Y137181D01*
X157817Y137000D01*
X158289D01*
X158725Y137181D01*
X159059Y137515D01*
X159240Y137951D01*
Y138424D01*
X159059Y138860D01*
X158725Y139194D01*
X158289Y139375D01*
D02*
G37*
G36*
X140000Y138927D02*
X139528D01*
X139091Y138747D01*
X138757Y138413D01*
X138576Y137976D01*
Y137504D01*
X138757Y137067D01*
X139091Y136733D01*
X139528Y136553D01*
X140000D01*
X140436Y136733D01*
X140770Y137067D01*
X140951Y137504D01*
Y137976D01*
X140770Y138413D01*
X140436Y138747D01*
X140000Y138927D01*
D02*
G37*
G36*
X83307Y140951D02*
X82835D01*
X82398Y140770D01*
X82064Y140436D01*
X81884Y140000D01*
Y139528D01*
X82064Y139091D01*
X82376Y138779D01*
X82064Y138468D01*
X81884Y138031D01*
Y137559D01*
X82064Y137123D01*
X82376Y136811D01*
X82064Y136499D01*
X81884Y136063D01*
Y135591D01*
X82064Y135154D01*
X82398Y134820D01*
X82835Y134639D01*
X83307D01*
X83744Y134820D01*
X84078Y135154D01*
X84258Y135591D01*
Y136063D01*
X84078Y136499D01*
X83766Y136811D01*
X84078Y137123D01*
X84258Y137559D01*
Y138031D01*
X84078Y138468D01*
X83766Y138779D01*
X84078Y139091D01*
X84258Y139528D01*
Y140000D01*
X84078Y140436D01*
X83744Y140770D01*
X83307Y140951D01*
D02*
G37*
G36*
X180604Y136568D02*
X180131D01*
X179695Y136387D01*
X179361Y136053D01*
X179180Y135617D01*
Y135144D01*
X179361Y134708D01*
X179695Y134374D01*
X180131Y134193D01*
X180604D01*
X181040Y134374D01*
X181374Y134708D01*
X181555Y135144D01*
Y135617D01*
X181374Y136053D01*
X181040Y136387D01*
X180604Y136568D01*
D02*
G37*
G36*
X297087Y135046D02*
X296614D01*
X296178Y134865D01*
X295844Y134531D01*
X295663Y134095D01*
Y133622D01*
X295844Y133186D01*
X296178Y132852D01*
X296614Y132671D01*
X297087D01*
X297523Y132852D01*
X297857Y133186D01*
X298038Y133622D01*
Y134095D01*
X297857Y134531D01*
X297523Y134865D01*
X297087Y135046D01*
D02*
G37*
G36*
X162100Y136174D02*
X161628D01*
X161191Y135993D01*
X160857Y135659D01*
X160676Y135223D01*
Y134750D01*
X160711Y134668D01*
X160660Y134542D01*
X160361Y134205D01*
X160053D01*
X159616Y134025D01*
X159282Y133691D01*
X159102Y133254D01*
Y132782D01*
X159282Y132345D01*
X159616Y132011D01*
X160053Y131831D01*
X160525D01*
X160962Y132011D01*
X161296Y132345D01*
X161476Y132782D01*
Y133254D01*
X161442Y133337D01*
X161492Y133462D01*
X161792Y133799D01*
X162100D01*
X162536Y133980D01*
X162870Y134314D01*
X163051Y134750D01*
Y135223D01*
X162870Y135659D01*
X162536Y135993D01*
X162100Y136174D01*
D02*
G37*
G36*
X172607Y134205D02*
X172135D01*
X171698Y134025D01*
X171364Y133691D01*
X171184Y133254D01*
Y132782D01*
X171364Y132345D01*
X171698Y132011D01*
X172135Y131831D01*
X172419D01*
X172662Y131744D01*
X172881Y131403D01*
Y131194D01*
X173062Y130758D01*
X173396Y130424D01*
X173832Y130243D01*
X174305D01*
X174741Y130424D01*
X175075Y130758D01*
X175256Y131194D01*
Y131667D01*
X175075Y132103D01*
X174741Y132437D01*
X174305Y132618D01*
X174020D01*
X173777Y132704D01*
X173558Y133046D01*
Y133254D01*
X173378Y133691D01*
X173044Y134025D01*
X172607Y134205D01*
D02*
G37*
G36*
X157388Y132618D02*
X156916D01*
X156479Y132437D01*
X156145Y132103D01*
X155965Y131667D01*
Y131194D01*
X156145Y130758D01*
X156479Y130424D01*
X156916Y130243D01*
X157388D01*
X157825Y130424D01*
X158159Y130758D01*
X158339Y131194D01*
Y131667D01*
X158159Y132103D01*
X157825Y132437D01*
X157388Y132618D01*
D02*
G37*
G36*
X43543Y130715D02*
X43071D01*
X42634Y130534D01*
X42301Y130200D01*
X42120Y129764D01*
Y129291D01*
X42301Y128855D01*
X42634Y128521D01*
X43071Y128340D01*
X43543D01*
X43980Y128521D01*
X44314Y128855D01*
X44495Y129291D01*
Y129764D01*
X44314Y130200D01*
X43980Y130534D01*
X43543Y130715D01*
D02*
G37*
G36*
X81236Y128849D02*
X80764D01*
X80327Y128668D01*
X79993Y128334D01*
X79813Y127898D01*
Y127425D01*
X79993Y126989D01*
X80327Y126655D01*
X80764Y126474D01*
X81236D01*
X81673Y126655D01*
X82007Y126989D01*
X82187Y127425D01*
Y127898D01*
X82007Y128334D01*
X81673Y128668D01*
X81236Y128849D01*
D02*
G37*
G36*
X97436Y126927D02*
X96964D01*
X96527Y126747D01*
X96193Y126413D01*
X96136Y126274D01*
X95595D01*
X95559Y126360D01*
X95225Y126694D01*
X94789Y126875D01*
X94317D01*
X93880Y126694D01*
X93546Y126360D01*
X93365Y125924D01*
Y125451D01*
X93546Y125015D01*
X93880Y124681D01*
X94317Y124500D01*
X94789D01*
X95225Y124681D01*
X95559Y125015D01*
X95617Y125153D01*
X96158D01*
X96193Y125067D01*
X96527Y124733D01*
X96964Y124553D01*
X97436D01*
X97873Y124733D01*
X98207Y125067D01*
X98387Y125504D01*
Y125976D01*
X98207Y126413D01*
X97873Y126747D01*
X97436Y126927D01*
D02*
G37*
G36*
X125486Y130269D02*
X125013D01*
X124577Y130088D01*
X124243Y129754D01*
X124062Y129317D01*
Y128845D01*
X124243Y128409D01*
X124577Y128075D01*
X125013Y127894D01*
X125486D01*
X125795Y128022D01*
X126159Y127658D01*
X126031Y127349D01*
Y126876D01*
X126212Y126440D01*
X126546Y126106D01*
X126982Y125925D01*
X127454D01*
X127891Y126106D01*
X128225Y126440D01*
X128405Y126876D01*
Y127349D01*
X128225Y127785D01*
X127891Y128119D01*
X127454Y128300D01*
X126982D01*
X126673Y128172D01*
X126309Y128536D01*
X126437Y128845D01*
Y129317D01*
X126256Y129754D01*
X125922Y130088D01*
X125486Y130269D01*
D02*
G37*
G36*
X102236Y126927D02*
X101764D01*
X101327Y126747D01*
X100993Y126413D01*
X100813Y125976D01*
Y125504D01*
X100993Y125067D01*
X101327Y124733D01*
X101764Y124553D01*
X102236D01*
X102673Y124733D01*
X103007Y125067D01*
X103187Y125504D01*
Y125976D01*
X103007Y126413D01*
X102673Y126747D01*
X102236Y126927D01*
D02*
G37*
G36*
X89289Y126875D02*
X88817D01*
X88380Y126694D01*
X88046Y126360D01*
X87865Y125924D01*
Y125451D01*
X88046Y125015D01*
X88380Y124681D01*
X88817Y124500D01*
X89289D01*
X89725Y124681D01*
X90059Y125015D01*
X90240Y125451D01*
Y125924D01*
X90059Y126360D01*
X89725Y126694D01*
X89289Y126875D01*
D02*
G37*
G36*
X136509Y126331D02*
X136037D01*
X135601Y126151D01*
X135267Y125817D01*
X135086Y125380D01*
Y124908D01*
X135267Y124471D01*
X135601Y124137D01*
X136037Y123957D01*
X136509D01*
X136946Y124137D01*
X137280Y124471D01*
X137461Y124908D01*
Y125380D01*
X137280Y125817D01*
X136946Y126151D01*
X136509Y126331D01*
D02*
G37*
G36*
X107183Y125150D02*
X106710D01*
X106274Y124970D01*
X105940Y124636D01*
X105759Y124199D01*
Y123727D01*
X105940Y123290D01*
X106274Y122956D01*
X106710Y122776D01*
X107183D01*
X107619Y122956D01*
X107953Y123290D01*
X108134Y123727D01*
Y124199D01*
X107953Y124636D01*
X107619Y124970D01*
X107183Y125150D01*
D02*
G37*
G36*
X86289Y124875D02*
X85817D01*
X85380Y124694D01*
X85046Y124360D01*
X84865Y123924D01*
Y123451D01*
X85046Y123015D01*
X85380Y122681D01*
X85817Y122500D01*
X86289D01*
X86725Y122681D01*
X87059Y123015D01*
X87240Y123451D01*
Y123924D01*
X87059Y124360D01*
X86725Y124694D01*
X86289Y124875D01*
D02*
G37*
G36*
X110919Y124757D02*
X110447D01*
X110010Y124576D01*
X109676Y124242D01*
X109495Y123805D01*
Y123333D01*
X109676Y122897D01*
X110010Y122563D01*
X110447Y122382D01*
X110919D01*
X111355Y122563D01*
X111689Y122897D01*
X111870Y123333D01*
Y123805D01*
X111689Y124242D01*
X111355Y124576D01*
X110919Y124757D01*
D02*
G37*
G36*
X129423Y124363D02*
X128950D01*
X128514Y124182D01*
X128180Y123848D01*
X127999Y123412D01*
Y122939D01*
X128180Y122503D01*
X128514Y122169D01*
X128950Y121988D01*
X129423D01*
X129859Y122169D01*
X130193Y122503D01*
X130374Y122939D01*
Y123412D01*
X130193Y123848D01*
X129859Y124182D01*
X129423Y124363D01*
D02*
G37*
G36*
X84580Y122106D02*
X84108D01*
X83671Y121925D01*
X83337Y121591D01*
X83157Y121154D01*
Y120682D01*
X83337Y120246D01*
X83671Y119912D01*
X84108Y119731D01*
X84580D01*
X85017Y119912D01*
X85351Y120246D01*
X85532Y120682D01*
Y121154D01*
X85351Y121591D01*
X85017Y121925D01*
X84580Y122106D01*
D02*
G37*
G36*
X151864Y122198D02*
X151391D01*
X150955Y122017D01*
X150621Y121683D01*
X150440Y121246D01*
Y120774D01*
X150621Y120338D01*
X150955Y120004D01*
X151391Y119823D01*
X151864D01*
X152173Y119951D01*
X152537Y119587D01*
X152409Y119278D01*
Y118806D01*
X152589Y118369D01*
X152924Y118035D01*
X153360Y117854D01*
X153832D01*
X154269Y118035D01*
X154603Y118369D01*
X154783Y118806D01*
Y119278D01*
X154603Y119714D01*
X154269Y120048D01*
X153832Y120229D01*
X153360D01*
X153051Y120101D01*
X152687Y120465D01*
X152815Y120774D01*
Y121246D01*
X152634Y121683D01*
X152300Y122017D01*
X151864Y122198D01*
D02*
G37*
G36*
X120368Y120229D02*
X119895D01*
X119459Y120048D01*
X119125Y119714D01*
X118944Y119278D01*
Y118806D01*
X119125Y118369D01*
X119459Y118035D01*
X119895Y117854D01*
X120368D01*
X120804Y118035D01*
X121138Y118369D01*
X121319Y118806D01*
Y119278D01*
X121138Y119714D01*
X120804Y120048D01*
X120368Y120229D01*
D02*
G37*
G36*
X149843Y118313D02*
X149370D01*
X148934Y118133D01*
X148600Y117799D01*
X148419Y117362D01*
Y116890D01*
X148600Y116453D01*
X148934Y116119D01*
X149370Y115939D01*
X149843D01*
X150279Y116119D01*
X150613Y116453D01*
X150794Y116890D01*
Y117362D01*
X150613Y117799D01*
X150279Y118133D01*
X149843Y118313D01*
D02*
G37*
G36*
X36903Y116489D02*
X36431D01*
X35994Y116308D01*
X35660Y115974D01*
X35480Y115538D01*
Y115065D01*
X35660Y114629D01*
X35994Y114295D01*
X36431Y114114D01*
X36903D01*
X37339Y114295D01*
X37674Y114629D01*
X37854Y115065D01*
Y115538D01*
X37674Y115974D01*
X37339Y116308D01*
X36903Y116489D01*
D02*
G37*
G36*
X132126Y116345D02*
X131654D01*
X131217Y116164D01*
X130883Y115830D01*
X130702Y115394D01*
Y114921D01*
X130883Y114485D01*
X131217Y114151D01*
X131654Y113970D01*
X132126D01*
X132562Y114151D01*
X132896Y114485D01*
X133077Y114921D01*
Y115394D01*
X132896Y115830D01*
X132562Y116164D01*
X132126Y116345D01*
D02*
G37*
G36*
X82179Y116883D02*
X81706D01*
X81270Y116702D01*
X80936Y116368D01*
X80755Y115931D01*
Y115459D01*
X80936Y115023D01*
X81167Y114792D01*
X81171Y114356D01*
X81126Y114207D01*
X80838Y113918D01*
X80836Y113915D01*
X80299Y113925D01*
X80193Y114181D01*
X79859Y114515D01*
X79423Y114695D01*
X78950D01*
X78514Y114515D01*
X78180Y114181D01*
X78043Y113850D01*
X77656Y113785D01*
X77522Y113800D01*
X77437Y114006D01*
X77103Y114340D01*
X76667Y114521D01*
X76195D01*
X75758Y114340D01*
X75424Y114006D01*
X75243Y113569D01*
Y113097D01*
X75424Y112660D01*
X75758Y112326D01*
X76195Y112146D01*
X76667D01*
X77103Y112326D01*
X77437Y112660D01*
X77574Y112991D01*
X77961Y113057D01*
X78095Y113041D01*
X78180Y112835D01*
X78514Y112501D01*
X78950Y112320D01*
X79423D01*
X79859Y112501D01*
X80193Y112835D01*
X80195Y112839D01*
X80732Y112829D01*
X80838Y112573D01*
X81172Y112239D01*
X81608Y112058D01*
X82080D01*
X82517Y112239D01*
X82851Y112573D01*
X83031Y113010D01*
Y113482D01*
X82851Y113918D01*
X82620Y114149D01*
X82616Y114585D01*
X82661Y114734D01*
X82949Y115023D01*
X83130Y115459D01*
Y115931D01*
X82949Y116368D01*
X82615Y116702D01*
X82179Y116883D01*
D02*
G37*
G36*
X122336Y115308D02*
X121864D01*
X121427Y115127D01*
X121093Y114793D01*
X120913Y114357D01*
Y113884D01*
X121093Y113448D01*
X121427Y113114D01*
X121864Y112933D01*
X122336D01*
X122773Y113114D01*
X123107Y113448D01*
X123287Y113884D01*
Y114357D01*
X123107Y114793D01*
X122773Y115127D01*
X122336Y115308D01*
D02*
G37*
G36*
X120655Y111429D02*
X120183D01*
X119746Y111248D01*
X119412Y110914D01*
X119231Y110478D01*
Y110005D01*
X119412Y109569D01*
X119746Y109235D01*
X120183Y109054D01*
X120655D01*
X121091Y109235D01*
X121425Y109569D01*
X121606Y110005D01*
Y110478D01*
X121425Y110914D01*
X121091Y111248D01*
X120655Y111429D01*
D02*
G37*
G36*
X13228Y111424D02*
X12756D01*
X12319Y111243D01*
X11986Y110909D01*
X11805Y110472D01*
Y110000D01*
X11986Y109564D01*
X12319Y109230D01*
X12756Y109049D01*
X13228D01*
X13665Y109230D01*
X13999Y109564D01*
X14179Y110000D01*
Y110472D01*
X13999Y110909D01*
X13665Y111243D01*
X13228Y111424D01*
D02*
G37*
G36*
X182572Y110190D02*
X182100D01*
X181664Y110009D01*
X181330Y109675D01*
X181149Y109239D01*
Y108766D01*
X181330Y108330D01*
X181664Y107996D01*
X182100Y107815D01*
X182572D01*
X183009Y107996D01*
X183343Y108330D01*
X183524Y108766D01*
Y109239D01*
X183343Y109675D01*
X183009Y110009D01*
X182572Y110190D01*
D02*
G37*
G36*
X123320Y109942D02*
X122848D01*
X122412Y109761D01*
X122078Y109427D01*
X121897Y108991D01*
Y108518D01*
X122078Y108082D01*
X122412Y107748D01*
X122848Y107567D01*
X123320D01*
X123757Y107748D01*
X124091Y108082D01*
X124272Y108518D01*
Y108991D01*
X124091Y109427D01*
X123757Y109761D01*
X123320Y109942D01*
D02*
G37*
G36*
X120655Y108254D02*
X120183D01*
X119746Y108074D01*
X119412Y107739D01*
X119231Y107303D01*
Y106831D01*
X119412Y106394D01*
X119746Y106060D01*
X120183Y105879D01*
X120655D01*
X121091Y106060D01*
X121425Y106394D01*
X121606Y106831D01*
Y107303D01*
X121425Y107739D01*
X121091Y108074D01*
X120655Y108254D01*
D02*
G37*
G36*
X131391Y107827D02*
X130919D01*
X130482Y107647D01*
X130148Y107313D01*
X129968Y106876D01*
Y106404D01*
X130148Y105967D01*
X130482Y105633D01*
X130919Y105453D01*
X131391D01*
X131828Y105633D01*
X132162Y105967D01*
X132343Y106404D01*
Y106876D01*
X132162Y107313D01*
X131828Y107647D01*
X131391Y107827D01*
D02*
G37*
G36*
X123320Y106254D02*
X122848D01*
X122412Y106074D01*
X122078Y105739D01*
X121897Y105303D01*
Y104890D01*
X121897Y104831D01*
X121435Y104717D01*
X121425Y104740D01*
X121091Y105074D01*
X120655Y105254D01*
X120183D01*
X119746Y105074D01*
X119412Y104739D01*
X119231Y104303D01*
Y103831D01*
X119244Y103800D01*
X119009Y103300D01*
X118573Y103119D01*
X118239Y102785D01*
X118058Y102349D01*
Y101876D01*
X118239Y101440D01*
X118573Y101106D01*
X119009Y100925D01*
X119482D01*
X119918Y101106D01*
X120252Y101440D01*
X120433Y101876D01*
Y102349D01*
X120420Y102380D01*
X120655Y102880D01*
X121091Y103060D01*
X121425Y103394D01*
X121606Y103831D01*
Y104244D01*
X121606Y104303D01*
X122068Y104417D01*
X122078Y104394D01*
X122412Y104060D01*
X122848Y103879D01*
X123320D01*
X123757Y104060D01*
X124091Y104394D01*
X124272Y104831D01*
Y105303D01*
X124091Y105739D01*
X123757Y106074D01*
X123320Y106254D01*
D02*
G37*
G36*
X48714Y106253D02*
X48242D01*
X47805Y106072D01*
X47471Y105738D01*
X47291Y105301D01*
Y104829D01*
X47471Y104393D01*
X47805Y104059D01*
X48242Y103878D01*
X48714D01*
X49151Y104059D01*
X49485Y104393D01*
X49665Y104829D01*
Y105301D01*
X49485Y105738D01*
X49151Y106072D01*
X48714Y106253D01*
D02*
G37*
G36*
X38872D02*
X38399D01*
X37963Y106072D01*
X37629Y105738D01*
X37448Y105301D01*
Y104829D01*
X37629Y104393D01*
X37963Y104059D01*
X38399Y103878D01*
X38872D01*
X39308Y104059D01*
X39642Y104393D01*
X39823Y104829D01*
Y105301D01*
X39642Y105738D01*
X39308Y106072D01*
X38872Y106253D01*
D02*
G37*
G36*
X81929Y106109D02*
X81457D01*
X81020Y105928D01*
X80686Y105594D01*
X80506Y105157D01*
Y104685D01*
X80686Y104249D01*
X81020Y103915D01*
X81457Y103734D01*
X81929D01*
X82366Y103915D01*
X82700Y104249D01*
X82880Y104685D01*
Y105157D01*
X82700Y105594D01*
X82366Y105928D01*
X81929Y106109D01*
D02*
G37*
G36*
X174257Y104875D02*
X173784D01*
X173348Y104694D01*
X173014Y104360D01*
X172833Y103924D01*
Y103451D01*
X173014Y103015D01*
X173348Y102681D01*
X173784Y102500D01*
X174257D01*
X174693Y102681D01*
X175027Y103015D01*
X175208Y103451D01*
Y103924D01*
X175027Y104360D01*
X174693Y104694D01*
X174257Y104875D01*
D02*
G37*
G36*
X82566Y103261D02*
X82094D01*
X81657Y103080D01*
X81323Y102746D01*
X81142Y102309D01*
Y101837D01*
X81323Y101401D01*
X81657Y101067D01*
X82094Y100886D01*
X82566D01*
X83003Y101067D01*
X83337Y101401D01*
X83517Y101837D01*
Y102309D01*
X83337Y102746D01*
X83003Y103080D01*
X82566Y103261D01*
D02*
G37*
G36*
X81929Y97644D02*
X81457D01*
X81020Y97463D01*
X80686Y97129D01*
X80506Y96693D01*
Y96220D01*
X80686Y95784D01*
X81020Y95450D01*
X81457Y95269D01*
X81929D01*
X82366Y95450D01*
X82700Y95784D01*
X82880Y96220D01*
Y96693D01*
X82700Y97129D01*
X82366Y97463D01*
X81929Y97644D01*
D02*
G37*
G36*
Y94691D02*
X81457D01*
X81020Y94511D01*
X80686Y94177D01*
X80506Y93740D01*
Y93268D01*
X80686Y92831D01*
X81020Y92497D01*
X81457Y92317D01*
X81929D01*
X82366Y92497D01*
X82700Y92831D01*
X82880Y93268D01*
Y93740D01*
X82700Y94177D01*
X82366Y94511D01*
X81929Y94691D01*
D02*
G37*
G36*
Y91739D02*
X81457D01*
X81020Y91558D01*
X80686Y91224D01*
X80506Y90787D01*
Y90315D01*
X80686Y89879D01*
X81020Y89544D01*
X81457Y89364D01*
X81929D01*
X82366Y89544D01*
X82700Y89879D01*
X82880Y90315D01*
Y90787D01*
X82700Y91224D01*
X82366Y91558D01*
X81929Y91739D01*
D02*
G37*
G36*
X159738Y91686D02*
X159265D01*
X158829Y91505D01*
X158495Y91171D01*
X158314Y90735D01*
Y90262D01*
X158495Y89826D01*
X158829Y89492D01*
X159265Y89311D01*
X159738D01*
X160174Y89492D01*
X160508Y89826D01*
X160689Y90262D01*
Y90735D01*
X160508Y91171D01*
X160174Y91505D01*
X159738Y91686D01*
D02*
G37*
G36*
X87494Y90702D02*
X87021D01*
X86585Y90521D01*
X86251Y90187D01*
X86070Y89750D01*
Y89278D01*
X86251Y88841D01*
X86585Y88507D01*
X87021Y88327D01*
X87494D01*
X87930Y88507D01*
X88264Y88841D01*
X88445Y89278D01*
Y89750D01*
X88264Y90187D01*
X87930Y90521D01*
X87494Y90702D01*
D02*
G37*
G36*
X93028Y88651D02*
X92555D01*
X92119Y88470D01*
X91785Y88136D01*
X91451Y88470D01*
X91015Y88651D01*
X90542D01*
X90106Y88470D01*
X89772Y88136D01*
X89591Y87700D01*
Y87227D01*
X89772Y86791D01*
X90106Y86457D01*
X90542Y86276D01*
X91015D01*
X91451Y86457D01*
X91785Y86791D01*
X92119Y86457D01*
X92555Y86276D01*
X93028D01*
X93464Y86457D01*
X93798Y86791D01*
X93979Y87227D01*
Y87700D01*
X93798Y88136D01*
X93464Y88470D01*
X93028Y88651D01*
D02*
G37*
G36*
X113994Y88308D02*
X113521D01*
X113085Y88127D01*
X112789Y87832D01*
X112507Y87811D01*
X112226Y87832D01*
X111930Y88127D01*
X111494Y88308D01*
X111021D01*
X110585Y88127D01*
X110251Y87793D01*
X110070Y87357D01*
Y86884D01*
X110251Y86448D01*
X110585Y86114D01*
X111021Y85933D01*
X111494D01*
X111930Y86114D01*
X112226Y86409D01*
X112507Y86430D01*
X112789Y86409D01*
X113085Y86114D01*
X113521Y85933D01*
X113994D01*
X114430Y86114D01*
X114764Y86448D01*
X114945Y86884D01*
Y87357D01*
X114764Y87793D01*
X114430Y88127D01*
X113994Y88308D01*
D02*
G37*
G36*
X104220Y87906D02*
X103747D01*
X103311Y87726D01*
X102977Y87392D01*
X102796Y86955D01*
Y86483D01*
X102977Y86046D01*
X103311Y85712D01*
X103747Y85532D01*
X104220D01*
X104656Y85712D01*
X104990Y86046D01*
X105171Y86483D01*
Y86955D01*
X104990Y87392D01*
X104656Y87726D01*
X104220Y87906D01*
D02*
G37*
G36*
X122083Y86821D02*
X121611D01*
X121175Y86640D01*
X120841Y86306D01*
X120660Y85869D01*
Y85397D01*
X120841Y84961D01*
X121175Y84626D01*
X121611Y84446D01*
X122083D01*
X122520Y84626D01*
X122854Y84961D01*
X123035Y85397D01*
Y85869D01*
X122854Y86306D01*
X122520Y86640D01*
X122083Y86821D01*
D02*
G37*
G36*
X140000Y83809D02*
X139528D01*
X139091Y83629D01*
X138757Y83295D01*
X138576Y82858D01*
Y82386D01*
X138757Y81949D01*
X139091Y81615D01*
X139528Y81435D01*
X140000D01*
X140436Y81615D01*
X140770Y81949D01*
X140951Y82386D01*
Y82858D01*
X140770Y83295D01*
X140436Y83629D01*
X140000Y83809D01*
D02*
G37*
G36*
X63675Y78694D02*
X63202D01*
X62766Y78513D01*
X62454Y78201D01*
X62143Y78513D01*
X61706Y78694D01*
X61234D01*
X60798Y78513D01*
X60486Y78201D01*
X60174Y78513D01*
X59738Y78694D01*
X59265D01*
X58829Y78513D01*
X58495Y78179D01*
X58314Y77742D01*
Y77270D01*
X58495Y76834D01*
X58807Y76522D01*
X58495Y76210D01*
X58314Y75774D01*
Y75302D01*
X58495Y74865D01*
X58807Y74554D01*
X58495Y74242D01*
X58314Y73805D01*
Y73333D01*
X58495Y72897D01*
X58807Y72585D01*
X58495Y72273D01*
X58314Y71837D01*
Y71365D01*
X58495Y70928D01*
X58829Y70594D01*
X59265Y70413D01*
X59738D01*
X60174Y70594D01*
X60486Y70906D01*
X60798Y70594D01*
X61234Y70413D01*
X61706D01*
X62143Y70594D01*
X62454Y70906D01*
X62766Y70594D01*
X63202Y70413D01*
X63675D01*
X64111Y70594D01*
X64445Y70928D01*
X64626Y71365D01*
Y71837D01*
X64445Y72273D01*
X64134Y72585D01*
X64445Y72897D01*
X64626Y73333D01*
Y73805D01*
X64445Y74242D01*
X64134Y74554D01*
X64445Y74865D01*
X64626Y75302D01*
Y75774D01*
X64445Y76210D01*
X64134Y76522D01*
X64445Y76834D01*
X64626Y77270D01*
Y77742D01*
X64445Y78179D01*
X64111Y78513D01*
X63675Y78694D01*
D02*
G37*
G36*
X107126Y80420D02*
X106654D01*
X106217Y80239D01*
X105883Y79905D01*
X105702Y79469D01*
Y78996D01*
X105883Y78560D01*
X106217Y78226D01*
X106654Y78045D01*
X107126D01*
X107562Y78226D01*
X107896Y78560D01*
X108077Y78996D01*
Y79469D01*
X107896Y79905D01*
X107562Y80239D01*
X107126Y80420D01*
D02*
G37*
G36*
X97533Y72001D02*
X97061D01*
X96624Y71820D01*
X96290Y71486D01*
X96109Y71050D01*
Y70577D01*
X96290Y70141D01*
X96624Y69807D01*
X97061Y69626D01*
X97533D01*
X97970Y69807D01*
X98304Y70141D01*
X98484Y70577D01*
Y71050D01*
X98304Y71486D01*
X97970Y71820D01*
X97533Y72001D01*
D02*
G37*
G36*
X114068Y71607D02*
X113596D01*
X113160Y71426D01*
X112826Y71092D01*
X112645Y70656D01*
Y70183D01*
X112826Y69747D01*
X113160Y69413D01*
X113596Y69232D01*
X114068D01*
X114505Y69413D01*
X114839Y69747D01*
X115020Y70183D01*
Y70656D01*
X114839Y71092D01*
X114505Y71426D01*
X114068Y71607D01*
D02*
G37*
G36*
X90950Y69922D02*
X90478D01*
X90041Y69741D01*
X89707Y69407D01*
X89526Y68971D01*
Y68499D01*
X89707Y68062D01*
X90041Y67728D01*
X90478Y67548D01*
X90950D01*
X91117Y67616D01*
X91500Y67234D01*
X91495Y67222D01*
Y66750D01*
X91675Y66313D01*
X92010Y65979D01*
X92446Y65799D01*
X92918D01*
X93355Y65979D01*
X93689Y66313D01*
X93870Y66750D01*
Y67222D01*
X93689Y67659D01*
X93355Y67993D01*
X92918Y68173D01*
X92446D01*
X92279Y68104D01*
X91896Y68487D01*
X91901Y68499D01*
Y68971D01*
X91721Y69407D01*
X91386Y69741D01*
X90950Y69922D01*
D02*
G37*
G36*
X241378Y68116D02*
X240905D01*
X240469Y67936D01*
X240135Y67602D01*
X239954Y67165D01*
Y66693D01*
X240135Y66256D01*
X240469Y65922D01*
X240905Y65742D01*
X241378D01*
X241814Y65922D01*
X242148Y66256D01*
X242329Y66693D01*
Y67165D01*
X242148Y67602D01*
X241814Y67936D01*
X241378Y68116D01*
D02*
G37*
G36*
X87691Y65308D02*
X87218D01*
X86782Y65127D01*
X86448Y64793D01*
X86267Y64357D01*
Y63884D01*
X86448Y63448D01*
X86782Y63114D01*
X87218Y62933D01*
X87691D01*
X88127Y63114D01*
X88461Y63448D01*
X88642Y63884D01*
Y64357D01*
X88461Y64793D01*
X88127Y65127D01*
X87691Y65308D01*
D02*
G37*
G36*
X140984Y59258D02*
X140512D01*
X140075Y59078D01*
X139764Y58766D01*
X139452Y59078D01*
X139016Y59258D01*
X138543D01*
X138107Y59078D01*
X137795Y58766D01*
X137484Y59078D01*
X137047Y59258D01*
X136575D01*
X136138Y59078D01*
X135804Y58744D01*
X135624Y58307D01*
Y57835D01*
X135804Y57398D01*
X136138Y57064D01*
X136575Y56884D01*
X137047D01*
X137484Y57064D01*
X137795Y57376D01*
X138107Y57064D01*
X138543Y56884D01*
X139016D01*
X139324Y57011D01*
X139689Y56647D01*
X139561Y56339D01*
Y55866D01*
X139741Y55430D01*
X140053Y55118D01*
X139741Y54807D01*
X139561Y54370D01*
Y53898D01*
X139689Y53589D01*
X139324Y53225D01*
X139016Y53353D01*
X138543D01*
X138107Y53172D01*
X137795Y52860D01*
X137484Y53172D01*
X137047Y53353D01*
X136575D01*
X136138Y53172D01*
X135804Y52838D01*
X135624Y52402D01*
Y51929D01*
X135804Y51493D01*
X136138Y51159D01*
X136575Y50978D01*
X137047D01*
X137484Y51159D01*
X137795Y51470D01*
X138107Y51159D01*
X138543Y50978D01*
X139016D01*
X139452Y51159D01*
X139764Y51470D01*
X140075Y51159D01*
X140512Y50978D01*
X140984D01*
X141421Y51159D01*
X141755Y51493D01*
X141935Y51929D01*
Y52402D01*
X141755Y52838D01*
X141443Y53150D01*
X141755Y53461D01*
X141935Y53898D01*
Y54370D01*
X141755Y54807D01*
X141443Y55118D01*
X141755Y55430D01*
X141935Y55866D01*
Y56339D01*
X141755Y56775D01*
X141443Y57087D01*
X141755Y57398D01*
X141935Y57835D01*
Y58307D01*
X141755Y58744D01*
X141421Y59078D01*
X140984Y59258D01*
D02*
G37*
G36*
X149812Y58828D02*
X149339D01*
X148903Y58647D01*
X148569Y58313D01*
X148388Y57876D01*
Y57404D01*
X148569Y56968D01*
X148903Y56634D01*
X149339Y56453D01*
X149812D01*
X150248Y56634D01*
X150582Y56968D01*
X150763Y57404D01*
Y57876D01*
X150582Y58313D01*
X150248Y58647D01*
X149812Y58828D01*
D02*
G37*
G36*
X44331Y52762D02*
X43858D01*
X43422Y52581D01*
X43088Y52247D01*
X42907Y51811D01*
Y51339D01*
X43088Y50902D01*
X43422Y50568D01*
X43858Y50387D01*
X44331D01*
X44767Y50568D01*
X45101Y50902D01*
X45282Y51339D01*
Y51811D01*
X45101Y52247D01*
X44767Y52581D01*
X44331Y52762D01*
D02*
G37*
G36*
X140984Y45479D02*
X140512D01*
X140075Y45298D01*
X139764Y44986D01*
X139452Y45298D01*
X139016Y45479D01*
X138543D01*
X138107Y45298D01*
X137795Y44986D01*
X137484Y45298D01*
X137047Y45479D01*
X136575D01*
X136138Y45298D01*
X135804Y44964D01*
X135624Y44528D01*
Y44055D01*
X135804Y43619D01*
X136138Y43285D01*
X136575Y43104D01*
X137047D01*
X137484Y43285D01*
X137795Y43596D01*
X138107Y43285D01*
X138543Y43104D01*
X139016D01*
X139452Y43285D01*
X139764Y43596D01*
X140075Y43285D01*
X140512Y43104D01*
X140984D01*
X141421Y43285D01*
X141755Y43619D01*
X141935Y44055D01*
Y44528D01*
X141755Y44964D01*
X141421Y45298D01*
X140984Y45479D01*
D02*
G37*
G36*
X44724Y46857D02*
X44252D01*
X43816Y46676D01*
X43482Y46342D01*
X43301Y45906D01*
Y45433D01*
X43482Y44997D01*
X43816Y44663D01*
X44252Y44482D01*
X44724D01*
X45161Y44663D01*
X45495Y44997D01*
X45676Y45433D01*
Y45906D01*
X45495Y46342D01*
X45161Y46676D01*
X44724Y46857D01*
D02*
G37*
G36*
X179423Y42867D02*
X178950D01*
X178514Y42686D01*
X178202Y42375D01*
X177891Y42686D01*
X177454Y42867D01*
X176982D01*
X176546Y42686D01*
X176212Y42352D01*
X176031Y41916D01*
Y41443D01*
X176212Y41007D01*
X176546Y40673D01*
X176982Y40492D01*
X177454D01*
X177891Y40673D01*
X178202Y40984D01*
X178514Y40673D01*
X178950Y40492D01*
X179423D01*
X179859Y40673D01*
X180193Y41007D01*
X180374Y41443D01*
Y41916D01*
X180193Y42352D01*
X179859Y42686D01*
X179423Y42867D01*
D02*
G37*
G36*
X111313D02*
X110840D01*
X110404Y42686D01*
X110070Y42352D01*
X109889Y41916D01*
Y41443D01*
X110070Y41007D01*
X110404Y40673D01*
X110840Y40492D01*
X111313D01*
X111749Y40673D01*
X112083Y41007D01*
X112264Y41443D01*
Y41916D01*
X112083Y42352D01*
X111749Y42686D01*
X111313Y42867D01*
D02*
G37*
G36*
X358582Y48500D02*
X358020D01*
Y35500D01*
X371020D01*
Y36062D01*
X370687Y38161D01*
X370031Y40182D01*
X369066Y42075D01*
X367817Y43795D01*
X366315Y45297D01*
X364595Y46546D01*
X362702Y47511D01*
X360681Y48167D01*
X358582Y48500D01*
D02*
G37*
G36*
X357020D02*
X356457D01*
X354359Y48167D01*
X352338Y47511D01*
X350444Y46546D01*
X348725Y45297D01*
X347223Y43795D01*
X345974Y42075D01*
X345009Y40182D01*
X344352Y38161D01*
X344020Y36062D01*
Y35500D01*
X357020D01*
Y48500D01*
D02*
G37*
G36*
X159738Y29678D02*
X159265D01*
X158829Y29497D01*
X158495Y29163D01*
X158314Y28727D01*
Y28254D01*
X158495Y27818D01*
X158829Y27484D01*
X159265Y27303D01*
X159738D01*
X160174Y27484D01*
X160508Y27818D01*
X160689Y28254D01*
Y28727D01*
X160508Y29163D01*
X160174Y29497D01*
X159738Y29678D01*
D02*
G37*
G36*
X140000Y28353D02*
X139528D01*
X139091Y28172D01*
X138757Y27838D01*
X138576Y27402D01*
Y26929D01*
X138757Y26493D01*
X139091Y26159D01*
X139528Y25978D01*
X140000D01*
X140436Y26159D01*
X140770Y26493D01*
X140951Y26929D01*
Y27402D01*
X140770Y27838D01*
X140436Y28172D01*
X140000Y28353D01*
D02*
G37*
G36*
X135079Y25794D02*
X134606D01*
X134170Y25613D01*
X133836Y25279D01*
X133655Y24843D01*
Y24370D01*
X133836Y23934D01*
X134170Y23600D01*
X134606Y23419D01*
X135079D01*
X135515Y23600D01*
X135849Y23934D01*
X136030Y24370D01*
Y24843D01*
X135849Y25279D01*
X135515Y25613D01*
X135079Y25794D01*
D02*
G37*
G36*
X371020Y34500D02*
X358020D01*
Y21500D01*
X358582D01*
X360681Y21832D01*
X362702Y22489D01*
X364595Y23454D01*
X366315Y24703D01*
X367817Y26205D01*
X369066Y27924D01*
X370031Y29818D01*
X370687Y31839D01*
X371020Y33937D01*
Y34500D01*
D02*
G37*
G36*
X357020D02*
X344020D01*
Y33937D01*
X344352Y31839D01*
X345009Y29818D01*
X345974Y27924D01*
X347223Y26205D01*
X348725Y24703D01*
X350444Y23454D01*
X352338Y22489D01*
X354359Y21832D01*
X356457Y21500D01*
X357020D01*
Y34500D01*
D02*
G37*
G36*
X121149Y23812D02*
X120676D01*
X120240Y23631D01*
X119906Y23297D01*
X119725Y22861D01*
Y22388D01*
X119906Y21952D01*
X120240Y21618D01*
X120676Y21437D01*
X121149D01*
X121585Y21618D01*
X121919Y21952D01*
X122100Y22388D01*
Y22861D01*
X121919Y23297D01*
X121585Y23631D01*
X121149Y23812D01*
D02*
G37*
G36*
X21063Y33500D02*
X20500D01*
Y20500D01*
X33500D01*
Y21062D01*
X33168Y23161D01*
X32511Y25182D01*
X31546Y27075D01*
X30297Y28795D01*
X28795Y30297D01*
X27076Y31546D01*
X25182Y32511D01*
X23161Y33167D01*
X21063Y33500D01*
D02*
G37*
G36*
X19500D02*
X18938D01*
X16839Y33167D01*
X14818Y32511D01*
X12925Y31546D01*
X11206Y30297D01*
X9703Y28795D01*
X8454Y27075D01*
X7489Y25182D01*
X6832Y23161D01*
X6500Y21062D01*
Y20500D01*
X19500D01*
Y33500D01*
D02*
G37*
G36*
X171555Y22788D02*
X171083D01*
X170646Y22607D01*
X170312Y22273D01*
X170132Y21837D01*
Y21365D01*
X170312Y20928D01*
X170646Y20594D01*
X171083Y20413D01*
X171555D01*
X171992Y20594D01*
X172326Y20928D01*
X172506Y21365D01*
Y21837D01*
X172326Y22273D01*
X171992Y22607D01*
X171555Y22788D01*
D02*
G37*
G36*
X168543Y21857D02*
X168071D01*
X167634Y21676D01*
X167300Y21342D01*
X167120Y20906D01*
Y20433D01*
X167300Y19997D01*
X167634Y19663D01*
X168071Y19482D01*
X168543D01*
X168980Y19663D01*
X169314Y19997D01*
X169494Y20433D01*
Y20906D01*
X169314Y21342D01*
X168980Y21676D01*
X168543Y21857D01*
D02*
G37*
G36*
X146155Y21804D02*
X145683D01*
X145246Y21623D01*
X144912Y21289D01*
X144731Y20853D01*
Y20380D01*
X144912Y19944D01*
X145246Y19610D01*
X145683Y19429D01*
X146155D01*
X146591Y19610D01*
X146925Y19944D01*
X147106Y20380D01*
Y20853D01*
X146925Y21289D01*
X146591Y21623D01*
X146155Y21804D01*
D02*
G37*
G36*
X51470Y23772D02*
X50998D01*
X50561Y23592D01*
X50227Y23258D01*
X50046Y22821D01*
Y22349D01*
X50081Y22266D01*
X50030Y22141D01*
X49731Y21804D01*
X49423D01*
X48987Y21623D01*
X48652Y21289D01*
X48472Y20853D01*
Y20380D01*
X48652Y19944D01*
X48987Y19610D01*
X49423Y19429D01*
X49895D01*
X50332Y19610D01*
X50666Y19944D01*
X50846Y20380D01*
Y20853D01*
X50812Y20936D01*
X50862Y21061D01*
X51162Y21398D01*
X51470D01*
X51907Y21578D01*
X52241Y21912D01*
X52421Y22349D01*
Y22821D01*
X52241Y23258D01*
X51907Y23592D01*
X51470Y23772D01*
D02*
G37*
G36*
X173517Y19639D02*
X173045D01*
X172608Y19458D01*
X172274Y19124D01*
X172094Y18687D01*
Y18215D01*
X172274Y17779D01*
X172608Y17445D01*
X173045Y17264D01*
X173517D01*
X173954Y17445D01*
X174288Y17779D01*
X174469Y18215D01*
Y18687D01*
X174288Y19124D01*
X173954Y19458D01*
X173517Y19639D01*
D02*
G37*
G36*
X116431Y18064D02*
X115958D01*
X115522Y17883D01*
X115188Y17549D01*
X115007Y17113D01*
Y16640D01*
X115188Y16204D01*
X115522Y15870D01*
X115958Y15689D01*
X116431D01*
X116867Y15870D01*
X117201Y16204D01*
X117382Y16640D01*
Y17113D01*
X117201Y17549D01*
X116867Y17883D01*
X116431Y18064D01*
D02*
G37*
G36*
X84541Y16208D02*
X84069D01*
X83632Y16027D01*
X83298Y15693D01*
X83117Y15257D01*
Y14784D01*
X83298Y14348D01*
X83632Y14014D01*
X84069Y13833D01*
X84541D01*
X84977Y14014D01*
X85311Y14348D01*
X85492Y14784D01*
Y15257D01*
X85311Y15693D01*
X84977Y16027D01*
X84541Y16208D01*
D02*
G37*
G36*
X77992Y12014D02*
X77520D01*
X77083Y11833D01*
X76749Y11499D01*
X76569Y11063D01*
Y10591D01*
X76749Y10154D01*
X77083Y9820D01*
X77520Y9639D01*
X77992D01*
X78429Y9820D01*
X78771Y9478D01*
X78590Y9042D01*
Y8569D01*
X78771Y8133D01*
X79105Y7799D01*
X79541Y7618D01*
X80013D01*
X80450Y7799D01*
X80784Y8133D01*
X80965Y8569D01*
Y9042D01*
X80784Y9478D01*
X80450Y9812D01*
X80013Y9993D01*
X79541D01*
X79105Y9812D01*
X78763Y10154D01*
X78943Y10591D01*
Y11063D01*
X78763Y11499D01*
X78429Y11833D01*
X77992Y12014D01*
D02*
G37*
G36*
X33500Y19500D02*
X20500D01*
Y6500D01*
X21063D01*
X23161Y6832D01*
X25182Y7489D01*
X27076Y8454D01*
X28795Y9703D01*
X30297Y11205D01*
X31546Y12924D01*
X32511Y14818D01*
X33168Y16839D01*
X33500Y18937D01*
Y19500D01*
D02*
G37*
G36*
X19500D02*
X6500D01*
Y18937D01*
X6832Y16839D01*
X7489Y14818D01*
X8454Y12924D01*
X9703Y11205D01*
X11206Y9703D01*
X12925Y8454D01*
X14818Y7489D01*
X16839Y6832D01*
X18938Y6500D01*
X19500D01*
Y19500D01*
D02*
G37*
G36*
X104226Y8221D02*
X103754D01*
X103317Y8040D01*
X102983Y7706D01*
X102802Y7270D01*
Y6798D01*
X102983Y6361D01*
X103317Y6027D01*
X103754Y5847D01*
X104226D01*
X104662Y6027D01*
X104996Y6361D01*
X105177Y6798D01*
Y7270D01*
X104996Y7706D01*
X104662Y8040D01*
X104226Y8221D01*
D02*
G37*
%LPD*%
D119*
X360394Y167165D02*
D03*
Y187165D02*
D03*
X340394D02*
D03*
Y167165D02*
D03*
D120*
X20000Y335000D02*
D03*
X357520Y35000D02*
D03*
Y325000D02*
D03*
X20000Y20000D02*
D03*
D122*
X20185Y306405D02*
D03*
D123*
X31496Y158661D02*
D03*
D124*
X19685Y177165D02*
D03*
D126*
X364174Y303150D02*
D03*
X362205Y299213D02*
D03*
X364174Y295276D02*
D03*
X362205Y291339D02*
D03*
X364174Y287402D02*
D03*
X362205Y283465D02*
D03*
X364174Y279528D02*
D03*
X362205Y275591D02*
D03*
X364174Y271654D02*
D03*
X362205Y267717D02*
D03*
X364174Y263780D02*
D03*
X362205Y259843D02*
D03*
X364174Y255906D02*
D03*
X362205Y251969D02*
D03*
X364174Y248032D02*
D03*
X362205Y244095D02*
D03*
X364174Y240158D02*
D03*
X362205Y236221D02*
D03*
X364174Y232284D02*
D03*
X362205Y228346D02*
D03*
X364174Y224410D02*
D03*
X362205Y220473D02*
D03*
X364174Y216535D02*
D03*
X362205Y212598D02*
D03*
X364174Y208662D02*
D03*
X362205Y204725D02*
D03*
X364174Y200787D02*
D03*
X362205Y196851D02*
D03*
X364174Y192913D02*
D03*
X362205Y181102D02*
D03*
X364174Y177165D02*
D03*
X362205Y173228D02*
D03*
X364174Y161417D02*
D03*
X362205Y157480D02*
D03*
X364174Y153543D02*
D03*
X362205Y149606D02*
D03*
X364174Y145669D02*
D03*
X362205Y141732D02*
D03*
X364174Y137795D02*
D03*
X362205Y133858D02*
D03*
X364174Y129921D02*
D03*
X362205Y125984D02*
D03*
X364174Y122047D02*
D03*
X362205Y118110D02*
D03*
X364174Y114173D02*
D03*
X362205Y110236D02*
D03*
X364174Y106299D02*
D03*
X362205Y102362D02*
D03*
X364174Y98425D02*
D03*
X362205Y94488D02*
D03*
X364174Y90551D02*
D03*
X362205Y86614D02*
D03*
X364174Y82677D02*
D03*
X362205Y78740D02*
D03*
X364174Y74803D02*
D03*
X362205Y70866D02*
D03*
X364174Y66929D02*
D03*
X362205Y62992D02*
D03*
X364174Y59055D02*
D03*
X362205Y55118D02*
D03*
Y15748D02*
D03*
X360237Y303150D02*
D03*
X358268Y299213D02*
D03*
X360237Y295276D02*
D03*
X358268Y291339D02*
D03*
X360237Y287402D02*
D03*
X358268Y283465D02*
D03*
X360237Y279528D02*
D03*
X358268Y275591D02*
D03*
X360237Y271654D02*
D03*
X358268Y267717D02*
D03*
X360237Y263780D02*
D03*
X358268Y259843D02*
D03*
X360237Y255906D02*
D03*
X358268Y251969D02*
D03*
X360237Y248032D02*
D03*
X358268Y244095D02*
D03*
X360237Y240158D02*
D03*
X358268Y236221D02*
D03*
X360237Y232284D02*
D03*
X358268Y228346D02*
D03*
X360237Y224410D02*
D03*
X358268Y220473D02*
D03*
X360237Y216535D02*
D03*
X358268Y212598D02*
D03*
X360237Y208662D02*
D03*
X358268Y204725D02*
D03*
X360237Y200787D02*
D03*
X358268Y196851D02*
D03*
Y181102D02*
D03*
X360237Y177165D02*
D03*
X358268Y173228D02*
D03*
Y157480D02*
D03*
X360237Y153543D02*
D03*
X358268Y149606D02*
D03*
X360237Y145669D02*
D03*
X358268Y141732D02*
D03*
X360237Y137795D02*
D03*
X358268Y133858D02*
D03*
X360237Y129921D02*
D03*
X358268Y125984D02*
D03*
X360237Y122047D02*
D03*
X358268Y118110D02*
D03*
X360237Y114173D02*
D03*
X358268Y110236D02*
D03*
X360237Y106299D02*
D03*
X358268Y102362D02*
D03*
X360237Y98425D02*
D03*
X358268Y94488D02*
D03*
X360237Y90551D02*
D03*
X358268Y86614D02*
D03*
X360237Y82677D02*
D03*
X358268Y78740D02*
D03*
X360237Y74803D02*
D03*
X358268Y70866D02*
D03*
X360237Y66929D02*
D03*
X358268Y62992D02*
D03*
X360237Y59055D02*
D03*
X358268Y55118D02*
D03*
Y15748D02*
D03*
X356300Y303150D02*
D03*
X354331Y299213D02*
D03*
X356300Y295276D02*
D03*
X354331Y291339D02*
D03*
X356300Y287402D02*
D03*
X354331Y283465D02*
D03*
X356300Y279528D02*
D03*
X354331Y275591D02*
D03*
X356300Y271654D02*
D03*
X354331Y267717D02*
D03*
X356300Y263780D02*
D03*
X354331Y259843D02*
D03*
X356300Y255906D02*
D03*
X354331Y251969D02*
D03*
X356300Y248032D02*
D03*
X354331Y244095D02*
D03*
X356300Y240158D02*
D03*
X354331Y236221D02*
D03*
X356300Y232284D02*
D03*
X354331Y228346D02*
D03*
X356300Y224410D02*
D03*
X354331Y220473D02*
D03*
X356300Y216535D02*
D03*
X354331Y212598D02*
D03*
X356300Y208662D02*
D03*
X354331Y204725D02*
D03*
X356300Y200787D02*
D03*
X354331Y196851D02*
D03*
X356300Y192913D02*
D03*
X354331Y188976D02*
D03*
Y165354D02*
D03*
X356300Y161417D02*
D03*
X354331Y157480D02*
D03*
X356300Y153543D02*
D03*
X354331Y149606D02*
D03*
X356300Y145669D02*
D03*
X354331Y141732D02*
D03*
X356300Y137795D02*
D03*
X354331Y133858D02*
D03*
X356300Y129921D02*
D03*
X354331Y125984D02*
D03*
X356300Y122047D02*
D03*
X354331Y118110D02*
D03*
X356300Y114173D02*
D03*
X354331Y110236D02*
D03*
X356300Y106299D02*
D03*
X354331Y102362D02*
D03*
X356300Y98425D02*
D03*
X354331Y94488D02*
D03*
X356300Y90551D02*
D03*
X354331Y86614D02*
D03*
X356300Y82677D02*
D03*
X354331Y78740D02*
D03*
X356300Y74803D02*
D03*
X354331Y70866D02*
D03*
X356300Y66929D02*
D03*
X354331Y62992D02*
D03*
X356300Y59055D02*
D03*
X354331Y55118D02*
D03*
Y15748D02*
D03*
X350394Y307087D02*
D03*
X352363Y303150D02*
D03*
X350394Y299213D02*
D03*
X352363Y295276D02*
D03*
X350394Y291339D02*
D03*
X352363Y287402D02*
D03*
X350394Y283465D02*
D03*
X352363Y279528D02*
D03*
X350394Y275591D02*
D03*
X352363Y271654D02*
D03*
X350394Y267717D02*
D03*
X352363Y263780D02*
D03*
X350394Y259843D02*
D03*
X352363Y255906D02*
D03*
X350394Y251969D02*
D03*
X352363Y248032D02*
D03*
X350394Y244095D02*
D03*
X352363Y240158D02*
D03*
X350394Y236221D02*
D03*
X352363Y232284D02*
D03*
X350394Y228346D02*
D03*
X352363Y224410D02*
D03*
X350394Y220473D02*
D03*
X352363Y216535D02*
D03*
X350394Y212598D02*
D03*
X352363Y208662D02*
D03*
X350394Y204725D02*
D03*
X352363Y200787D02*
D03*
X350394Y196851D02*
D03*
X352363Y192913D02*
D03*
X350394Y188976D02*
D03*
X352363Y169291D02*
D03*
X350394Y165354D02*
D03*
X352363Y161417D02*
D03*
X350394Y157480D02*
D03*
X352363Y153543D02*
D03*
X350394Y149606D02*
D03*
X352363Y145669D02*
D03*
X350394Y141732D02*
D03*
X352363Y137795D02*
D03*
X350394Y133858D02*
D03*
X352363Y129921D02*
D03*
X350394Y125984D02*
D03*
X352363Y122047D02*
D03*
X350394Y118110D02*
D03*
X352363Y114173D02*
D03*
X350394Y110236D02*
D03*
X352363Y106299D02*
D03*
X350394Y102362D02*
D03*
X352363Y98425D02*
D03*
X350394Y94488D02*
D03*
X352363Y90551D02*
D03*
X350394Y86614D02*
D03*
X352363Y82677D02*
D03*
X350394Y78740D02*
D03*
X352363Y74803D02*
D03*
X350394Y70866D02*
D03*
X352363Y66929D02*
D03*
X350394Y62992D02*
D03*
X352363Y59055D02*
D03*
X350394Y55118D02*
D03*
Y15748D02*
D03*
X346457Y307087D02*
D03*
X348426Y303150D02*
D03*
X346457Y299213D02*
D03*
X348426Y295276D02*
D03*
X346457Y291339D02*
D03*
X348426Y287402D02*
D03*
X346457Y283465D02*
D03*
X348426Y279528D02*
D03*
X346457Y275591D02*
D03*
X348426Y271654D02*
D03*
X346457Y267717D02*
D03*
X348426Y263780D02*
D03*
X346457Y259843D02*
D03*
X348426Y255906D02*
D03*
X346457Y251969D02*
D03*
X348426Y248032D02*
D03*
X346457Y244095D02*
D03*
X348426Y240158D02*
D03*
X346457Y236221D02*
D03*
X348426Y232284D02*
D03*
X346457Y228346D02*
D03*
X348426Y224410D02*
D03*
X346457Y220473D02*
D03*
X348426Y216535D02*
D03*
X346457Y212598D02*
D03*
X348426Y208662D02*
D03*
X346457Y204725D02*
D03*
X348426Y200787D02*
D03*
X346457Y196851D02*
D03*
X348426Y192913D02*
D03*
X346457Y188976D02*
D03*
Y165354D02*
D03*
X348426Y161417D02*
D03*
X346457Y157480D02*
D03*
X348426Y153543D02*
D03*
X346457Y149606D02*
D03*
X348426Y145669D02*
D03*
X346457Y141732D02*
D03*
X348426Y137795D02*
D03*
X346457Y133858D02*
D03*
X348426Y129921D02*
D03*
X346457Y125984D02*
D03*
X348426Y122047D02*
D03*
X346457Y118110D02*
D03*
X348426Y114173D02*
D03*
X346457Y110236D02*
D03*
X348426Y106299D02*
D03*
X346457Y102362D02*
D03*
X348426Y98425D02*
D03*
X346457Y94488D02*
D03*
X348426Y90551D02*
D03*
X346457Y86614D02*
D03*
X348426Y82677D02*
D03*
X346457Y78740D02*
D03*
X348426Y74803D02*
D03*
X346457Y70866D02*
D03*
X348426Y66929D02*
D03*
X346457Y62992D02*
D03*
X348426Y59055D02*
D03*
X346457Y55118D02*
D03*
Y15748D02*
D03*
X342520Y338583D02*
D03*
X344489Y311024D02*
D03*
X342520Y307087D02*
D03*
X344489Y303150D02*
D03*
X342520Y299213D02*
D03*
X344489Y295276D02*
D03*
X342520Y291339D02*
D03*
X344489Y287402D02*
D03*
X342520Y283465D02*
D03*
X344489Y279528D02*
D03*
X342520Y275591D02*
D03*
X344489Y271654D02*
D03*
X342520Y267717D02*
D03*
X344489Y263780D02*
D03*
X342520Y259843D02*
D03*
X344489Y255906D02*
D03*
X342520Y251969D02*
D03*
X344489Y248032D02*
D03*
X342520Y244095D02*
D03*
X344489Y240158D02*
D03*
X342520Y236221D02*
D03*
X344489Y232284D02*
D03*
X342520Y228346D02*
D03*
X344489Y224410D02*
D03*
X342520Y220473D02*
D03*
X344489Y216535D02*
D03*
X342520Y212598D02*
D03*
X344489Y208662D02*
D03*
X342520Y204725D02*
D03*
X344489Y200787D02*
D03*
X342520Y196851D02*
D03*
X344489Y192913D02*
D03*
Y161417D02*
D03*
X342520Y157480D02*
D03*
X344489Y153543D02*
D03*
X342520Y149606D02*
D03*
X344489Y145669D02*
D03*
X342520Y141732D02*
D03*
X344489Y137795D02*
D03*
X342520Y133858D02*
D03*
X344489Y129921D02*
D03*
X342520Y125984D02*
D03*
X344489Y122047D02*
D03*
X342520Y118110D02*
D03*
X344489Y114173D02*
D03*
X342520Y110236D02*
D03*
X344489Y106299D02*
D03*
X342520Y102362D02*
D03*
X344489Y98425D02*
D03*
X342520Y94488D02*
D03*
X344489Y90551D02*
D03*
X342520Y86614D02*
D03*
X344489Y82677D02*
D03*
X342520Y78740D02*
D03*
X344489Y74803D02*
D03*
X342520Y70866D02*
D03*
X344489Y66929D02*
D03*
X342520Y62992D02*
D03*
X344489Y59055D02*
D03*
X342520Y55118D02*
D03*
X344489Y51181D02*
D03*
X342520Y47244D02*
D03*
X344489Y19685D02*
D03*
X342520Y15748D02*
D03*
X338583Y338583D02*
D03*
X340551Y334646D02*
D03*
X338583Y330709D02*
D03*
Y322835D02*
D03*
Y314961D02*
D03*
X340551Y311024D02*
D03*
X338583Y307087D02*
D03*
X340551Y303150D02*
D03*
X338583Y299213D02*
D03*
X340551Y295276D02*
D03*
X338583Y291339D02*
D03*
X340551Y287402D02*
D03*
X338583Y283465D02*
D03*
X340551Y279528D02*
D03*
X338583Y275591D02*
D03*
X340551Y271654D02*
D03*
X338583Y267717D02*
D03*
X340551Y263780D02*
D03*
X338583Y259843D02*
D03*
X340551Y255906D02*
D03*
X338583Y251969D02*
D03*
X340551Y248032D02*
D03*
X338583Y244095D02*
D03*
X340551Y240158D02*
D03*
X338583Y236221D02*
D03*
X340551Y232284D02*
D03*
X338583Y228346D02*
D03*
X340551Y224410D02*
D03*
X338583Y220473D02*
D03*
X340551Y216535D02*
D03*
X338583Y212598D02*
D03*
X340551Y208662D02*
D03*
X338583Y204725D02*
D03*
X340551Y200787D02*
D03*
X338583Y196851D02*
D03*
Y157480D02*
D03*
X340551Y153543D02*
D03*
X338583Y149606D02*
D03*
X340551Y145669D02*
D03*
X338583Y141732D02*
D03*
X340551Y137795D02*
D03*
X338583Y133858D02*
D03*
X340551Y129921D02*
D03*
X338583Y125984D02*
D03*
X340551Y122047D02*
D03*
X338583Y118110D02*
D03*
X340551Y114173D02*
D03*
X338583Y110236D02*
D03*
X340551Y106299D02*
D03*
X338583Y102362D02*
D03*
X340551Y98425D02*
D03*
X338583Y94488D02*
D03*
X340551Y90551D02*
D03*
X338583Y86614D02*
D03*
X340551Y82677D02*
D03*
X338583Y78740D02*
D03*
X340551Y74803D02*
D03*
X338583Y70866D02*
D03*
X340551Y66929D02*
D03*
X338583Y62992D02*
D03*
X340551Y59055D02*
D03*
X338583Y55118D02*
D03*
X340551Y51181D02*
D03*
X338583Y47244D02*
D03*
X340551Y43307D02*
D03*
X338583Y39370D02*
D03*
Y31496D02*
D03*
Y23622D02*
D03*
X340551Y19685D02*
D03*
X338583Y15748D02*
D03*
X334646Y338583D02*
D03*
X336614Y334646D02*
D03*
X334646Y330709D02*
D03*
X336614Y326772D02*
D03*
X334646Y322835D02*
D03*
X336614Y318898D02*
D03*
X334646Y314961D02*
D03*
X336614Y311024D02*
D03*
X334646Y307087D02*
D03*
X336614Y303150D02*
D03*
X334646Y299213D02*
D03*
X336614Y295276D02*
D03*
X334646Y291339D02*
D03*
X336614Y287402D02*
D03*
X334646Y283465D02*
D03*
X336614Y279528D02*
D03*
X334646Y275591D02*
D03*
X336614Y271654D02*
D03*
X334646Y267717D02*
D03*
X336614Y263780D02*
D03*
X334646Y259843D02*
D03*
X336614Y255906D02*
D03*
X334646Y251969D02*
D03*
X336614Y248032D02*
D03*
X334646Y244095D02*
D03*
X336614Y240158D02*
D03*
X334646Y236221D02*
D03*
X336614Y232284D02*
D03*
X334646Y228346D02*
D03*
X336614Y224410D02*
D03*
X334646Y220473D02*
D03*
X336614Y216535D02*
D03*
X334646Y212598D02*
D03*
X336614Y208662D02*
D03*
X334646Y204725D02*
D03*
X336614Y200787D02*
D03*
X334646Y196851D02*
D03*
X336614Y192913D02*
D03*
Y161417D02*
D03*
X334646Y157480D02*
D03*
X336614Y153543D02*
D03*
X334646Y149606D02*
D03*
X336614Y145669D02*
D03*
X334646Y141732D02*
D03*
X336614Y137795D02*
D03*
X334646Y133858D02*
D03*
X336614Y129921D02*
D03*
X334646Y125984D02*
D03*
X336614Y122047D02*
D03*
X334646Y118110D02*
D03*
X336614Y114173D02*
D03*
X334646Y110236D02*
D03*
X336614Y106299D02*
D03*
X334646Y102362D02*
D03*
X336614Y98425D02*
D03*
X334646Y94488D02*
D03*
X336614Y90551D02*
D03*
X334646Y86614D02*
D03*
X336614Y82677D02*
D03*
X334646Y78740D02*
D03*
X336614Y74803D02*
D03*
X334646Y70866D02*
D03*
X336614Y66929D02*
D03*
X334646Y62992D02*
D03*
X336614Y59055D02*
D03*
X334646Y55118D02*
D03*
X336614Y51181D02*
D03*
X334646Y47244D02*
D03*
X336614Y43307D02*
D03*
X334646Y39370D02*
D03*
X336614Y35433D02*
D03*
X334646Y31496D02*
D03*
X336614Y27559D02*
D03*
X334646Y23622D02*
D03*
X336614Y19685D02*
D03*
X334646Y15748D02*
D03*
X330709Y338583D02*
D03*
X332678Y334646D02*
D03*
X330709Y330709D02*
D03*
X332678Y326772D02*
D03*
X330709Y322835D02*
D03*
X332678Y318898D02*
D03*
X330709Y314961D02*
D03*
X332678Y311024D02*
D03*
X330709Y307087D02*
D03*
X332678Y303150D02*
D03*
X330709Y299213D02*
D03*
X332678Y295276D02*
D03*
X330709Y291339D02*
D03*
X332678Y287402D02*
D03*
X330709Y283465D02*
D03*
X332678Y279528D02*
D03*
X330709Y275591D02*
D03*
X332678Y271654D02*
D03*
X330709Y267717D02*
D03*
X332678Y263780D02*
D03*
X330709Y259843D02*
D03*
X332678Y255906D02*
D03*
X330709Y251969D02*
D03*
X332678Y248032D02*
D03*
X330709Y244095D02*
D03*
X332678Y240158D02*
D03*
X330709Y236221D02*
D03*
X332678Y232284D02*
D03*
X330709Y228346D02*
D03*
X332678Y224410D02*
D03*
X330709Y220473D02*
D03*
X332678Y216535D02*
D03*
X330709Y212598D02*
D03*
X332678Y208662D02*
D03*
X330709Y204725D02*
D03*
X332678Y200787D02*
D03*
X330709Y196851D02*
D03*
X332678Y192913D02*
D03*
X330709Y165354D02*
D03*
X332678Y161417D02*
D03*
X330709Y157480D02*
D03*
X332678Y153543D02*
D03*
X330709Y149606D02*
D03*
X332678Y145669D02*
D03*
X330709Y141732D02*
D03*
X332678Y137795D02*
D03*
X330709Y133858D02*
D03*
X332678Y129921D02*
D03*
X330709Y125984D02*
D03*
X332678Y122047D02*
D03*
X330709Y118110D02*
D03*
X332678Y114173D02*
D03*
X330709Y110236D02*
D03*
X332678Y106299D02*
D03*
X330709Y102362D02*
D03*
X332678Y98425D02*
D03*
X330709Y94488D02*
D03*
X332678Y90551D02*
D03*
X330709Y86614D02*
D03*
X332678Y82677D02*
D03*
X330709Y78740D02*
D03*
X332678Y74803D02*
D03*
X330709Y70866D02*
D03*
X332678Y66929D02*
D03*
X330709Y62992D02*
D03*
X332678Y59055D02*
D03*
X330709Y55118D02*
D03*
X332678Y51181D02*
D03*
X330709Y47244D02*
D03*
X332678Y43307D02*
D03*
X330709Y39370D02*
D03*
X332678Y35433D02*
D03*
X330709Y31496D02*
D03*
X332678Y27559D02*
D03*
X330709Y23622D02*
D03*
X332678Y19685D02*
D03*
X330709Y15748D02*
D03*
X326772Y338583D02*
D03*
X328741Y334646D02*
D03*
X326772Y330709D02*
D03*
X328741Y326772D02*
D03*
X326772Y322835D02*
D03*
X328741Y318898D02*
D03*
X326772Y314961D02*
D03*
X328741Y311024D02*
D03*
X326772Y307087D02*
D03*
X328741Y303150D02*
D03*
X326772Y299213D02*
D03*
X328741Y295276D02*
D03*
X326772Y291339D02*
D03*
X328741Y287402D02*
D03*
X326772Y283465D02*
D03*
X328741Y279528D02*
D03*
X326772Y275591D02*
D03*
X328741Y271654D02*
D03*
X326772Y267717D02*
D03*
X328741Y263780D02*
D03*
X326772Y259843D02*
D03*
X328741Y255906D02*
D03*
X326772Y251969D02*
D03*
X328741Y248032D02*
D03*
X326772Y244095D02*
D03*
X328741Y240158D02*
D03*
X326772Y236221D02*
D03*
X328741Y232284D02*
D03*
X326772Y228346D02*
D03*
X328741Y224410D02*
D03*
X326772Y220473D02*
D03*
X328741Y216535D02*
D03*
X326772Y212598D02*
D03*
X328741Y208662D02*
D03*
X326772Y204725D02*
D03*
X328741Y200787D02*
D03*
X326772Y196851D02*
D03*
X328741Y192913D02*
D03*
X326772Y188976D02*
D03*
X328741Y161417D02*
D03*
Y153543D02*
D03*
Y145669D02*
D03*
Y137795D02*
D03*
Y129921D02*
D03*
Y122047D02*
D03*
Y114173D02*
D03*
Y90551D02*
D03*
X326772Y86614D02*
D03*
X328741Y82677D02*
D03*
X326772Y78740D02*
D03*
X328741Y74803D02*
D03*
X326772Y70866D02*
D03*
X328741Y66929D02*
D03*
X326772Y62992D02*
D03*
X328741Y59055D02*
D03*
X326772Y55118D02*
D03*
X328741Y51181D02*
D03*
X326772Y47244D02*
D03*
X328741Y43307D02*
D03*
X326772Y39370D02*
D03*
X328741Y35433D02*
D03*
X326772Y31496D02*
D03*
X328741Y27559D02*
D03*
X326772Y23622D02*
D03*
X328741Y19685D02*
D03*
X326772Y15748D02*
D03*
X322835Y338583D02*
D03*
X324803Y334646D02*
D03*
X322835Y330709D02*
D03*
X324803Y326772D02*
D03*
X322835Y322835D02*
D03*
X324803Y318898D02*
D03*
X322835Y314961D02*
D03*
X324803Y311024D02*
D03*
X322835Y307087D02*
D03*
X324803Y303150D02*
D03*
X322835Y299213D02*
D03*
X324803Y295276D02*
D03*
X322835Y291339D02*
D03*
X324803Y287402D02*
D03*
X322835Y283465D02*
D03*
X324803Y279528D02*
D03*
X322835Y275591D02*
D03*
X324803Y271654D02*
D03*
X322835Y267717D02*
D03*
X324803Y263780D02*
D03*
X322835Y259843D02*
D03*
X324803Y255906D02*
D03*
X322835Y251969D02*
D03*
X324803Y248032D02*
D03*
X322835Y244095D02*
D03*
X324803Y240158D02*
D03*
X322835Y236221D02*
D03*
X324803Y232284D02*
D03*
X322835Y228346D02*
D03*
X324803Y224410D02*
D03*
X322835Y220473D02*
D03*
X324803Y216535D02*
D03*
X322835Y212598D02*
D03*
X324803Y208662D02*
D03*
X322835Y204725D02*
D03*
X324803Y200787D02*
D03*
X322835Y196851D02*
D03*
X324803Y192913D02*
D03*
X322835Y188976D02*
D03*
X324803Y177165D02*
D03*
Y90551D02*
D03*
X322835Y86614D02*
D03*
X324803Y82677D02*
D03*
X322835Y78740D02*
D03*
X324803Y74803D02*
D03*
X322835Y70866D02*
D03*
X324803Y66929D02*
D03*
X322835Y62992D02*
D03*
X324803Y59055D02*
D03*
X322835Y55118D02*
D03*
X324803Y51181D02*
D03*
X322835Y47244D02*
D03*
X324803Y43307D02*
D03*
X322835Y39370D02*
D03*
X324803Y35433D02*
D03*
X322835Y31496D02*
D03*
X324803Y27559D02*
D03*
X322835Y23622D02*
D03*
X324803Y19685D02*
D03*
X322835Y15748D02*
D03*
X318898Y338583D02*
D03*
X320866Y334646D02*
D03*
X318898Y330709D02*
D03*
X320866Y326772D02*
D03*
X318898Y322835D02*
D03*
X320866Y318898D02*
D03*
X318898Y314961D02*
D03*
X320866Y311024D02*
D03*
X318898Y307087D02*
D03*
X320866Y303150D02*
D03*
X318898Y299213D02*
D03*
X320866Y295276D02*
D03*
X318898Y291339D02*
D03*
X320866Y287402D02*
D03*
X318898Y283465D02*
D03*
X320866Y279528D02*
D03*
X318898Y275591D02*
D03*
X320866Y271654D02*
D03*
X318898Y267717D02*
D03*
X320866Y263780D02*
D03*
X318898Y259843D02*
D03*
X320866Y255906D02*
D03*
X318898Y251969D02*
D03*
X320866Y248032D02*
D03*
X318898Y244095D02*
D03*
X320866Y240158D02*
D03*
X318898Y236221D02*
D03*
X320866Y232284D02*
D03*
X318898Y228346D02*
D03*
X320866Y224410D02*
D03*
X318898Y220473D02*
D03*
X320866Y216535D02*
D03*
X318898Y212598D02*
D03*
X320866Y208662D02*
D03*
X318898Y204725D02*
D03*
X320866Y200787D02*
D03*
X318898Y196851D02*
D03*
X320866Y192913D02*
D03*
X318898Y188976D02*
D03*
X320866Y177165D02*
D03*
X318898Y173228D02*
D03*
Y165354D02*
D03*
Y157480D02*
D03*
Y149606D02*
D03*
Y141732D02*
D03*
Y133858D02*
D03*
Y125984D02*
D03*
Y118110D02*
D03*
X320866Y82677D02*
D03*
X318898Y78740D02*
D03*
X320866Y74803D02*
D03*
X318898Y70866D02*
D03*
X320866Y66929D02*
D03*
X318898Y62992D02*
D03*
X320866Y59055D02*
D03*
X318898Y55118D02*
D03*
X320866Y51181D02*
D03*
X318898Y47244D02*
D03*
X320866Y43307D02*
D03*
X318898Y39370D02*
D03*
X320866Y35433D02*
D03*
X318898Y31496D02*
D03*
X320866Y27559D02*
D03*
X318898Y23622D02*
D03*
X320866Y19685D02*
D03*
X318898Y15748D02*
D03*
X314961Y338583D02*
D03*
X316930Y334646D02*
D03*
X314961Y330709D02*
D03*
X316930Y326772D02*
D03*
X314961Y322835D02*
D03*
X316930Y318898D02*
D03*
X314961Y314961D02*
D03*
X316930Y311024D02*
D03*
X314961Y307087D02*
D03*
X316930Y303150D02*
D03*
X314961Y299213D02*
D03*
X316930Y295276D02*
D03*
X314961Y291339D02*
D03*
X316930Y287402D02*
D03*
X314961Y283465D02*
D03*
X316930Y279528D02*
D03*
X314961Y275591D02*
D03*
X316930Y271654D02*
D03*
X314961Y267717D02*
D03*
X316930Y263780D02*
D03*
X314961Y259843D02*
D03*
X316930Y255906D02*
D03*
X314961Y251969D02*
D03*
X316930Y248032D02*
D03*
X314961Y244095D02*
D03*
X316930Y240158D02*
D03*
Y232284D02*
D03*
Y224410D02*
D03*
X314961Y220473D02*
D03*
X316930Y216535D02*
D03*
X314961Y212598D02*
D03*
X316930Y208662D02*
D03*
X314961Y204725D02*
D03*
X316930Y200787D02*
D03*
X314961Y196851D02*
D03*
X316930Y192913D02*
D03*
Y177165D02*
D03*
X314961Y173228D02*
D03*
X316930Y169291D02*
D03*
X314961Y165354D02*
D03*
X316930Y161417D02*
D03*
X314961Y157480D02*
D03*
X316930Y153543D02*
D03*
X314961Y149606D02*
D03*
X316930Y145669D02*
D03*
X314961Y141732D02*
D03*
X316930Y137795D02*
D03*
X314961Y133858D02*
D03*
X316930Y129921D02*
D03*
X314961Y125984D02*
D03*
X316930Y122047D02*
D03*
X314961Y118110D02*
D03*
X316930Y114173D02*
D03*
X314961Y110236D02*
D03*
X316930Y106299D02*
D03*
X314961Y102362D02*
D03*
X316930Y98425D02*
D03*
Y82677D02*
D03*
X314961Y78740D02*
D03*
X316930Y74803D02*
D03*
X314961Y70866D02*
D03*
X316930Y66929D02*
D03*
X314961Y62992D02*
D03*
X316930Y59055D02*
D03*
X314961Y55118D02*
D03*
X316930Y51181D02*
D03*
X314961Y47244D02*
D03*
X316930Y43307D02*
D03*
X314961Y39370D02*
D03*
X316930Y35433D02*
D03*
X314961Y31496D02*
D03*
X316930Y27559D02*
D03*
X314961Y23622D02*
D03*
X316930Y19685D02*
D03*
X314961Y15748D02*
D03*
X311024Y338583D02*
D03*
X312993Y334646D02*
D03*
X311024Y330709D02*
D03*
X312993Y326772D02*
D03*
X311024Y322835D02*
D03*
X312993Y318898D02*
D03*
X311024Y314961D02*
D03*
X312993Y311024D02*
D03*
X311024Y307087D02*
D03*
X312993Y303150D02*
D03*
X311024Y299213D02*
D03*
X312993Y295276D02*
D03*
X311024Y291339D02*
D03*
X312993Y287402D02*
D03*
X311024Y283465D02*
D03*
X312993Y271654D02*
D03*
X311024Y267717D02*
D03*
X312993Y263780D02*
D03*
X311024Y259843D02*
D03*
X312993Y255906D02*
D03*
X311024Y251969D02*
D03*
X312993Y248032D02*
D03*
X311024Y244095D02*
D03*
Y181102D02*
D03*
X312993Y177165D02*
D03*
X311024Y173228D02*
D03*
X312993Y169291D02*
D03*
X311024Y165354D02*
D03*
X312993Y161417D02*
D03*
X311024Y157480D02*
D03*
X312993Y153543D02*
D03*
X311024Y149606D02*
D03*
X312993Y145669D02*
D03*
X311024Y141732D02*
D03*
X312993Y137795D02*
D03*
X311024Y133858D02*
D03*
X312993Y129921D02*
D03*
X311024Y125984D02*
D03*
X312993Y122047D02*
D03*
X311024Y118110D02*
D03*
X312993Y114173D02*
D03*
X311024Y110236D02*
D03*
Y102362D02*
D03*
X312993Y98425D02*
D03*
X311024Y94488D02*
D03*
X312993Y82677D02*
D03*
X311024Y78740D02*
D03*
X312993Y74803D02*
D03*
X311024Y70866D02*
D03*
X312993Y66929D02*
D03*
X311024Y62992D02*
D03*
X312993Y59055D02*
D03*
X311024Y55118D02*
D03*
X312993Y51181D02*
D03*
X311024Y47244D02*
D03*
X312993Y43307D02*
D03*
X311024Y39370D02*
D03*
X312993Y35433D02*
D03*
X311024Y31496D02*
D03*
X312993Y27559D02*
D03*
X311024Y23622D02*
D03*
X312993Y19685D02*
D03*
X311024Y15748D02*
D03*
X307087Y338583D02*
D03*
X309055Y334646D02*
D03*
X307087Y330709D02*
D03*
X309055Y326772D02*
D03*
X307087Y322835D02*
D03*
X309055Y318898D02*
D03*
X307087Y314961D02*
D03*
X309055Y311024D02*
D03*
X307087Y307087D02*
D03*
X309055Y303150D02*
D03*
X307087Y299213D02*
D03*
X309055Y295276D02*
D03*
X307087Y291339D02*
D03*
X309055Y287402D02*
D03*
Y271654D02*
D03*
Y263780D02*
D03*
X307087Y259843D02*
D03*
X309055Y255906D02*
D03*
Y248032D02*
D03*
X307087Y188976D02*
D03*
X309055Y185039D02*
D03*
X307087Y181102D02*
D03*
X309055Y177165D02*
D03*
X307087Y173228D02*
D03*
X309055Y169291D02*
D03*
X307087Y165354D02*
D03*
X309055Y161417D02*
D03*
X307087Y157480D02*
D03*
X309055Y153543D02*
D03*
X307087Y149606D02*
D03*
X309055Y145669D02*
D03*
X307087Y141732D02*
D03*
X309055Y137795D02*
D03*
X307087Y133858D02*
D03*
X309055Y129921D02*
D03*
X307087Y125984D02*
D03*
X309055Y122047D02*
D03*
X307087Y118110D02*
D03*
X309055Y114173D02*
D03*
Y98425D02*
D03*
Y74803D02*
D03*
X307087Y70866D02*
D03*
X309055Y66929D02*
D03*
X307087Y62992D02*
D03*
X309055Y59055D02*
D03*
X307087Y55118D02*
D03*
X309055Y51181D02*
D03*
X307087Y47244D02*
D03*
X309055Y43307D02*
D03*
X307087Y39370D02*
D03*
X309055Y35433D02*
D03*
X307087Y31496D02*
D03*
X309055Y27559D02*
D03*
X307087Y23622D02*
D03*
X309055Y19685D02*
D03*
X307087Y15748D02*
D03*
X303150Y338583D02*
D03*
X305118Y334646D02*
D03*
X303150Y330709D02*
D03*
X305118Y326772D02*
D03*
X303150Y322835D02*
D03*
X305118Y318898D02*
D03*
X303150Y314961D02*
D03*
X305118Y311024D02*
D03*
X303150Y307087D02*
D03*
X305118Y303150D02*
D03*
X303150Y299213D02*
D03*
X305118Y295276D02*
D03*
X303150Y291339D02*
D03*
X305118Y287402D02*
D03*
X303150Y283465D02*
D03*
X305118Y255906D02*
D03*
X303150Y236221D02*
D03*
X305118Y232284D02*
D03*
X303150Y228346D02*
D03*
X305118Y224410D02*
D03*
X303150Y220473D02*
D03*
X305118Y216535D02*
D03*
X303150Y212598D02*
D03*
X305118Y208662D02*
D03*
X303150Y204725D02*
D03*
X305118Y200787D02*
D03*
X303150Y196851D02*
D03*
X305118Y192913D02*
D03*
X303150Y188976D02*
D03*
X305118Y185039D02*
D03*
X303150Y181102D02*
D03*
X305118Y177165D02*
D03*
X303150Y173228D02*
D03*
X305118Y169291D02*
D03*
X303150Y165354D02*
D03*
X305118Y161417D02*
D03*
X303150Y157480D02*
D03*
X305118Y153543D02*
D03*
X303150Y149606D02*
D03*
X305118Y145669D02*
D03*
X303150Y141732D02*
D03*
X305118Y137795D02*
D03*
X303150Y133858D02*
D03*
X305118Y129921D02*
D03*
X303150Y125984D02*
D03*
X305118Y122047D02*
D03*
X303150Y118110D02*
D03*
X305118Y114173D02*
D03*
Y74803D02*
D03*
X303150Y70866D02*
D03*
X305118Y66929D02*
D03*
X303150Y62992D02*
D03*
X305118Y59055D02*
D03*
X303150Y55118D02*
D03*
X305118Y51181D02*
D03*
X303150Y47244D02*
D03*
X305118Y43307D02*
D03*
X303150Y39370D02*
D03*
X305118Y35433D02*
D03*
X303150Y31496D02*
D03*
X305118Y27559D02*
D03*
X303150Y23622D02*
D03*
X305118Y19685D02*
D03*
X303150Y15748D02*
D03*
X301181Y334646D02*
D03*
Y326772D02*
D03*
Y318898D02*
D03*
Y311024D02*
D03*
X299213Y307087D02*
D03*
X301181Y303150D02*
D03*
X299213Y299213D02*
D03*
X301181Y295276D02*
D03*
X299213Y291339D02*
D03*
X301181Y287402D02*
D03*
X299213Y283465D02*
D03*
Y236221D02*
D03*
X301181Y232284D02*
D03*
X299213Y228346D02*
D03*
X301181Y224410D02*
D03*
X299213Y220473D02*
D03*
X301181Y216535D02*
D03*
X299213Y212598D02*
D03*
X301181Y208662D02*
D03*
X299213Y204725D02*
D03*
X301181Y200787D02*
D03*
X299213Y196851D02*
D03*
X301181Y192913D02*
D03*
X299213Y188976D02*
D03*
X301181Y185039D02*
D03*
X299213Y181102D02*
D03*
X301181Y177165D02*
D03*
Y169291D02*
D03*
Y161417D02*
D03*
Y153543D02*
D03*
Y145669D02*
D03*
Y137795D02*
D03*
X299213Y133858D02*
D03*
X301181Y129921D02*
D03*
X299213Y125984D02*
D03*
X301181Y122047D02*
D03*
X299213Y118110D02*
D03*
X301181Y114173D02*
D03*
Y74803D02*
D03*
X299213Y70866D02*
D03*
X301181Y66929D02*
D03*
X299213Y62992D02*
D03*
X301181Y59055D02*
D03*
X299213Y55118D02*
D03*
X301181Y51181D02*
D03*
X299213Y47244D02*
D03*
X301181Y43307D02*
D03*
X299213Y39370D02*
D03*
X301181Y35433D02*
D03*
X299213Y31496D02*
D03*
X301181Y27559D02*
D03*
X299213Y23622D02*
D03*
X301181Y19685D02*
D03*
X299213Y15748D02*
D03*
X297244Y303150D02*
D03*
X295276Y299213D02*
D03*
X297244Y295276D02*
D03*
X295276Y291339D02*
D03*
X297244Y287402D02*
D03*
X295276Y244095D02*
D03*
X297244Y240158D02*
D03*
X295276Y236221D02*
D03*
X297244Y232284D02*
D03*
X295276Y228346D02*
D03*
X297244Y224410D02*
D03*
X295276Y220473D02*
D03*
X297244Y216535D02*
D03*
X295276Y212598D02*
D03*
X297244Y208662D02*
D03*
X295276Y204725D02*
D03*
X297244Y200787D02*
D03*
X295276Y196851D02*
D03*
X297244Y192913D02*
D03*
X295276Y188976D02*
D03*
X297244Y185039D02*
D03*
X295276Y181102D02*
D03*
X297244Y129921D02*
D03*
X295276Y118110D02*
D03*
X297244Y114173D02*
D03*
Y74803D02*
D03*
X295276Y70866D02*
D03*
X297244Y66929D02*
D03*
X295276Y62992D02*
D03*
X297244Y59055D02*
D03*
X295276Y55118D02*
D03*
X297244Y51181D02*
D03*
X295276Y47244D02*
D03*
X297244Y43307D02*
D03*
X295276Y39370D02*
D03*
X297244Y35433D02*
D03*
X295276Y31496D02*
D03*
X297244Y27559D02*
D03*
X295276Y23622D02*
D03*
X297244Y19685D02*
D03*
X295276Y15748D02*
D03*
X293307Y303150D02*
D03*
X291339Y299213D02*
D03*
Y291339D02*
D03*
X293307Y287402D02*
D03*
Y240158D02*
D03*
X291339Y236221D02*
D03*
X293307Y232284D02*
D03*
X291339Y228346D02*
D03*
X293307Y224410D02*
D03*
X291339Y220473D02*
D03*
X293307Y216535D02*
D03*
X291339Y212598D02*
D03*
X293307Y208662D02*
D03*
X291339Y204725D02*
D03*
X293307Y200787D02*
D03*
X291339Y196851D02*
D03*
X293307Y192913D02*
D03*
X291339Y188976D02*
D03*
X293307Y185039D02*
D03*
X291339Y181102D02*
D03*
X293307Y129921D02*
D03*
X291339Y118110D02*
D03*
X293307Y66929D02*
D03*
X291339Y62992D02*
D03*
X293307Y59055D02*
D03*
X291339Y55118D02*
D03*
X293307Y51181D02*
D03*
X291339Y47244D02*
D03*
X293307Y43307D02*
D03*
X291339Y39370D02*
D03*
X293307Y35433D02*
D03*
X291339Y31496D02*
D03*
X293307Y27559D02*
D03*
X291339Y23622D02*
D03*
X293307Y19685D02*
D03*
X291339Y15748D02*
D03*
X287402Y338583D02*
D03*
X289370Y334646D02*
D03*
X287402Y330709D02*
D03*
X289370Y326772D02*
D03*
X287402Y322835D02*
D03*
X289370Y303150D02*
D03*
X287402Y299213D02*
D03*
X289370Y287402D02*
D03*
X287402Y236221D02*
D03*
X289370Y232284D02*
D03*
X287402Y228346D02*
D03*
X289370Y224410D02*
D03*
X287402Y220473D02*
D03*
X289370Y216535D02*
D03*
X287402Y212598D02*
D03*
X289370Y208662D02*
D03*
X287402Y204725D02*
D03*
X289370Y200787D02*
D03*
X287402Y196851D02*
D03*
X289370Y192913D02*
D03*
X287402Y188976D02*
D03*
X289370Y185039D02*
D03*
X287402Y181102D02*
D03*
Y165354D02*
D03*
X289370Y161417D02*
D03*
X287402Y157480D02*
D03*
X289370Y153543D02*
D03*
X287402Y149606D02*
D03*
X289370Y129921D02*
D03*
X287402Y62992D02*
D03*
X289370Y59055D02*
D03*
X287402Y55118D02*
D03*
X289370Y51181D02*
D03*
X287402Y47244D02*
D03*
X289370Y43307D02*
D03*
X287402Y39370D02*
D03*
X289370Y35433D02*
D03*
X287402Y31496D02*
D03*
X289370Y27559D02*
D03*
X287402Y23622D02*
D03*
X289370Y19685D02*
D03*
X287402Y15748D02*
D03*
X283465Y338583D02*
D03*
X285433Y334646D02*
D03*
X283465Y330709D02*
D03*
X285433Y326772D02*
D03*
X283465Y322835D02*
D03*
Y291339D02*
D03*
Y275591D02*
D03*
Y236221D02*
D03*
X285433Y232284D02*
D03*
X283465Y228346D02*
D03*
X285433Y224410D02*
D03*
X283465Y220473D02*
D03*
X285433Y216535D02*
D03*
X283465Y212598D02*
D03*
X285433Y208662D02*
D03*
X283465Y204725D02*
D03*
X285433Y200787D02*
D03*
X283465Y196851D02*
D03*
X285433Y192913D02*
D03*
X283465Y188976D02*
D03*
X285433Y185039D02*
D03*
X283465Y181102D02*
D03*
X285433Y169291D02*
D03*
X283465Y165354D02*
D03*
X285433Y161417D02*
D03*
X283465Y157480D02*
D03*
X285433Y153543D02*
D03*
X283465Y149606D02*
D03*
Y133858D02*
D03*
Y118110D02*
D03*
Y102362D02*
D03*
Y62992D02*
D03*
X285433Y59055D02*
D03*
X283465Y55118D02*
D03*
X285433Y51181D02*
D03*
X283465Y47244D02*
D03*
X285433Y43307D02*
D03*
X283465Y39370D02*
D03*
X285433Y35433D02*
D03*
X283465Y31496D02*
D03*
X285433Y27559D02*
D03*
X283465Y23622D02*
D03*
X285433Y19685D02*
D03*
X283465Y15748D02*
D03*
X279528Y338583D02*
D03*
X281496Y334646D02*
D03*
X279528Y330709D02*
D03*
X281496Y326772D02*
D03*
X279528Y322835D02*
D03*
X281496Y318898D02*
D03*
Y303150D02*
D03*
Y232284D02*
D03*
X279528Y228346D02*
D03*
X281496Y224410D02*
D03*
X279528Y220473D02*
D03*
X281496Y216535D02*
D03*
X279528Y212598D02*
D03*
X281496Y208662D02*
D03*
X279528Y204725D02*
D03*
X281496Y200787D02*
D03*
X279528Y196851D02*
D03*
X281496Y192913D02*
D03*
X279528Y188976D02*
D03*
X281496Y185039D02*
D03*
X279528Y181102D02*
D03*
X281496Y169291D02*
D03*
X279528Y165354D02*
D03*
X281496Y161417D02*
D03*
X279528Y157480D02*
D03*
X281496Y153543D02*
D03*
X279528Y141732D02*
D03*
X281496Y129921D02*
D03*
Y59055D02*
D03*
X279528Y55118D02*
D03*
X281496Y51181D02*
D03*
X279528Y47244D02*
D03*
X281496Y43307D02*
D03*
X279528Y39370D02*
D03*
X281496Y35433D02*
D03*
X279528Y31496D02*
D03*
X281496Y27559D02*
D03*
X279528Y23622D02*
D03*
X281496Y19685D02*
D03*
X279528Y15748D02*
D03*
X275591Y338583D02*
D03*
X277559Y334646D02*
D03*
X275591Y330709D02*
D03*
X277559Y326772D02*
D03*
X275591Y322835D02*
D03*
Y228346D02*
D03*
X277559Y224410D02*
D03*
X275591Y220473D02*
D03*
X277559Y216535D02*
D03*
X275591Y212598D02*
D03*
X277559Y208662D02*
D03*
X275591Y204725D02*
D03*
X277559Y200787D02*
D03*
X275591Y196851D02*
D03*
X277559Y192913D02*
D03*
X275591Y188976D02*
D03*
X277559Y185039D02*
D03*
X275591Y181102D02*
D03*
X277559Y169291D02*
D03*
X275591Y165354D02*
D03*
X277559Y161417D02*
D03*
X275591Y157480D02*
D03*
X277559Y153543D02*
D03*
X275591Y70866D02*
D03*
X277559Y66929D02*
D03*
X275591Y55118D02*
D03*
X277559Y51181D02*
D03*
X275591Y47244D02*
D03*
X277559Y43307D02*
D03*
X275591Y39370D02*
D03*
X277559Y35433D02*
D03*
X275591Y31496D02*
D03*
X277559Y27559D02*
D03*
X275591Y23622D02*
D03*
X277559Y19685D02*
D03*
X275591Y15748D02*
D03*
X271654Y338583D02*
D03*
X273622Y334646D02*
D03*
X271654Y330709D02*
D03*
X273622Y326772D02*
D03*
X271654Y322835D02*
D03*
X273622Y318898D02*
D03*
Y311024D02*
D03*
X271654Y307087D02*
D03*
X273622Y295276D02*
D03*
Y279528D02*
D03*
X271654Y275591D02*
D03*
X273622Y271654D02*
D03*
X271654Y244095D02*
D03*
X273622Y240158D02*
D03*
X271654Y228346D02*
D03*
X273622Y224410D02*
D03*
X271654Y220473D02*
D03*
X273622Y216535D02*
D03*
X271654Y212598D02*
D03*
X273622Y208662D02*
D03*
X271654Y204725D02*
D03*
X273622Y200787D02*
D03*
X271654Y196851D02*
D03*
X273622Y192913D02*
D03*
X271654Y188976D02*
D03*
X273622Y185039D02*
D03*
X271654Y181102D02*
D03*
X273622Y169291D02*
D03*
X271654Y165354D02*
D03*
X273622Y161417D02*
D03*
X271654Y157480D02*
D03*
X273622Y153543D02*
D03*
X271654Y149606D02*
D03*
X273622Y106299D02*
D03*
X271654Y102362D02*
D03*
X273622Y66929D02*
D03*
Y59055D02*
D03*
X271654Y55118D02*
D03*
X273622Y51181D02*
D03*
X271654Y47244D02*
D03*
X273622Y43307D02*
D03*
X271654Y39370D02*
D03*
X273622Y35433D02*
D03*
X271654Y31496D02*
D03*
X273622Y27559D02*
D03*
X271654Y23622D02*
D03*
X273622Y19685D02*
D03*
X271654Y15748D02*
D03*
X267717Y338583D02*
D03*
X269685Y334646D02*
D03*
X267717Y330709D02*
D03*
X269685Y326772D02*
D03*
X267717Y322835D02*
D03*
X269685Y311024D02*
D03*
X267717Y307087D02*
D03*
X269685Y279528D02*
D03*
X267717Y275591D02*
D03*
X269685Y271654D02*
D03*
X267717Y251969D02*
D03*
X269685Y240158D02*
D03*
Y224410D02*
D03*
X267717Y220473D02*
D03*
X269685Y216535D02*
D03*
X267717Y212598D02*
D03*
X269685Y208662D02*
D03*
X267717Y204725D02*
D03*
X269685Y200787D02*
D03*
X267717Y196851D02*
D03*
X269685Y192913D02*
D03*
X267717Y188976D02*
D03*
X269685Y185039D02*
D03*
X267717Y181102D02*
D03*
X269685Y169291D02*
D03*
X267717Y165354D02*
D03*
X269685Y161417D02*
D03*
X267717Y157480D02*
D03*
X269685Y153543D02*
D03*
X267717Y149606D02*
D03*
X269685Y137795D02*
D03*
Y106299D02*
D03*
X267717Y102362D02*
D03*
X269685Y51181D02*
D03*
X267717Y47244D02*
D03*
X269685Y43307D02*
D03*
X267717Y39370D02*
D03*
X269685Y35433D02*
D03*
X267717Y31496D02*
D03*
X269685Y27559D02*
D03*
X267717Y23622D02*
D03*
X269685Y19685D02*
D03*
X267717Y15748D02*
D03*
X263780Y338583D02*
D03*
X265748Y334646D02*
D03*
X263780Y330709D02*
D03*
X265748Y326772D02*
D03*
X263780Y322835D02*
D03*
X265748Y318898D02*
D03*
X263780Y314961D02*
D03*
X265748Y311024D02*
D03*
X263780Y307087D02*
D03*
X265748Y303150D02*
D03*
X263780Y299213D02*
D03*
X265748Y295276D02*
D03*
X263780Y291339D02*
D03*
X265748Y287402D02*
D03*
X263780Y283465D02*
D03*
X265748Y279528D02*
D03*
Y255906D02*
D03*
X263780Y228346D02*
D03*
X265748Y224410D02*
D03*
X263780Y220473D02*
D03*
X265748Y216535D02*
D03*
X263780Y212598D02*
D03*
X265748Y208662D02*
D03*
X263780Y204725D02*
D03*
X265748Y200787D02*
D03*
X263780Y196851D02*
D03*
X265748Y192913D02*
D03*
X263780Y188976D02*
D03*
X265748Y185039D02*
D03*
X263780Y181102D02*
D03*
X265748Y169291D02*
D03*
X263780Y165354D02*
D03*
X265748Y161417D02*
D03*
X263780Y157480D02*
D03*
X265748Y153543D02*
D03*
X263780Y149606D02*
D03*
X265748Y145669D02*
D03*
X263780Y141732D02*
D03*
X265748Y137795D02*
D03*
X263780Y133858D02*
D03*
X265748Y129921D02*
D03*
X263780Y125984D02*
D03*
X265748Y122047D02*
D03*
X263780Y118110D02*
D03*
X265748Y114173D02*
D03*
X263780Y110236D02*
D03*
X265748Y106299D02*
D03*
Y51181D02*
D03*
X263780Y47244D02*
D03*
X265748Y43307D02*
D03*
X263780Y39370D02*
D03*
X265748Y35433D02*
D03*
X263780Y31496D02*
D03*
X265748Y27559D02*
D03*
X263780Y23622D02*
D03*
X265748Y19685D02*
D03*
X263780Y15748D02*
D03*
X259843Y338583D02*
D03*
X261811Y334646D02*
D03*
X259843Y330709D02*
D03*
X261811Y326772D02*
D03*
X259843Y322835D02*
D03*
X261811Y318898D02*
D03*
X259843Y314961D02*
D03*
X261811Y311024D02*
D03*
X259843Y307087D02*
D03*
X261811Y303150D02*
D03*
X259843Y299213D02*
D03*
X261811Y295276D02*
D03*
X259843Y291339D02*
D03*
X261811Y287402D02*
D03*
X259843Y283465D02*
D03*
X261811Y279528D02*
D03*
X259843Y220473D02*
D03*
X261811Y216535D02*
D03*
X259843Y212598D02*
D03*
X261811Y208662D02*
D03*
X259843Y204725D02*
D03*
X261811Y200787D02*
D03*
X259843Y196851D02*
D03*
X261811Y192913D02*
D03*
X259843Y188976D02*
D03*
X261811Y185039D02*
D03*
X259843Y181102D02*
D03*
X261811Y169291D02*
D03*
X259843Y165354D02*
D03*
X261811Y161417D02*
D03*
X259843Y157480D02*
D03*
X261811Y153543D02*
D03*
X259843Y149606D02*
D03*
X261811Y145669D02*
D03*
X259843Y141732D02*
D03*
X261811Y137795D02*
D03*
X259843Y133858D02*
D03*
X261811Y129921D02*
D03*
X259843Y125984D02*
D03*
X261811Y122047D02*
D03*
X259843Y118110D02*
D03*
X261811Y114173D02*
D03*
X259843Y110236D02*
D03*
X261811Y59055D02*
D03*
Y51181D02*
D03*
X259843Y47244D02*
D03*
X261811Y43307D02*
D03*
X259843Y39370D02*
D03*
X261811Y35433D02*
D03*
X259843Y31496D02*
D03*
X261811Y27559D02*
D03*
X259843Y23622D02*
D03*
X261811Y19685D02*
D03*
X259843Y15748D02*
D03*
X255906Y338583D02*
D03*
X257874Y334646D02*
D03*
X255906Y330709D02*
D03*
X257874Y326772D02*
D03*
X255906Y322835D02*
D03*
X257874Y318898D02*
D03*
X255906Y314961D02*
D03*
X257874Y311024D02*
D03*
X255906Y307087D02*
D03*
X257874Y303150D02*
D03*
X255906Y299213D02*
D03*
X257874Y295276D02*
D03*
X255906Y291339D02*
D03*
X257874Y287402D02*
D03*
X255906Y283465D02*
D03*
Y267717D02*
D03*
Y220473D02*
D03*
X257874Y216535D02*
D03*
X255906Y212598D02*
D03*
X257874Y208662D02*
D03*
X255906Y204725D02*
D03*
X257874Y200787D02*
D03*
X255906Y196851D02*
D03*
X257874Y192913D02*
D03*
X255906Y188976D02*
D03*
X257874Y185039D02*
D03*
X255906Y181102D02*
D03*
X257874Y169291D02*
D03*
X255906Y165354D02*
D03*
X257874Y161417D02*
D03*
X255906Y157480D02*
D03*
X257874Y153543D02*
D03*
X255906Y149606D02*
D03*
X257874Y145669D02*
D03*
X255906Y141732D02*
D03*
X257874Y137795D02*
D03*
X255906Y133858D02*
D03*
X257874Y129921D02*
D03*
X255906Y125984D02*
D03*
X257874Y122047D02*
D03*
X255906Y118110D02*
D03*
X257874Y114173D02*
D03*
Y51181D02*
D03*
X255906Y47244D02*
D03*
X257874Y43307D02*
D03*
X255906Y39370D02*
D03*
X257874Y35433D02*
D03*
X255906Y31496D02*
D03*
X257874Y27559D02*
D03*
X255906Y23622D02*
D03*
X257874Y19685D02*
D03*
X255906Y15748D02*
D03*
X251969Y338583D02*
D03*
X253937Y334646D02*
D03*
X251969Y330709D02*
D03*
X253937Y326772D02*
D03*
X251969Y322835D02*
D03*
X253937Y318898D02*
D03*
X251969Y314961D02*
D03*
X253937Y311024D02*
D03*
X251969Y307087D02*
D03*
X253937Y303150D02*
D03*
X251969Y267717D02*
D03*
Y244095D02*
D03*
Y236221D02*
D03*
Y220473D02*
D03*
X253937Y216535D02*
D03*
X251969Y212598D02*
D03*
X253937Y208662D02*
D03*
X251969Y204725D02*
D03*
X253937Y200787D02*
D03*
X251969Y196851D02*
D03*
X253937Y192913D02*
D03*
X251969Y188976D02*
D03*
X253937Y185039D02*
D03*
X251969Y181102D02*
D03*
X253937Y169291D02*
D03*
X251969Y165354D02*
D03*
X253937Y161417D02*
D03*
X251969Y157480D02*
D03*
X253937Y153543D02*
D03*
X251969Y149606D02*
D03*
X253937Y145669D02*
D03*
X251969Y141732D02*
D03*
X253937Y137795D02*
D03*
X251969Y133858D02*
D03*
X253937Y129921D02*
D03*
X251969Y102362D02*
D03*
X253937Y98425D02*
D03*
X251969Y94488D02*
D03*
Y78740D02*
D03*
X253937Y51181D02*
D03*
X251969Y47244D02*
D03*
X253937Y43307D02*
D03*
X251969Y39370D02*
D03*
X253937Y35433D02*
D03*
X251969Y31496D02*
D03*
X253937Y27559D02*
D03*
X251969Y23622D02*
D03*
X253937Y19685D02*
D03*
X251969Y15748D02*
D03*
X248032Y338583D02*
D03*
X250000Y334646D02*
D03*
X248032Y330709D02*
D03*
X250000Y326772D02*
D03*
X248032Y322835D02*
D03*
X250000Y318898D02*
D03*
X248032Y314961D02*
D03*
X250000Y311024D02*
D03*
X248032Y275591D02*
D03*
X250000Y271654D02*
D03*
X248032Y267717D02*
D03*
Y251969D02*
D03*
Y244095D02*
D03*
Y236221D02*
D03*
Y228346D02*
D03*
X250000Y224410D02*
D03*
X248032Y220473D02*
D03*
X250000Y216535D02*
D03*
X248032Y212598D02*
D03*
X250000Y208662D02*
D03*
X248032Y204725D02*
D03*
X250000Y200787D02*
D03*
X248032Y196851D02*
D03*
X250000Y192913D02*
D03*
X248032Y188976D02*
D03*
X250000Y185039D02*
D03*
X248032Y181102D02*
D03*
X250000Y169291D02*
D03*
X248032Y165354D02*
D03*
X250000Y161417D02*
D03*
X248032Y157480D02*
D03*
X250000Y153543D02*
D03*
X248032Y149606D02*
D03*
X250000Y145669D02*
D03*
X248032Y141732D02*
D03*
X250000Y137795D02*
D03*
X248032Y110236D02*
D03*
Y102362D02*
D03*
X250000Y98425D02*
D03*
X248032Y78740D02*
D03*
Y70866D02*
D03*
Y62992D02*
D03*
X250000Y59055D02*
D03*
Y51181D02*
D03*
X248032Y47244D02*
D03*
X250000Y43307D02*
D03*
X248032Y39370D02*
D03*
X250000Y35433D02*
D03*
X248032Y31496D02*
D03*
X250000Y27559D02*
D03*
X248032Y23622D02*
D03*
X250000Y19685D02*
D03*
X248032Y15748D02*
D03*
X244095Y338583D02*
D03*
X246063Y334646D02*
D03*
X244095Y330709D02*
D03*
X246063Y326772D02*
D03*
X244095Y322835D02*
D03*
X246063Y318898D02*
D03*
X244095Y314961D02*
D03*
X246063Y311024D02*
D03*
X244095Y299213D02*
D03*
X246063Y295276D02*
D03*
X244095Y291339D02*
D03*
X246063Y287402D02*
D03*
X244095Y283465D02*
D03*
X246063Y279528D02*
D03*
X244095Y275591D02*
D03*
X246063Y271654D02*
D03*
X244095Y267717D02*
D03*
X246063Y255906D02*
D03*
X244095Y251969D02*
D03*
X246063Y240158D02*
D03*
X244095Y236221D02*
D03*
X246063Y232284D02*
D03*
Y185039D02*
D03*
X244095Y181102D02*
D03*
X246063Y169291D02*
D03*
X244095Y165354D02*
D03*
X246063Y161417D02*
D03*
X244095Y157480D02*
D03*
X246063Y153543D02*
D03*
X244095Y149606D02*
D03*
X246063Y145669D02*
D03*
X244095Y141732D02*
D03*
Y125984D02*
D03*
X246063Y122047D02*
D03*
X244095Y118110D02*
D03*
X246063Y114173D02*
D03*
X244095Y110236D02*
D03*
X246063Y106299D02*
D03*
X244095Y102362D02*
D03*
X246063Y98425D02*
D03*
X244095Y94488D02*
D03*
X246063Y82677D02*
D03*
X244095Y78740D02*
D03*
Y62992D02*
D03*
Y15748D02*
D03*
X240158Y338583D02*
D03*
X242126Y334646D02*
D03*
X240158Y330709D02*
D03*
X242126Y326772D02*
D03*
Y318898D02*
D03*
X240158Y299213D02*
D03*
X242126Y295276D02*
D03*
X240158Y291339D02*
D03*
X242126Y287402D02*
D03*
X240158Y283465D02*
D03*
X242126Y279528D02*
D03*
X240158Y275591D02*
D03*
X242126Y271654D02*
D03*
X240158Y267717D02*
D03*
X242126Y255906D02*
D03*
X240158Y251969D02*
D03*
X242126Y248032D02*
D03*
X240158Y244095D02*
D03*
X242126Y185039D02*
D03*
X240158Y181102D02*
D03*
X242126Y169291D02*
D03*
X240158Y165354D02*
D03*
X242126Y161417D02*
D03*
X240158Y157480D02*
D03*
X242126Y153543D02*
D03*
Y145669D02*
D03*
Y129921D02*
D03*
X240158Y125984D02*
D03*
X242126Y122047D02*
D03*
X240158Y118110D02*
D03*
X242126Y114173D02*
D03*
X240158Y110236D02*
D03*
X242126Y106299D02*
D03*
X240158Y102362D02*
D03*
X242126Y98425D02*
D03*
X240158Y86614D02*
D03*
X242126Y82677D02*
D03*
X240158Y78740D02*
D03*
X242126Y74803D02*
D03*
X236221Y338583D02*
D03*
X238189Y334646D02*
D03*
X236221Y330709D02*
D03*
X238189Y326772D02*
D03*
X236221Y307087D02*
D03*
X238189Y303150D02*
D03*
X236221Y299213D02*
D03*
X238189Y295276D02*
D03*
X236221Y291339D02*
D03*
X238189Y287402D02*
D03*
X236221Y283465D02*
D03*
X238189Y279528D02*
D03*
X236221Y275591D02*
D03*
X238189Y271654D02*
D03*
Y255906D02*
D03*
X236221Y251969D02*
D03*
X238189Y248032D02*
D03*
X236221Y244095D02*
D03*
X238189Y240158D02*
D03*
X236221Y236221D02*
D03*
X238189Y232284D02*
D03*
X236221Y228346D02*
D03*
X238189Y224410D02*
D03*
X236221Y220473D02*
D03*
X238189Y216535D02*
D03*
X236221Y212598D02*
D03*
X238189Y208662D02*
D03*
X236221Y204725D02*
D03*
X238189Y200787D02*
D03*
X236221Y196851D02*
D03*
X238189Y192913D02*
D03*
Y169291D02*
D03*
X236221Y165354D02*
D03*
X238189Y161417D02*
D03*
X236221Y157480D02*
D03*
Y133858D02*
D03*
X238189Y129921D02*
D03*
X236221Y125984D02*
D03*
X238189Y122047D02*
D03*
X236221Y118110D02*
D03*
X238189Y114173D02*
D03*
X236221Y110236D02*
D03*
X238189Y106299D02*
D03*
X236221Y102362D02*
D03*
X238189Y98425D02*
D03*
X236221Y86614D02*
D03*
X238189Y82677D02*
D03*
X236221Y78740D02*
D03*
X238189Y74803D02*
D03*
X236221Y70866D02*
D03*
X238189Y66929D02*
D03*
X236221Y62992D02*
D03*
X238189Y59055D02*
D03*
X236221Y55118D02*
D03*
X238189Y51181D02*
D03*
X236221Y47244D02*
D03*
X238189Y43307D02*
D03*
X236221Y39370D02*
D03*
X238189Y35433D02*
D03*
X236221Y31496D02*
D03*
X238189Y27559D02*
D03*
X236221Y23622D02*
D03*
X232284Y338583D02*
D03*
X234252Y334646D02*
D03*
X232284Y330709D02*
D03*
X234252Y326772D02*
D03*
Y311024D02*
D03*
X232284Y307087D02*
D03*
X234252Y303150D02*
D03*
X232284Y299213D02*
D03*
X234252Y295276D02*
D03*
X232284Y291339D02*
D03*
X234252Y287402D02*
D03*
X232284Y283465D02*
D03*
X234252Y279528D02*
D03*
X232284Y275591D02*
D03*
X234252Y271654D02*
D03*
Y255906D02*
D03*
X232284Y251969D02*
D03*
X234252Y248032D02*
D03*
X232284Y244095D02*
D03*
X234252Y240158D02*
D03*
X232284Y236221D02*
D03*
X234252Y232284D02*
D03*
X232284Y228346D02*
D03*
X234252Y224410D02*
D03*
X232284Y220473D02*
D03*
X234252Y216535D02*
D03*
X232284Y212598D02*
D03*
X234252Y208662D02*
D03*
X232284Y204725D02*
D03*
X234252Y200787D02*
D03*
X232284Y196851D02*
D03*
X234252Y192913D02*
D03*
X232284Y188976D02*
D03*
X234252Y169291D02*
D03*
X232284Y165354D02*
D03*
X234252Y161417D02*
D03*
X232284Y157480D02*
D03*
X234252Y153543D02*
D03*
Y137795D02*
D03*
X232284Y133858D02*
D03*
X234252Y129921D02*
D03*
X232284Y125984D02*
D03*
X234252Y122047D02*
D03*
X232284Y118110D02*
D03*
X234252Y114173D02*
D03*
X232284Y110236D02*
D03*
X234252Y106299D02*
D03*
X232284Y102362D02*
D03*
Y86614D02*
D03*
X234252Y82677D02*
D03*
X232284Y78740D02*
D03*
X234252Y74803D02*
D03*
X232284Y70866D02*
D03*
X234252Y66929D02*
D03*
X232284Y62992D02*
D03*
X234252Y59055D02*
D03*
X232284Y55118D02*
D03*
X234252Y51181D02*
D03*
X232284Y47244D02*
D03*
X234252Y43307D02*
D03*
X232284Y39370D02*
D03*
X234252Y35433D02*
D03*
X232284Y31496D02*
D03*
X234252Y27559D02*
D03*
X232284Y23622D02*
D03*
X234252Y19685D02*
D03*
X232284Y15748D02*
D03*
X228347Y338583D02*
D03*
X230315Y334646D02*
D03*
X228347Y330709D02*
D03*
X230315Y326772D02*
D03*
Y311024D02*
D03*
X228347Y307087D02*
D03*
X230315Y303150D02*
D03*
X228347Y299213D02*
D03*
X230315Y295276D02*
D03*
X228347Y291339D02*
D03*
X230315Y287402D02*
D03*
X228347Y283465D02*
D03*
X230315Y279528D02*
D03*
X228347Y275591D02*
D03*
X230315Y255906D02*
D03*
X228347Y251969D02*
D03*
X230315Y248032D02*
D03*
X228347Y244095D02*
D03*
X230315Y240158D02*
D03*
X228347Y236221D02*
D03*
X230315Y232284D02*
D03*
X228347Y228346D02*
D03*
X230315Y224410D02*
D03*
X228347Y220473D02*
D03*
X230315Y216535D02*
D03*
X228347Y212598D02*
D03*
X230315Y208662D02*
D03*
X228347Y204725D02*
D03*
X230315Y200787D02*
D03*
X228347Y196851D02*
D03*
X230315Y192913D02*
D03*
X228347Y188976D02*
D03*
X230315Y185039D02*
D03*
Y169291D02*
D03*
X228347Y165354D02*
D03*
X230315Y161417D02*
D03*
X228347Y157480D02*
D03*
Y141732D02*
D03*
X230315Y137795D02*
D03*
X228347Y133858D02*
D03*
X230315Y129921D02*
D03*
X228347Y125984D02*
D03*
X230315Y122047D02*
D03*
X228347Y118110D02*
D03*
X230315Y114173D02*
D03*
X228347Y110236D02*
D03*
X230315Y106299D02*
D03*
X228347Y102362D02*
D03*
X230315Y82677D02*
D03*
X228347Y78740D02*
D03*
X230315Y74803D02*
D03*
X228347Y70866D02*
D03*
X230315Y66929D02*
D03*
X228347Y62992D02*
D03*
X230315Y59055D02*
D03*
X228347Y55118D02*
D03*
X230315Y51181D02*
D03*
X228347Y47244D02*
D03*
X230315Y43307D02*
D03*
X228347Y39370D02*
D03*
X230315Y35433D02*
D03*
X228347Y31496D02*
D03*
X230315Y27559D02*
D03*
X228347Y23622D02*
D03*
X230315Y19685D02*
D03*
X228347Y15748D02*
D03*
X224410Y338583D02*
D03*
X226378Y334646D02*
D03*
X224410Y330709D02*
D03*
X226378Y326772D02*
D03*
X224410Y322835D02*
D03*
Y314961D02*
D03*
X226378Y311024D02*
D03*
X224410Y307087D02*
D03*
X226378Y303150D02*
D03*
X224410Y299213D02*
D03*
X226378Y295276D02*
D03*
X224410Y291339D02*
D03*
X226378Y287402D02*
D03*
X224410Y283465D02*
D03*
X226378Y279528D02*
D03*
X224410Y275591D02*
D03*
X226378Y240158D02*
D03*
X224410Y236221D02*
D03*
X226378Y232284D02*
D03*
X224410Y228346D02*
D03*
X226378Y224410D02*
D03*
X224410Y220473D02*
D03*
X226378Y216535D02*
D03*
X224410Y212598D02*
D03*
X226378Y208662D02*
D03*
X224410Y204725D02*
D03*
X226378Y200787D02*
D03*
X224410Y196851D02*
D03*
X226378Y192913D02*
D03*
X224410Y188976D02*
D03*
X226378Y185039D02*
D03*
Y169291D02*
D03*
X224410Y165354D02*
D03*
X226378Y161417D02*
D03*
X224410Y157480D02*
D03*
X226378Y153543D02*
D03*
X224410Y141732D02*
D03*
X226378Y137795D02*
D03*
X224410Y133858D02*
D03*
X226378Y129921D02*
D03*
X224410Y125984D02*
D03*
X226378Y122047D02*
D03*
X224410Y118110D02*
D03*
X226378Y114173D02*
D03*
X224410Y110236D02*
D03*
X226378Y106299D02*
D03*
X224410Y102362D02*
D03*
Y70866D02*
D03*
X226378Y66929D02*
D03*
X224410Y62992D02*
D03*
X226378Y59055D02*
D03*
X224410Y55118D02*
D03*
X226378Y51181D02*
D03*
X224410Y47244D02*
D03*
X226378Y43307D02*
D03*
X224410Y39370D02*
D03*
X226378Y35433D02*
D03*
X224410Y31496D02*
D03*
X226378Y27559D02*
D03*
X224410Y23622D02*
D03*
X226378Y19685D02*
D03*
X224410Y15748D02*
D03*
X220473Y338583D02*
D03*
X222441Y334646D02*
D03*
X220473Y330709D02*
D03*
X222441Y326772D02*
D03*
X220473Y314961D02*
D03*
X222441Y311024D02*
D03*
X220473Y307087D02*
D03*
X222441Y303150D02*
D03*
X220473Y299213D02*
D03*
X222441Y295276D02*
D03*
X220473Y291339D02*
D03*
X222441Y287402D02*
D03*
X220473Y283465D02*
D03*
X222441Y279528D02*
D03*
X220473Y275591D02*
D03*
X222441Y240158D02*
D03*
X220473Y236221D02*
D03*
X222441Y232284D02*
D03*
X220473Y228346D02*
D03*
X222441Y224410D02*
D03*
X220473Y220473D02*
D03*
X222441Y216535D02*
D03*
X220473Y212598D02*
D03*
X222441Y208662D02*
D03*
X220473Y204725D02*
D03*
X222441Y200787D02*
D03*
X220473Y196851D02*
D03*
X222441Y192913D02*
D03*
X220473Y188976D02*
D03*
X222441Y185039D02*
D03*
Y169291D02*
D03*
X220473Y165354D02*
D03*
X222441Y161417D02*
D03*
X220473Y157480D02*
D03*
X222441Y153543D02*
D03*
Y145669D02*
D03*
X220473Y141732D02*
D03*
X222441Y137795D02*
D03*
X220473Y133858D02*
D03*
X222441Y129921D02*
D03*
X220473Y125984D02*
D03*
X222441Y122047D02*
D03*
X220473Y118110D02*
D03*
X222441Y114173D02*
D03*
X220473Y110236D02*
D03*
X222441Y106299D02*
D03*
X220473Y102362D02*
D03*
X222441Y66929D02*
D03*
X220473Y62992D02*
D03*
X222441Y59055D02*
D03*
X220473Y55118D02*
D03*
X222441Y51181D02*
D03*
X220473Y47244D02*
D03*
X222441Y43307D02*
D03*
X220473Y39370D02*
D03*
X222441Y35433D02*
D03*
X220473Y31496D02*
D03*
X222441Y27559D02*
D03*
X220473Y23622D02*
D03*
X222441Y19685D02*
D03*
X220473Y15748D02*
D03*
X216536Y338583D02*
D03*
X218504Y334646D02*
D03*
X216536Y330709D02*
D03*
X218504Y326772D02*
D03*
X216536Y314961D02*
D03*
X218504Y311024D02*
D03*
X216536Y307087D02*
D03*
X218504Y303150D02*
D03*
X216536Y299213D02*
D03*
X218504Y295276D02*
D03*
X216536Y291339D02*
D03*
X218504Y287402D02*
D03*
Y279528D02*
D03*
X216536Y275591D02*
D03*
Y259843D02*
D03*
X218504Y255906D02*
D03*
X216536Y251969D02*
D03*
X218504Y232284D02*
D03*
X216536Y228346D02*
D03*
X218504Y224410D02*
D03*
X216536Y220473D02*
D03*
X218504Y216535D02*
D03*
X216536Y212598D02*
D03*
X218504Y208662D02*
D03*
X216536Y204725D02*
D03*
X218504Y200787D02*
D03*
X216536Y196851D02*
D03*
X218504Y192913D02*
D03*
X216536Y188976D02*
D03*
X218504Y185039D02*
D03*
Y169291D02*
D03*
X216536Y165354D02*
D03*
X218504Y161417D02*
D03*
X216536Y157480D02*
D03*
X218504Y153543D02*
D03*
X216536Y141732D02*
D03*
X218504Y137795D02*
D03*
X216536Y133858D02*
D03*
X218504Y129921D02*
D03*
X216536Y125984D02*
D03*
X218504Y122047D02*
D03*
X216536Y118110D02*
D03*
X218504Y114173D02*
D03*
Y106299D02*
D03*
X216536Y86614D02*
D03*
X218504Y82677D02*
D03*
X216536Y78740D02*
D03*
X218504Y59055D02*
D03*
X216536Y55118D02*
D03*
X218504Y51181D02*
D03*
X216536Y47244D02*
D03*
X218504Y43307D02*
D03*
X216536Y39370D02*
D03*
X218504Y35433D02*
D03*
X216536Y31496D02*
D03*
X218504Y27559D02*
D03*
X216536Y23622D02*
D03*
X218504Y19685D02*
D03*
X216536Y15748D02*
D03*
X212599Y338583D02*
D03*
X214567Y334646D02*
D03*
X212599Y330709D02*
D03*
X214567Y326772D02*
D03*
X212599Y314961D02*
D03*
X214567Y311024D02*
D03*
X212599Y307087D02*
D03*
X214567Y303150D02*
D03*
X212599Y299213D02*
D03*
X214567Y295276D02*
D03*
X212599Y259843D02*
D03*
X214567Y255906D02*
D03*
X212599Y251969D02*
D03*
X214567Y248032D02*
D03*
X212599Y244095D02*
D03*
Y228346D02*
D03*
X214567Y224410D02*
D03*
X212599Y220473D02*
D03*
X214567Y216535D02*
D03*
X212599Y212598D02*
D03*
X214567Y208662D02*
D03*
X212599Y204725D02*
D03*
X214567Y200787D02*
D03*
X212599Y196851D02*
D03*
X214567Y192913D02*
D03*
X212599Y188976D02*
D03*
X214567Y185039D02*
D03*
Y169291D02*
D03*
X212599Y165354D02*
D03*
X214567Y161417D02*
D03*
X212599Y157480D02*
D03*
X214567Y153543D02*
D03*
X212599Y141732D02*
D03*
X214567Y137795D02*
D03*
X212599Y133858D02*
D03*
X214567Y129921D02*
D03*
X212599Y125984D02*
D03*
Y86614D02*
D03*
X214567Y82677D02*
D03*
X212599Y78740D02*
D03*
X214567Y74803D02*
D03*
Y59055D02*
D03*
X212599Y55118D02*
D03*
X214567Y51181D02*
D03*
X212599Y47244D02*
D03*
X214567Y43307D02*
D03*
X212599Y39370D02*
D03*
X214567Y35433D02*
D03*
X212599Y31496D02*
D03*
X214567Y27559D02*
D03*
X212599Y23622D02*
D03*
X214567Y19685D02*
D03*
X212599Y15748D02*
D03*
X208662Y338583D02*
D03*
X210630Y334646D02*
D03*
X208662Y330709D02*
D03*
X210630Y326772D02*
D03*
X208662Y314961D02*
D03*
X210630Y311024D02*
D03*
X208662Y307087D02*
D03*
X210630Y303150D02*
D03*
X208662Y259843D02*
D03*
X210630Y255906D02*
D03*
X208662Y251969D02*
D03*
X210630Y248032D02*
D03*
X208662Y244095D02*
D03*
X210630Y240158D02*
D03*
Y224410D02*
D03*
X208662Y220473D02*
D03*
X210630Y216535D02*
D03*
X208662Y212598D02*
D03*
X210630Y208662D02*
D03*
X208662Y204725D02*
D03*
X210630Y200787D02*
D03*
X208662Y196851D02*
D03*
X210630Y192913D02*
D03*
X208662Y188976D02*
D03*
X210630Y185039D02*
D03*
Y169291D02*
D03*
X208662Y165354D02*
D03*
X210630Y161417D02*
D03*
X208662Y157480D02*
D03*
X210630Y153543D02*
D03*
X208662Y141732D02*
D03*
X210630Y137795D02*
D03*
X208662Y133858D02*
D03*
X210630Y129921D02*
D03*
X208662Y110236D02*
D03*
Y102362D02*
D03*
Y86614D02*
D03*
X210630Y82677D02*
D03*
X208662Y78740D02*
D03*
X210630Y74803D02*
D03*
X208662Y70866D02*
D03*
X210630Y51181D02*
D03*
X208662Y47244D02*
D03*
X210630Y43307D02*
D03*
X208662Y39370D02*
D03*
X210630Y35433D02*
D03*
X208662Y31496D02*
D03*
X210630Y27559D02*
D03*
X208662Y23622D02*
D03*
X210630Y19685D02*
D03*
X208662Y15748D02*
D03*
X204725Y338583D02*
D03*
X206693Y334646D02*
D03*
X204725Y330709D02*
D03*
Y314961D02*
D03*
X206693Y311024D02*
D03*
X204725Y307087D02*
D03*
Y291339D02*
D03*
X206693Y287402D02*
D03*
X204725Y283465D02*
D03*
X206693Y279528D02*
D03*
X204725Y275591D02*
D03*
X206693Y255906D02*
D03*
X204725Y251969D02*
D03*
X206693Y248032D02*
D03*
X204725Y244095D02*
D03*
X206693Y240158D02*
D03*
X204725Y236221D02*
D03*
Y220473D02*
D03*
X206693Y216535D02*
D03*
X204725Y212598D02*
D03*
X206693Y208662D02*
D03*
X204725Y204725D02*
D03*
X206693Y200787D02*
D03*
X204725Y196851D02*
D03*
X206693Y192913D02*
D03*
X204725Y188976D02*
D03*
X206693Y185039D02*
D03*
Y169291D02*
D03*
X204725Y165354D02*
D03*
X206693Y161417D02*
D03*
X204725Y141732D02*
D03*
X206693Y137795D02*
D03*
X204725Y118110D02*
D03*
X206693Y114173D02*
D03*
X204725Y110236D02*
D03*
X206693Y106299D02*
D03*
X204725Y102362D02*
D03*
X206693Y82677D02*
D03*
X204725Y78740D02*
D03*
X206693Y74803D02*
D03*
X204725Y70866D02*
D03*
X206693Y66929D02*
D03*
X204725Y62992D02*
D03*
X206693Y51181D02*
D03*
X204725Y47244D02*
D03*
X206693Y43307D02*
D03*
X204725Y39370D02*
D03*
X206693Y35433D02*
D03*
X204725Y31496D02*
D03*
X206693Y27559D02*
D03*
X204725Y23622D02*
D03*
X206693Y19685D02*
D03*
X204725Y15748D02*
D03*
X200788Y338583D02*
D03*
X202756Y334646D02*
D03*
X200788Y330709D02*
D03*
Y314961D02*
D03*
X202756Y311024D02*
D03*
X200788Y291339D02*
D03*
X202756Y287402D02*
D03*
X200788Y283465D02*
D03*
X202756Y279528D02*
D03*
X200788Y275591D02*
D03*
X202756Y255906D02*
D03*
X200788Y251969D02*
D03*
X202756Y248032D02*
D03*
X200788Y244095D02*
D03*
X202756Y240158D02*
D03*
X200788Y236221D02*
D03*
X202756Y232284D02*
D03*
Y208662D02*
D03*
X200788Y204725D02*
D03*
X202756Y200787D02*
D03*
X200788Y196851D02*
D03*
X202756Y192913D02*
D03*
X200788Y188976D02*
D03*
X202756Y185039D02*
D03*
Y169291D02*
D03*
X200788Y165354D02*
D03*
X202756Y161417D02*
D03*
X200788Y141732D02*
D03*
X202756Y137795D02*
D03*
Y122047D02*
D03*
X200788Y118110D02*
D03*
X202756Y114173D02*
D03*
X200788Y110236D02*
D03*
X202756Y106299D02*
D03*
X200788Y102362D02*
D03*
X202756Y82677D02*
D03*
X200788Y78740D02*
D03*
X202756Y74803D02*
D03*
X200788Y70866D02*
D03*
X202756Y66929D02*
D03*
X200788Y62992D02*
D03*
X202756Y35433D02*
D03*
X200788Y31496D02*
D03*
X202756Y27559D02*
D03*
X200788Y23622D02*
D03*
X202756Y19685D02*
D03*
X200788Y15748D02*
D03*
X196851Y322835D02*
D03*
Y314961D02*
D03*
X198819Y311024D02*
D03*
X196851Y291339D02*
D03*
X198819Y287402D02*
D03*
X196851Y283465D02*
D03*
X198819Y279528D02*
D03*
X196851Y275591D02*
D03*
X198819Y255906D02*
D03*
X196851Y251969D02*
D03*
X198819Y248032D02*
D03*
X196851Y244095D02*
D03*
X198819Y240158D02*
D03*
X196851Y236221D02*
D03*
X198819Y232284D02*
D03*
X196851Y228346D02*
D03*
X198819Y208662D02*
D03*
X196851Y204725D02*
D03*
X198819Y200787D02*
D03*
X196851Y196851D02*
D03*
X198819Y192913D02*
D03*
X196851Y188976D02*
D03*
X198819Y185039D02*
D03*
Y145669D02*
D03*
Y122047D02*
D03*
X196851Y118110D02*
D03*
X198819Y114173D02*
D03*
X196851Y110236D02*
D03*
X198819Y106299D02*
D03*
X196851Y102362D02*
D03*
X198819Y82677D02*
D03*
X196851Y78740D02*
D03*
X198819Y74803D02*
D03*
X196851Y70866D02*
D03*
X198819Y66929D02*
D03*
X196851Y62992D02*
D03*
X198819Y59055D02*
D03*
Y35433D02*
D03*
X196851Y31496D02*
D03*
X198819Y27559D02*
D03*
X196851Y23622D02*
D03*
X198819Y19685D02*
D03*
X196851Y15748D02*
D03*
X192914Y322835D02*
D03*
Y314961D02*
D03*
X194882Y295276D02*
D03*
X192914Y291339D02*
D03*
X194882Y287402D02*
D03*
X192914Y283465D02*
D03*
X194882Y279528D02*
D03*
X192914Y275591D02*
D03*
X194882Y271654D02*
D03*
Y255906D02*
D03*
X192914Y251969D02*
D03*
X194882Y248032D02*
D03*
X192914Y244095D02*
D03*
X194882Y240158D02*
D03*
X192914Y236221D02*
D03*
X194882Y232284D02*
D03*
X192914Y228346D02*
D03*
Y204725D02*
D03*
X194882Y200787D02*
D03*
X192914Y196851D02*
D03*
X194882Y192913D02*
D03*
X192914Y188976D02*
D03*
X194882Y185039D02*
D03*
Y145669D02*
D03*
Y122047D02*
D03*
X192914Y118110D02*
D03*
X194882Y114173D02*
D03*
X192914Y110236D02*
D03*
X194882Y106299D02*
D03*
X192914Y102362D02*
D03*
X194882Y82677D02*
D03*
X192914Y78740D02*
D03*
X194882Y74803D02*
D03*
X192914Y70866D02*
D03*
X194882Y66929D02*
D03*
X192914Y62992D02*
D03*
X194882Y59055D02*
D03*
X192914Y55118D02*
D03*
Y31496D02*
D03*
X194882Y27559D02*
D03*
X192914Y23622D02*
D03*
X194882Y19685D02*
D03*
X192914Y15748D02*
D03*
X188977Y314961D02*
D03*
Y299213D02*
D03*
X190945Y295276D02*
D03*
X188977Y291339D02*
D03*
X190945Y287402D02*
D03*
X188977Y283465D02*
D03*
X190945Y279528D02*
D03*
X188977Y275591D02*
D03*
X190945Y271654D02*
D03*
Y255906D02*
D03*
X188977Y251969D02*
D03*
X190945Y248032D02*
D03*
X188977Y244095D02*
D03*
X190945Y240158D02*
D03*
X188977Y236221D02*
D03*
X190945Y232284D02*
D03*
X188977Y228346D02*
D03*
X190945Y224410D02*
D03*
X188977Y220473D02*
D03*
X190945Y200787D02*
D03*
X188977Y196851D02*
D03*
X190945Y192913D02*
D03*
X188977Y188976D02*
D03*
X190945Y185039D02*
D03*
X188977Y125984D02*
D03*
X190945Y122047D02*
D03*
X188977Y118110D02*
D03*
X190945Y114173D02*
D03*
X188977Y110236D02*
D03*
X190945Y106299D02*
D03*
X188977Y102362D02*
D03*
X190945Y82677D02*
D03*
X188977Y78740D02*
D03*
X190945Y74803D02*
D03*
X188977Y70866D02*
D03*
X190945Y66929D02*
D03*
X188977Y62992D02*
D03*
X190945Y59055D02*
D03*
X188977Y55118D02*
D03*
X190945Y51181D02*
D03*
X188977Y47244D02*
D03*
X190945Y27559D02*
D03*
X188977Y23622D02*
D03*
X190945Y19685D02*
D03*
X188977Y15748D02*
D03*
X185040Y338583D02*
D03*
Y322835D02*
D03*
X187008Y303150D02*
D03*
X185040Y299213D02*
D03*
X187008Y295276D02*
D03*
X185040Y291339D02*
D03*
X187008Y287402D02*
D03*
X185040Y283465D02*
D03*
X187008Y279528D02*
D03*
X185040Y275591D02*
D03*
X187008Y271654D02*
D03*
Y255906D02*
D03*
X185040Y251969D02*
D03*
X187008Y248032D02*
D03*
X185040Y244095D02*
D03*
X187008Y240158D02*
D03*
X185040Y236221D02*
D03*
X187008Y232284D02*
D03*
X185040Y228346D02*
D03*
X187008Y224410D02*
D03*
X185040Y220473D02*
D03*
X187008Y216535D02*
D03*
X185040Y212598D02*
D03*
X187008Y200787D02*
D03*
X185040Y196851D02*
D03*
X187008Y192913D02*
D03*
X185040Y188976D02*
D03*
X187008Y185039D02*
D03*
X185040Y125984D02*
D03*
X187008Y122047D02*
D03*
X185040Y118110D02*
D03*
X187008Y114173D02*
D03*
X185040Y110236D02*
D03*
X187008Y106299D02*
D03*
X185040Y102362D02*
D03*
X187008Y82677D02*
D03*
X185040Y78740D02*
D03*
X187008Y74803D02*
D03*
X185040Y70866D02*
D03*
X187008Y66929D02*
D03*
X185040Y62992D02*
D03*
X187008Y59055D02*
D03*
X185040Y55118D02*
D03*
X187008Y51181D02*
D03*
X185040Y47244D02*
D03*
X187008Y27559D02*
D03*
X185040Y23622D02*
D03*
X187008Y19685D02*
D03*
X185040Y15748D02*
D03*
X181103Y338583D02*
D03*
X183071Y334646D02*
D03*
X181103Y275591D02*
D03*
X183071Y271654D02*
D03*
Y248032D02*
D03*
X181103Y244095D02*
D03*
X183071Y240158D02*
D03*
X181103Y236221D02*
D03*
X183071Y232284D02*
D03*
X181103Y228346D02*
D03*
X183071Y224410D02*
D03*
Y216535D02*
D03*
Y185039D02*
D03*
X181103Y165354D02*
D03*
X183071Y106299D02*
D03*
X181103Y102362D02*
D03*
X183071Y74803D02*
D03*
X181103Y70866D02*
D03*
X183071Y66929D02*
D03*
X181103Y62992D02*
D03*
X183071Y59055D02*
D03*
Y51181D02*
D03*
Y43307D02*
D03*
X179134Y303150D02*
D03*
X177166Y299213D02*
D03*
X179134Y295276D02*
D03*
X177166Y291339D02*
D03*
X179134Y287402D02*
D03*
Y271654D02*
D03*
X177166Y251969D02*
D03*
Y244095D02*
D03*
X179134Y240158D02*
D03*
X177166Y236221D02*
D03*
X179134Y232284D02*
D03*
Y192913D02*
D03*
X177166Y188976D02*
D03*
X179134Y129921D02*
D03*
X177166Y125984D02*
D03*
X179134Y122047D02*
D03*
X177166Y118110D02*
D03*
X179134Y98425D02*
D03*
X177166Y70866D02*
D03*
X179134Y66929D02*
D03*
X177166Y62992D02*
D03*
X179134Y59055D02*
D03*
X177166Y23622D02*
D03*
X179134Y19685D02*
D03*
X177166Y15748D02*
D03*
X239289Y88528D02*
D03*
X307036Y229618D02*
D03*
Y227043D02*
D03*
X307952Y224637D02*
D03*
X308411Y222103D02*
D03*
Y219528D02*
D03*
Y216953D02*
D03*
Y214379D02*
D03*
Y211804D02*
D03*
Y209229D02*
D03*
Y206654D02*
D03*
Y204080D02*
D03*
Y201505D02*
D03*
Y198930D02*
D03*
Y196355D02*
D03*
X308445Y193781D02*
D03*
X308831Y191235D02*
D03*
X309723Y188820D02*
D03*
X311125Y186660D02*
D03*
X312877Y184773D02*
D03*
X314725Y182980D02*
D03*
X316804Y181462D02*
D03*
X319153Y180407D02*
D03*
X321673Y179880D02*
D03*
X324247Y179789D02*
D03*
X326821D02*
D03*
X329315Y179148D02*
D03*
X331848Y178686D02*
D03*
X334378Y179164D02*
D03*
X336422Y177598D02*
D03*
X334363Y176053D02*
D03*
X331789Y176112D02*
D03*
X329262Y175615D02*
D03*
X326927Y174531D02*
D03*
X324699Y173240D02*
D03*
X323001Y171304D02*
D03*
X321969Y168945D02*
D03*
X321600Y166397D02*
D03*
Y163822D02*
D03*
Y161248D02*
D03*
Y158673D02*
D03*
Y156098D02*
D03*
Y153523D02*
D03*
Y150948D02*
D03*
Y148373D02*
D03*
Y145799D02*
D03*
Y143224D02*
D03*
Y140649D02*
D03*
Y138074D02*
D03*
Y135500D02*
D03*
Y132925D02*
D03*
Y130350D02*
D03*
Y127775D02*
D03*
Y125200D02*
D03*
Y122626D02*
D03*
Y120051D02*
D03*
Y117476D02*
D03*
Y114901D02*
D03*
Y112326D02*
D03*
X320728Y109904D02*
D03*
X320225Y107379D02*
D03*
X327413Y106983D02*
D03*
X327150Y109544D02*
D03*
X326038Y111866D02*
D03*
Y114441D02*
D03*
Y117016D02*
D03*
Y119591D02*
D03*
Y122166D02*
D03*
Y124740D02*
D03*
Y127315D02*
D03*
Y129890D02*
D03*
Y132465D02*
D03*
Y135039D02*
D03*
Y137614D02*
D03*
Y140189D02*
D03*
Y142764D02*
D03*
Y145339D02*
D03*
Y147913D02*
D03*
Y150488D02*
D03*
Y153063D02*
D03*
Y155638D02*
D03*
Y158213D02*
D03*
Y160787D02*
D03*
Y163362D02*
D03*
Y165937D02*
D03*
X326506Y168469D02*
D03*
X328306Y170310D02*
D03*
X335300Y171307D02*
D03*
X337383Y172821D02*
D03*
X339522Y174254D02*
D03*
X342016Y174894D02*
D03*
X344584Y174702D02*
D03*
X346034Y172575D02*
D03*
X348230Y171231D02*
D03*
X350777Y170851D02*
D03*
X353262Y171523D02*
D03*
X355263Y173144D02*
D03*
X356474Y175416D02*
D03*
X356651Y177985D02*
D03*
X355818Y180421D02*
D03*
X354062Y182305D02*
D03*
X351712Y183357D02*
D03*
X349138Y183365D02*
D03*
X346775Y182343D02*
D03*
X344998Y180479D02*
D03*
X342645Y179433D02*
D03*
X340234Y180337D02*
D03*
X336041Y183295D02*
D03*
X326398Y184227D02*
D03*
X323823D02*
D03*
X321254Y184403D02*
D03*
X318869Y185374D02*
D03*
X316897Y187029D02*
D03*
X315069Y188842D02*
D03*
X313612Y190965D02*
D03*
X312915Y193444D02*
D03*
X312849Y196018D02*
D03*
Y198592D02*
D03*
Y201167D02*
D03*
Y203742D02*
D03*
Y206317D02*
D03*
Y208892D02*
D03*
Y211467D02*
D03*
Y214041D02*
D03*
Y216616D02*
D03*
Y219191D02*
D03*
Y221766D02*
D03*
Y224341D02*
D03*
X314224Y226517D02*
D03*
Y229092D02*
D03*
X274606Y76772D02*
D03*
X269685Y70866D02*
D03*
X319381Y103338D02*
D03*
X319807Y100791D02*
D03*
X319882Y98425D02*
D03*
X318898Y96457D02*
D03*
X316929Y94488D02*
D03*
X314961Y92520D02*
D03*
X312992Y90551D02*
D03*
X311024Y89567D02*
D03*
X309055Y90551D02*
D03*
X327981Y103340D02*
D03*
X327756Y100394D02*
D03*
Y97441D02*
D03*
X325787Y95472D02*
D03*
X324803Y93504D02*
D03*
X322835Y91535D02*
D03*
X321850Y89567D02*
D03*
X319882Y87598D02*
D03*
X317913Y85630D02*
D03*
X313976Y84646D02*
D03*
X311024Y83661D02*
D03*
X307087Y82677D02*
D03*
X303150Y81693D02*
D03*
X301181Y78740D02*
D03*
X298228D02*
D03*
X295276D02*
D03*
X290346Y84416D02*
D03*
X139764Y103346D02*
D03*
Y110236D02*
D03*
X139764Y281496D02*
D03*
Y274606D02*
D03*
X83252Y133677D02*
D03*
X283575Y144628D02*
D03*
X282677Y147244D02*
D03*
X280315Y148425D02*
D03*
X277953D02*
D03*
X275590D02*
D03*
X273622Y147244D02*
D03*
Y144882D02*
D03*
Y142520D02*
D03*
Y139764D02*
D03*
Y137402D02*
D03*
Y135039D02*
D03*
X264567Y86221D02*
D03*
X262205D02*
D03*
X234667Y90728D02*
D03*
X236857Y89373D02*
D03*
X241840Y88177D02*
D03*
X244414Y88161D02*
D03*
X246989D02*
D03*
X249564D02*
D03*
X252139D02*
D03*
X254714D02*
D03*
X256979Y86938D02*
D03*
X259552Y86839D02*
D03*
X260954Y94027D02*
D03*
X258379D02*
D03*
X255960Y93146D02*
D03*
X253444Y92599D02*
D03*
X250869D02*
D03*
X248294D02*
D03*
X245719D02*
D03*
X243144D02*
D03*
X240574Y92743D02*
D03*
X238181Y93693D02*
D03*
X236359Y95513D02*
D03*
X234373Y97152D02*
D03*
X191500Y126740D02*
D03*
X188500Y130240D02*
D03*
X184000Y131240D02*
D03*
X178000Y55740D02*
D03*
X193493Y50938D02*
D03*
X191673Y49118D02*
D03*
X239719Y136358D02*
D03*
X241612Y134613D02*
D03*
X243433Y132792D02*
D03*
X245253Y130972D02*
D03*
X247074Y129151D02*
D03*
X251737Y130391D02*
D03*
X250112Y132388D02*
D03*
X248292Y134209D02*
D03*
X246471Y136030D02*
D03*
X244650Y137850D02*
D03*
X242876Y139716D02*
D03*
X252921Y128104D02*
D03*
X249282Y124576D02*
D03*
X249356Y122002D02*
D03*
Y119427D02*
D03*
Y116852D02*
D03*
Y114278D02*
D03*
X248558Y127046D02*
D03*
X253877Y112759D02*
D03*
X253794Y115333D02*
D03*
Y117908D02*
D03*
Y120483D02*
D03*
Y123057D02*
D03*
X253620Y125626D02*
D03*
X254639Y110300D02*
D03*
X249539Y111709D02*
D03*
X250266Y109239D02*
D03*
X251464Y106960D02*
D03*
X253106Y104977D02*
D03*
X260607Y105697D02*
D03*
X258509Y107190D02*
D03*
X256146Y108212D02*
D03*
X254056Y102584D02*
D03*
X262205Y104331D02*
D03*
X202637Y100051D02*
D03*
X207439Y98676D02*
D03*
X204866Y98762D02*
D03*
X210380Y103789D02*
D03*
X210437Y101215D02*
D03*
X210014Y98676D02*
D03*
X203247Y92882D02*
D03*
X200672Y92863D02*
D03*
X200062Y100051D02*
D03*
X230204Y99166D02*
D03*
X225467Y99997D02*
D03*
X222892Y100051D02*
D03*
X220373Y99522D02*
D03*
X217816Y99214D02*
D03*
X227676Y98676D02*
D03*
X205559Y130837D02*
D03*
X205731Y122825D02*
D03*
X207551Y121004D02*
D03*
X203910Y124645D02*
D03*
X206420Y128411D02*
D03*
X214817Y110734D02*
D03*
Y113308D02*
D03*
X214752Y115882D02*
D03*
X214817Y108159D02*
D03*
X209215Y119039D02*
D03*
X214301Y118418D02*
D03*
X210192Y116657D02*
D03*
X210380Y114089D02*
D03*
Y111514D02*
D03*
Y108939D02*
D03*
Y106364D02*
D03*
X213313Y120795D02*
D03*
X211836Y122904D02*
D03*
X210061Y124769D02*
D03*
X215735Y94238D02*
D03*
X205435D02*
D03*
X208010D02*
D03*
X210585D02*
D03*
X213160D02*
D03*
X218309D02*
D03*
X301181Y102362D02*
D03*
Y99409D02*
D03*
Y96457D02*
D03*
X303150Y90551D02*
D03*
X299606D02*
D03*
X307874Y107480D02*
D03*
X306693Y110236D02*
D03*
X301575D02*
D03*
X299213Y109449D02*
D03*
X303937Y110236D02*
D03*
X307874Y105118D02*
D03*
X287008Y85827D02*
D03*
X287795Y83858D02*
D03*
X289862Y108563D02*
D03*
X289567Y96457D02*
D03*
X289370Y99409D02*
D03*
X289764Y90551D02*
D03*
X291043Y102559D02*
D03*
X289268Y82184D02*
D03*
X306693Y93307D02*
D03*
Y97244D02*
D03*
Y99213D02*
D03*
Y101181D02*
D03*
Y95177D02*
D03*
X306299Y90551D02*
D03*
X307874Y102756D02*
D03*
X298228Y99409D02*
D03*
X296276Y109433D02*
D03*
X298228Y96457D02*
D03*
Y102362D02*
D03*
X292913Y89862D02*
D03*
X296260D02*
D03*
X293004Y109433D02*
D03*
X208241Y126590D02*
D03*
X202022Y134558D02*
D03*
X173230Y41884D02*
D03*
X130709Y74409D02*
D03*
X201812Y126137D02*
D03*
X214817Y103009D02*
D03*
X217991Y73491D02*
D03*
X223634Y73261D02*
D03*
X225644Y80608D02*
D03*
X207874Y91339D02*
D03*
X215354D02*
D03*
X212205D02*
D03*
X221206Y80252D02*
D03*
X215624Y100564D02*
D03*
X214817Y105584D02*
D03*
X198500Y169740D02*
D03*
X183500D02*
D03*
X187000Y170240D02*
D03*
X189961D02*
D03*
X193000Y169740D02*
D03*
X195500D02*
D03*
X287795Y67323D02*
D03*
X285433D02*
D03*
X284646Y77559D02*
D03*
X287402Y76772D02*
D03*
X285827Y75590D02*
D03*
X286221Y78740D02*
D03*
X292520D02*
D03*
Y76772D02*
D03*
X292126Y74409D02*
D03*
X290945Y72441D02*
D03*
X290551Y70079D02*
D03*
X289764Y68110D02*
D03*
X290693Y80776D02*
D03*
X269685Y67913D02*
D03*
X271654Y65945D02*
D03*
X270669Y72835D02*
D03*
X283071Y67716D02*
D03*
X281102Y68898D02*
D03*
X279134Y70079D02*
D03*
X283465Y75590D02*
D03*
X282677Y78347D02*
D03*
X281496Y76378D02*
D03*
X284252Y80315D02*
D03*
X280315Y82677D02*
D03*
X191500Y35740D02*
D03*
X181000Y29240D02*
D03*
X183000Y34740D02*
D03*
X181000D02*
D03*
X183500Y29240D02*
D03*
X197500Y100240D02*
D03*
X187500Y98240D02*
D03*
X190500D02*
D03*
X180500Y95740D02*
D03*
X184500Y98240D02*
D03*
X183000Y95740D02*
D03*
X184000Y39240D02*
D03*
X187500Y39740D02*
D03*
X182500Y37740D02*
D03*
X195826Y52028D02*
D03*
X203426Y58926D02*
D03*
X201605Y57105D02*
D03*
X199784Y55284D02*
D03*
X197964Y53464D02*
D03*
X201998Y51223D02*
D03*
X203819Y53043D02*
D03*
X200178Y49402D02*
D03*
X182347Y90120D02*
D03*
X185500Y87240D02*
D03*
X184000Y88740D02*
D03*
X188500Y87240D02*
D03*
X234556Y141878D02*
D03*
X239429Y144145D02*
D03*
X232208Y142934D02*
D03*
X227999Y145717D02*
D03*
X230388Y144755D02*
D03*
X238363Y146488D02*
D03*
X236785Y148523D02*
D03*
X234880Y150256D02*
D03*
X232320Y149987D02*
D03*
X229921Y151575D02*
D03*
X227165D02*
D03*
X225590Y145669D02*
D03*
X266929Y86614D02*
D03*
X269499Y86773D02*
D03*
X271287Y88626D02*
D03*
X273474Y89985D02*
D03*
X264567Y102756D02*
D03*
X265946Y100357D02*
D03*
X267567Y98357D02*
D03*
X270019Y97573D02*
D03*
X259449Y96457D02*
D03*
X272594Y97573D02*
D03*
X255608Y100529D02*
D03*
X257087Y98819D02*
D03*
X272638Y74803D02*
D03*
X278215Y80840D02*
D03*
X276772Y75787D02*
D03*
Y73622D02*
D03*
Y78347D02*
D03*
X277559Y71653D02*
D03*
X222025Y71250D02*
D03*
X218384Y67609D02*
D03*
X220205Y69429D02*
D03*
X216170Y71670D02*
D03*
X214743Y63967D02*
D03*
X216564Y65788D02*
D03*
X214350Y69850D02*
D03*
X208888Y64388D02*
D03*
X212529Y68029D02*
D03*
X211102Y60326D02*
D03*
X210708Y66208D02*
D03*
X212922Y62147D02*
D03*
X209281Y58505D02*
D03*
X229921Y91339D02*
D03*
X227989Y92246D02*
D03*
X225644Y83183D02*
D03*
Y85758D02*
D03*
X227019Y87935D02*
D03*
Y90509D02*
D03*
X228036Y94238D02*
D03*
X231890Y90158D02*
D03*
X205246Y60746D02*
D03*
X207460Y56685D02*
D03*
X205640Y54864D02*
D03*
X207067Y62567D02*
D03*
X225478Y78039D02*
D03*
X224805Y75553D02*
D03*
X220860Y77701D02*
D03*
X219736Y75385D02*
D03*
X219831Y90156D02*
D03*
X219835Y87581D02*
D03*
X221206Y85402D02*
D03*
Y82827D02*
D03*
X218504Y92126D02*
D03*
X232464Y97932D02*
D03*
X196500Y140240D02*
D03*
X194500Y141240D02*
D03*
X203938Y132838D02*
D03*
X199500Y137740D02*
D03*
X180500Y161740D02*
D03*
X186000Y134240D02*
D03*
X184000D02*
D03*
Y136740D02*
D03*
X185500Y138240D02*
D03*
X183963Y140138D02*
D03*
X180284Y156548D02*
D03*
X197500Y154240D02*
D03*
X200000D02*
D03*
X194000D02*
D03*
X185000Y156240D02*
D03*
Y158465D02*
D03*
Y165240D02*
D03*
Y154240D02*
D03*
X79150Y133677D02*
D03*
X99410Y89567D02*
D03*
X123031Y62008D02*
D03*
X118504Y74409D02*
D03*
X123622D02*
D03*
X125984D02*
D03*
X121260D02*
D03*
X128347D02*
D03*
X121260Y83465D02*
D03*
X128347Y77165D02*
D03*
X118504D02*
D03*
Y83465D02*
D03*
X128937Y48228D02*
D03*
Y50197D02*
D03*
Y46260D02*
D03*
X99606Y139764D02*
D03*
Y137795D02*
D03*
Y135827D02*
D03*
X159252Y36090D02*
D03*
Y38059D02*
D03*
X143701Y63976D02*
D03*
Y62008D02*
D03*
Y60039D02*
D03*
X159449Y151969D02*
D03*
X165779Y165998D02*
D03*
X159042Y165955D02*
D03*
X161811Y153150D02*
D03*
X159449Y154331D02*
D03*
X159042Y110837D02*
D03*
X159449Y99213D02*
D03*
X165779Y110880D02*
D03*
X161811Y98032D02*
D03*
X159449Y96850D02*
D03*
X163976Y51748D02*
D03*
X166535Y46457D02*
D03*
Y51181D02*
D03*
Y44094D02*
D03*
X158000Y51740D02*
D03*
X166535Y48819D02*
D03*
X54134Y41339D02*
D03*
Y39370D02*
D03*
X72835Y89567D02*
D03*
X65945D02*
D03*
X68898Y85630D02*
D03*
X72835Y96457D02*
D03*
X56102Y39370D02*
D03*
X62008Y48228D02*
D03*
X56102Y41339D02*
D03*
X58071D02*
D03*
Y39370D02*
D03*
X61811Y133465D02*
D03*
X56102Y130905D02*
D03*
X290354Y138976D02*
D03*
Y136614D02*
D03*
X290354Y307874D02*
D03*
Y310236D02*
D03*
X277166Y237008D02*
D03*
X269685Y242913D02*
D03*
X273622Y237008D02*
D03*
X269685D02*
D03*
X215354Y262598D02*
D03*
X212205D02*
D03*
X207874D02*
D03*
X280000Y237500D02*
D03*
X277000Y239500D02*
D03*
X275000Y242500D02*
D03*
X273622Y245500D02*
D03*
X182500Y209000D02*
D03*
X184000Y210500D02*
D03*
X187500Y211000D02*
D03*
X191500Y207000D02*
D03*
X183500Y200500D02*
D03*
X181000D02*
D03*
X183000Y206000D02*
D03*
X181000D02*
D03*
X188500Y258500D02*
D03*
X185500D02*
D03*
X184000Y260000D02*
D03*
X182347Y261380D02*
D03*
X180500Y267000D02*
D03*
X183000D02*
D03*
X184500Y269500D02*
D03*
X187500D02*
D03*
X190500D02*
D03*
X197500Y271500D02*
D03*
X188500Y301500D02*
D03*
X186000Y305500D02*
D03*
X191500Y298000D02*
D03*
X199500Y309000D02*
D03*
X196500Y311500D02*
D03*
X194500Y312500D02*
D03*
X184000Y302500D02*
D03*
Y305500D02*
D03*
Y308000D02*
D03*
X185500Y309500D02*
D03*
X183963Y311397D02*
D03*
X200000Y325500D02*
D03*
X197500D02*
D03*
X194000D02*
D03*
X185000D02*
D03*
Y327500D02*
D03*
Y329724D02*
D03*
X180284Y327808D02*
D03*
X180500Y333000D02*
D03*
X185000Y336500D02*
D03*
X183500Y341000D02*
D03*
X187000Y341500D02*
D03*
X189961D02*
D03*
X193000Y341000D02*
D03*
X195500D02*
D03*
X198500D02*
D03*
X294500Y248000D02*
D03*
X296000Y246500D02*
D03*
X297500Y245000D02*
D03*
X299000Y243500D02*
D03*
X301000Y242000D02*
D03*
X302500Y241000D02*
D03*
X307087Y245500D02*
D03*
X306000Y247000D02*
D03*
X304398Y248986D02*
D03*
X303000Y250500D02*
D03*
X302500Y255000D02*
D03*
X301000Y256500D02*
D03*
X299500Y258000D02*
D03*
X298000Y259500D02*
D03*
X293000Y258500D02*
D03*
X291000Y260000D02*
D03*
X304640Y239398D02*
D03*
X306402Y237521D02*
D03*
X307036Y235026D02*
D03*
X314500Y233268D02*
D03*
X314224Y235647D02*
D03*
X313616Y238149D02*
D03*
X311439Y239524D02*
D03*
X310305Y241835D02*
D03*
X308389Y243555D02*
D03*
X227166Y322835D02*
D03*
X229921D02*
D03*
X225591Y316929D02*
D03*
X227999Y316977D02*
D03*
X230388Y316015D02*
D03*
X232208Y314194D02*
D03*
X234557Y313138D02*
D03*
X239429Y315405D02*
D03*
X238363Y317748D02*
D03*
X236785Y319783D02*
D03*
X234880Y321516D02*
D03*
X232320Y321247D02*
D03*
X231890Y261417D02*
D03*
X229921Y262598D02*
D03*
X227989Y263506D02*
D03*
X218504Y263386D02*
D03*
X219831Y261416D02*
D03*
X219835Y258841D02*
D03*
X221206Y256662D02*
D03*
Y254087D02*
D03*
Y251512D02*
D03*
X220860Y248961D02*
D03*
X219736Y246644D02*
D03*
X217991Y244751D02*
D03*
X216170Y242930D02*
D03*
X214350Y241109D02*
D03*
X212529Y239289D02*
D03*
X210708Y237468D02*
D03*
X208888Y235648D02*
D03*
X207067Y233827D02*
D03*
X205246Y232006D02*
D03*
X203426Y230186D02*
D03*
X201605Y228365D02*
D03*
X199785Y226544D02*
D03*
X197964Y224724D02*
D03*
X195827Y223288D02*
D03*
X193494Y222198D02*
D03*
X191673Y220378D02*
D03*
X200178Y220662D02*
D03*
X201998Y222482D02*
D03*
X203819Y224303D02*
D03*
X205640Y226124D02*
D03*
X207460Y227944D02*
D03*
X209281Y229765D02*
D03*
X211102Y231586D02*
D03*
X212922Y233406D02*
D03*
X214743Y235227D02*
D03*
X216564Y237048D02*
D03*
X218384Y238868D02*
D03*
X220205Y240689D02*
D03*
X222026Y242510D02*
D03*
X223634Y244520D02*
D03*
X224805Y246813D02*
D03*
X225478Y249299D02*
D03*
X225644Y251868D02*
D03*
Y254443D02*
D03*
Y257018D02*
D03*
X227019Y259194D02*
D03*
Y261769D02*
D03*
X259449Y267717D02*
D03*
X264567Y274016D02*
D03*
X239719Y307618D02*
D03*
X241612Y305873D02*
D03*
X243433Y304052D02*
D03*
X245253Y302231D02*
D03*
X247074Y300411D02*
D03*
X248558Y298306D02*
D03*
X249282Y295835D02*
D03*
X249356Y293262D02*
D03*
Y290687D02*
D03*
Y288112D02*
D03*
Y285537D02*
D03*
X249539Y282969D02*
D03*
X250266Y280499D02*
D03*
X251464Y278220D02*
D03*
X253106Y276237D02*
D03*
X254056Y273844D02*
D03*
X255608Y271789D02*
D03*
X257087Y270079D02*
D03*
X262205Y275590D02*
D03*
X260607Y276956D02*
D03*
X258509Y278450D02*
D03*
X256146Y279472D02*
D03*
X254639Y281560D02*
D03*
X253877Y284019D02*
D03*
X253794Y286593D02*
D03*
Y289167D02*
D03*
Y291742D02*
D03*
Y294317D02*
D03*
X253620Y296886D02*
D03*
X252921Y299364D02*
D03*
X251737Y301651D02*
D03*
X250112Y303648D02*
D03*
X248292Y305469D02*
D03*
X246471Y307290D02*
D03*
X244650Y309110D02*
D03*
X242876Y310976D02*
D03*
X272594Y268832D02*
D03*
X270020D02*
D03*
X267567Y269617D02*
D03*
X265946Y271617D02*
D03*
X266268Y258098D02*
D03*
X268838Y258257D02*
D03*
X270625Y260110D02*
D03*
X272812Y261469D02*
D03*
X234643Y262017D02*
D03*
X236838Y260672D02*
D03*
X239272Y259832D02*
D03*
X241824Y259487D02*
D03*
X244398Y259474D02*
D03*
X246973D02*
D03*
X249548D02*
D03*
X252123D02*
D03*
X254698D02*
D03*
X256939Y258206D02*
D03*
X259511Y258098D02*
D03*
X260996Y265287D02*
D03*
X258421D02*
D03*
X255987Y264447D02*
D03*
X253469Y263911D02*
D03*
X250894D02*
D03*
X248319D02*
D03*
X245744D02*
D03*
X243170D02*
D03*
X240598Y264040D02*
D03*
X238197Y264969D02*
D03*
X236360Y266773D02*
D03*
X234374Y268412D02*
D03*
X232464Y269192D02*
D03*
X201812Y297397D02*
D03*
X203910Y295905D02*
D03*
X205731Y294084D02*
D03*
X207551Y292264D02*
D03*
X209215Y290299D02*
D03*
X210192Y287916D02*
D03*
X210380Y285349D02*
D03*
Y282774D02*
D03*
Y280199D02*
D03*
Y277624D02*
D03*
Y275049D02*
D03*
X210437Y272475D02*
D03*
X210014Y269935D02*
D03*
X207439D02*
D03*
X204866Y270022D02*
D03*
X202637Y271311D02*
D03*
X200062D02*
D03*
X200672Y264122D02*
D03*
X203247Y264142D02*
D03*
X205436Y265498D02*
D03*
X208010D02*
D03*
X210585D02*
D03*
X213160D02*
D03*
X215735D02*
D03*
X218310D02*
D03*
X228036D02*
D03*
X230204Y270426D02*
D03*
X227677Y269935D02*
D03*
X225467Y271257D02*
D03*
X222893Y271311D02*
D03*
X220373Y270782D02*
D03*
X217816Y270474D02*
D03*
X215624Y271824D02*
D03*
X214817Y274269D02*
D03*
Y276844D02*
D03*
Y279419D02*
D03*
Y281993D02*
D03*
Y284568D02*
D03*
X214752Y287142D02*
D03*
X214302Y289677D02*
D03*
X213313Y292055D02*
D03*
X211836Y294164D02*
D03*
X210061Y296029D02*
D03*
X208241Y297850D02*
D03*
X206420Y299671D02*
D03*
X205559Y302097D02*
D03*
X203938Y304098D02*
D03*
X202022Y305818D02*
D03*
X287008Y257087D02*
D03*
X287795Y255118D02*
D03*
X289268Y253444D02*
D03*
X290693Y252035D02*
D03*
X292520Y250000D02*
D03*
Y248031D02*
D03*
X292126Y245669D02*
D03*
X290945Y243701D02*
D03*
X290551Y241338D02*
D03*
X289764Y239370D02*
D03*
X287795Y238583D02*
D03*
X285433D02*
D03*
X283071Y238976D02*
D03*
X281102Y240157D02*
D03*
X279134Y241338D02*
D03*
X277559Y242913D02*
D03*
X276772Y244882D02*
D03*
Y247047D02*
D03*
Y249606D02*
D03*
X278216Y252100D02*
D03*
X284646Y248819D02*
D03*
X282677Y249606D02*
D03*
X281496Y247638D02*
D03*
X283465Y246850D02*
D03*
X285827D02*
D03*
X287402Y248031D02*
D03*
X286221Y250000D02*
D03*
X284252Y251575D02*
D03*
X280010Y253948D02*
D03*
X307874Y274016D02*
D03*
Y276378D02*
D03*
X291043Y273819D02*
D03*
X61811Y304724D02*
D03*
X159449Y268110D02*
D03*
X165779Y282140D02*
D03*
X159449Y270472D02*
D03*
X161811Y269291D02*
D03*
X62008Y219488D02*
D03*
X68898Y256890D02*
D03*
X65945Y260827D02*
D03*
X72835D02*
D03*
X99410D02*
D03*
X72835Y267717D02*
D03*
X128937Y217520D02*
D03*
Y219488D02*
D03*
Y221457D02*
D03*
X123032Y233268D02*
D03*
X118504Y245669D02*
D03*
X121260D02*
D03*
X123622D02*
D03*
X125984D02*
D03*
X128347D02*
D03*
X130709D02*
D03*
X118504Y248425D02*
D03*
X128347D02*
D03*
X118504Y254724D02*
D03*
X121260D02*
D03*
X163977Y223007D02*
D03*
X166535Y217717D02*
D03*
Y220079D02*
D03*
Y222441D02*
D03*
X158000Y223000D02*
D03*
X166535Y215354D02*
D03*
X159042Y282096D02*
D03*
X159449Y323228D02*
D03*
X161811Y324409D02*
D03*
X159449Y325590D02*
D03*
X143701Y231299D02*
D03*
Y233268D02*
D03*
Y235236D02*
D03*
X159252Y207350D02*
D03*
Y209318D02*
D03*
X54134Y210630D02*
D03*
X56103D02*
D03*
X58071D02*
D03*
X54134Y212598D02*
D03*
X56103D02*
D03*
X58071D02*
D03*
X56103Y302165D02*
D03*
X79150Y304937D02*
D03*
X83252D02*
D03*
X99606Y307087D02*
D03*
Y309055D02*
D03*
Y311024D02*
D03*
X289567Y267717D02*
D03*
X306693Y264567D02*
D03*
Y266437D02*
D03*
X306299Y268504D02*
D03*
Y270472D02*
D03*
Y272441D02*
D03*
X307874Y278740D02*
D03*
X303937Y281496D02*
D03*
X306693D02*
D03*
X298229Y273622D02*
D03*
X301181D02*
D03*
Y270669D02*
D03*
Y267717D02*
D03*
X298229D02*
D03*
Y270669D02*
D03*
X289370D02*
D03*
X299213Y280709D02*
D03*
X296276Y280693D02*
D03*
X293004D02*
D03*
X289862Y279823D02*
D03*
X301575Y281496D02*
D03*
X173230Y213144D02*
D03*
X178000Y227000D02*
D03*
X306299Y261811D02*
D03*
X303150D02*
D03*
X299606D02*
D03*
X296260Y261122D02*
D03*
X289764Y261811D02*
D03*
X292914Y261122D02*
D03*
X159042Y337214D02*
D03*
X165779Y337258D02*
D03*
D127*
X279134Y90039D02*
D03*
Y92401D02*
D03*
Y94763D02*
D03*
X281496D02*
D03*
X283858D02*
D03*
Y92401D02*
D03*
Y90039D02*
D03*
X281496D02*
D03*
X281496Y92401D02*
D03*
X279134Y261299D02*
D03*
Y263661D02*
D03*
Y266023D02*
D03*
X281496D02*
D03*
X283858D02*
D03*
Y263661D02*
D03*
Y261299D02*
D03*
X281496D02*
D03*
X281496Y263661D02*
D03*
X166732Y35106D02*
D03*
X169095Y28019D02*
D03*
X173819Y35106D02*
D03*
X166732Y28019D02*
D03*
X171457D02*
D03*
X169095Y32744D02*
D03*
X166732D02*
D03*
X171457D02*
D03*
X169095Y35106D02*
D03*
Y30382D02*
D03*
X173819Y28019D02*
D03*
X171457Y35106D02*
D03*
X173819Y30382D02*
D03*
Y32744D02*
D03*
X171457Y30382D02*
D03*
X166732D02*
D03*
X166732Y206760D02*
D03*
X169095Y199673D02*
D03*
X173819Y206760D02*
D03*
X166732Y199673D02*
D03*
X171457D02*
D03*
X169095Y204397D02*
D03*
X166732D02*
D03*
X171457D02*
D03*
X169095Y206760D02*
D03*
Y202035D02*
D03*
X173819Y199673D02*
D03*
X171457Y206760D02*
D03*
X173819Y202035D02*
D03*
Y204397D02*
D03*
X171457Y202035D02*
D03*
X166732D02*
D03*
X165748Y94291D02*
D03*
X168110Y87205D02*
D03*
X172835Y94291D02*
D03*
X165748Y87205D02*
D03*
X170473D02*
D03*
X168110Y91929D02*
D03*
X165748D02*
D03*
X170473D02*
D03*
X168110Y94291D02*
D03*
Y89567D02*
D03*
X172835Y87205D02*
D03*
X170473Y94291D02*
D03*
X172835Y89567D02*
D03*
Y91929D02*
D03*
X170473Y89567D02*
D03*
X165748D02*
D03*
Y149409D02*
D03*
X168110Y142323D02*
D03*
X172835Y149409D02*
D03*
X165748Y142323D02*
D03*
X170473D02*
D03*
X168110Y147047D02*
D03*
X165748D02*
D03*
X170473D02*
D03*
X168110Y149409D02*
D03*
Y144685D02*
D03*
X172835Y142323D02*
D03*
X170473Y149409D02*
D03*
X172835Y144685D02*
D03*
Y147047D02*
D03*
X170473Y144685D02*
D03*
X165748D02*
D03*
X165748Y265551D02*
D03*
X168110Y258465D02*
D03*
X172835Y265551D02*
D03*
X165748Y258465D02*
D03*
X170473D02*
D03*
X168110Y263189D02*
D03*
X165748D02*
D03*
X170473D02*
D03*
X168110Y265551D02*
D03*
Y260827D02*
D03*
X172835Y258465D02*
D03*
X170473Y265551D02*
D03*
X172835Y260827D02*
D03*
Y263189D02*
D03*
X170473Y260827D02*
D03*
X165748D02*
D03*
Y320669D02*
D03*
X168110Y313583D02*
D03*
X172835Y320669D02*
D03*
X165748Y313583D02*
D03*
X170473D02*
D03*
X168110Y318307D02*
D03*
X165748D02*
D03*
X170473D02*
D03*
X168110Y320669D02*
D03*
Y315945D02*
D03*
X172835Y313583D02*
D03*
X170473Y320669D02*
D03*
X172835Y315945D02*
D03*
Y318307D02*
D03*
X170473Y315945D02*
D03*
X165748D02*
D03*
D128*
X101378Y115748D02*
D03*
X98228D02*
D03*
X95079D02*
D03*
X91929D02*
D03*
X104528D02*
D03*
X107677D02*
D03*
X110827D02*
D03*
X101378Y112598D02*
D03*
X98228D02*
D03*
X95079D02*
D03*
X91929D02*
D03*
X104528D02*
D03*
X107677D02*
D03*
X110827D02*
D03*
X101378Y109449D02*
D03*
X98228D02*
D03*
X95079D02*
D03*
X91929D02*
D03*
X104528D02*
D03*
X107677D02*
D03*
X110827D02*
D03*
X101378Y96850D02*
D03*
X98228D02*
D03*
X95079D02*
D03*
X91929D02*
D03*
X104528D02*
D03*
X107677D02*
D03*
X110827D02*
D03*
X101378Y100000D02*
D03*
X98228D02*
D03*
X95079D02*
D03*
X91929D02*
D03*
X104528D02*
D03*
X107677D02*
D03*
X110827D02*
D03*
X101378Y103150D02*
D03*
X98228D02*
D03*
X95079D02*
D03*
X91929D02*
D03*
X104528D02*
D03*
X107677D02*
D03*
X110827D02*
D03*
Y106299D02*
D03*
X107677D02*
D03*
X104528D02*
D03*
X91929D02*
D03*
X95079D02*
D03*
X98228D02*
D03*
X101378D02*
D03*
X101378Y287008D02*
D03*
X98228D02*
D03*
X95079D02*
D03*
X91929D02*
D03*
X104528D02*
D03*
X107677D02*
D03*
X110827D02*
D03*
X101378Y283858D02*
D03*
X98228D02*
D03*
X95079D02*
D03*
X91929D02*
D03*
X104528D02*
D03*
X107677D02*
D03*
X110827D02*
D03*
X101378Y280709D02*
D03*
X98229D02*
D03*
X95079D02*
D03*
X91929D02*
D03*
X104528D02*
D03*
X107677D02*
D03*
X110827D02*
D03*
X101378Y268110D02*
D03*
X98228D02*
D03*
X95079D02*
D03*
X91929D02*
D03*
X104528D02*
D03*
X107677D02*
D03*
X110827D02*
D03*
X101378Y271260D02*
D03*
X98229D02*
D03*
X95079D02*
D03*
X91929D02*
D03*
X104528D02*
D03*
X107677D02*
D03*
X110827D02*
D03*
X101378Y274409D02*
D03*
X98229D02*
D03*
X95079D02*
D03*
X91929D02*
D03*
X104528D02*
D03*
X107677D02*
D03*
X110827D02*
D03*
Y277559D02*
D03*
X107677D02*
D03*
X104528D02*
D03*
X91929D02*
D03*
X95079D02*
D03*
X98229D02*
D03*
X101378D02*
D03*
X56102Y46260D02*
D03*
Y50197D02*
D03*
X56103Y221457D02*
D03*
Y217520D02*
D03*
M02*
