M48
;Layer_Color=9474304
;FILE_FORMAT=2:5
INCH,LZ
;TYPE=PLATED
T1F00S00C0.00787
T2F00S00C0.00984
T3F00S00C0.01181
T4F00S00C0.03937
T6F00S00C0.05984
T7F00S00C0.12500
%
T01
X0049659Y0020617
X0051234Y0022585
X0054134Y003937
X0056102
Y0041339
X0054134
X0044488Y0045669
X0044094Y0051575
X0048478Y0105065
X0038635
X0036667Y0115302
X0043307Y0129527
X0056102Y0130905
X0012992Y0110236
X0076431Y0113333
X0079187Y0113508
X0081844Y0113246
X0081942Y0115695
X0084344Y0120918
X0086053Y0123687
X0089053Y0125687
X0094553
X00972Y012574
X0102
X0106947Y0123963
X0110683Y0123569
X0120132Y0119042
X01221Y011412
X0120419Y0110242
Y0107067
Y0104067
X0119246Y0102113
X0123084Y0105067
Y0108754
X0131155Y010664
X013189Y0115157
X0129187Y0123176
X0127218Y0127113
X012525Y0129081
X0136273Y0125144
X0139764Y013774
X0155553Y0140187
X0158053Y0138187
X0161864Y0134987
X0160289Y0133018
X0157152Y0131431
X0153596Y0119042
X0151628Y012101
X0149606Y0117126
X0159042Y0110837
X0165779Y011088
X0174021Y0103687
X0181103Y0102362
X018504
X0188977
X0192914
X0196851
X01975Y010024
X0200062Y0100051
X0202637
X0204866Y0098762
X0207439Y0098676
X0210014
X0210437Y0101215
X021038Y0103789
Y0106364
Y0108939
Y0111514
Y0114089
X0210192Y0116657
X0209215Y0119039
X0207551Y0121004
X0205731Y0122825
X020391Y0124645
X0201812Y0126137
X0202756Y0122047
X0198819
X0194882
X0190945
X0187008
X018504Y0125984
X0188977
X01915Y012674
X01885Y013024
X0184Y013124
Y013424
X0186
X0184Y013674
X01855Y013824
X0183963Y0140138
X0182336Y0138924
X0180368Y013538
X0179134Y0129921
X0177166Y0125984
X0179134Y0122047
X0177166Y011811
X018504
X0188977
X0192914
X0196851
X0200788
X0204725
X0206693Y0114173
X0202756
X0198819
X0194882
X0190945
X0187008
X018504Y0110236
X0188977
X0192914
X0196851
X0200788
X0204725
X0208662
X0206693Y0106299
X0202756
X0198819
X0194882
X0190945
X0187008
X0183071
X0182336Y0109002
X01845Y009824
X01875
X01905
X0183Y009574
X01805
X0179134Y0098425
X0182347Y009012
X0184Y008874
X01855Y008724
X01885
X0187008Y0082677
X0190945
X0194882
X0198819
X0202756
X0206693
X021063
X0208662Y0086614
X0212599
X0212205Y0091339
X021316Y0094238
X0210585
X020801
X0205435
X0203247Y0092882
X0200672Y0092863
X0207874Y0091339
X0208662Y0102362
X0204725
X0200788
Y007874
X0204725
X0208662
X0212599
X021063Y0074803
X0206693
X0202756
X0198819
X0194882
X0190945
X0187008
X0183071
X0181103Y0070866
X018504
X0188977
X0192914
X0196851
X0200788
X0204725
X0208662
X0206693Y0066929
X0202756
X0198819
X0194882
X0190945
X0187008
X0183071
X0179134
X0177166Y0070866
Y0062992
X0181103
X018504
X0188977
X0192914
X0196851
X0200788
X0204725
X0205246Y0060746
X0203426Y0058926
X0201605Y0057105
X0199784Y0055284
X0197964Y0053464
X0195826Y0052028
X0193493Y0050938
X0190945Y0051181
X0191673Y0049118
X0188977Y0047244
X018504
X0187008Y0051181
X0183071
X018504Y0055118
X0188977
X0192914
X0194882Y0059055
X0198819
X0190945
X0187008
X0183071
X0179134
X0178Y005574
X0177218Y0041679
X0179187
X0183071Y0043307
X0184Y003924
X01825Y003774
X0183Y003474
X0181
Y002924
X01835
X0187008Y0027559
X0190945
X0194882
X0198819
X0202756
X0206693
X021063
X0208662Y0031496
X0212599
X021063Y0035433
X0206693
X0202756
X0198819
X0196851Y0031496
X0200788
X0204725
Y003937
X0208662
X0212599
X021063Y0043307
X0206693
X0204725Y0047244
X0208662
X0212599
X021063Y0051181
X0206693
X0201998Y0051223
X0203819Y0053043
X020564Y0054864
X020746Y0056685
X0209281Y0058505
X0211102Y0060326
X0212922Y0062147
X0208888Y0064388
X0210708Y0066208
X0212529Y0068029
X0207067Y0062567
X0212599Y0055118
X0200178Y0049402
X01915Y003574
X0192914Y0031496
Y0023622
X0196851
X0200788
X0204725
X0208662
X0212599
X021063Y0019685
X0206693
X0202756
X0198819
X0194882
X0190945
X0187008
X018504Y0023622
X0188977
Y0015748
X0192914
X0196851
X0200788
X0204725
X0208662
X0212599
X018504
X0177166
X0179134Y0019685
X0177166Y0023622
X0171319Y0021601
X0168307Y0020669
X0173281Y0018451
X017323Y0041884
X0166535Y0044094
Y0046457
Y0048819
Y0051181
X0163976Y0051748
X0158Y005174
X0149575Y005764
X0143701Y0060039
Y0062008
Y0063976
X0140748Y0058071
X0138779
X0136811
Y0052165
X0138779
X0140748
Y0054134
Y0056102
Y0044291
X0138779
X0136811
X0128937Y004626
Y0048228
Y0050197
X0123031Y0062008
X0123622Y0074409
X0125984
X0128347
X0130709
X0128347Y0077165
X0118504
Y0074409
X012126
Y0083465
X0121847Y0085633
X0118504Y0083465
X0113758Y008712
X0111258
X0103983Y0086719
X009941Y0089567
X0092792Y0087464
X0090778
X0087257Y0089514
X0081693Y0090551
Y0093504
Y0096457
X008233Y0102073
X0081693Y0104921
X0072835Y0096457
Y0089567
X0065945
X0068898Y008563
X0063439Y0077506
Y0075538
Y0073569
Y0071601
X006147
Y0073569
X0059502
Y0075538
X006147
Y0077506
X0059502
Y0071601
X0062008Y0048228
X0058071Y0041339
Y003937
X0077756Y0010827
X0079777Y0008805
X0084305Y0015021
X010399Y0007034
X0116194Y0016876
X0120913Y0022624
X0134843Y0024606
X0139764Y0027165
X0145919Y0020617
X0159502Y002849
X0159252Y003609
Y0038059
X01875Y003974
X0188977Y007874
X0192914
X0196851
X018504
X0159502Y0090498
X0159449Y009685
Y0099213
X0161811Y0098032
X0139764Y0103346
Y0110236
X0139764Y0082622
X010689Y0079232
X0113832Y007042
X0097297Y0070813
X0092682Y0066986
X0090714Y0068735
X0087454Y0064121
X0111076Y0041679
X0099606Y0135827
Y0137795
Y0139764
X0083071
Y0137795
Y0135827
X0083252Y0133677
X007915
X0081Y0127661
X0061811Y0133465
X0172371Y0133018
X0174068Y0131431
X0202022Y0134558
X0203938Y0132838
X0205559Y0130837
X020642Y0128411
X0208241Y012659
X0210061Y0124769
X0211836Y0122904
X0213313Y0120795
X0212599Y0125984
X021063Y0129921
X0208662Y0133858
X0212599
X021063Y0137795
X0206693
X0202756
X01995Y013774
X01965Y014024
X0214567Y0137795
X0218504
X0222441
X0226378
X0230315
X0234252
X0232284Y0133858
X0236221
X0238189Y0129921
X0242126
X0243433Y0132792
X0241612Y0134613
X0239719Y0136358
X024465Y013785
X0242876Y0139716
X0246471Y013603
X0248292Y0134209
X0250112Y0132388
X0251969Y0133858
X0251737Y0130391
X0253937Y0129921
X0252921Y0128104
X025362Y0125626
X0255906Y0125984
X0259843
X026378
X0265748Y0129921
X0261811
X0257874
X0255906Y0133858
X0259843
X026378
X0265748Y0137795
X0269685
X0273622Y0137402
Y0135039
Y0139764
X0261811Y0137795
X0257874
X0253937
X025
X0245253Y0130972
X0247074Y0129151
X0248558Y0127046
X0249282Y0124576
X0249356Y0122002
Y0119427
Y0116852
Y0114278
X0249539Y0111709
X0248032Y0110236
X0250266Y0109239
X0251464Y010696
X0253106Y0104977
X0254056Y0102584
X0251969Y0102362
X0248032
X0244095
X0240158
X0236221
X0232284
X0228347
X022441
X0225467Y0099997
X0222892Y0100051
X0220373Y0099522
X0217816Y0099214
X0215624Y0100564
X0214817Y0103009
Y0105584
Y0108159
Y0110734
Y0113308
X0214752Y0115882
X0214301Y0118418
X0216536Y011811
X0220473
X022441
X0228347
X0232284
X0236221
X0240158
X0244095
X0246063Y0122047
X0242126
X0238189
X0234252
X0230315
X0226378
X0222441
X0218504
X0216536Y0125984
X0220473
X022441
X0228347
X0232284
X0236221
X0240158
X0244095
X0253794Y0123057
Y0120483
Y0117908
X0255906Y011811
X0259843
X026378
X0265748Y0122047
X0261811
X0257874
Y0114173
X0261811
X0265748
X026378Y0110236
X0259843
X0258509Y010719
X0256146Y0108212
X0254639Y01103
X0253877Y0112759
X0253794Y0115333
X0246063Y0114173
X0242126
X0238189
X0234252
X0230315
X0226378
X0222441
X0218504
X0220473Y0110236
X022441
X0228347
X0232284
X0236221
X0240158
X0244095
X0246063Y0106299
X0242126
X0238189
X0234252
X0230315
X0226378
X0222441
X0218504
X0220473Y0102362
X0218309Y0094238
X0218504Y0092126
X0219831Y0090156
X0219835Y0087581
X0221206Y0085402
Y0082827
Y0080252
X022086Y0077701
X0219736Y0075385
X0217991Y0073491
X021617Y007167
X021435Y006985
X0214567Y0074803
X0216536Y007874
X0218504Y0082677
X0214567
X0216536Y0086614
X0215354Y0091339
X0215735Y0094238
X0228036
X0227989Y0092246
X0227019Y0090509
Y0087935
X0225644Y0085758
Y0083183
Y0080608
X0225478Y0078039
X0224805Y0075553
X0223634Y0073261
X022441Y0070866
X0222025Y007125
X0220205Y0069429
X0218384Y0067609
X0216564Y0065788
X0214743Y0063967
X0214567Y0059055
X0218504
X0222441
X0226378
X0230315
X0234252
X0238189
X0236221Y0062992
X0232284
X0228347
X022441
X0220473
X0222441Y0066929
X0226378
X0230315
X0234252
X0238189
X0241142Y0066929
X0244095Y0062992
X0248032
X025Y0059055
Y0051181
X0253937
X0257874
X0261811
X0265748
X0269685
X0273622
X0277559
X0281496
X0285433
X028937
X0293307
X0297244
X0301181
X0305118
X0309055
X0312993
X031693
X0320866
X0324803
X0328741
X0332678
X0336614
X0340551
X0344489
X034252Y0055118
X0346457
X0350394
X0354331
X0358268
X0362205
X0364174Y0059055
X0360237
X03563
X0352363
X0348426
X0344489
X0340551
X0336614
X0332678
X0328741
X0324803
X0320866
X031693
X0312993
X0309055
X0305118
X0301181
X0297244
X0293307
X028937
X0285433
X0281496
X0279528Y0055118
X0283465
X0287402
X0291339
X0295276
X0299213
X030315
X0307087
X0311024
X0314961
X0318898
X0322835
X0326772
X0330709
X0334646
X0338583
Y0062992
X034252
X0346457
X0350394
X0354331
X0358268
X0362205
X0364174Y0066929
X0360237
X03563
X0352363
X0348426
X0344489
X0340551
X0336614
X0332678
X0328741
X0324803
X0320866
X031693
X0312993
X0309055
X0305118
X0301181
X0297244
X0293307
X0289764Y006811
X0287795Y0067323
X0285433
X0283071Y0067716
X0281102Y0068898
X0279134Y0070079
X0277559Y0071653
X0275591Y0070866
X0276772Y0073622
Y0075787
Y0078347
X0274606Y0076772
X0272638Y0074803
X0270669Y0072835
X0269685Y0070866
Y0067913
X0271654Y0065945
X0273622Y0066929
X0277559
X0283465Y0062992
X0287402
X0291339
X0295276
X0299213
X030315
X0307087
X0311024
X0314961
X0318898
X0322835
X0326772
X0330709
X0334646
Y0070866
X0338583
X034252
X0346457
X0350394
X0354331
X0358268
X0362205
X0364174Y0074803
X0360237
X03563
X0352363
X0348426
X0344489
X0340551
X0336614
X0332678
X0328741
X0324803
X0320866
X031693
X0312993
X0309055
X0305118
X0301181
X0297244
X0298228Y007874
X0301181
X030315Y0081693
X0307087Y0082677
X0311024Y0083661
X0312993Y0082677
X0313976Y0084646
X0317913Y008563
X031693Y0082677
X0320866
X0324803
X0328741
X0332678
X0336614
X0340551
X0344489
X0348426
X0352363
X03563
X0360237
X0364174
X0362205Y0086614
X0358268
X0354331
X0350394
X0346457
X034252
X0338583
X0334646
X0330709
X0326772
X0322835
X032185Y0089567
X0322835Y0091535
X0324803Y0090551
X0324803Y0093504
X0325787Y0095472
X0327756Y0097441
Y0100394
X0327981Y010334
X0330709Y0102362
X0334646
X0338583
X034252
X0346457
X0350394
X0354331
X0358268
X0362205
X0364174Y0106299
X0360237
X03563
X0352363
X0348426
X0344489
X0340551
X0336614
X0332678
X0330709Y0110236
X0334646
X0338583
X034252
X0346457
X0350394
X0354331
X0358268
X0362205
X0364174Y0114173
X0360237
X03563
X0352363
X0348426
X0344489
X0340551
X0336614
X0332678
X0328741
X0326038Y0114441
Y0111866
X032715Y0109544
X0327413Y0106983
X0320225Y0107379
X0320728Y0109904
X03216Y0112326
Y0114901
Y0117476
Y0120051
Y0122626
Y01252
Y0127775
Y013035
Y0132925
Y01355
Y0138074
X0326038Y0137614
Y0135039
Y0132465
Y012989
Y0127315
Y012474
Y0122166
Y0119591
Y0117016
X0330709Y011811
X0334646
X0338583
X034252
X0346457
X0350394
X0354331
X0358268
X0362205
X0364174Y0122047
X0360237
X03563
X0352363
X0348426
X0344489
X0340551
X0336614
X0332678
X0328741
X0330709Y0125984
X0334646
X0338583
X034252
X0346457
X0350394
X0354331
X0358268
X0362205
X0364174Y0129921
X0360237
X03563
X0352363
X0348426
X0344489
X0340551
X0336614
X0332678
X0328741
X0330709Y0133858
X0334646
X0338583
X034252
X0346457
X0350394
X0354331
X0358268
X0362205
X0364174Y0137795
X0360237
X03563
X0352363
X0348426
X0344489
X0340551
X0336614
X0332678
X0328741
X0326038Y0140189
X031693Y0137795
X0312993
X0309055
X0305118
X0301181
X0299213Y0133858
X029685Y0133858
X0297244Y0129921
X0301181
X0305118
X0309055
X0312993
X031693
X0314961Y0133858
X0318898
Y0125984
X0314961
X0311024
X0307087
X030315
X0299213
X0301181Y0122047
X0305118
X0309055
X0312993
X031693
X0314961Y011811
X0318898
X031693Y0114173
X0312993
X0309055
X0305118
X0301181
X0297244
X0296276Y0109433
X0299213Y0109449
X0301575Y0110236
X0303937
X0306693
X0307874Y010748
Y0105118
Y0102756
X0306693Y0101181
Y0099213
Y0097244
Y0095177
Y0093307
X0306299Y0090551
X0309055Y0090551
X0311024Y0089567
X0312992Y0090551
X0314961Y009252
X0316929Y0094488
X0318898Y0096457
X0319882Y0098425
X0319807Y0100791
X0319381Y0103338
X0314961Y0102362
X0311024
X0312993Y0098425
X031693
Y0106299
X0314961Y0110236
X0311024
Y011811
X0307087
X030315
X0299213
X0295276
X0291339
X0283465
X0281496Y0129921
X0283465Y0133858
X0290354Y0136614
Y0138976
X028937Y0129921
X0293307
X030315Y0133858
X0307087
X0311024
X0309055Y0098425
X0311024Y0094488
X0301181Y0096457
Y0099409
X0298228
Y0096457
Y0102362
X0301181
X0291043Y0102559
X028937Y0099409
X0289567Y0096457
X0289764Y0090551
X0292913Y0089862
X029626
X0299606Y0090551
X030315
X0290346Y0084416
X0287795Y0083858
X0287008Y0085827
X0289268Y0082184
X0290693Y0080776
X029252Y007874
Y0076772
X0292126Y0074409
X0290945Y0072441
X0290551Y0070079
X0295276Y0070866
X0299213
X030315
X0307087
X0311024
X0314961
X0318898
X0322835
X0326772
X0330709
Y007874
X0334646
X0338583
X034252
X0346457
X0350394
X0354331
X0358268
X0362205
X0364174Y0090551
X0360237
X03563
X0352363
X0348426
X0344489
X0340551
X0336614
X0332678
X0328741
X0330709Y0094488
X0334646
X0338583
X034252
X0346457
X0350394
X0354331
X0358268
X0362205
X0364174Y0098425
X0360237
X03563
X0352363
X0348426
X0344489
X0340551
X0336614
X0332678
X0319882Y0087598
X0318898Y007874
X0322835
X0326772
X0314961
X0311024
X0295276
X0286221Y007874
X0284646Y0077559
X0282677Y0078347
X0281496Y0076378
X0283465Y007559
X0285827
X0287402Y0076772
X0284252Y0080315
X0280315Y0082677
X0278215Y008084
X0273474Y0089985
X0271287Y0088626
X0269499Y0086773
X0266929Y0086614
X0264567Y0086221
X0262205
X0259552Y0086839
X0256979Y0086938
X0254714Y0088161
X0252139
X0249564
X0246989
X0244414
X024184Y0088177
X0239289Y0088528
X0240158Y0086614
X0236221
X0236857Y0089373
X0234667Y0090728
X023189Y0090158
X0229921Y0091339
X0232284Y0086614
X0234252Y0082677
X0238189
X0242126
X0246063
X0244095Y007874
X0248032
X0251969
X0248032Y0070866
X0242126Y0074803
X0238189
X0234252
X0230315
X0228347Y007874
X0232284
X0236221
X0240158
X0236221Y0070866
X0232284
X0228347
X0230315Y0082677
X0230204Y0099166
X0227676Y0098676
X0232464Y0097932
X0234373Y0097152
X0236359Y0095513
X0238181Y0093693
X0240574Y0092743
X0243144Y0092599
X0245719
X0248294
X0250869
X0253444
X025596Y0093146
X0258379Y0094027
X0260954
X0259449Y0096457
X0257087Y0098819
X0255608Y0100529
X0253937Y0098425
X025
X0246063
X0242126
X0238189
X0244095Y0094488
X0251969
X0267567Y0098357
X0270019Y0097573
X0272594
X0271654Y0102362
X0267717
X0264567Y0102756
X0265946Y0100357
X0265748Y0106299
X0269685
X0273622
X0262205Y0104331
X0260607Y0105697
X0283465Y0102362
X0289862Y0108563
X0293004Y0109433
X0291339Y0047244
X0295276
X0299213
X030315
X0307087
X0311024
X0314961
X0318898
X0322835
X0326772
X0330709
X0334646
X0338583
X034252
X0340551Y0043307
X0336614
X0332678
X0328741
X0324803
X0320866
X031693
X0312993
X0309055
X0305118
X0301181
X0297244
X0293307
X028937
X0285433
X0281496
X0277559
X0273622
X0269685
X0265748
X0261811
X0257874
X0253937
X025
X0248032Y0047244
X0251969
X0255906
X0259843
X026378
X0267717
X0271654
X0275591
X0279528
X0283465
X0287402
Y003937
X0291339
X0295276
X0299213
X030315
X0307087
X0311024
X0314961
X0318898
X0322835
X0326772
X0330709
X0334646
X0338583
X0336614Y0035433
X0332678
X0328741
X0324803
X0320866
X031693
X0312993
X0309055
X0305118
X0301181
X0297244
X0293307
X028937
X0285433
X0281496
X0277559
X0273622
X0269685
X0265748
X0261811
X0257874
X0253937
X025
X0248032Y003937
X0251969
X0255906
X0259843
X026378
X0267717
X0271654
X0275591
X0279528
X0283465
Y0031496
X0287402
X0291339
X0295276
X0299213
X030315
X0307087
X0311024
X0314961
X0318898
X0322835
X0326772
X0330709
X0334646
X0338583
X0336614Y0027559
X0332678
X0328741
X0324803
X0320866
X031693
X0312993
X0309055
X0305118
X0301181
X0297244
X0293307
X028937
X0285433
X0281496
X0277559
X0273622
X0269685
X0265748
X0261811
X0257874
X0253937
X025
X0248032Y0031496
X0251969
X0255906
X0259843
X026378
X0267717
X0271654
X0275591
X0279528
Y0023622
X0283465
X0287402
X0291339
X0295276
X0299213
X030315
X0307087
X0311024
X0314961
X0318898
X0322835
X0326772
X0330709
X0334646
X0338583
X0340551Y0019685
X0344489
X034252Y0015748
X0346457
X0350394
X0354331
X0358268
X0362205
X0338583
X0334646
X0330709
X0326772
X0322835
X0318898
X0314961
X0311024
X0307087
X030315
X0299213
X0295276
X0291339
X0287402
X0283465
X0279528
X0275591
X0271654
X0267717
X026378
X0259843
X0255906
X0251969
X0248032
X0244095
X025Y0019685
X0253937
X0257874
X0261811
X0265748
X0269685
X0273622
X0277559
X0281496
X0285433
X028937
X0293307
X0297244
X0301181
X0305118
X0309055
X0312993
X031693
X0320866
X0324803
X0328741
X0332678
X0336614
X0275591Y0023622
X0271654
X0267717
X026378
X0259843
X0255906
X0251969
X0248032
X0236221
X0232284
X0228347
X022441
X0220473
X0216536
X0218504Y0027559
X0222441
X0226378
X0230315
X0234252
X0238189
X0236221Y0031496
X0232284
X0228347
X022441
X0220473
X0216536
X0218504Y0035433
X0222441
X0226378
X0230315
X0234252
X0238189
X0236221Y003937
X0232284
X0228347
X022441
X0220473
X0216536
X0218504Y0043307
X0222441
X0226378
X0230315
X0234252
X0238189
X0236221Y0047244
X0232284
X0228347
X022441
X0220473
X0216536
X0218504Y0051181
X0222441
X0226378
X0230315
X0234252
X0238189
X0236221Y0055118
X0232284
X0228347
X022441
X0220473
X0216536
X0214567Y0051181
Y0043307
Y0035433
Y0027559
Y0019685
X0218504
X0222441
X0226378
X0230315
X0234252
X0232284Y0015748
X0228347
X022441
X0220473
X0216536
X0261811Y0059055
X0273622
X0271654Y0055118
X0275591
X0234252Y0129921
X0230315
X0226378
X0222441
X0218504
X0214567
X0216536Y0133858
X0220473
X022441
X0228347
Y0141732
X022441
X0220473
X0216536
X0222441Y0145669
X022559Y0145669
X0227999Y0145717
X0230388Y0144755
X0232208Y0142934
X0234556Y0141878
X0239429Y0144145
X0238363Y0146488
X0236785Y0148523
X023488Y0150256
X023232Y0149987
X0229921Y0151575
X0227165
X0226378Y0153543
X0222441
X0218504
X0214567
X0216536Y015748
X0220473
X022441
X0228347
X0232284
X0236221
X0240158
X0244095
X0248032
X0251969
X0255906
X0259843
X026378
X0267717
X0271654
X0275591
X0279528
X0283465
X0287402
X028937Y0161417
X0285433
X0281496
X0277559
X0273622
X0269685
X0265748
X0261811
X0257874
X0253937
X025
X0246063
X0242126
X0238189
X0234252
X0230315
X0226378
X0222441
X0218504
X0214567
X0216536Y0165354
X0220473
X022441
X0228347
X0232284
X0236221
X0240158
X0244095
X0248032
X0251969
X0255906
X0259843
X026378
X0267717
X0271654
X0275591
X0279528
X0283465
X0287402
X0285433Y0169291
X0281496
X0277559
X0273622
X0269685
X0265748
X0261811
X0257874
X0253937
X025
X0246063
X0242126
X0238189
X0234252
X0230315
X0226378
X0222441
X0218504
X0214567
Y0185039
X0218504
X0222441
X0226378
X0230315
X0228347Y0188976
X0232284
X0234252Y0192913
X0238189
X0236221Y0196851
X0232284
X0228347
X022441
X0220473
X0216536
X0218504Y0200787
X0222441
X0226378
X0230315
X0234252
X0238189
X0236221Y0204725
X0232284
X0228347
X022441
X0220473
X0216536
X0218504Y0208662
X0222441
X0226378
X0230315
X0234252
X0238189
X0236221Y0212598
X0232284
X0228347
X022441
X0220473
X0216536
X0218504Y0216535
X0222441
X0226378
X0230315
X0234252
X0238189
X0236221Y0220473
X0232284
X0228347
X022441
X0220473
X0216536
X0218504Y022441
X0222441
X0226378
X0230315
X0234252
X0238189
X0236221Y0228346
X0232284
X0228347
X022441
X0220473
X0216536
X0218504Y0232284
X0222441
X0226378
X0230315
X0234252
X0238189
X0236221Y0236221
X0232284
X0228347
X022441
X0220473
X0216564Y0237048
X0214743Y0235227
X021435Y0241109
X021617Y024293
X0217991Y0244751
X0219736Y0246644
X022086Y0248961
X0221206Y0251512
Y0254087
Y0256662
X0218504Y0255906
X0214567
X0216536Y0259843
X0215354Y0262598
X0215735Y0265498
X021831
X0218504Y0263386
X0219831Y0261416
X0219835Y0258841
X0227019Y0259194
Y0261769
X0227989Y0263506
X0228036Y0265498
X0229921Y0262598
X023189Y0261417
X0234643Y0262017
X0236838Y0260672
X0239272Y0259832
X0241824Y0259487
X0244398Y0259474
X0246973
X0249548
X0252123
X0254698
X0256939Y0258206
X0259511Y0258098
X0266268
X0265748Y0255906
X0268838Y0258257
X0270625Y026011
X0272812Y0261469
X0272594Y0268832
X027002
X0269685Y0271654
X0265946Y0271617
X0267567Y0269617
X0267717Y0275591
X0271654
X0273622Y0279528
X0269685
X0265748
X0261811
X0260607Y0276956
X0262205Y027559
X0264567Y0274016
X026378Y0283465
X0259843
X0255906
X0253877Y0284019
X0253794Y0286593
Y0289167
Y0291742
X0255906Y0291339
X0259843
X026378
X0265748Y0295276
X0261811
X0257874
X0253794Y0294317
X0249356Y0293262
Y0290687
Y0288112
Y0285537
X0249539Y0282969
X0250266Y0280499
X0251464Y027822
X0253106Y0276237
X0254056Y0273844
X0255608Y0271789
X0257087Y0270079
X0255906Y0267717
X0255987Y0264447
X0253469Y0263911
X0250894
X0248319
X0245744
X024317
X0240598Y026404
X0238197Y0264969
X023636Y0266773
X0234374Y0268412
X0232464Y0269192
X0230204Y0270426
X0227677Y0269935
X0225467Y0271257
X0222893Y0271311
X0220373Y0270782
X0217816Y0270474
X0215624Y0271824
X0214817Y0274269
Y0276844
Y0279419
Y0281993
Y0284568
X0214752Y0287142
X0214302Y0289677
X0216536Y0291339
X0220473
X022441
X0228347
X0232284
X0236221
X0240158
X0244095
X0246063Y0295276
X0249282Y0295835
X0242126Y0295276
X0238189
X0234252
X0230315
X0226378
X0222441
X0218504
X0214567
X0218504Y0287402
X0222441
X0226378
X0230315
X0234252
X0238189
X0242126
X0246063
X0244095Y0283465
X0240158
X0236221
X0232284
X0228347
X022441
X0220473
X0222441Y0279528
X0226378
X0230315
X0234252
X0238189
X0242126
X0246063
X0244095Y0275591
X0248032
X025Y0271654
X0246063
X0242126
X0238189
X0234252
X0232284Y0275591
X0236221
X0240158
Y0267717
X0244095
X0248032
X0251969
X0259449Y0267717
X0258421Y0265287
X0260996
X0258509Y027845
X0256146Y0279472
X0254639Y028156
X0257874Y0287402
X0261811
X0265748
X0273622Y0295276
X0283465Y0291339
X0291339
X0295276
X0299213
X030315
X0307087
X0311024
X0314961
X0318898
X0322835
X0326772
X0330709
X0334646
X0338583
X034252
X0346457
X0350394
X0354331
X0358268
X0362205
X0364174Y0295276
X0360237
X03563
X0352363
X0348426
X0344489
X0340551
X0336614
X0332678
X0328741
X0324803
X0320866
X031693
X0312993
X0309055
X0305118
X0301181
X0297244
Y0287402
X0301181
X0305118
X0309055
X0312993
X031693
X0320866
X0324803
X0328741
X0332678
X0336614
X0340551
X0344489
X0348426
X0352363
X03563
X0360237
X0364174
X0362205Y0283465
X0358268
X0354331
X0350394
X0346457
X034252
X0338583
X0334646
X0330709
X0326772
X0322835
X0318898
X0314961
X0311024
X0306693Y0281496
X0303937
X0301575
X0299213Y0280709
X0299213Y0283465
X030315
X0307874Y027874
Y0276378
Y0274016
X0306299Y0272441
Y0270472
Y0268504
X0306693Y0266437
Y0264567
X0306299Y0261811
X0307087Y0259843
X0311024
X0314961
X0318898
X0322835
X0326772
X0330709
X0334646
X0338583
X034252
X0346457
X0350394
X0354331
X0358268
X0362205
X0364174Y026378
X0360237
X03563
X0352363
X0348426
X0344489
X0340551
X0336614
X0332678
X0328741
X0324803
X0320866
X031693
X0312993
X0309055
X0311024Y0267717
X0314961
X0318898
X0322835
X0326772
X0330709
X0334646
X0338583
X034252
X0346457
X0350394
X0354331
X0358268
X0362205
X0364174Y0271654
X0360237
X03563
X0352363
X0348426
X0344489
X0340551
X0336614
X0332678
X0328741
X0324803
X0320866
X031693
X0312993
X0309055
X0301181Y0270669
Y0267717
X0298229
Y0270669
Y0273622
X0301181
X0291043Y0273819
X028937Y0270669
X0289567Y0267717
X0289764Y0261811
X0291Y026
X0292914Y0261122
X0293Y02585
X029626Y0261122
X0298Y02595
X02995Y0258
X0301Y02565
X03025Y0255
X0305118Y0255906
X0309055
X0312993
X031693
X0320866
X0324803
X0328741
X0332678
X0336614
X0340551
X0344489
X0348426
X0352363
X03563
X0360237
X0364174
X0362205Y0251969
X0358268
X0354331
X0350394
X0346457
X034252
X0338583
X0334646
X0330709
X0326772
X0322835
X0318898
X0314961
X0311024
X0312993Y0248032
X031693
X0320866
X0324803
X0328741
X0332678
X0336614
X0340551
X0344489
X0348426
X0352363
X03563
X0360237
X0364174
X0362205Y0244095
X0358268
X0354331
X0350394
X0346457
X034252
X0338583
X0334646
X0330709
X0326772
X0322835
X0318898
X0314961
X0311024
X0310305Y0241835
X0311439Y0239524
X0313616Y0238149
X0314224Y0235647
X03145Y0233268
X031693Y0232284
X0320866
X0324803
X0328741
X0332678
X0336614
X0340551
X0344489
X0348426
X0352363
X03563
X0360237
X0364174
X0362205Y0236221
X0358268
X0354331
X0350394
X0346457
X034252
X0338583
X0334646
X0330709
X0326772
X0322835
X0318898
X0320866Y0240158
X0324803
X0328741
X0332678
X0336614
X0340551
X0344489
X0348426
X0352363
X03563
X0360237
X0364174
X0362205Y0228346
X0358268
X0354331
X0350394
X0346457
X034252
X0338583
X0334646
X0330709
X0326772
X0322835
X0318898
X0314224Y0229092
Y0226517
X0312849Y0224341
Y0221766
Y0219191
Y0216616
Y0214041
Y0211467
Y0208892
Y0206317
Y0203742
Y0201167
Y0198592
Y0196018
X0312915Y0193444
X0313612Y0190965
X0315069Y0188842
X0316897Y0187029
X0318869Y0185374
X0321254Y0184403
X0323823Y0184227
X0326398
X0326821Y0179789
X0324247
X0321673Y017988
X0319153Y0180407
X0316804Y0181462
X0314725Y018298
X0312877Y0184773
X0311125Y018666
X0309723Y018882
X0307087Y0188976
X030315
X0299213
X0295276
X0291339
X0287402
X0283465
X0279528
X0275591
X0271654
X0267717
X026378
X0259843
X0255906
X0251969
X0248032
X025Y0192913
X0253937
X0257874
X0261811
X0265748
X0269685
X0273622
X0277559
X0281496
X0285433
X028937
X0293307
X0297244
X0301181
X0305118
X0308445Y0193781
X0308411Y0196355
Y019893
Y0201505
Y020408
Y0206654
Y0209229
Y0211804
Y0214379
Y0216953
Y0219528
Y0222103
X0307952Y0224637
X0305118Y022441
X0301181
X0297244
X0293307
X028937
X0285433
X0281496
X0277559
X0273622
X0269685
X0265748
X026378Y0228346
X0271654
X0275591
X0279528
X0283465
X0287402
X0291339
X0295276
X0299213
X030315
X0307036Y0229618
Y0227043
X0305118Y0232284
X0301181
X0297244
X0293307
X028937
X0285433
X0281496
X0283465Y0236221
X0283071Y0238976
X0285433Y0238583
X0287795
X0287402Y0236221
X0291339
X0295276
X0299213
X030315
X0306402Y0237521
X0307036Y0235026
X030464Y0239398
X03025Y0241
X0301Y0242
X0299Y02435
X02975Y0245
X0296Y02465
X02945Y0248
X029252Y0248031
Y025
X0290693Y0252035
X0289268Y0253444
X0287795Y0255118
X0287008Y0257087
X0286221Y025
X0284646Y0248819
X0282677Y0249606
X0281496Y0247638
X0283465Y024685
X0285827
X0287402Y0248031
X0284252Y0251575
X0278216Y02521
X028001Y0253948
X0276772Y0249606
Y0247047
Y0244882
X0277559Y0242913
X0275Y02425
X0273622Y0240158
X0273622Y0237008
X0277166
X0277Y02395
X0279134Y0241338
X0281102Y0240157
X028Y02375
X0269685Y0237008
X0269685Y0240158
X0269685Y0242913
X0271654Y0244095
X0273622Y02455
X0267717Y0251969
X0248032
X0244095
X0240158
X0236221
X0232284
X0228347
X0225644Y0251868
Y0254443
Y0257018
X0230315Y0255906
X0234252
X0238189
X0242126
X0246063
X0242126Y0248032
X0238189
X0234252
X0230315
X0228347Y0244095
X0232284
X0236221
X0240158
X0238189Y0240158
X0234252
X0230315
X0226378
X0222441
X0220205Y0240689
X0222026Y024251
X0223634Y024452
X0224805Y0246813
X0225478Y0249299
X0216536Y0251969
X0214567Y0248032
X0218384Y0238868
X0214567Y022441
Y0216535
Y0208662
Y0200787
Y0192913
X0218504
X0222441
X0226378
X0230315
X022441Y0188976
X0220473
X0216536
X0242126Y0185039
X0246063
X025
X0253937
X0257874
X0261811
X0265748
X0269685
X0273622
X0277559
X0281496
X0285433
X028937
X0293307
X0297244
X0301181
X0305118
X0309055
X0307087Y0181102
X0311024
X0312993Y0177165
X031693
X0320866
X0324803
X0324699Y017324
X0326927Y0174531
X0329262Y0175615
X0331789Y0176112
X0331848Y0178686
X0329315Y0179148
X0334378Y0179164
X0334363Y0176053
X0336422Y0177598
X0337383Y0172821
X0339522Y0174254
X0342016Y0174894
X0344584Y0174702
X0346034Y0172575
X034823Y0171231
X0350777Y0170851
X0352363Y0169291
X0353262Y0171523
X0355263Y0173144
X0358268Y0173228
X0362205
X0364174Y0177165
X0360237
X0356651Y0177985
X0356474Y0175416
X0355818Y0180421
X0358268Y0181102
X0362205
X0354062Y0182305
X0351712Y0183357
X0349138Y0183365
X0346775Y0182343
X0344998Y0180479
X0342645Y0179433
X0340234Y0180337
X0336041Y0183295
X0336614Y0192913
X0332678
X0328741
X0324803
X0320866
X031693
X0314961Y0196851
X0318898
X0322835
X0326772
X0330709
X0334646
X0338583
X034252
X0346457
X0350394
X0354331
X0358268
X0362205
X0364174Y0200787
X0360237
X03563
X0352363
X0348426
X0344489
X0340551
X0336614
X0332678
X0328741
X0324803
X0320866
X031693
X0314961Y0204725
X0318898
X0322835
X0326772
X0330709
X0334646
X0338583
X034252
X0346457
X0350394
X0354331
X0358268
X0362205
X0364174Y0208662
X0360237
X03563
X0352363
X0348426
X0344489
X0340551
X0336614
X0332678
X0328741
X0324803
X0320866
X031693
X0314961Y0212598
X0318898
X0322835
X0326772
X0330709
X0334646
X0338583
X034252
X0346457
X0350394
X0354331
X0358268
X0362205
X0364174Y0216535
X0360237
X03563
X0352363
X0348426
X0344489
X0340551
X0336614
X0332678
X0328741
X0324803
X0320866
X031693
X0314961Y0220473
X0318898
X0322835
X0326772
X0330709
X0334646
X0338583
X034252
X0346457
X0350394
X0354331
X0358268
X0362205
X0364174Y022441
X0360237
X03563
X0352363
X0348426
X0344489
X0340551
X0336614
X0332678
X0328741
X0324803
X0320866
X031693
Y0240158
X0308389Y0243555
X0307087Y02455
X0306Y0247
X0304398Y0248986
X0303Y02505
X0309055Y0248032
X0295276Y0244095
X0292126Y0245669
X0290945Y0243701
X0290551Y0241338
X0289764Y023937
X0293307Y0240158
X0297244
X0295276Y0220473
X0299213
X030315
X0305118Y0216535
X0301181
X0297244
X0293307
X028937
X0285433
X0281496
X0277559
X0273622
X0269685
X0265748
X0261811
X0257874
X0253937
X025
X0248032Y0220473
X0251969
X0255906
X0259843
X026378
X0267717
X0271654
X0275591
X0279528
X0283465
X0287402
X0291339
Y0212598
X0295276
X0299213
X030315
X0305118Y0208662
X0301181
X0297244
X0293307
X028937
X0285433
X0281496
X0277559
X0273622
X0269685
X0265748
X0261811
X0257874
X0253937
X025
X0248032Y0212598
X0251969
X0255906
X0259843
X026378
X0267717
X0271654
X0275591
X0279528
X0283465
X0287402
Y0204725
X0291339
X0295276
X0299213
X030315
X0305118Y0200787
X0301181
X0297244
X0293307
X028937
X0285433
X0281496
X0277559
X0273622
X0269685
X0265748
X0261811
X0257874
X0253937
X025
X0248032Y0204725
X0251969
X0255906
X0259843
X026378
X0267717
X0271654
X0275591
X0279528
X0283465
Y0196851
X0287402
X0291339
X0295276
X0299213
X030315
X0308831Y0191235
X0318898Y0188976
X0322835
X0326772
X0346457
X0350394
X0354331
X03563Y0192913
X0352363
X0348426
X0344489
X0364174
Y0161417
X0362205Y015748
X0358268
X0354331
X0350394
X0346457
X034252
X0338583
X0334646
X0330709
X0326038Y0158213
Y0155638
Y0153063
Y0150488
Y0147913
Y0145339
Y0142764
X03216Y0143224
Y0145799
Y0148373
Y0150948
Y0153523
Y0156098
Y0158673
Y0161248
Y0163822
Y0166397
X0321969Y0168945
X0323001Y0171304
X0318898Y0173228
X0314961
X0311024
X0307087
X030315
X0305118Y0177165
X0309055
Y0169291
X0312993
X031693
X0314961Y0165354
X0318898
X031693Y0161417
X0312993
X0309055
X0305118
X0301181
X030315Y0165354
X0307087
X0311024
Y015748
X0314961
X0318898
X031693Y0153543
X0312993
X0309055
X0305118
X0301181
X030315Y015748
X0307087
Y0149606
X0311024
X0314961
X0318898
X031693Y0145669
X0312993
X0309055
X0305118
X0301181
X0297638Y0144882
Y0142913
Y0140945
X0295276
X030315Y0141732
X0307087
X0311024
X0314961
X0318898
X03216Y0140649
X0330709Y0141732
X0334646
X0338583
X034252
X0346457
X0350394
X0354331
X0358268
X0362205
X0364174Y0145669
X0360237
X03563
X0352363
X0348426
X0344489
X0340551
X0336614
X0332678
X0328741
X0330709Y0149606
X0334646
X0338583
X034252
X0346457
X0350394
X0354331
X0358268
X0362205
X0364174Y0153543
X0360237
X03563
X0352363
X0348426
X0344489
X0340551
X0336614
X0332678
X0328741
Y0161417
X0326038Y0160787
Y0163362
Y0165937
X0326506Y0168469
X0328306Y017031
X0330709Y0165354
X0332678Y0161417
X0336614
X0344489
X0348426
X0352363
X03563
X0354331Y0165354
X0350394
X0346457
X03353Y0171307
X0305118Y0169291
X0301181
Y0177165
X0299213Y0181102
X030315
X0295276
X0291339
X0287402
X0283465
X0279528
X0275591
X0271654
X0267717
X026378
X0259843
X0255906
X0251969
X0248032
X0244095
X0240158
X0248032Y0196851
X0251969
X0255906
X0259843
X026378
X0267717
X0271654
X0275591
X0279528
X0281496Y0153543
X0285433
X028937
X0287402Y0149606
X0283465
X0282677Y0147244
X0283575Y0144628
X0279528Y0141732
X0273622Y014252
Y0144882
Y0147244
X027559Y0148425
X0277953
X0280315
X0277559Y0153543
X0273622
X0269685
X0265748
X0261811
X0257874
X0253937
X025
X0246063
X0242126
X0244095Y0149606
X0248032
X0251969
X0255906
X0259843
X026378
X0267717
X0271654
X0265748Y0145669
X0261811
X0257874
X0253937
X025
X0246063
X0242126
X0244095Y0141732
X0248032
X0251969
X0255906
X0259843
X026378
X0234252Y0153543
X030315Y0149606
X030315Y0261811
X0299606
X0296276Y0280693
X0293004
X0289862Y0279823
X028937Y0287402
X0293307
X0283465Y0275591
X0273622Y0271654
X0314961Y0275591
X0318898
X0322835
X0326772
X0330709
X0334646
X0338583
X034252
X0346457
X0350394
X0354331
X0358268
X0362205
X0364174Y0279528
X0360237
X03563
X0352363
X0348426
X0344489
X0340551
X0336614
X0332678
X0328741
X0324803
X0320866
X031693
X0228347Y0275591
X022441
X0220473
X0216536
X0218504Y0279528
X0241142Y0238189
X0244095Y0236221
X0248032
X0251969
Y0244095
X0248032
X0246063Y0240158
Y0232284
X0248032Y0228346
X025Y022441
X021063
X0208662Y0220473
X0212599
X021063Y0216535
X0206693
X0204725Y0220473
X0200178Y0220662
X0201998Y0222482
X0203819Y0224303
X020564Y0226124
X020746Y0227944
X0209281Y0229765
X0211102Y0231586
X0212922Y0233406
X0212599Y0228346
X0208888Y0235648
X0210708Y0237468
X021063Y0240158
X0212529Y0239289
X0212599Y0244095
X0208662
X0204725
X0200788
X0196851
X0192914
X0188977
X018504
X0181103
X0177166
X0179134Y0240158
X0183071
X0187008
X0190945
X0194882
X0198819
X0202756
X0206693
X0204725Y0236221
X0200788
X0196851
X0192914
X0188977
X018504
X0181103
X0177166
X0179134Y0232284
X0183071
X0187008
X0190945
X0194882
X0198819
X0202756
X0205246Y0232006
X0207067Y0233827
X0203426Y0230186
X0201605Y0228365
X0199785Y0226544
X0197964Y0224724
X0195827Y0223288
X0193494Y0222198
X0191673Y0220378
X0188977Y0220473
X018504
X0187008Y022441
X0190945
X0188977Y0228346
X0192914
X0196851
X018504
X0181103
X0178Y0227
X0183071Y022441
Y0216535
X0187008
X018504Y0212598
X0184Y02105
X01825Y0209
X0183Y0206
X0181
Y02005
X01835
X0187008Y0200787
X0190945
X0194882
X0198819
X0202756
X0206693
X021063
X0208662Y0204725
X0212599
X021063Y0208662
X0206693
X0202756
X0198819
X0196851Y0204725
X0200788
X0204725
Y0212598
X0208662
X0212599
Y0196851
X0208662
X0204725
X0200788
X0196851
X0192914
X0188977
X018504
X0187008Y0192913
X0190945
X0194882
X0198819
X0202756
X0206693
X021063
X0208662Y0188976
X0212599
X021063Y0185039
X0206693
X0202756
X0198819
X0194882
X0190945
X0187008
X0183071
X018504Y0188976
X0188977
X0192914
X0196851
X0200788
X0204725
X0206693Y0169291
X021063
X0208662Y0165354
X0212599
X021063Y0161417
X0206693
X0202756
X0200788Y0165354
X0204725
X0202756Y0169291
X01985Y016974
X01955
X0193
X0189961Y017024
X0187
X01835Y016974
X0185Y016524
X0181103Y0165354
X01805Y016174
X0180284Y0156548
X0185Y015624
Y015424
Y0158465
X0174021Y0158806
X0165779Y0165998
X0159042Y0165955
X0159449Y0154331
Y0151969
X0161811Y015315
X0159502Y0145616
X0194882Y0145669
X0198819
X0200788Y0141732
X0204725
X0208662
X0212599
X021063Y0153543
X0208662Y015748
X0212599
X02Y015424
X01975
X0194
X01945Y014124
X0192914Y0204725
X01915Y0207
X01875Y0211
X0179134Y0212992
X0177165
X017323Y0213144
X0166535Y0215354
Y0217717
Y0220079
Y0222441
X0163977Y0223007
X0158Y0223
X0149575Y02289
X0143701Y0231299
Y0233268
Y0235236
X0140748Y0229331
X013878
X0136811
Y0223425
X013878
X0140748
Y0225394
Y0227362
Y0215551
X013878
X0136811
X0128937Y021752
Y0219488
Y0221457
X0123032Y0233268
X0123622Y0245669
X0125984
X0128347
X0130709
X0128347Y0248425
X0118504
Y0245669
X012126
Y0254724
X0118504
X0121795Y0256946
X0113705Y0258433
X0111205
X0103931Y0258032
X009941Y0260827
X0092739Y0258776
X0090726
X0087205Y0260827
X0081693Y0261811
Y0264764
Y0267717
X0082277Y0273386
X0081693Y0276181
X0081791Y0284558
X008189Y0287008
X0079134Y028482
X0076378Y0284646
X0084291Y0292231
X0086Y0295
X0106894Y0295275
X011063Y0294882
X0120079Y0290354
X0122047Y0285433
X0120366Y0281554
Y027838
Y0275379
X0119193Y0273425
X0123032Y0276379
Y0280067
X0131103Y0277953
X013189Y0286417
X0129134Y0294488
X0136221Y0296457
X0139764Y0281496
Y0274606
X0139764Y0253882
X0159449Y0261811
Y026811
Y0270472
X0161811Y0269291
X0159042Y0282096
X0165779Y028214
X0173968Y0275
X0181103Y0275591
X018504
X0188977
X0192914
X0196851
X0200788
X0204725
X0204866Y0270022
X0207439Y0269935
X0210014
X0210437Y0272475
X021038Y0275049
Y0277624
Y0280199
Y0282774
Y0285349
X0210192Y0287916
X0209215Y0290299
X0207551Y0292264
X0205731Y0294084
X020391Y0295905
X0204725Y0291339
X0200788
X0196851
X0192914
X0188977
X018504
X0187008Y0295276
X0190945
X0194882
Y0287402
X0198819
X0202756
X0206693
X0204725Y0283465
X0200788
X0196851
X0192914
X0188977
X018504
X0187008Y0287402
X0190945
Y0279528
X0194882
X0198819
X0202756
X0206693
X0202637Y0271311
X0200062
X01975Y02715
X0194882Y0271654
X0190945
X01905Y02695
X01875
X0187008Y0271654
X0183071
X01845Y02695
X0183Y0267
X01805
X0179134Y0271654
X0182284Y0280315
X0187008Y0279528
X0179134Y0287402
X0177166Y0291339
X0179134Y0295276
X0153543Y0290354
X0151575Y0292323
X0149606Y0288386
X0182347Y026138
X0184Y026
X01855Y02585
X01885
X0187008Y0255906
X0190945
X0194882
X0198819
X0202756
X0206693
X021063
X0208662Y0259843
X0207874Y0262598
X020801Y0265498
X0205436
X0203247Y0264142
X0200672Y0264122
X0210585Y0265498
X021316
X0212205Y0262598
X0212599Y0259843
Y0251969
X0208662
X0204725
X0200788
X0196851
X0192914
X0188977
X018504
X0187008Y0248032
X0190945
X0194882
X0198819
X0202756
X0206693
X021063
X0183071
X0177166Y0251969
X0159252Y0209318
Y020735
X0159449Y0199803
X0168307Y0191929
X0171266Y0192913
X0173229Y0189764
X0177166Y0188976
X0179134Y0192913
X0145866Y0191929
X0139764Y0198819
X0134843Y0195866
X012086Y0193937
X0116142Y0188189
X0103937Y0178346
X0097441Y0165354
X00972Y0158465
X0094553Y0141668
X0089053Y0143687
X0086273Y0145616
X0081102Y0148031
X0066982Y0142664
X0064029
X0061076
X0079725Y0180118
X0077756Y0182087
X0084252Y0186333
X0058071Y021063
Y0212598
X0062008Y0219488
X0061417Y0242913
X0059449
Y0244882
X0061417
Y024685
X0059449
Y0248819
X0061417
X0063386
Y024685
Y0244882
Y0242913
X0068898Y025689
X0065945Y0260827
X0072835
Y0267717
X0090661Y0240047
X0092629Y0238299
X0087402Y0235433
X0097244Y0242225
X011378Y0241732
X010689Y0250492
X0111024Y0212992
X0120132Y0149554
X0149606Y0172244
X0213313Y0292055
X0211836Y0294164
X0210061Y0296029
X0047495Y0296457
X0036614Y0286614
X0034449Y0281496
X0038583Y0276378
X0048425
X0047644Y0266299
X0050197Y0254921
X0044095Y0222835
X0044488Y0216929
X0054134Y0212598
X0056103
Y021063
X0054134
X0051181Y0193898
X0049606Y0191929
X0056103Y0184646
X0054134Y0182087
X0056103Y0302165
X0043307Y0300787
X0061811Y0304724
X0061024Y0313976
X0063977
X0066929
X0083071Y0311024
Y0309055
Y0307087
X0083252Y0304937
X007915
X0081Y0298921
X0089Y0297
X00945
X00972
X0102
X0099606Y0307087
Y0309055
Y0311024
X00945Y031298
X0089Y0315
X0086221Y0316929
X0081103Y0319291
X00972Y0329724
X0097441Y0336614
X0120079Y0320866
X0125197Y0300394
X0127165Y0298425
X0139764Y0309
X01555Y03115
X0158Y03095
X0161811Y0306299
X0160236Y0304331
X0157099Y0302743
X0159449Y0316929
Y0323228
Y032559
X0161811Y0324409
X0159042Y0337214
X0165779Y0337258
X0173968Y0330118
X0180284Y0327808
X0185Y03275
Y03255
X018504Y0322835
X0185Y0329724
Y03365
X018504Y0338583
X0181103
X01835Y0341
X0187Y03415
X0189961
X0193Y0341
X01955
X01985
X0200788Y0338583
X0204725
X0208662
X0212599
X021063Y0334646
X0206693
X0202756
X0200788Y0330709
X0204725
X0208662
X0212599
X021063Y0326772
X02Y03255
X01975
X0196851Y0322835
X0192914
X0194Y03255
X0192914Y0314961
X0196851
X01965Y03115
X0198819Y0311024
X01995Y0309
X0202756Y0311024
X0206693
X021063
X0208662Y0314961
X0212599
Y0307087
X0208662
X0204725
X0203938Y0304098
X0205559Y0302097
X020642Y0299671
X0208241Y029785
X0212599Y0299213
X021063Y030315
X0202022Y0305818
X0201812Y0297397
X01915Y0298
X0188977Y0299213
X01885Y03015
X0187008Y030315
X0186Y03055
X0184
Y0308
X01855Y03095
X0183963Y0311397
X0182284Y0310236
X0180315Y0306693
X0179134Y030315
X0184Y03025
X018504Y0299213
X0177166
X0174016Y0302743
X0172318Y0304331
X0188977Y0314961
X01945Y03125
X0200788Y0314961
X0204725
X0183071Y0334646
X01805Y0333
X0149606Y0343504
X0216536Y0338583
X0220473
X022441
X0228347
X0232284
X0236221
X0240158
X0244095
X0248032
X0251969
X0255906
X0259843
X026378
X0267717
X0271654
X0275591
X0279528
X0283465
X0287402
X028937Y0334646
X0285433
X0281496
X0277559
X0273622
X0269685
X0265748
X0261811
X0257874
X0253937
X025
X0246063
X0242126
X0238189
X0234252
X0230315
X0226378
X0222441
X0218504
X0214567
X0216536Y0330709
X0220473
X022441
X0228347
X0232284
X0236221
X0240158
X0244095
X0248032
X0251969
X0255906
X0259843
X026378
X0267717
X0271654
X0275591
X0279528
X0283465
X0287402
X028937Y0326772
X0285433
X0281496
X0277559
X0273622
X0269685
X0265748
X0261811
X0257874
X0253937
X025
X0246063
X0242126
X0238189
X0234252
X0230315
X0226378
X0222441
X0218504
X0214567
X022441Y0322835
X0227166Y0322835
X0229921
X023232Y0321247
X023488Y0321516
X0236785Y0319783
X0238363Y0317748
X0239429Y0315405
X0244095Y0314961
X0248032
X0251969
X0255906
X0259843
X026378
X0265748Y0318898
X0261811
X0257874
X0253937
X025
X0246063
X0242126
X0244095Y0322835
X0248032
X0251969
X0255906
X0259843
X026378
X0267717
X0271654
X0275591
X0279528
X0283465
X0287402
X0281496Y0318898
X0273622
Y0311024
X0269685
X0265748
X0261811
X0257874
X0253937
X025
X0246063
X0242876Y0310976
X024465Y030911
X0246471Y030729
X0248292Y0305469
X0250112Y0303648
X0251737Y0301651
X0252921Y0299364
X0255906Y0299213
X0259843
X026378
X0265748Y030315
X0261811
X0257874
X0253937
X0251969Y0307087
X0255906
X0259843
X026378
X0267717
X0271654
X0281496Y030315
X028937
X0293307
X0297244
X029685Y0305118
X0299213Y0307087
X030315
X0307087
X0311024
X0314961
X0318898
X0322835
X0326772
X0330709
X0334646
X0338583
X034252
X0346457
X0350394
X0352363Y030315
X03563
X0360237
X0364174
X0362205Y0299213
X0358268
X0354331
X0350394
X0346457
X034252
X0338583
X0334646
X0330709
X0326772
X0322835
X0318898
X0314961
X0311024
X0307087
X030315
X0299213
X0295276
X0291339
X0287402
X0290354Y0307874
Y0310236
X0295276Y0312205
X0297638
Y0314173
Y0316142
X0301181Y0318898
X0305118
X0309055
X0312993
X031693
X0320866
X0324803
X0328741
X0332678
X0336614
X0334646Y0322835
X0338583
X0336614Y0326772
X0332678
X0328741
X0324803
X0320866
X031693
X0312993
X0309055
X0305118
X0301181
X030315Y0330709
X0307087
X0311024
X0314961
X0318898
X0322835
X0326772
X0330709
X0334646
X0338583
X0340551Y0334646
X0336614
X0332678
X0328741
X0324803
X0320866
X031693
X0312993
X0309055
X0305118
X0301181
X030315Y0338583
X0307087
X0311024
X0314961
X0318898
X0322835
X0326772
X0330709
X0334646
X0338583
X034252
X0338583Y0314961
X0334646
X0330709
X0326772
X0322835
X0318898
X0314961
X0311024
X0307087
X030315
X0305118Y0311024
X0309055
X0312993
X031693
X0320866
X0324803
X0328741
X0332678
X0336614
X0340551
X0344489
Y030315
X0348426
X0340551
X0336614
X0332678
X0328741
X0324803
X0320866
X031693
X0312993
X0309055
X0305118
X0301181
Y0311024
X030315Y0322835
X0307087
X0311024
X0314961
X0318898
X0322835
X0326772
X0330709
X025362Y0296886
X0248558Y0298306
X0247074Y0300411
X0245253Y0302231
X0243433Y0304052
X0241612Y0305873
X0239719Y0307618
X0236221Y0307087
X0232284
X0228347
X022441
X0220473
X0216536
X0218504Y0311024
X0222441
X0226378
X0230315
X0234252
X0234557Y0313138
X0232208Y0314194
X0230388Y0316015
X0227999Y0316977
X0225591Y0316929
X022441Y0314961
X0220473
X0216536
X0214567Y0311024
Y030315
X0218504
X0222441
X0226378
X0230315
X0234252
X0238189
X0236221Y0299213
X0240158
X0244095
X0232284
X0228347
X022441
X0220473
X0216536
T02
X0166732Y0028019
X0169095
X0171457
X0173819
Y0030382
Y0032744
Y0035106
X0171457
X0169095
X0166732
Y0032744
Y0030382
X0169095
Y0032744
X0171457
Y0030382
X0170473Y0087205
X016811
X0165748
Y0089567
Y0091929
Y0094291
X016811
X0170473
X0172835
Y0091929
Y0089567
Y0087205
X0170473Y0089567
Y0091929
X016811
Y0089567
X0279134Y0090039
Y0092401
Y0094763
X0281496
X0283858
Y0092401
Y0090039
X0281496
X0281496Y0092401
X0281496Y0261299
X0279134
Y0263661
Y0266023
X0281496
X0283858
Y0263661
Y0261299
X0281496Y0263661
X0172835Y0263189
Y0260827
Y0258465
X0170473
X016811
X0165748
Y0260827
Y0263189
Y0265551
X016811
X0170473
X0172835
X0170473Y0263189
X016811
Y0260827
X0170473
X0171457Y020676
X0169095
X0166732
Y0204397
Y0202035
Y0199673
X0169095
X0171457
X0173819
Y0202035
Y0204397
Y020676
X0171457Y0204397
X0169095
Y0202035
X0171457
X0170473Y0149409
X016811
X0165748
Y0147047
Y0144685
Y0142323
X016811
X0170473
X0172835
Y0144685
Y0147047
Y0149409
X0170473Y0147047
X016811
Y0144685
X0170473
X0170473Y0313583
X016811
X0165748
Y0315945
Y0318307
Y0320669
X016811
X0170473
X0172835
Y0318307
Y0315945
Y0313583
X0170473Y0315945
Y0318307
X016811
Y0315945
T03
X0056102Y004626
Y0050197
X0091929Y009685
X0095079
X0098228
X0101378
X0104528
X0107677
X0110827
X0110827Y01
Y010315
X0107677
Y01
X0104528
Y010315
X0101378
Y01
X0098228
X0095079
Y010315
X0098228
Y0106299
X0095079
Y0109449
X0098228
X0098228Y0112598
X0095079
X0091929
X0091929Y0109449
Y0106299
Y010315
Y01
X0101378Y0106299
Y0109449
X0101378Y0112598
X0104528
X0107677
X0110827
X0110827Y0109449
X0107677
X0104528
Y0106299
X0107677
X0110827
X0110827Y0115748
X0107677
X0104528
X0101378
X0098228
X0095079
X0091929
X0091929Y026811
X0095079
X0098228
X0101378
X0104528
X0107677
X0110827
X0110827Y027126
Y0274409
X0107677
Y027126
X0104528
Y0274409
X0101378
Y027126
X0098229
X0095079
Y0274409
X0098229
Y0277559
X0095079
Y0280709
X0098229
X0098228Y0283858
X0095079
X0091929
X0091929Y0280709
Y0277559
Y0274409
Y027126
X0101378Y0277559
Y0280709
X0101378Y0283858
X0104528
X0107677
X0110827
X0110827Y0280709
X0107677
X0104528
Y0277559
X0107677
X0110827
X0110827Y0287008
X0107677
X0104528
X0101378
X0098228
X0095079
X0091929
X0056103Y0221457
Y021752
T04
X0020185Y0236405
Y0246406
Y0256405
Y0266406
Y0276406
Y0286405
Y0296406
Y0306405
T06
X0340394Y0167165
X0360394
Y0187165
X0340394
X0350394Y0177165
T07
X002Y002
X035752Y0035
X002Y0335
X035752Y0325
M30
