G04*
G04 #@! TF.GenerationSoftware,Altium Limited,Altium Designer,22.5.1 (42)*
G04*
G04 Layer_Color=16711935*
%FSLAX25Y25*%
%MOIN*%
G70*
G04*
G04 #@! TF.SameCoordinates,832724F5-B549-4049-99F2-7D55CE51EEB7*
G04*
G04*
G04 #@! TF.FilePolarity,Negative*
G04*
G01*
G75*
%ADD95C,0.09776*%
%ADD96C,0.25800*%
%ADD97C,0.07887*%
%ADD98R,0.07887X0.07887*%
%ADD99O,0.22060X0.07887*%
%ADD100O,0.07887X0.22060*%
%ADD101O,0.07887X0.25603*%
%ADD127C,0.01968*%
%ADD130C,0.02756*%
D95*
X360394Y167165D02*
D03*
Y187165D02*
D03*
X340394D02*
D03*
Y167165D02*
D03*
X350394Y177165D02*
D03*
D96*
X20000Y335000D02*
D03*
X357520Y35000D02*
D03*
Y325000D02*
D03*
X20000Y20000D02*
D03*
D97*
X20185Y296406D02*
D03*
Y286405D02*
D03*
Y276406D02*
D03*
Y266406D02*
D03*
Y256405D02*
D03*
Y246406D02*
D03*
Y236405D02*
D03*
D98*
Y306405D02*
D03*
D99*
X31496Y158661D02*
D03*
D100*
X19685Y177165D02*
D03*
D101*
X43307D02*
D03*
D127*
X290354Y138976D02*
D03*
Y136614D02*
D03*
X290354Y307874D02*
D03*
Y310236D02*
D03*
D130*
X56102Y46260D02*
D03*
Y50197D02*
D03*
X56103Y221457D02*
D03*
Y217520D02*
D03*
M02*
